<svg xmlns="http://www.w3.org/2000/svg" viewBox="204.1983642578125 280.8575744628906 615.6593627929688 462.1676330566406" version="1.1" width="32" height="38" style="">
<path fill="#ffffff" opacity="1.00" d=" M 0.00 0.00 L 1024.00 0.00 L 1024.00 1024.00 L 0.00 1024.00 L 0.00 0.00 M 491.89 283.39 C 446.78 291.95 401.60 300.12 356.51 308.78 C 322.98 314.77 289.59 321.52 256.08 327.58 C 254.59 327.87 253.14 328.31 251.72 328.83 C 337.51 355.32 423.43 381.44 509.33 407.59 C 504.90 410.87 502.10 415.81 500.56 421.01 C 485.49 416.44 470.52 411.47 455.33 407.33 C 452.90 413.18 452.01 419.69 451.22 425.98 C 449.73 442.01 450.29 458.28 453.36 474.10 C 454.28 479.13 456.13 483.93 458.57 488.42 C 474.12 493.05 489.55 498.07 505.11 502.67 C 510.55 504.55 516.48 505.06 522.10 503.61 C 583.73 490.22 645.32 476.66 706.93 463.17 C 731.54 457.61 756.28 452.65 780.85 446.94 C 786.20 446.24 791.01 440.70 788.59 435.28 C 786.71 430.31 780.92 429.54 776.41 428.57 C 770.45 406.96 771.54 384.01 776.53 362.34 L 776.96 362.01 C 780.22 361.16 783.71 360.47 786.40 358.30 C 789.87 355.40 789.65 349.58 786.54 346.49 C 783.63 343.30 779.02 343.08 775.11 342.01 C 699.29 324.05 623.43 306.32 547.54 288.69 C 538.20 286.43 528.88 284.11 519.46 282.24 C 510.30 280.49 500.94 281.59 491.89 283.39 M 225.17 372.99 C 225.45 384.98 224.32 397.49 228.87 408.89 C 231.40 415.60 237.03 421.08 243.94 423.14 C 256.43 427.15 269.07 430.68 281.57 434.66 C 278.66 425.70 277.45 416.31 276.77 406.94 C 275.79 389.24 277.09 371.23 282.60 354.29 C 266.28 349.47 250.07 344.31 233.75 339.49 C 225.91 348.69 225.39 361.49 225.17 372.99 M 292.23 388.02 C 291.91 397.98 291.94 407.99 293.43 417.86 C 294.56 425.51 295.94 433.35 299.75 440.18 C 346.67 454.27 393.45 468.80 440.35 482.94 C 435.09 465.84 434.49 447.70 435.58 429.96 C 436.06 420.72 437.60 411.53 440.37 402.69 C 417.55 395.29 394.47 388.73 371.59 381.51 C 346.91 374.17 322.36 366.39 297.66 359.12 C 294.00 368.29 292.66 378.21 292.23 388.02 M 236.52 448.53 C 239.30 451.98 244.14 452.11 247.70 454.32 C 252.86 471.83 254.08 491.00 248.32 508.54 C 244.47 510.81 238.93 510.30 236.21 514.33 C 233.57 518.43 236.47 523.62 240.39 525.61 C 245.66 528.12 251.33 529.63 256.88 531.36 C 340.43 557.58 423.84 584.23 507.36 610.54 C 513.10 612.29 519.31 612.26 525.10 610.73 C 536.56 608.04 548.04 605.38 559.38 602.20 C 563.27 595.61 564.93 587.91 566.26 580.42 C 569.45 560.34 569.60 539.48 564.28 519.75 C 563.24 516.72 562.41 513.26 559.98 511.06 C 551.25 512.97 542.53 514.95 533.79 516.83 C 525.71 518.55 517.42 520.95 509.10 519.46 C 504.31 518.47 499.63 517.03 494.94 515.67 C 429.02 495.33 362.98 475.40 297.02 455.19 C 277.17 449.50 257.63 442.76 237.71 437.33 C 234.26 439.94 233.74 445.25 236.52 448.53 M 785.10 461.55 C 773.76 464.19 762.38 466.66 751.00 469.09 C 753.25 475.93 755.00 482.93 755.90 490.09 C 758.62 511.80 757.97 534.13 752.28 555.32 C 763.01 552.66 773.81 550.20 784.51 547.37 C 791.72 545.56 797.85 539.95 800.15 532.86 C 804.16 521.72 803.75 509.68 804.10 498.03 C 803.34 484.13 804.16 468.64 795.19 456.99 C 792.09 459.03 788.73 460.71 785.10 461.55 M 707.46 478.71 C 683.67 484.23 659.72 488.99 635.89 494.34 C 616.17 499.10 596.20 502.75 576.47 507.46 C 580.63 516.83 582.09 527.09 583.12 537.21 C 584.65 557.50 583.75 578.20 578.02 597.83 C 613.40 589.27 648.77 580.70 684.11 571.96 C 700.63 567.89 717.32 564.24 733.67 559.63 C 736.42 554.89 738.05 549.60 739.15 544.26 C 741.01 534.62 741.85 524.81 742.12 515.01 C 741.71 500.73 740.88 486.03 735.11 472.74 C 725.89 474.69 716.66 476.63 707.46 478.71 M 213.07 556.21 C 206.06 565.98 205.31 578.40 204.83 590.00 C 204.66 601.65 204.29 613.44 206.56 624.93 C 208.73 635.14 215.03 645.27 225.23 648.95 C 238.56 653.64 252.09 657.74 265.40 662.48 C 261.52 650.06 260.61 636.95 260.47 624.01 C 260.37 610.31 260.97 596.50 263.97 583.10 C 266.31 571.98 272.62 561.82 281.80 555.06 C 268.10 551.36 254.80 546.18 241.09 542.60 C 230.70 543.81 219.33 547.19 213.07 556.21 M 786.01 562.92 C 704.02 582.87 622.09 603.03 540.07 622.87 C 529.34 625.41 518.16 629.65 507.08 626.55 C 496.76 623.40 486.53 619.93 476.21 616.75 C 468.64 620.45 460.43 624.88 456.80 632.95 C 452.47 643.03 451.44 654.12 450.61 664.95 C 450.14 676.61 450.17 688.34 451.67 699.93 C 452.80 708.65 454.44 717.48 458.49 725.37 C 472.14 729.72 485.67 734.41 499.29 738.83 C 507.87 741.63 517.07 743.66 526.08 741.82 C 534.61 740.07 543.05 737.86 551.50 735.71 C 637.06 714.46 722.57 693.03 808.05 671.46 C 811.97 670.09 817.41 669.45 818.99 664.93 C 820.42 661.00 817.46 656.90 813.90 655.41 C 807.09 652.49 799.91 650.55 792.94 648.05 C 786.38 633.35 786.48 616.49 789.36 600.91 C 790.68 595.38 791.71 589.58 794.33 584.52 C 799.51 582.78 804.96 581.94 810.09 580.00 C 812.99 579.00 815.97 577.20 816.95 574.11 C 818.35 570.62 815.89 566.78 812.60 565.52 C 806.83 563.27 800.79 561.80 794.93 559.84 C 792.05 561.12 789.07 562.18 786.01 562.92 M 284.64 573.53 C 280.17 580.12 278.65 588.14 277.54 595.89 C 275.28 611.82 275.36 628.02 277.17 644.00 C 278.13 652.29 279.75 660.67 283.71 668.11 C 335.78 685.63 388.18 702.15 440.28 719.61 C 436.43 707.45 435.31 694.64 434.82 681.96 C 434.71 668.97 435.33 655.91 437.75 643.12 C 439.09 636.58 440.72 629.96 444.13 624.15 C 447.27 618.76 451.77 614.32 456.68 610.53 C 404.73 594.18 352.81 577.70 300.91 561.17 C 294.75 564.12 288.80 568.02 284.64 573.53 Z" style="fill: none !important;"/>
<path fill="#000000" opacity="1.00" d=" M 491.89 283.39 C 500.94 281.59 510.30 280.49 519.46 282.24 C 528.88 284.11 538.20 286.43 547.54 288.69 C 623.43 306.32 699.29 324.05 775.11 342.01 C 779.02 343.08 783.63 343.30 786.54 346.49 C 789.65 349.58 789.87 355.40 786.40 358.30 C 783.71 360.47 780.22 361.16 776.96 362.01 L 776.53 362.34 C 771.54 384.01 770.45 406.96 776.41 428.57 C 780.92 429.54 786.71 430.31 788.59 435.28 C 791.01 440.70 786.20 446.24 780.85 446.94 C 756.28 452.65 731.54 457.61 706.93 463.17 C 645.32 476.66 583.73 490.22 522.10 503.61 C 516.48 505.06 510.55 504.55 505.11 502.67 C 489.55 498.07 474.12 493.05 458.57 488.42 C 456.13 483.93 454.28 479.13 453.36 474.10 C 450.29 458.28 449.73 442.01 451.22 425.98 C 452.01 419.69 452.90 413.18 455.33 407.33 C 470.52 411.47 485.49 416.44 500.56 421.01 C 502.10 415.81 504.90 410.87 509.33 407.59 C 423.43 381.44 337.51 355.32 251.72 328.83 C 253.14 328.31 254.59 327.87 256.08 327.58 C 289.59 321.52 322.98 314.77 356.51 308.78 C 401.60 300.12 446.78 291.95 491.89 283.39 M 528.12 414.50 C 524.01 415.54 519.11 415.60 516.17 419.11 C 511.71 424.29 510.48 431.34 509.68 437.92 C 508.84 449.82 508.68 462.01 511.71 473.63 C 512.81 477.04 513.76 480.98 516.86 483.16 C 519.53 485.20 523.07 484.20 526.08 483.68 C 584.65 470.73 643.32 458.30 701.86 445.24 C 721.81 440.87 741.81 436.73 761.71 432.09 C 755.79 410.41 756.02 387.32 760.70 365.43 C 683.17 381.76 605.66 398.19 528.12 414.50 Z" style="fill: rgb(0, 0, 0) !important;"/>
<path fill="#000000" opacity="1.00" d=" M 225.17 372.99 C 225.39 361.49 225.91 348.69 233.75 339.49 C 250.07 344.31 266.28 349.47 282.60 354.29 C 277.09 371.23 275.79 389.24 276.77 406.94 C 277.45 416.31 278.66 425.70 281.57 434.66 C 269.07 430.68 256.43 427.15 243.94 423.14 C 237.03 421.08 231.40 415.60 228.87 408.89 C 224.32 397.49 225.45 384.98 225.17 372.99 Z" style="fill: rgb(0, 0, 0) !important;"/>
<path fill="#000000" opacity="1.00" d=" M 292.23 388.02 C 292.66 378.21 294.00 368.29 297.66 359.12 C 322.36 366.39 346.91 374.17 371.59 381.51 C 394.47 388.73 417.55 395.29 440.37 402.69 C 437.60 411.53 436.06 420.72 435.58 429.96 C 434.49 447.70 435.09 465.84 440.35 482.94 C 393.45 468.80 346.67 454.27 299.75 440.18 C 295.94 433.35 294.56 425.51 293.43 417.86 C 291.94 407.99 291.91 397.98 292.23 388.02 Z" style="fill: rgb(0, 0, 0) !important;"/>
<path fill="#ffffff" opacity="1.00" d=" M 528.12 414.50 C 605.66 398.19 683.17 381.76 760.70 365.43 C 756.02 387.32 755.79 410.41 761.71 432.09 C 741.81 436.73 721.81 440.87 701.86 445.24 C 643.32 458.30 584.65 470.73 526.08 483.68 C 523.07 484.20 519.53 485.20 516.86 483.16 C 513.76 480.98 512.81 477.04 511.71 473.63 C 508.68 462.01 508.84 449.82 509.68 437.92 C 510.48 431.34 511.71 424.29 516.17 419.11 C 519.11 415.60 524.01 415.54 528.12 414.50 Z" style="fill: none !important;"/>
<path fill="#000000" opacity="1.00" d=" M 236.52 448.53 C 233.74 445.25 234.26 439.94 237.71 437.33 C 257.63 442.76 277.17 449.50 297.02 455.19 C 362.98 475.40 429.02 495.33 494.94 515.67 C 499.63 517.03 504.31 518.47 509.10 519.46 C 517.42 520.95 525.71 518.55 533.79 516.83 C 542.53 514.95 551.25 512.97 559.98 511.06 C 562.41 513.26 563.24 516.72 564.28 519.75 C 569.60 539.48 569.45 560.34 566.26 580.42 C 564.93 587.91 563.27 595.61 559.38 602.20 C 548.04 605.38 536.56 608.04 525.10 610.73 C 519.31 612.26 513.10 612.29 507.36 610.54 C 423.84 584.23 340.43 557.58 256.88 531.36 C 251.33 529.63 245.66 528.12 240.39 525.61 C 236.47 523.62 233.57 518.43 236.21 514.33 C 238.93 510.30 244.47 510.81 248.32 508.54 C 254.08 491.00 252.86 471.83 247.70 454.32 C 244.14 452.11 239.30 451.98 236.52 448.53 M 264.04 458.78 C 268.23 476.64 268.45 495.73 262.87 513.31 C 322.21 531.86 381.54 550.42 440.90 568.91 C 460.26 574.87 479.49 581.26 498.95 586.87 C 502.16 588.16 506.19 587.07 507.88 583.95 C 510.53 579.06 511.14 573.38 511.66 567.94 C 512.10 558.80 512.11 549.45 509.65 540.56 C 508.16 535.90 505.72 530.40 500.35 529.39 C 464.33 518.25 428.16 507.60 392.01 496.89 C 349.37 484.13 306.71 471.44 264.04 458.78 Z" style="fill: rgb(0, 0, 0) !important;"/>
<path fill="#000000" opacity="1.00" d=" M 785.10 461.55 C 788.73 460.71 792.09 459.03 795.19 456.99 C 804.16 468.64 803.34 484.13 804.10 498.03 C 803.75 509.68 804.16 521.72 800.15 532.86 C 797.85 539.95 791.72 545.56 784.51 547.37 C 773.81 550.20 763.01 552.66 752.28 555.32 C 757.97 534.13 758.62 511.80 755.90 490.09 C 755.00 482.93 753.25 475.93 751.00 469.09 C 762.38 466.66 773.76 464.19 785.10 461.55 Z" style="fill: rgb(0, 0, 0) !important;"/>
<path fill="#ffffff" opacity="1.00" d=" M 264.04 458.78 C 306.71 471.44 349.37 484.13 392.01 496.89 C 428.16 507.60 464.33 518.25 500.35 529.39 C 505.72 530.40 508.16 535.90 509.65 540.56 C 512.11 549.45 512.10 558.80 511.66 567.94 C 511.14 573.38 510.53 579.06 507.88 583.95 C 506.19 587.07 502.16 588.16 498.95 586.87 C 479.49 581.26 460.26 574.87 440.90 568.91 C 381.54 550.42 322.21 531.86 262.87 513.31 C 268.45 495.73 268.23 476.64 264.04 458.78 Z" style="fill: none !important;"/>
<path fill="#000000" opacity="1.00" d=" M 707.46 478.71 C 716.66 476.63 725.89 474.69 735.11 472.74 C 740.88 486.03 741.71 500.73 742.12 515.01 C 741.85 524.81 741.01 534.62 739.15 544.26 C 738.05 549.60 736.42 554.89 733.67 559.63 C 717.32 564.24 700.63 567.89 684.11 571.96 C 648.77 580.70 613.40 589.27 578.02 597.83 C 583.75 578.20 584.65 557.50 583.12 537.21 C 582.09 527.09 580.63 516.83 576.47 507.46 C 596.20 502.75 616.17 499.10 635.89 494.34 C 659.72 488.99 683.67 484.23 707.46 478.71 Z" style="fill: rgb(0, 0, 0) !important;"/>
<path fill="#000000" opacity="1.00" d=" M 213.07 556.21 C 219.33 547.19 230.70 543.81 241.09 542.60 C 254.80 546.18 268.10 551.36 281.80 555.06 C 272.62 561.82 266.31 571.98 263.97 583.10 C 260.97 596.50 260.37 610.31 260.47 624.01 C 260.61 636.95 261.52 650.06 265.40 662.48 C 252.09 657.74 238.56 653.64 225.23 648.95 C 215.03 645.27 208.73 635.14 206.56 624.93 C 204.29 613.44 204.66 601.65 204.83 590.00 C 205.31 578.40 206.06 565.98 213.07 556.21 Z" style="fill: rgb(0, 0, 0) !important;"/>
<path fill="#000000" opacity="1.00" d=" M 786.01 562.92 C 789.07 562.18 792.05 561.12 794.93 559.84 C 800.79 561.80 806.83 563.27 812.60 565.52 C 815.89 566.78 818.35 570.62 816.95 574.11 C 815.97 577.20 812.99 579.00 810.09 580.00 C 804.96 581.94 799.51 582.78 794.33 584.52 C 791.71 589.58 790.68 595.38 789.36 600.91 C 786.48 616.49 786.38 633.35 792.94 648.05 C 799.91 650.55 807.09 652.49 813.90 655.41 C 817.46 656.90 820.42 661.00 818.99 664.93 C 817.41 669.45 811.97 670.09 808.05 671.46 C 722.57 693.03 637.06 714.46 551.50 735.71 C 543.05 737.86 534.61 740.07 526.08 741.82 C 517.07 743.66 507.87 741.63 499.29 738.83 C 485.67 734.41 472.14 729.72 458.49 725.37 C 454.44 717.48 452.80 708.65 451.67 699.93 C 450.17 688.34 450.14 676.61 450.61 664.95 C 451.44 654.12 452.47 643.03 456.80 632.95 C 460.43 624.88 468.64 620.45 476.21 616.75 C 486.53 619.93 496.76 623.40 507.08 626.55 C 518.16 629.65 529.34 625.41 540.07 622.87 C 622.09 603.03 704.02 582.87 786.01 562.92 M 745.10 596.59 C 671.23 614.48 597.37 632.46 523.49 650.33 C 519.65 651.61 517.46 655.37 515.88 658.85 C 512.52 666.79 512.33 675.55 511.92 684.03 C 512.16 693.51 512.43 703.27 515.85 712.24 C 517.11 715.64 520.08 718.92 523.96 718.88 C 528.28 718.69 532.41 717.25 536.59 716.24 C 617.32 696.32 697.92 675.85 778.62 655.78 C 770.08 634.55 769.68 610.30 777.03 588.68 C 766.40 591.36 755.74 593.95 745.10 596.59 Z" style="fill: rgb(0, 0, 0) !important;"/>
<path fill="#000000" opacity="1.00" d=" M 284.64 573.53 C 288.80 568.02 294.75 564.12 300.91 561.17 C 352.81 577.70 404.73 594.18 456.68 610.53 C 451.77 614.32 447.27 618.76 444.13 624.15 C 440.72 629.96 439.09 636.58 437.75 643.12 C 435.33 655.91 434.71 668.97 434.82 681.96 C 435.31 694.64 436.43 707.45 440.28 719.61 C 388.18 702.15 335.78 685.63 283.71 668.11 C 279.75 660.67 278.13 652.29 277.17 644.00 C 275.36 628.02 275.28 611.82 277.54 595.89 C 278.65 588.14 280.17 580.12 284.64 573.53 Z" style="fill: rgb(0, 0, 0) !important;"/>
<path fill="#ffffff" opacity="1.00" d=" M 745.10 596.59 C 755.74 593.95 766.40 591.36 777.03 588.68 C 769.68 610.30 770.08 634.55 778.62 655.78 C 697.92 675.85 617.32 696.32 536.59 716.24 C 532.41 717.25 528.28 718.69 523.96 718.88 C 520.08 718.92 517.11 715.64 515.85 712.24 C 512.43 703.27 512.16 693.51 511.92 684.03 C 512.33 675.55 512.52 666.79 515.88 658.85 C 517.46 655.37 519.65 651.61 523.49 650.33 C 597.37 632.46 671.23 614.48 745.10 596.59 Z" style="fill: none !important;"/>
</svg>