<svg xmlns="http://www.w3.org/2000/svg" viewBox="275.99676513671875 204.1785888671875 472.0369873046875 615.60400390625" version="1.1" width="32" height="38" style="">
<path fill="#ffffff" opacity="1.00" d=" M 0.00 0.00 L 1024.00 0.00 L 1024.00 1024.00 L 0.00 1024.00 L 0.00 0.00 M 298.38 205.57 C 286.10 208.65 276.75 220.31 276.52 232.99 C 276.46 418.98 276.54 604.99 276.50 790.98 C 276.77 803.18 285.45 814.55 297.12 818.05 C 301.90 819.72 307.02 819.18 311.99 819.26 C 447.99 819.25 584.00 819.24 720.00 819.26 C 726.87 819.11 733.41 815.98 738.42 811.40 C 744.24 805.93 747.40 797.94 747.53 790.02 C 747.52 605.00 747.55 419.98 747.52 234.97 C 747.67 226.46 744.29 217.79 737.92 212.06 C 732.75 207.49 725.95 204.67 719.01 204.70 C 583.32 204.72 447.63 204.72 311.93 204.71 C 307.41 204.77 302.79 204.32 298.38 205.57 Z" style="fill: none !important;"/>
<path fill="#020202" opacity="1.00" d=" M 298.38 205.57 C 302.79 204.32 307.41 204.77 311.93 204.71 C 447.63 204.72 583.32 204.72 719.01 204.70 C 725.95 204.67 732.75 207.49 737.92 212.06 C 744.29 217.79 747.67 226.46 747.52 234.97 C 747.55 419.98 747.52 605.00 747.53 790.02 C 747.40 797.94 744.24 805.93 738.42 811.40 C 733.41 815.98 726.87 819.11 720.00 819.26 C 584.00 819.24 447.99 819.25 311.99 819.26 C 307.02 819.18 301.90 819.72 297.12 818.05 C 285.45 814.55 276.77 803.18 276.50 790.98 C 276.54 604.99 276.46 418.98 276.52 232.99 C 276.75 220.31 286.10 208.65 298.38 205.57 M 342.33 266.39 C 336.77 266.99 332.46 272.48 332.81 278.01 C 332.84 294.00 332.83 309.98 332.82 325.97 C 332.68 329.92 334.32 334.10 337.85 336.15 C 341.12 338.49 345.29 337.77 349.05 337.87 C 459.39 337.84 569.74 337.86 680.08 337.86 C 686.00 338.16 691.42 333.00 691.28 327.05 C 691.33 310.37 691.30 293.68 691.30 277.00 C 691.21 271.11 685.96 265.93 680.00 266.30 C 567.45 266.40 454.89 266.22 342.33 266.39 M 342.21 410.13 C 336.62 411.68 332.66 417.29 332.78 423.05 C 332.83 441.36 332.80 459.68 332.82 478.00 C 332.67 485.05 338.83 491.76 346.01 491.55 C 365.35 491.55 384.68 491.49 404.02 491.57 C 411.14 491.80 417.39 485.08 416.89 478.02 C 416.87 459.67 416.91 441.33 416.88 422.98 C 417.08 416.38 411.79 409.91 405.00 409.70 C 386.00 409.52 366.99 409.74 347.99 409.65 C 346.06 409.69 344.08 409.57 342.21 410.13 M 460.33 440.36 C 455.05 440.71 450.83 445.81 451.16 451.03 C 451.25 456.13 455.81 460.62 460.90 460.70 C 534.29 460.74 607.70 460.68 681.10 460.72 C 684.42 460.80 687.67 459.11 689.66 456.47 C 693.10 452.03 691.82 444.83 686.96 441.96 C 683.43 439.52 678.99 440.37 674.98 440.27 C 603.43 440.38 531.87 440.16 460.33 440.36 M 344.39 532.55 C 338.24 533.20 332.89 538.73 332.86 545.01 C 332.80 563.67 332.81 582.34 332.85 601.00 C 332.73 607.70 338.22 614.08 345.05 614.29 C 364.71 614.45 384.38 614.29 404.05 614.36 C 411.14 614.59 417.12 608.02 416.86 601.07 C 416.90 582.34 416.89 563.61 416.86 544.89 C 416.91 538.16 410.65 532.38 404.02 532.43 C 384.14 532.49 364.26 532.29 344.39 532.55 M 460.34 563.41 C 455.17 563.88 450.72 568.77 451.26 574.05 C 451.14 579.23 456.12 583.51 461.10 583.61 C 534.40 583.59 607.71 583.66 681.02 583.59 C 686.66 583.90 692.06 578.76 691.59 573.03 C 691.61 567.08 685.63 562.77 680.00 563.23 C 606.78 563.35 533.55 563.00 460.34 563.41 M 344.31 655.47 C 337.79 656.16 332.37 662.37 332.77 668.98 C 332.87 687.32 332.79 705.66 332.86 724.00 C 332.87 730.95 338.86 737.63 346.01 737.35 C 365.33 737.30 384.64 737.32 403.96 737.33 C 411.01 737.60 417.22 730.99 416.90 724.02 C 416.92 707.35 416.86 690.67 416.91 673.99 C 416.88 670.17 417.44 666.06 415.49 662.58 C 413.21 658.01 408.15 655.09 403.05 655.38 C 383.47 655.48 363.89 655.27 344.31 655.47 M 460.22 686.30 C 455.40 686.69 451.17 691.06 451.26 695.96 C 450.88 701.69 456.20 706.98 461.94 706.62 C 534.97 706.63 607.99 706.59 681.02 706.64 C 686.30 706.70 691.33 702.31 691.59 696.95 C 691.99 691.25 686.80 685.89 681.08 686.22 C 607.46 686.26 533.83 686.10 460.22 686.30 Z" style="fill: rgb(0, 0, 0) !important;"/>
<path fill="#ffffff" opacity="1.00" d=" M 342.33 266.39 C 454.89 266.22 567.45 266.40 680.00 266.30 C 685.96 265.93 691.21 271.11 691.30 277.00 C 691.30 293.68 691.33 310.37 691.28 327.05 C 691.42 333.00 686.00 338.16 680.08 337.86 C 569.74 337.86 459.39 337.84 349.05 337.87 C 345.29 337.77 341.12 338.49 337.85 336.15 C 334.32 334.10 332.68 329.92 332.82 325.97 C 332.83 309.98 332.84 294.00 332.81 278.01 C 332.46 272.48 336.77 266.99 342.33 266.39 Z" style="fill: none !important;"/>
<path fill="#ffffff" opacity="1.00" d=" M 342.21 410.13 C 344.08 409.57 346.06 409.69 347.99 409.65 C 366.99 409.74 386.00 409.52 405.00 409.70 C 411.79 409.91 417.08 416.38 416.88 422.98 C 416.91 441.33 416.87 459.67 416.89 478.02 C 417.39 485.08 411.14 491.80 404.02 491.57 C 384.68 491.49 365.35 491.55 346.01 491.55 C 338.83 491.76 332.67 485.05 332.82 478.00 C 332.80 459.68 332.83 441.36 332.78 423.05 C 332.66 417.29 336.62 411.68 342.21 410.13 M 353.44 430.10 C 353.44 443.74 353.41 457.38 353.46 471.03 C 367.44 471.24 381.42 471.10 395.40 471.10 C 395.44 457.42 395.47 443.75 395.37 430.07 C 381.39 430.11 367.42 430.02 353.44 430.10 Z" style="fill: none !important;"/>
<path fill="#020202" opacity="1.00" d=" M 353.44 430.10 C 367.42 430.02 381.39 430.11 395.37 430.07 C 395.47 443.75 395.44 457.42 395.40 471.10 C 381.42 471.10 367.44 471.24 353.46 471.03 C 353.41 457.38 353.44 443.74 353.44 430.10 Z" style="fill: rgb(0, 0, 0) !important;"/>
<path fill="#ffffff" opacity="1.00" d=" M 460.33 440.36 C 531.87 440.16 603.43 440.38 674.98 440.27 C 678.99 440.37 683.43 439.52 686.96 441.96 C 691.82 444.83 693.10 452.03 689.66 456.47 C 687.67 459.11 684.42 460.80 681.10 460.72 C 607.70 460.68 534.29 460.74 460.90 460.70 C 455.81 460.62 451.25 456.13 451.16 451.03 C 450.83 445.81 455.05 440.71 460.33 440.36 Z" style="fill: none !important;"/>
<path fill="#ffffff" opacity="1.00" d=" M 344.39 532.55 C 364.26 532.29 384.14 532.49 404.02 532.43 C 410.65 532.38 416.91 538.16 416.86 544.89 C 416.89 563.61 416.90 582.34 416.86 601.07 C 417.12 608.02 411.14 614.59 404.05 614.36 C 384.38 614.29 364.71 614.45 345.05 614.29 C 338.22 614.08 332.73 607.70 332.85 601.00 C 332.81 582.34 332.80 563.67 332.86 545.01 C 332.89 538.73 338.24 533.20 344.39 532.55 M 353.43 593.86 C 367.43 593.93 381.44 593.82 395.44 593.91 C 395.38 580.21 395.48 566.50 395.38 552.80 C 381.41 552.83 367.44 552.78 353.47 552.84 C 353.33 566.51 353.45 580.19 353.43 593.86 Z" style="fill: none !important;"/>
<path fill="#020202" opacity="1.00" d=" M 353.43 593.86 C 353.45 580.19 353.33 566.51 353.47 552.84 C 367.44 552.78 381.41 552.83 395.38 552.80 C 395.48 566.50 395.38 580.21 395.44 593.91 C 381.44 593.82 367.43 593.93 353.43 593.86 Z" style="fill: rgb(0, 0, 0) !important;"/>
<path fill="#ffffff" opacity="1.00" d=" M 460.34 563.41 C 533.55 563.00 606.78 563.35 680.00 563.23 C 685.63 562.77 691.61 567.08 691.59 573.03 C 692.06 578.76 686.66 583.90 681.02 583.59 C 607.71 583.66 534.40 583.59 461.10 583.61 C 456.12 583.51 451.14 579.23 451.26 574.05 C 450.72 568.77 455.17 563.88 460.34 563.41 Z" style="fill: none !important;"/>
<path fill="#ffffff" opacity="1.00" d=" M 344.31 655.47 C 363.89 655.27 383.47 655.48 403.05 655.38 C 408.15 655.09 413.21 658.01 415.49 662.58 C 417.44 666.06 416.88 670.17 416.91 673.99 C 416.86 690.67 416.92 707.35 416.90 724.02 C 417.22 730.99 411.01 737.60 403.96 737.33 C 384.64 737.32 365.33 737.30 346.01 737.35 C 338.86 737.63 332.87 730.95 332.86 724.00 C 332.79 705.66 332.87 687.32 332.77 668.98 C 332.37 662.37 337.79 656.16 344.31 655.47 M 353.44 716.87 C 367.45 716.87 381.46 716.81 395.47 716.87 C 395.39 703.15 395.47 689.43 395.32 675.71 C 381.37 675.71 367.43 675.72 353.48 675.80 C 353.39 689.49 353.40 703.18 353.44 716.87 Z" style="fill: none !important;"/>
<path fill="#020202" opacity="1.00" d=" M 353.44 716.87 C 353.40 703.18 353.39 689.49 353.48 675.80 C 367.43 675.72 381.37 675.71 395.32 675.71 C 395.47 689.43 395.39 703.15 395.47 716.87 C 381.46 716.81 367.45 716.87 353.44 716.87 Z" style="fill: rgb(0, 0, 0) !important;"/>
<path fill="#ffffff" opacity="1.00" d=" M 460.22 686.30 C 533.83 686.10 607.46 686.26 681.08 686.22 C 686.80 685.89 691.99 691.25 691.59 696.95 C 691.33 702.31 686.30 706.70 681.02 706.64 C 607.99 706.59 534.97 706.63 461.94 706.62 C 456.20 706.98 450.88 701.69 451.26 695.96 C 451.17 691.06 455.40 686.69 460.22 686.30 Z" style="fill: none !important;"/>
</svg>