<svg xmlns="http://www.w3.org/2000/svg" viewBox="340.6622619628906 101.7196273803711 342.7617492675781 820.3702163696289" version="1.1" width="32" height="38" style="">
<path fill="#ffffff" opacity="1.00" d=" M 0.00 0.00 L 1024.00 0.00 L 1024.00 1024.00 L 0.00 1024.00 L 0.00 0.00 M 468.48 114.27 C 450.35 124.95 436.46 142.81 430.98 163.16 C 415.49 164.13 399.99 168.38 386.84 176.77 C 372.86 185.03 361.19 197.11 353.25 211.26 C 342.39 229.65 338.87 252.00 342.60 272.96 C 346.20 293.48 357.46 312.32 372.92 326.14 C 389.52 341.22 411.56 349.92 433.97 350.47 C 443.25 350.48 452.54 353.45 459.98 359.03 C 468.35 365.21 473.89 374.87 475.64 385.07 C 470.02 384.67 462.99 386.17 460.87 392.13 C 459.27 397.56 460.11 403.34 459.91 408.92 C 460.01 413.71 459.01 419.44 462.90 423.11 C 466.38 426.93 471.90 426.88 476.65 426.60 C 476.85 502.13 476.64 577.66 476.74 653.20 C 473.51 653.26 470.27 652.99 467.06 653.36 C 463.05 654.03 459.93 657.86 460.14 661.93 C 460.08 669.98 460.13 678.03 460.12 686.08 C 459.90 689.66 462.29 693.42 465.92 694.15 C 469.44 694.92 473.10 694.49 476.68 694.55 C 476.80 758.71 476.66 822.87 476.75 887.02 C 476.88 897.83 482.33 908.36 490.94 914.85 C 504.35 924.80 524.93 923.70 536.79 911.77 C 543.60 905.32 547.31 896.05 547.31 886.71 C 550.89 886.66 554.47 886.89 558.05 886.69 C 561.48 886.58 564.21 883.35 564.21 880.01 C 564.30 871.91 564.22 863.81 564.22 855.72 C 571.72 855.77 579.22 855.70 586.73 855.77 C 586.77 863.83 586.66 871.90 586.72 879.96 C 586.65 883.74 590.20 887.03 593.97 886.71 C 615.33 886.79 636.69 886.76 658.05 886.73 C 661.88 887.07 665.75 883.93 665.61 879.96 C 665.73 867.95 665.64 855.93 665.64 843.92 C 665.76 841.46 664.67 838.92 662.49 837.68 C 660.25 836.26 657.53 836.72 655.05 836.70 C 646.09 836.80 637.14 836.71 628.19 836.73 C 628.14 830.48 628.25 824.23 628.21 817.98 C 628.34 814.44 625.75 810.51 621.92 810.59 C 610.23 810.42 598.54 810.73 586.85 810.43 C 586.91 802.99 586.87 795.55 586.85 788.12 C 598.28 788.02 609.71 788.17 621.14 788.07 C 624.57 788.22 627.83 785.58 628.09 782.10 C 628.37 775.34 628.14 768.56 628.20 761.80 C 638.46 761.78 648.73 761.91 658.99 761.77 C 662.63 761.86 665.86 758.57 665.59 754.92 C 665.73 742.93 665.65 730.93 665.62 718.94 C 665.88 714.83 661.99 711.58 658.02 711.87 C 636.67 711.88 615.32 711.86 593.98 711.90 C 590.02 711.54 586.41 715.08 586.71 719.04 C 586.71 726.99 586.73 734.94 586.74 742.89 C 579.23 742.88 571.72 742.89 564.21 742.90 C 564.15 734.93 564.28 726.97 564.23 719.00 C 564.26 715.57 561.63 712.12 558.05 711.96 C 554.47 711.72 550.87 711.93 547.28 711.84 C 547.21 706.08 547.32 700.31 547.13 694.55 C 550.81 694.33 554.57 695.01 558.21 694.24 C 561.83 693.34 564.09 689.67 564.05 686.06 C 564.17 678.71 564.05 671.35 564.11 663.99 C 564.20 660.77 563.48 657.19 560.81 655.11 C 557.03 652.06 551.83 653.52 547.40 653.26 C 547.25 577.72 547.33 502.16 547.38 426.61 C 552.12 426.82 557.78 427.22 561.19 423.21 C 565.22 419.19 563.91 413.09 564.12 407.99 C 563.75 402.19 565.25 395.84 562.35 390.51 C 559.60 385.60 553.53 384.76 548.44 385.16 C 550.54 370.83 560.93 358.23 574.53 353.29 C 583.90 349.34 594.27 351.21 604.01 349.00 C 640.52 343.18 671.96 313.85 680.38 277.87 C 684.48 261.18 683.58 243.32 678.00 227.07 C 671.64 207.69 658.38 190.77 641.49 179.43 C 627.30 169.44 610.19 164.13 592.94 163.13 C 584.36 129.44 551.99 103.91 517.41 102.40 C 500.40 101.29 483.01 105.31 468.48 114.27 Z" style="fill: none !important;"/>
<path fill="#000000" opacity="1.00" d=" M 468.48 114.27 C 483.01 105.31 500.40 101.29 517.41 102.40 C 551.99 103.91 584.36 129.44 592.94 163.13 C 610.19 164.13 627.30 169.44 641.49 179.43 C 658.38 190.77 671.64 207.69 678.00 227.07 C 683.58 243.32 684.48 261.18 680.38 277.87 C 671.96 313.85 640.52 343.18 604.01 349.00 C 594.27 351.21 583.90 349.34 574.53 353.29 C 560.93 358.23 550.54 370.83 548.44 385.16 C 553.53 384.76 559.60 385.60 562.35 390.51 C 565.25 395.84 563.75 402.19 564.12 407.99 C 563.91 413.09 565.22 419.19 561.19 423.21 C 557.78 427.22 552.12 426.82 547.38 426.61 C 547.33 502.16 547.25 577.72 547.40 653.26 C 551.83 653.52 557.03 652.06 560.81 655.11 C 563.48 657.19 564.20 660.77 564.11 663.99 C 564.05 671.35 564.17 678.71 564.05 686.06 C 564.09 689.67 561.83 693.34 558.21 694.24 C 554.57 695.01 550.81 694.33 547.13 694.55 C 547.32 700.31 547.21 706.08 547.28 711.84 C 550.87 711.93 554.47 711.72 558.05 711.96 C 561.63 712.12 564.26 715.57 564.23 719.00 C 564.28 726.97 564.15 734.93 564.21 742.90 C 571.72 742.89 579.23 742.88 586.74 742.89 C 586.73 734.94 586.71 726.99 586.71 719.04 C 586.41 715.08 590.02 711.54 593.98 711.90 C 615.32 711.86 636.67 711.88 658.02 711.87 C 661.99 711.58 665.88 714.83 665.62 718.94 C 665.65 730.93 665.73 742.93 665.59 754.92 C 665.86 758.57 662.63 761.86 658.99 761.77 C 648.73 761.91 638.46 761.78 628.20 761.80 C 628.14 768.56 628.37 775.34 628.09 782.10 C 627.83 785.58 624.57 788.22 621.14 788.07 C 609.71 788.17 598.28 788.02 586.85 788.12 C 586.87 795.55 586.91 802.99 586.85 810.43 C 598.54 810.73 610.23 810.42 621.92 810.59 C 625.75 810.51 628.34 814.44 628.21 817.98 C 628.25 824.23 628.14 830.48 628.19 836.73 C 637.14 836.71 646.09 836.80 655.05 836.70 C 657.53 836.72 660.25 836.26 662.49 837.68 C 664.67 838.92 665.76 841.46 665.64 843.92 C 665.64 855.93 665.73 867.95 665.61 879.96 C 665.75 883.93 661.88 887.07 658.05 886.73 C 636.69 886.76 615.33 886.79 593.97 886.71 C 590.20 887.03 586.65 883.74 586.72 879.96 C 586.66 871.90 586.77 863.83 586.73 855.77 C 579.22 855.70 571.72 855.77 564.22 855.72 C 564.22 863.81 564.30 871.91 564.21 880.01 C 564.21 883.35 561.48 886.58 558.05 886.69 C 554.47 886.89 550.89 886.66 547.31 886.71 C 547.31 896.05 543.60 905.32 536.79 911.77 C 524.93 923.70 504.35 924.80 490.94 914.85 C 482.33 908.36 476.88 897.83 476.75 887.02 C 476.66 822.87 476.80 758.71 476.68 694.55 C 473.10 694.49 469.44 694.92 465.92 694.15 C 462.29 693.42 459.90 689.66 460.12 686.08 C 460.13 678.03 460.08 669.98 460.14 661.93 C 459.93 657.86 463.05 654.03 467.06 653.36 C 470.27 652.99 473.51 653.26 476.74 653.20 C 476.64 577.66 476.85 502.13 476.65 426.60 C 471.90 426.88 466.38 426.93 462.90 423.11 C 459.01 419.44 460.01 413.71 459.91 408.92 C 460.11 403.34 459.27 397.56 460.87 392.13 C 462.99 386.17 470.02 384.67 475.64 385.07 C 473.89 374.87 468.35 365.21 459.98 359.03 C 452.54 353.45 443.25 350.48 433.97 350.47 C 411.56 349.92 389.52 341.22 372.92 326.14 C 357.46 312.32 346.20 293.48 342.60 272.96 C 338.87 252.00 342.39 229.65 353.25 211.26 C 361.19 197.11 372.86 185.03 386.84 176.77 C 399.99 168.38 415.49 164.13 430.98 163.16 C 436.46 142.81 450.35 124.95 468.48 114.27 M 507.17 147.14 C 492.66 148.80 479.92 159.75 475.83 173.71 C 470.92 189.59 478.07 208.20 492.33 216.71 C 501.68 222.61 513.68 224.17 524.14 220.40 C 531.84 217.93 538.56 212.74 543.06 206.03 C 550.63 195.39 551.77 180.73 546.44 168.87 C 539.86 154.16 523.19 144.69 507.17 147.14 M 428.66 207.89 C 410.23 210.93 394.11 225.12 389.17 243.20 C 385.52 255.53 387.21 269.26 393.54 280.43 C 402.39 296.93 421.25 307.43 439.93 306.34 C 450.31 305.84 460.28 301.71 468.50 295.45 C 492.64 275.63 530.52 275.57 554.98 294.85 C 561.98 300.19 570.12 304.26 578.85 305.67 C 591.96 308.13 605.89 304.42 616.49 296.45 C 626.12 289.37 633.02 278.74 635.61 267.09 C 638.84 253.32 635.29 238.35 626.82 227.11 C 618.08 215.23 603.75 207.83 589.06 207.24 C 575.06 206.62 560.96 212.26 551.13 222.22 C 539.30 234.22 521.73 240.55 504.97 238.14 C 493.12 236.65 482.07 230.89 473.55 222.62 C 462.25 210.68 444.79 205.29 428.66 207.89 Z" style="fill: rgb(0, 0, 0) !important;"/>
<path fill="#ffffff" opacity="1.00" d=" M 507.17 147.14 C 523.19 144.69 539.86 154.16 546.44 168.87 C 551.77 180.73 550.63 195.39 543.06 206.03 C 538.56 212.74 531.84 217.93 524.14 220.40 C 513.68 224.17 501.68 222.61 492.33 216.71 C 478.07 208.20 470.92 189.59 475.83 173.71 C 479.92 159.75 492.66 148.80 507.17 147.14 Z" style="fill: none !important;"/>
<path fill="#ffffff" opacity="1.00" d=" M 428.66 207.89 C 444.79 205.29 462.25 210.68 473.55 222.62 C 482.07 230.89 493.12 236.65 504.97 238.14 C 521.73 240.55 539.30 234.22 551.13 222.22 C 560.96 212.26 575.06 206.62 589.06 207.24 C 603.75 207.83 618.08 215.23 626.82 227.11 C 635.29 238.35 638.84 253.32 635.61 267.09 C 633.02 278.74 626.12 289.37 616.49 296.45 C 605.89 304.42 591.96 308.13 578.85 305.67 C 570.12 304.26 561.98 300.19 554.98 294.85 C 530.52 275.57 492.64 275.63 468.50 295.45 C 460.28 301.71 450.31 305.84 439.93 306.34 C 421.25 307.43 402.39 296.93 393.54 280.43 C 387.21 269.26 385.52 255.53 389.17 243.20 C 394.11 225.12 410.23 210.93 428.66 207.89 Z" style="fill: none !important;"/>
</svg>