<svg xmlns="http://www.w3.org/2000/svg" viewBox="215.15362548828125 147.71078491210938 593.7410278320312 746.0266418457031" version="1.1" width="32" height="38" style="">
<path fill="#ffffff" opacity="1.00" d=" M 0.00 0.00 L 1024.00 0.00 L 1024.00 1024.00 L 0.00 1024.00 L 0.00 0.00 M 470.64 164.98 C 459.88 175.21 453.58 189.90 453.20 204.71 C 431.48 204.77 409.76 204.62 388.05 204.82 C 376.22 205.39 366.17 216.20 366.39 228.04 C 366.31 247.69 366.38 267.34 366.36 286.99 C 366.19 296.18 371.61 305.58 380.18 309.24 C 384.47 311.25 389.33 311.28 393.98 311.21 C 474.30 311.19 554.63 311.24 634.96 311.20 C 646.75 311.23 657.38 300.80 657.62 289.02 C 657.64 268.35 657.73 247.67 657.59 226.99 C 657.38 215.17 646.75 204.75 634.94 204.76 C 613.58 204.64 592.22 204.82 570.87 204.65 C 570.58 192.79 566.33 181.15 559.37 171.59 C 548.60 157.27 531.01 148.24 513.05 148.24 C 497.42 147.73 481.69 153.92 470.64 164.98 M 261.87 230.37 C 250.72 232.60 240.45 238.46 232.45 246.50 C 221.51 257.70 215.32 273.38 215.69 289.04 C 215.63 470.37 215.66 651.70 215.67 833.02 C 215.44 850.99 223.72 868.93 237.79 880.16 C 248.19 888.67 261.56 893.28 274.98 893.22 C 428.66 893.23 582.34 893.22 736.02 893.22 C 745.73 893.09 755.67 893.91 765.11 891.11 C 779.52 887.29 792.09 877.56 799.80 864.85 C 805.92 855.11 808.62 843.45 808.38 832.01 C 808.36 649.66 808.40 467.31 808.35 284.96 C 807.36 270.74 801.70 256.62 791.55 246.46 C 780.98 235.69 766.09 229.16 750.96 229.13 C 727.84 229.08 704.72 229.19 681.61 229.07 C 681.50 248.24 681.62 267.42 681.54 286.60 C 701.36 286.79 721.18 286.60 741.00 286.68 C 745.99 286.47 750.17 291.20 750.20 296.02 C 750.23 472.33 750.20 648.64 750.23 824.95 C 750.63 830.48 745.56 835.66 740.02 835.31 C 588.02 835.35 436.02 835.30 284.02 835.34 C 278.44 835.61 273.69 830.52 273.80 825.05 C 273.78 649.05 273.81 473.05 273.82 297.05 C 273.29 291.81 277.56 286.49 282.97 286.69 C 302.80 286.64 322.63 286.74 342.45 286.63 C 342.45 267.44 342.49 248.26 342.43 229.08 C 322.28 229.15 302.13 229.09 281.99 229.12 C 275.27 229.18 268.46 228.72 261.87 230.37 M 608.89 447.92 C 589.97 467.07 571.48 486.64 552.66 505.89 C 526.06 533.62 499.20 561.10 472.72 588.95 C 452.47 568.65 432.46 548.08 412.23 527.75 C 408.36 523.56 401.25 523.11 397.00 526.95 C 386.88 537.19 376.77 547.44 366.66 557.69 C 363.90 560.63 362.72 565.15 364.24 568.97 C 365.21 571.66 367.36 573.66 369.36 575.61 C 388.56 595.44 408.09 614.95 427.37 634.70 C 439.76 647.26 452.00 659.97 464.51 672.42 C 468.34 676.60 475.30 677.48 479.73 673.75 C 539.22 612.58 598.35 551.01 657.46 489.46 C 660.55 486.25 661.70 481.22 659.93 477.08 C 658.66 473.94 655.79 471.93 653.52 469.58 C 644.97 461.09 636.47 452.55 627.84 444.15 C 625.05 441.41 620.75 440.09 617.00 441.43 C 613.58 442.52 611.31 445.47 608.89 447.92 Z" style="fill: none !important;"/>
<path fill="#000000" opacity="1.00" d=" M 470.64 164.98 C 481.69 153.92 497.42 147.73 513.05 148.24 C 531.01 148.24 548.60 157.27 559.37 171.59 C 566.33 181.15 570.58 192.79 570.87 204.65 C 592.22 204.82 613.58 204.64 634.94 204.76 C 646.75 204.75 657.38 215.17 657.59 226.99 C 657.73 247.67 657.64 268.35 657.62 289.02 C 657.38 300.80 646.75 311.23 634.96 311.20 C 554.63 311.24 474.30 311.19 393.98 311.21 C 389.33 311.28 384.47 311.25 380.18 309.24 C 371.61 305.58 366.19 296.18 366.36 286.99 C 366.38 267.34 366.31 247.69 366.39 228.04 C 366.17 216.20 376.22 205.39 388.05 204.82 C 409.76 204.62 431.48 204.77 453.20 204.71 C 453.58 189.90 459.88 175.21 470.64 164.98 M 506.55 180.79 C 495.70 182.99 486.77 192.76 486.30 203.93 C 485.42 213.24 490.20 222.67 498.09 227.62 C 508.05 234.21 522.58 232.61 530.74 223.84 C 537.46 216.80 539.81 205.83 536.15 196.76 C 531.96 185.09 518.63 177.79 506.55 180.79 Z" style="fill: rgb(0, 0, 0) !important;"/>
<path fill="#ffffff" opacity="1.00" d=" M 506.55 180.79 C 518.63 177.79 531.96 185.09 536.15 196.76 C 539.81 205.83 537.46 216.80 530.74 223.84 C 522.58 232.61 508.05 234.21 498.09 227.62 C 490.20 222.67 485.42 213.24 486.30 203.93 C 486.77 192.76 495.70 182.99 506.55 180.79 Z" style="fill: none !important;"/>
<path fill="#000000" opacity="1.00" d=" M 261.87 230.37 C 268.46 228.72 275.27 229.18 281.99 229.12 C 302.13 229.09 322.28 229.15 342.43 229.08 C 342.49 248.26 342.45 267.44 342.45 286.63 C 322.63 286.74 302.80 286.64 282.97 286.69 C 277.56 286.49 273.29 291.81 273.82 297.05 C 273.81 473.05 273.78 649.05 273.80 825.05 C 273.69 830.52 278.44 835.61 284.02 835.34 C 436.02 835.30 588.02 835.35 740.02 835.31 C 745.56 835.66 750.63 830.48 750.23 824.95 C 750.20 648.64 750.23 472.33 750.20 296.02 C 750.17 291.20 745.99 286.47 741.00 286.68 C 721.18 286.60 701.36 286.79 681.54 286.60 C 681.62 267.42 681.50 248.24 681.61 229.07 C 704.72 229.19 727.84 229.08 750.96 229.13 C 766.09 229.16 780.98 235.69 791.55 246.46 C 801.70 256.62 807.36 270.74 808.35 284.96 C 808.40 467.31 808.36 649.66 808.38 832.01 C 808.62 843.45 805.92 855.11 799.80 864.85 C 792.09 877.56 779.52 887.29 765.11 891.11 C 755.67 893.91 745.73 893.09 736.02 893.22 C 582.34 893.22 428.66 893.23 274.98 893.22 C 261.56 893.28 248.19 888.67 237.79 880.16 C 223.72 868.93 215.44 850.99 215.67 833.02 C 215.66 651.70 215.63 470.37 215.69 289.04 C 215.32 273.38 221.51 257.70 232.45 246.50 C 240.45 238.46 250.72 232.60 261.87 230.37 Z" style="fill: rgb(0, 0, 0) !important;"/>
<path fill="#000000" opacity="1.00" d=" M 608.89 447.92 C 611.31 445.47 613.58 442.52 617.00 441.43 C 620.75 440.09 625.05 441.41 627.84 444.15 C 636.47 452.55 644.97 461.09 653.52 469.58 C 655.79 471.93 658.66 473.94 659.93 477.08 C 661.70 481.22 660.55 486.25 657.46 489.46 C 598.35 551.01 539.22 612.58 479.73 673.75 C 475.30 677.48 468.34 676.60 464.51 672.42 C 452.00 659.97 439.76 647.26 427.37 634.70 C 408.09 614.95 388.56 595.44 369.36 575.61 C 367.36 573.66 365.21 571.66 364.24 568.97 C 362.72 565.15 363.90 560.63 366.66 557.69 C 376.77 547.44 386.88 537.19 397.00 526.95 C 401.25 523.11 408.36 523.56 412.23 527.75 C 432.46 548.08 452.47 568.65 472.72 588.95 C 499.20 561.10 526.06 533.62 552.66 505.89 C 571.48 486.64 589.97 467.07 608.89 447.92 Z" style="fill: rgb(0, 0, 0) !important;"/>
</svg>