<svg xmlns="http://www.w3.org/2000/svg" viewBox="101.80659484863281 101.74700927734375 820.3495941162109 820.3617553710938" version="1.1" width="32" height="38" style="">
<path fill="#ffffff" opacity="1.00" d=" M 0.00 0.00 L 1024.00 0.00 L 1024.00 1024.00 L 0.00 1024.00 L 0.00 0.00 M 486.59 103.04 C 412.31 107.36 339.34 132.73 278.38 175.40 C 245.23 198.23 215.81 226.29 190.72 257.73 C 157.83 299.07 133.15 346.88 118.35 397.59 C 105.47 442.76 100.29 490.10 103.01 536.99 C 105.76 582.14 116.00 626.84 133.21 668.68 C 148.26 704.73 168.37 738.68 192.94 769.06 C 237.73 824.33 296.87 867.94 363.19 893.77 C 428.20 919.42 499.86 927.12 569.02 917.80 C 597.56 913.81 625.69 906.81 652.77 896.94 C 736.43 866.19 809.69 807.66 857.54 732.39 C 882.86 693.20 900.88 649.44 911.44 604.03 C 925.45 542.09 925.01 476.96 910.37 415.18 C 902.34 382.34 890.32 350.46 874.43 320.62 C 843.37 261.75 797.62 210.83 742.72 173.24 C 706.77 148.66 666.80 129.95 624.94 117.96 C 580.15 104.99 533.10 100.19 486.59 103.04 Z" style="fill: none !important;"/>
<path fill="#030303" opacity="1.00" d=" M 486.59 103.04 C 533.10 100.19 580.15 104.99 624.94 117.96 C 666.80 129.95 706.77 148.66 742.72 173.24 C 797.62 210.83 843.37 261.75 874.43 320.62 C 890.32 350.46 902.34 382.34 910.37 415.18 C 925.01 476.96 925.45 542.09 911.44 604.03 C 900.88 649.44 882.86 693.20 857.54 732.39 C 809.69 807.66 736.43 866.19 652.77 896.94 C 625.69 906.81 597.56 913.81 569.02 917.80 C 499.86 927.12 428.20 919.42 363.19 893.77 C 296.87 867.94 237.73 824.33 192.94 769.06 C 168.37 738.68 148.26 704.73 133.21 668.68 C 116.00 626.84 105.76 582.14 103.01 536.99 C 100.29 490.10 105.47 442.76 118.35 397.59 C 133.15 346.88 157.83 299.07 190.72 257.73 C 215.81 226.29 245.23 198.23 278.38 175.40 C 339.34 132.73 412.31 107.36 486.59 103.04 M 499.28 156.06 C 499.02 188.70 499.44 221.35 499.14 253.99 C 494.07 265.93 488.50 277.68 483.27 289.57 C 442.51 294.78 403.45 311.69 371.57 337.58 C 336.83 364.99 311.07 403.32 297.79 445.45 C 285.09 487.52 284.78 533.34 297.37 575.47 C 307.93 609.51 326.32 641.24 351.43 666.61 C 377.01 692.93 409.01 712.92 443.88 724.37 C 464.30 730.88 485.62 734.59 507.04 735.17 C 528.95 735.63 550.91 732.74 572.01 726.81 C 590.90 721.70 608.84 713.49 625.76 703.73 C 653.83 686.83 678.79 664.36 697.07 637.07 C 718.33 605.98 731.67 569.47 734.94 531.92 C 738.29 494.20 732.67 455.43 716.99 420.86 C 702.34 387.78 679.34 358.49 650.86 336.21 C 619.36 311.09 580.96 294.71 540.98 289.61 C 535.28 277.90 530.20 265.85 524.92 253.96 C 524.61 221.28 524.91 188.59 524.77 155.91 C 524.37 149.54 518.57 143.79 512.04 144.12 C 505.48 143.78 499.44 149.55 499.28 156.06 M 309.18 262.10 C 314.68 267.64 320.17 273.17 325.57 278.79 C 347.19 260.96 371.35 246.26 397.09 235.18 C 423.23 224.35 450.79 216.92 478.93 213.73 C 478.96 205.97 478.60 198.19 479.11 190.45 C 416.87 196.16 356.95 221.93 309.18 262.10 M 544.93 190.37 C 545.41 198.11 545.03 205.88 545.08 213.63 C 564.42 216.01 583.62 219.85 602.12 226.04 C 637.48 237.11 670.31 255.59 698.95 279.00 C 704.32 273.53 709.76 268.12 714.99 262.50 C 667.66 221.54 607.13 196.46 544.93 190.37 M 256.43 248.53 C 250.30 250.51 246.35 257.74 248.39 263.92 C 249.55 268.38 253.37 271.32 256.50 274.41 C 274.66 292.58 292.87 310.71 310.98 328.93 C 313.90 331.71 316.74 335.14 320.94 335.84 C 329.05 338.07 337.36 330.11 336.34 321.97 C 335.66 316.03 330.38 312.45 326.60 308.43 C 307.95 289.39 288.93 270.72 270.13 251.83 C 266.65 248.29 261.14 246.71 256.43 248.53 M 758.57 248.79 C 754.55 250.82 751.74 254.50 748.58 257.60 C 729.67 276.35 710.81 295.15 691.99 313.98 C 689.34 316.58 687.72 320.22 688.13 323.98 C 688.19 331.30 695.79 337.67 703.00 335.84 C 706.26 335.45 708.70 333.09 710.91 330.86 C 727.98 313.65 745.28 296.67 762.38 279.48 C 765.99 275.72 770.24 272.57 773.44 268.42 C 776.95 263.91 776.98 257.03 773.41 252.54 C 770.14 247.98 763.62 246.45 758.57 248.79 M 744.96 325.11 C 753.31 336.23 761.36 347.60 768.34 359.66 C 789.18 396.15 802.71 436.95 806.78 478.82 C 814.64 479.07 822.51 478.81 830.38 478.85 C 827.45 452.07 821.95 425.44 812.62 400.14 C 801.02 367.05 783.23 336.37 761.72 308.77 C 756.04 314.12 750.59 319.71 744.96 325.11 M 204.36 422.88 C 197.27 447.71 193.61 473.40 192.36 499.16 C 180.55 499.18 168.75 499.15 156.94 499.18 C 151.11 498.95 145.30 503.18 144.22 509.00 C 142.10 516.36 148.20 524.82 155.96 524.82 C 185.98 524.85 216.01 524.90 246.04 524.80 C 253.41 524.72 259.48 517.12 257.88 509.93 C 257.15 503.74 251.12 499.03 245.02 499.16 C 235.23 499.11 225.44 499.20 215.65 499.21 C 215.92 489.40 217.03 479.63 218.27 469.91 C 224.20 423.95 241.52 379.68 267.52 341.37 C 271.27 335.91 275.39 330.70 279.07 325.18 C 273.43 319.91 268.03 314.39 262.42 309.08 C 235.81 342.66 216.02 381.66 204.36 422.88 M 766.19 510.93 C 765.36 517.79 771.07 524.60 777.99 524.81 C 788.13 524.94 798.28 524.77 808.42 524.85 C 806.95 553.08 801.98 581.21 792.58 607.91 C 781.47 639.99 764.61 669.99 743.42 696.49 C 749.28 701.86 754.67 707.71 760.57 713.03 C 803.82 660.17 829.30 593.14 831.82 524.87 C 843.90 524.78 855.98 524.93 868.06 524.81 C 873.58 524.63 878.56 520.45 879.80 515.07 C 882.28 507.26 875.08 498.75 867.09 499.13 C 837.69 499.23 808.29 499.07 778.89 499.23 C 772.45 499.01 766.39 504.43 766.19 510.93 M 193.71 545.15 C 196.41 567.68 201.26 589.95 208.33 611.52 C 220.47 648.37 239.47 682.97 263.87 713.12 C 269.35 707.46 275.10 702.09 280.70 696.56 C 272.55 685.76 264.53 674.83 257.85 663.05 C 236.00 627.33 222.64 586.76 217.23 545.32 C 209.51 544.76 201.53 545.29 193.71 545.15 M 319.45 687.53 C 317.45 688.35 315.75 689.73 314.22 691.23 C 293.42 712.10 272.50 732.86 251.84 753.87 C 246.33 759.40 247.93 769.51 254.54 773.46 C 259.74 776.95 266.85 775.39 270.99 770.99 C 290.07 751.76 309.29 732.66 328.44 713.49 C 332.19 709.71 336.94 705.84 337.06 700.03 C 337.90 691.10 327.70 683.50 319.45 687.53 M 694.41 687.71 C 688.49 690.14 685.34 697.57 687.66 703.54 C 689.33 707.76 692.98 710.69 696.09 713.85 C 715.22 733.07 734.39 752.25 753.54 771.45 C 758.00 775.97 765.74 776.92 770.79 772.82 C 777.05 768.36 777.17 758.49 771.76 753.30 C 751.56 732.47 730.77 712.23 710.39 691.59 C 706.55 687.08 699.88 685.10 694.41 687.71 M 310.48 759.97 C 336.53 781.16 365.58 798.91 397.00 810.94 C 429.56 823.73 464.30 830.77 499.21 832.47 C 499.19 844.29 499.12 856.12 499.22 867.95 C 499.46 876.38 509.28 882.38 516.95 879.03 C 521.57 876.98 524.96 872.09 524.82 866.98 C 524.80 836.64 524.83 806.29 524.82 775.95 C 524.95 769.79 520.17 763.84 514.01 762.96 C 506.79 761.62 499.48 767.74 499.24 775.01 C 499.12 786.13 499.22 797.26 499.19 808.38 C 473.42 807.24 447.80 802.63 423.21 794.82 C 388.21 783.93 355.77 765.77 327.09 743.05 C 321.56 748.69 315.90 754.21 310.48 759.97 M 641.58 778.58 C 611.38 793.43 578.59 802.82 545.23 807.08 C 545.09 815.02 545.20 822.96 545.27 830.91 C 578.11 827.38 610.41 818.88 640.62 805.51 C 666.87 793.77 691.54 778.44 713.67 760.08 C 708.21 754.33 702.59 748.74 697.03 743.09 C 679.80 756.72 661.33 768.90 641.58 778.58 Z" style="fill: rgb(0, 0, 0) !important;"/>
<path fill="#ffffff" opacity="1.00" d=" M 499.28 156.06 C 499.44 149.55 505.48 143.78 512.04 144.12 C 518.57 143.79 524.37 149.54 524.77 155.91 C 524.91 188.59 524.61 221.28 524.92 253.96 C 530.20 265.85 535.28 277.90 540.98 289.61 C 580.96 294.71 619.36 311.09 650.86 336.21 C 679.34 358.49 702.34 387.78 716.99 420.86 C 732.67 455.43 738.29 494.20 734.94 531.92 C 731.67 569.47 718.33 605.98 697.07 637.07 C 678.79 664.36 653.83 686.83 625.76 703.73 C 608.84 713.49 590.90 721.70 572.01 726.81 C 550.91 732.74 528.95 735.63 507.04 735.17 C 485.62 734.59 464.30 730.88 443.88 724.37 C 409.01 712.92 377.01 692.93 351.43 666.61 C 326.32 641.24 307.93 609.51 297.37 575.47 C 284.78 533.34 285.09 487.52 297.79 445.45 C 311.07 403.32 336.83 364.99 371.57 337.58 C 403.45 311.69 442.51 294.78 483.27 289.57 C 488.50 277.68 494.07 265.93 499.14 253.99 C 499.44 221.35 499.02 188.70 499.28 156.06 M 509.39 295.51 C 505.03 296.64 503.47 301.26 501.62 304.83 C 479.17 348.79 457.03 392.90 434.60 436.86 C 432.98 439.62 432.41 443.19 433.90 446.13 C 435.73 450.38 441.23 452.45 445.44 450.59 C 455.40 446.76 465.30 442.77 475.29 439.00 C 470.50 456.27 466.36 473.72 461.85 491.06 C 459.69 499.88 457.30 508.94 458.61 518.09 C 460.39 529.50 463.55 540.64 466.06 551.91 C 472.57 580.72 479.90 609.33 486.41 638.14 C 491.88 660.61 497.36 683.08 502.64 705.59 C 503.79 710.52 509.23 713.87 514.15 712.66 C 517.95 711.94 520.88 708.71 521.60 704.97 C 535.74 646.04 549.77 587.08 563.62 528.08 C 565.92 518.96 566.63 509.34 564.29 500.15 C 559.55 479.67 554.08 459.35 548.71 439.03 C 557.66 442.26 566.50 445.80 575.34 449.29 C 578.13 450.21 580.98 451.88 584.01 451.11 C 589.60 450.07 592.93 442.99 590.08 438.04 C 566.83 392.45 543.95 346.66 520.57 301.14 C 518.84 296.84 513.95 293.96 509.39 295.51 Z" style="fill: none !important;"/>
<path fill="#ffffff" opacity="1.00" d=" M 309.18 262.10 C 356.95 221.93 416.87 196.16 479.11 190.45 C 478.60 198.19 478.96 205.97 478.93 213.73 C 450.79 216.92 423.23 224.35 397.09 235.18 C 371.35 246.26 347.19 260.96 325.57 278.79 C 320.17 273.17 314.68 267.64 309.18 262.10 Z" style="fill: none !important;"/>
<path fill="#ffffff" opacity="1.00" d=" M 544.93 190.37 C 607.13 196.46 667.66 221.54 714.99 262.50 C 709.76 268.12 704.32 273.53 698.95 279.00 C 670.31 255.59 637.48 237.11 602.12 226.04 C 583.62 219.85 564.42 216.01 545.08 213.63 C 545.03 205.88 545.41 198.11 544.93 190.37 Z" style="fill: none !important;"/>
<path fill="#ffffff" opacity="1.00" d=" M 256.43 248.53 C 261.14 246.71 266.65 248.29 270.13 251.83 C 288.93 270.72 307.95 289.39 326.60 308.43 C 330.38 312.45 335.66 316.03 336.34 321.97 C 337.36 330.11 329.05 338.07 320.94 335.84 C 316.74 335.14 313.90 331.71 310.98 328.93 C 292.87 310.71 274.66 292.58 256.50 274.41 C 253.37 271.32 249.55 268.38 248.39 263.92 C 246.35 257.74 250.30 250.51 256.43 248.53 Z" style="fill: none !important;"/>
<path fill="#ffffff" opacity="1.00" d=" M 758.57 248.79 C 763.62 246.45 770.14 247.98 773.41 252.54 C 776.98 257.03 776.95 263.91 773.44 268.42 C 770.24 272.57 765.99 275.72 762.38 279.48 C 745.28 296.67 727.98 313.65 710.91 330.86 C 708.70 333.09 706.26 335.45 703.00 335.84 C 695.79 337.67 688.19 331.30 688.13 323.98 C 687.72 320.22 689.34 316.58 691.99 313.98 C 710.81 295.15 729.67 276.35 748.58 257.60 C 751.74 254.50 754.55 250.82 758.57 248.79 Z" style="fill: none !important;"/>
<path fill="#030303" opacity="1.00" d=" M 509.39 295.51 C 513.95 293.96 518.84 296.84 520.57 301.14 C 543.95 346.66 566.83 392.45 590.08 438.04 C 592.93 442.99 589.60 450.07 584.01 451.11 C 580.98 451.88 578.13 450.21 575.34 449.29 C 566.50 445.80 557.66 442.26 548.71 439.03 C 554.08 459.35 559.55 479.67 564.29 500.15 C 566.63 509.34 565.92 518.96 563.62 528.08 C 549.77 587.08 535.74 646.04 521.60 704.97 C 520.88 708.71 517.95 711.94 514.15 712.66 C 509.23 713.87 503.79 710.52 502.64 705.59 C 497.36 683.08 491.88 660.61 486.41 638.14 C 479.90 609.33 472.57 580.72 466.06 551.91 C 463.55 540.64 460.39 529.50 458.61 518.09 C 457.30 508.94 459.69 499.88 461.85 491.06 C 466.36 473.72 470.50 456.27 475.29 439.00 C 465.30 442.77 455.40 446.76 445.44 450.59 C 441.23 452.45 435.73 450.38 433.90 446.13 C 432.41 443.19 432.98 439.62 434.60 436.86 C 457.03 392.90 479.17 348.79 501.62 304.83 C 503.47 301.26 505.03 296.64 509.39 295.51 M 506.19 487.17 C 495.72 489.60 487.28 499.17 486.67 509.98 C 485.54 522.03 494.38 533.87 506.13 536.52 C 514.75 538.80 524.26 535.75 530.42 529.45 C 537.05 522.14 539.47 510.90 535.18 501.82 C 530.75 490.76 517.72 484.13 506.19 487.17 M 488.01 559.80 C 496.28 593.53 503.77 627.45 512.02 661.19 C 520.00 627.37 527.97 593.54 535.82 559.68 C 521.08 567.41 502.85 567.12 488.01 559.80 Z" style="fill: rgb(0, 0, 0) !important;"/>
<path fill="#ffffff" opacity="1.00" d=" M 744.96 325.11 C 750.59 319.71 756.04 314.12 761.72 308.77 C 783.23 336.37 801.02 367.05 812.62 400.14 C 821.95 425.44 827.45 452.07 830.38 478.85 C 822.51 478.81 814.64 479.07 806.78 478.82 C 802.71 436.95 789.18 396.15 768.34 359.66 C 761.36 347.60 753.31 336.23 744.96 325.11 Z" style="fill: none !important;"/>
<path fill="#ffffff" opacity="1.00" d=" M 204.36 422.88 C 216.02 381.66 235.81 342.66 262.42 309.08 C 268.03 314.39 273.43 319.91 279.07 325.18 C 275.39 330.70 271.27 335.91 267.52 341.37 C 241.52 379.68 224.20 423.95 218.27 469.91 C 217.03 479.63 215.92 489.40 215.65 499.21 C 225.44 499.20 235.23 499.11 245.02 499.16 C 251.12 499.03 257.15 503.74 257.88 509.93 C 259.48 517.12 253.41 524.72 246.04 524.80 C 216.01 524.90 185.98 524.85 155.96 524.82 C 148.20 524.82 142.10 516.36 144.22 509.00 C 145.30 503.18 151.11 498.95 156.94 499.18 C 168.75 499.15 180.55 499.18 192.36 499.16 C 193.61 473.40 197.27 447.71 204.36 422.88 Z" style="fill: none !important;"/>
<path fill="#ffffff" opacity="1.00" d=" M 506.19 487.17 C 517.72 484.13 530.75 490.76 535.18 501.82 C 539.47 510.90 537.05 522.14 530.42 529.45 C 524.26 535.75 514.75 538.80 506.13 536.52 C 494.38 533.87 485.54 522.03 486.67 509.98 C 487.28 499.17 495.72 489.60 506.19 487.17 Z" style="fill: none !important;"/>
<path fill="#ffffff" opacity="1.00" d=" M 766.19 510.93 C 766.39 504.43 772.45 499.01 778.89 499.23 C 808.29 499.07 837.69 499.23 867.09 499.13 C 875.08 498.75 882.28 507.26 879.80 515.07 C 878.56 520.45 873.58 524.63 868.06 524.81 C 855.98 524.93 843.90 524.78 831.82 524.87 C 829.30 593.14 803.82 660.17 760.57 713.03 C 754.67 707.71 749.28 701.86 743.42 696.49 C 764.61 669.99 781.47 639.99 792.58 607.91 C 801.98 581.21 806.95 553.08 808.42 524.85 C 798.28 524.77 788.13 524.94 777.99 524.81 C 771.07 524.60 765.36 517.79 766.19 510.93 Z" style="fill: none !important;"/>
<path fill="#ffffff" opacity="1.00" d=" M 193.71 545.15 C 201.53 545.29 209.51 544.76 217.23 545.32 C 222.64 586.76 236.00 627.33 257.85 663.05 C 264.53 674.83 272.55 685.76 280.70 696.56 C 275.10 702.09 269.35 707.46 263.87 713.12 C 239.47 682.97 220.47 648.37 208.33 611.52 C 201.26 589.95 196.41 567.68 193.71 545.15 Z" style="fill: none !important;"/>
<path fill="#ffffff" opacity="1.00" d=" M 488.01 559.80 C 502.85 567.12 521.08 567.41 535.82 559.68 C 527.97 593.54 520.00 627.37 512.02 661.19 C 503.77 627.45 496.28 593.53 488.01 559.80 Z" style="fill: none !important;"/>
<path fill="#ffffff" opacity="1.00" d=" M 319.45 687.53 C 327.70 683.50 337.90 691.10 337.06 700.03 C 336.94 705.84 332.19 709.71 328.44 713.49 C 309.29 732.66 290.07 751.76 270.99 770.99 C 266.85 775.39 259.74 776.95 254.54 773.46 C 247.93 769.51 246.33 759.40 251.84 753.87 C 272.50 732.86 293.42 712.10 314.22 691.23 C 315.75 689.73 317.45 688.35 319.45 687.53 Z" style="fill: none !important;"/>
<path fill="#ffffff" opacity="1.00" d=" M 694.41 687.71 C 699.88 685.10 706.55 687.08 710.39 691.59 C 730.77 712.23 751.56 732.47 771.76 753.30 C 777.17 758.49 777.05 768.36 770.79 772.82 C 765.74 776.92 758.00 775.97 753.54 771.45 C 734.39 752.25 715.22 733.07 696.09 713.85 C 692.98 710.69 689.33 707.76 687.66 703.54 C 685.34 697.57 688.49 690.14 694.41 687.71 Z" style="fill: none !important;"/>
<path fill="#ffffff" opacity="1.00" d=" M 310.48 759.97 C 315.90 754.21 321.56 748.69 327.09 743.05 C 355.77 765.77 388.21 783.93 423.21 794.82 C 447.80 802.63 473.42 807.24 499.19 808.38 C 499.22 797.26 499.12 786.13 499.24 775.01 C 499.48 767.74 506.79 761.62 514.01 762.96 C 520.17 763.84 524.95 769.79 524.82 775.95 C 524.83 806.29 524.80 836.64 524.82 866.98 C 524.96 872.09 521.57 876.98 516.95 879.03 C 509.28 882.38 499.46 876.38 499.22 867.95 C 499.12 856.12 499.19 844.29 499.21 832.47 C 464.30 830.77 429.56 823.73 397.00 810.94 C 365.58 798.91 336.53 781.16 310.48 759.97 Z" style="fill: none !important;"/>
<path fill="#ffffff" opacity="1.00" d=" M 641.58 778.58 C 661.33 768.90 679.80 756.72 697.03 743.09 C 702.59 748.74 708.21 754.33 713.67 760.08 C 691.54 778.44 666.87 793.77 640.62 805.51 C 610.41 818.88 578.11 827.38 545.27 830.91 C 545.20 822.96 545.09 815.02 545.23 807.08 C 578.59 802.82 611.38 793.43 641.58 778.58 Z" style="fill: none !important;"/>
</svg>