<svg xmlns="http://www.w3.org/2000/svg" viewBox="244.81246948242188 169.91493225097656 534.4786682128906 684.4803924560547" version="1.1" width="32" height="38" style="">
<path fill="#ffffff" opacity="1.00" d=" M 0.00 0.00 L 1024.00 0.00 L 1024.00 1024.00 L 0.00 1024.00 L 0.00 0.00 M 409.57 176.46 C 399.87 182.20 393.17 191.94 389.50 202.46 C 378.01 239.93 366.73 277.47 356.15 315.22 C 407.36 333.19 461.85 340.82 516.01 340.36 C 567.67 340.31 619.47 332.23 668.30 315.20 C 662.69 297.45 658.06 279.41 652.64 261.61 C 646.83 242.32 641.14 222.99 635.13 203.77 C 631.57 193.31 625.62 183.06 615.98 177.14 C 606.07 170.67 593.33 168.71 581.96 172.00 C 559.92 178.11 538.77 187.35 516.32 191.94 C 531.22 200.90 547.54 208.05 564.85 210.57 C 567.93 211.00 570.86 212.70 572.49 215.39 C 575.66 220.07 573.63 227.09 568.64 229.59 C 564.97 231.71 560.69 230.42 556.84 229.67 C 534.64 225.44 514.41 214.56 495.62 202.41 C 479.83 192.83 464.70 182.02 447.93 174.17 C 435.80 168.33 420.97 169.46 409.57 176.46 M 266.50 346.70 C 259.65 350.80 252.52 355.25 248.03 362.04 C 245.00 366.46 244.37 372.46 246.82 377.29 C 250.76 385.67 258.99 390.68 266.67 395.21 C 279.29 402.24 292.99 407.04 306.82 411.07 C 339.83 420.76 373.90 426.33 408.04 430.15 C 463.80 435.92 520.05 436.68 576.00 433.42 C 617.01 430.82 658.00 425.91 698.00 416.29 C 719.48 410.88 741.18 404.83 760.42 393.53 C 767.78 388.89 775.60 383.26 778.26 374.55 C 780.22 368.01 776.45 361.56 771.95 357.07 C 765.33 350.67 757.13 346.21 748.85 342.34 C 727.15 332.45 703.79 327.08 680.56 322.12 C 683.43 333.77 686.65 345.36 688.54 357.21 C 679.26 362.35 668.64 364.31 658.68 367.74 C 600.86 384.75 540.01 390.67 479.92 387.26 C 432.49 384.52 385.33 375.54 340.52 359.67 C 338.58 358.74 334.90 358.02 335.96 355.06 C 338.16 344.04 340.95 333.16 343.69 322.27 C 317.22 327.58 290.51 333.96 266.50 346.70 M 334.61 543.91 C 343.93 579.45 364.68 611.73 392.49 635.64 C 420.38 659.95 455.71 675.56 492.51 679.55 C 492.40 690.06 492.49 700.57 492.51 711.08 C 486.83 710.57 481.23 715.08 481.59 720.99 C 481.59 755.99 481.57 790.99 481.60 826.00 C 481.62 834.16 485.49 842.07 491.62 847.40 C 497.39 852.56 505.49 854.12 513.02 853.87 C 519.29 854.02 525.74 852.52 530.88 848.80 C 538.22 843.29 542.86 834.24 542.61 825.01 C 542.54 790.05 542.69 755.08 542.55 720.11 C 542.56 714.49 536.96 710.75 531.71 711.06 C 531.54 700.57 531.74 690.08 531.63 679.60 C 564.33 675.97 595.96 663.22 622.16 643.34 C 647.70 624.13 668.31 598.32 680.93 568.93 C 698.57 528.37 700.38 481.26 686.24 439.38 C 672.21 442.89 657.82 444.63 643.64 447.32 C 646.79 456.00 649.32 464.91 650.87 474.02 C 657.61 512.86 646.89 554.40 621.80 584.84 C 601.26 610.54 571.53 628.77 539.24 635.19 C 513.63 640.59 486.56 637.86 462.19 628.52 C 430.43 616.40 403.49 592.38 387.57 562.38 C 368.84 527.41 366.01 484.30 380.62 447.36 C 366.35 444.85 352.02 442.60 337.84 439.58 C 326.59 473.07 325.30 509.80 334.61 543.91 M 401.81 449.97 C 384.00 488.73 390.31 536.89 416.78 570.20 C 441.25 602.87 483.40 621.20 523.99 616.85 C 560.70 613.38 595.14 591.79 614.43 560.38 C 635.16 527.75 638.19 484.78 622.34 449.54 C 597.37 452.75 572.17 454.03 547.02 455.07 C 498.57 456.74 450.03 454.85 401.81 449.97 Z" style="fill: none !important;"/>
<path fill="#030303" opacity="1.00" d=" M 409.57 176.46 C 420.97 169.46 435.80 168.33 447.93 174.17 C 464.70 182.02 479.83 192.83 495.62 202.41 C 514.41 214.56 534.64 225.44 556.84 229.67 C 560.69 230.42 564.97 231.71 568.64 229.59 C 573.63 227.09 575.66 220.07 572.49 215.39 C 570.86 212.70 567.93 211.00 564.85 210.57 C 547.54 208.05 531.22 200.90 516.32 191.94 C 538.77 187.35 559.92 178.11 581.96 172.00 C 593.33 168.71 606.07 170.67 615.98 177.14 C 625.62 183.06 631.57 193.31 635.13 203.77 C 641.14 222.99 646.83 242.32 652.64 261.61 C 658.06 279.41 662.69 297.45 668.30 315.20 C 619.47 332.23 567.67 340.31 516.01 340.36 C 461.85 340.82 407.36 333.19 356.15 315.22 C 366.73 277.47 378.01 239.93 389.50 202.46 C 393.17 191.94 399.87 182.20 409.57 176.46 Z" style="fill: rgb(0, 0, 0) !important;"/>
<path fill="#030303" opacity="1.00" d=" M 266.50 346.70 C 290.51 333.96 317.22 327.58 343.69 322.27 C 340.95 333.16 338.16 344.04 335.96 355.06 C 334.90 358.02 338.58 358.74 340.52 359.67 C 385.33 375.54 432.49 384.52 479.92 387.26 C 540.01 390.67 600.86 384.75 658.68 367.74 C 668.64 364.31 679.26 362.35 688.54 357.21 C 686.65 345.36 683.43 333.77 680.56 322.12 C 703.79 327.08 727.15 332.45 748.85 342.34 C 757.13 346.21 765.33 350.67 771.95 357.07 C 776.45 361.56 780.22 368.01 778.26 374.55 C 775.60 383.26 767.78 388.89 760.42 393.53 C 741.18 404.83 719.48 410.88 698.00 416.29 C 658.00 425.91 617.01 430.82 576.00 433.42 C 520.05 436.68 463.80 435.92 408.04 430.15 C 373.90 426.33 339.83 420.76 306.82 411.07 C 292.99 407.04 279.29 402.24 266.67 395.21 C 258.99 390.68 250.76 385.67 246.82 377.29 C 244.37 372.46 245.00 366.46 248.03 362.04 C 252.52 355.25 259.65 350.80 266.50 346.70 Z" style="fill: rgb(0, 0, 0) !important;"/>
<path fill="#030303" opacity="1.00" d=" M 334.61 543.91 C 325.30 509.80 326.59 473.07 337.84 439.58 C 352.02 442.60 366.35 444.85 380.62 447.36 C 366.01 484.30 368.84 527.41 387.57 562.38 C 403.49 592.38 430.43 616.40 462.19 628.52 C 486.56 637.86 513.63 640.59 539.24 635.19 C 571.53 628.77 601.26 610.54 621.80 584.84 C 646.89 554.40 657.61 512.86 650.87 474.02 C 649.32 464.91 646.79 456.00 643.64 447.32 C 657.82 444.63 672.21 442.89 686.24 439.38 C 700.38 481.26 698.57 528.37 680.93 568.93 C 668.31 598.32 647.70 624.13 622.16 643.34 C 595.96 663.22 564.33 675.97 531.63 679.60 C 531.74 690.08 531.54 700.57 531.71 711.06 C 536.96 710.75 542.56 714.49 542.55 720.11 C 542.69 755.08 542.54 790.05 542.61 825.01 C 542.86 834.24 538.22 843.29 530.88 848.80 C 525.74 852.52 519.29 854.02 513.02 853.87 C 505.49 854.12 497.39 852.56 491.62 847.40 C 485.49 842.07 481.62 834.16 481.60 826.00 C 481.57 790.99 481.59 755.99 481.59 720.99 C 481.23 715.08 486.83 710.57 492.51 711.08 C 492.49 700.57 492.40 690.06 492.51 679.55 C 455.71 675.56 420.38 659.95 392.49 635.64 C 364.68 611.73 343.93 579.45 334.61 543.91 Z" style="fill: rgb(0, 0, 0) !important;"/>
<path fill="#030303" opacity="1.00" d=" M 401.81 449.97 C 450.03 454.85 498.57 456.74 547.02 455.07 C 572.17 454.03 597.37 452.75 622.34 449.54 C 638.19 484.78 635.16 527.75 614.43 560.38 C 595.14 591.79 560.70 613.38 523.99 616.85 C 483.40 621.20 441.25 602.87 416.78 570.20 C 390.31 536.89 384.00 488.73 401.81 449.97 Z" style="fill: rgb(0, 0, 0) !important;"/>
</svg>