<svg xmlns="http://www.w3.org/2000/svg" viewBox="-0.5 -0.5 690 690" version="1.1" width="32" height="32" style="">
<path fill="#ffffff" opacity="1.00" d=" M 0.00 0.00 L 689.00 0.00 L 689.00 689.00 L 0.00 689.00 L 0.00 0.00 M 350.54 18.97 C 299.37 22.76 249.81 44.33 211.99 78.97 C 193.71 95.25 178.09 114.47 165.51 135.45 C 144.04 171.49 132.37 213.15 131.00 255.00 C 130.11 264.03 131.16 273.05 131.48 282.07 C 134.68 326.64 150.43 370.20 176.34 406.58 C 178.58 409.53 180.69 413.91 184.98 413.84 C 188.39 414.32 191.95 411.52 191.74 407.98 C 192.02 405.82 191.16 403.78 189.84 402.12 C 164.44 368.31 149.23 327.15 145.54 285.09 C 145.24 280.06 145.40 275.01 144.83 270.00 C 143.95 229.58 153.05 188.81 172.20 153.10 C 186.61 126.24 206.16 102.05 229.88 82.86 C 248.96 67.51 270.33 54.79 293.42 46.51 C 317.85 37.48 343.96 32.89 370.00 33.24 C 419.62 32.59 468.98 49.63 508.42 79.57 C 533.27 98.27 554.35 122.00 570.16 148.79 C 590.55 183.24 601.76 222.98 602.93 262.96 C 603.87 270.96 602.54 278.96 602.44 286.96 C 600.56 308.11 596.30 329.15 588.89 349.07 C 575.55 385.15 553.02 417.77 524.02 443.04 C 494.09 469.43 457.11 487.90 417.89 495.43 C 376.94 502.98 333.84 499.18 295.08 483.81 C 292.13 482.85 289.21 480.84 286.00 481.61 C 283.51 482.71 281.16 485.06 281.42 488.00 C 280.93 491.80 284.72 494.06 287.79 495.17 C 335.26 514.43 389.16 517.99 438.58 504.32 C 478.91 493.18 515.81 470.85 545.46 441.46 C 571.96 414.92 592.54 382.34 604.38 346.70 C 613.04 320.73 617.05 293.31 617.20 265.99 C 616.42 258.68 616.87 251.28 615.74 244.01 C 612.00 206.53 599.80 169.90 580.08 137.80 C 558.50 102.14 527.75 72.22 491.91 51.04 C 467.02 36.43 439.41 26.61 411.02 21.60 C 391.08 18.05 370.70 17.57 350.54 18.97 M 260.51 81.41 C 208.01 114.81 171.43 171.99 163.22 233.68 C 156.47 282.49 166.33 333.70 192.05 375.87 C 199.04 387.87 207.36 399.05 216.33 409.64 C 217.28 410.54 215.99 411.69 215.53 412.48 C 207.70 422.24 200.06 432.17 192.11 441.80 C 189.18 441.42 186.31 440.35 183.31 440.70 C 177.71 441.42 172.55 444.63 169.17 449.13 C 134.27 493.55 98.99 537.67 64.09 582.09 C 57.07 590.72 52.76 601.79 53.19 612.99 C 52.43 628.89 60.45 644.43 72.71 654.27 C 81.08 660.62 91.42 664.78 102.01 664.83 C 118.07 665.60 134.38 657.92 143.93 644.96 C 178.71 600.41 213.78 556.09 248.67 511.63 C 252.81 506.53 253.79 499.40 252.11 493.17 C 251.64 491.05 249.48 489.25 249.76 487.09 C 257.68 476.35 266.18 466.02 274.01 455.21 C 311.72 475.73 355.50 485.35 398.31 480.85 C 435.41 476.88 471.16 462.33 501.05 440.08 C 530.59 417.96 554.36 388.15 569.23 354.36 C 583.35 322.40 589.42 286.96 587.13 252.12 C 584.48 217.51 574.19 183.40 556.31 153.58 C 537.16 121.16 509.37 93.86 476.56 75.37 C 463.58 67.73 449.44 62.32 435.16 57.66 C 377.18 39.72 311.53 48.42 260.51 81.41 Z" style="fill: none !important;"/>
<path fill="#000000" opacity="1.00" d=" M 350.54 18.97 C 370.70 17.57 391.08 18.05 411.02 21.60 C 439.41 26.61 467.02 36.43 491.91 51.04 C 527.75 72.22 558.50 102.14 580.08 137.80 C 599.80 169.90 612.00 206.53 615.74 244.01 C 616.87 251.28 616.42 258.68 617.20 265.99 C 617.05 293.31 613.04 320.73 604.38 346.70 C 592.54 382.34 571.96 414.92 545.46 441.46 C 515.81 470.85 478.91 493.18 438.58 504.32 C 389.16 517.99 335.26 514.43 287.79 495.17 C 284.72 494.06 280.93 491.80 281.42 488.00 C 281.16 485.06 283.51 482.71 286.00 481.61 C 289.21 480.84 292.13 482.85 295.08 483.81 C 333.84 499.18 376.94 502.98 417.89 495.43 C 457.11 487.90 494.09 469.43 524.02 443.04 C 553.02 417.77 575.55 385.15 588.89 349.07 C 596.30 329.15 600.56 308.11 602.44 286.96 C 602.54 278.96 603.87 270.96 602.93 262.96 C 601.76 222.98 590.55 183.24 570.16 148.79 C 554.35 122.00 533.27 98.27 508.42 79.57 C 468.98 49.63 419.62 32.59 370.00 33.24 C 343.96 32.89 317.85 37.48 293.42 46.51 C 270.33 54.79 248.96 67.51 229.88 82.86 C 206.16 102.05 186.61 126.24 172.20 153.10 C 153.05 188.81 143.95 229.58 144.83 270.00 C 145.40 275.01 145.24 280.06 145.54 285.09 C 149.23 327.15 164.44 368.31 189.84 402.12 C 191.16 403.78 192.02 405.82 191.74 407.98 C 191.95 411.52 188.39 414.32 184.98 413.84 C 180.69 413.91 178.58 409.53 176.34 406.58 C 150.43 370.20 134.68 326.64 131.48 282.07 C 131.16 273.05 130.11 264.03 131.00 255.00 C 132.37 213.15 144.04 171.49 165.51 135.45 C 178.09 114.47 193.71 95.25 211.99 78.97 C 249.81 44.33 299.37 22.76 350.54 18.97 Z" style="fill: rgb(0, 0, 0) !important;"/>
<path fill="#000000" opacity="1.00" d=" M 260.51 81.41 C 311.53 48.42 377.18 39.72 435.16 57.66 C 449.44 62.32 463.58 67.73 476.56 75.37 C 509.37 93.86 537.16 121.16 556.31 153.58 C 574.19 183.40 584.48 217.51 587.13 252.12 C 589.42 286.96 583.35 322.40 569.23 354.36 C 554.36 388.15 530.59 417.96 501.05 440.08 C 471.16 462.33 435.41 476.88 398.31 480.85 C 355.50 485.35 311.72 475.73 274.01 455.21 C 266.18 466.02 257.68 476.35 249.76 487.09 C 249.48 489.25 251.64 491.05 252.11 493.17 C 253.79 499.40 252.81 506.53 248.67 511.63 C 213.78 556.09 178.71 600.41 143.93 644.96 C 134.38 657.92 118.07 665.60 102.01 664.83 C 91.42 664.78 81.08 660.62 72.71 654.27 C 60.45 644.43 52.43 628.89 53.19 612.99 C 52.76 601.79 57.07 590.72 64.09 582.09 C 98.99 537.67 134.27 493.55 169.17 449.13 C 172.55 444.63 177.71 441.42 183.31 440.70 C 186.31 440.35 189.18 441.42 192.11 441.80 C 200.06 432.17 207.70 422.24 215.53 412.48 C 215.99 411.69 217.28 410.54 216.33 409.64 C 207.36 399.05 199.04 387.87 192.05 375.87 C 166.33 333.70 156.47 282.49 163.22 233.68 C 171.43 171.99 208.01 114.81 260.51 81.41 M 359.56 93.03 C 314.18 96.65 271.00 120.17 242.97 155.98 C 211.95 194.77 198.63 247.35 208.41 296.13 C 214.04 326.27 228.17 354.67 248.15 377.86 C 259.64 390.48 272.33 402.21 286.99 411.09 C 322.11 433.35 365.66 441.83 406.54 434.11 C 446.35 426.53 482.72 403.34 507.38 371.32 C 530.91 341.26 543.37 303.06 543.35 264.98 C 542.62 235.57 534.92 206.22 520.62 180.47 C 506.00 154.25 484.51 131.85 458.81 116.32 C 429.33 98.25 393.99 90.03 359.56 93.03 M 226.77 422.73 C 219.55 431.82 212.55 441.08 205.38 450.21 C 205.38 450.52 205.39 451.14 205.39 451.45 C 216.22 460.08 226.90 468.90 237.86 477.36 C 245.29 467.35 253.04 457.59 260.63 447.71 C 250.35 440.32 239.78 433.17 230.83 424.15 C 229.79 423.31 228.07 421.18 226.77 422.73 M 174.42 474.42 C 171.95 475.46 170.44 477.83 168.80 479.84 C 143.04 512.70 117.07 545.41 91.33 578.29 C 88.94 581.39 85.98 584.21 84.65 587.98 C 83.49 592.61 88.16 597.26 92.75 596.16 C 96.91 594.87 99.11 590.78 101.74 587.65 C 128.45 553.46 155.92 519.85 182.28 485.39 C 186.54 480.35 180.73 471.20 174.42 474.42 Z" style="fill: rgb(0, 0, 0) !important;"/>
<path fill="#ffffff" opacity="1.00" d=" M 359.56 93.03 C 393.99 90.03 429.33 98.25 458.81 116.32 C 484.51 131.85 506.00 154.25 520.62 180.47 C 534.92 206.22 542.62 235.57 543.35 264.98 C 543.37 303.06 530.91 341.26 507.38 371.32 C 482.72 403.34 446.35 426.53 406.54 434.11 C 365.66 441.83 322.11 433.35 286.99 411.09 C 272.33 402.21 259.64 390.48 248.15 377.86 C 228.17 354.67 214.04 326.27 208.41 296.13 C 198.63 247.35 211.95 194.77 242.97 155.98 C 271.00 120.17 314.18 96.65 359.56 93.03 M 288.40 159.44 C 283.06 161.86 282.04 169.78 286.25 173.74 C 294.30 181.70 302.76 189.25 311.01 197.00 C 313.31 199.37 318.11 199.90 320.24 197.06 C 321.32 194.68 321.16 191.66 319.54 189.56 C 313.94 181.49 308.10 173.60 302.50 165.53 C 300.50 162.76 298.41 159.60 294.95 158.59 C 292.75 158.27 290.35 158.24 288.40 159.44 M 451.55 159.64 C 448.20 161.92 446.06 165.46 443.67 168.65 C 438.61 175.86 433.27 182.89 428.34 190.19 C 427.07 191.94 427.04 194.31 427.71 196.30 C 429.37 199.41 434.04 199.89 436.55 197.53 C 444.18 191.20 450.90 183.86 458.43 177.41 C 461.43 174.69 465.28 171.60 464.64 167.03 C 465.02 160.63 456.86 156.00 451.55 159.64 M 363.45 166.38 C 356.14 181.48 348.91 196.61 341.67 211.75 C 340.24 214.53 339.45 217.78 337.28 220.11 C 318.74 222.73 300.22 225.54 281.65 227.92 C 278.05 228.54 273.85 229.36 271.73 232.68 C 270.28 235.19 268.99 238.26 269.98 241.18 C 271.09 245.19 274.64 247.73 277.37 250.63 C 290.07 263.32 303.39 275.36 315.90 288.22 C 315.69 290.53 315.42 292.84 314.93 295.12 C 311.65 312.05 308.68 329.05 305.61 346.02 C 305.07 349.35 304.94 353.09 307.18 355.87 C 310.21 360.33 316.73 360.76 321.17 358.31 C 338.61 349.28 355.59 339.35 372.99 330.27 C 379.54 332.95 385.49 336.97 391.81 340.17 C 403.76 346.53 415.41 353.52 427.64 359.33 C 434.30 362.02 442.08 356.13 441.28 349.03 C 437.92 329.28 434.00 309.61 430.46 289.89 C 429.90 288.33 431.35 287.29 432.27 286.31 C 445.28 273.63 458.29 260.96 471.46 248.44 C 474.06 245.94 477.01 242.94 476.61 239.01 C 476.94 234.30 473.33 229.94 468.82 228.90 C 462.82 227.37 456.62 226.92 450.53 225.91 C 437.15 224.08 423.79 222.15 410.43 220.23 C 407.91 220.07 407.35 217.30 406.30 215.50 C 398.59 199.02 390.64 182.67 382.88 166.22 C 381.31 162.68 378.16 159.29 374.02 159.33 C 369.31 158.84 365.25 162.28 363.45 166.38 M 283.35 295.20 C 273.16 298.41 262.87 301.28 252.72 304.59 C 247.47 306.04 243.65 312.46 246.59 317.50 C 248.70 321.67 254.24 323.62 258.47 321.55 C 267.66 317.42 276.12 311.83 285.14 307.34 C 288.40 305.63 293.19 303.58 292.38 299.03 C 291.82 294.81 286.77 293.42 283.35 295.20 M 458.46 295.32 C 455.17 297.00 455.22 302.83 458.56 304.46 C 465.76 308.67 473.22 312.44 480.48 316.56 C 484.27 318.54 487.90 320.92 492.00 322.23 C 497.08 323.45 502.69 319.25 502.58 313.96 C 502.90 309.59 499.64 305.61 495.52 304.47 C 485.55 301.26 475.52 298.27 465.50 295.22 C 463.25 294.52 460.54 293.74 458.46 295.32 M 372.43 359.41 C 369.49 360.16 368.84 363.52 368.55 366.10 C 367.38 376.73 366.14 387.36 365.34 398.03 C 364.79 401.89 366.81 406.00 370.43 407.60 C 375.03 410.10 381.60 407.19 382.64 402.03 C 383.18 398.02 382.59 393.98 382.30 389.99 C 381.08 381.15 380.85 372.18 379.23 363.40 C 378.80 360.24 375.38 358.36 372.43 359.41 Z" style="fill: none !important;"/>
<path fill="#000000" opacity="1.00" d=" M 288.40 159.44 C 290.35 158.24 292.75 158.27 294.95 158.59 C 298.41 159.60 300.50 162.76 302.50 165.53 C 308.10 173.60 313.94 181.49 319.54 189.56 C 321.16 191.66 321.32 194.68 320.24 197.06 C 318.11 199.90 313.31 199.37 311.01 197.00 C 302.76 189.25 294.30 181.70 286.25 173.74 C 282.04 169.78 283.06 161.86 288.40 159.44 Z" style="fill: rgb(0, 0, 0) !important;"/>
<path fill="#000000" opacity="1.00" d=" M 451.55 159.64 C 456.86 156.00 465.02 160.63 464.64 167.03 C 465.28 171.60 461.43 174.69 458.43 177.41 C 450.90 183.86 444.18 191.20 436.55 197.53 C 434.04 199.89 429.37 199.41 427.71 196.30 C 427.04 194.31 427.07 191.94 428.34 190.19 C 433.27 182.89 438.61 175.86 443.67 168.65 C 446.06 165.46 448.20 161.92 451.55 159.64 Z" style="fill: rgb(0, 0, 0) !important;"/>
<path fill="#000000" opacity="1.00" d=" M 363.45 166.38 C 365.25 162.28 369.31 158.84 374.02 159.33 C 378.16 159.29 381.31 162.68 382.88 166.22 C 390.64 182.67 398.59 199.02 406.30 215.50 C 407.35 217.30 407.91 220.07 410.43 220.23 C 423.79 222.15 437.15 224.08 450.53 225.91 C 456.62 226.92 462.82 227.37 468.82 228.90 C 473.33 229.94 476.94 234.30 476.61 239.01 C 477.01 242.94 474.06 245.94 471.46 248.44 C 458.29 260.96 445.28 273.63 432.27 286.31 C 431.35 287.29 429.90 288.33 430.46 289.89 C 434.00 309.61 437.92 329.28 441.28 349.03 C 442.08 356.13 434.30 362.02 427.64 359.33 C 415.41 353.52 403.76 346.53 391.81 340.17 C 385.49 336.97 379.54 332.95 372.99 330.27 C 355.59 339.35 338.61 349.28 321.17 358.31 C 316.73 360.76 310.21 360.33 307.18 355.87 C 304.94 353.09 305.07 349.35 305.61 346.02 C 308.68 329.05 311.65 312.05 314.93 295.12 C 315.42 292.84 315.69 290.53 315.90 288.22 C 303.39 275.36 290.07 263.32 277.37 250.63 C 274.64 247.73 271.09 245.19 269.98 241.18 C 268.99 238.26 270.28 235.19 271.73 232.68 C 273.85 229.36 278.05 228.54 281.65 227.92 C 300.22 225.54 318.74 222.73 337.28 220.11 C 339.45 217.78 340.24 214.53 341.67 211.75 C 348.91 196.61 356.14 181.48 363.45 166.38 M 367.42 192.42 C 365.45 192.82 364.44 194.85 363.50 196.43 C 358.61 206.39 354.14 216.55 349.33 226.55 C 347.88 229.69 345.26 232.58 341.63 232.92 C 330.73 234.45 319.85 236.14 308.95 237.65 C 307.12 238.00 305.03 238.53 304.14 240.36 C 301.80 243.73 304.93 248.70 308.94 248.41 C 318.98 247.51 328.93 245.62 338.94 244.37 C 343.54 243.78 348.36 243.03 352.16 240.14 C 356.50 237.30 358.72 232.42 360.79 227.86 C 365.05 218.49 369.79 209.34 373.87 199.89 C 375.82 195.96 371.77 190.74 367.42 192.42 Z" style="fill: rgb(0, 0, 0) !important;"/>
<path fill="#ffffff" opacity="1.00" d=" M 367.42 192.42 C 371.77 190.74 375.82 195.96 373.87 199.89 C 369.79 209.34 365.05 218.49 360.79 227.86 C 358.72 232.42 356.50 237.30 352.16 240.14 C 348.36 243.03 343.54 243.78 338.94 244.37 C 328.93 245.62 318.98 247.51 308.94 248.41 C 304.93 248.70 301.80 243.73 304.14 240.36 C 305.03 238.53 307.12 238.00 308.95 237.65 C 319.85 236.14 330.73 234.45 341.63 232.92 C 345.26 232.58 347.88 229.69 349.33 226.55 C 354.14 216.55 358.61 206.39 363.50 196.43 C 364.44 194.85 365.45 192.82 367.42 192.42 Z" style="fill: none !important;"/>
<path fill="#000000" opacity="1.00" d=" M 283.35 295.20 C 286.77 293.42 291.82 294.81 292.38 299.03 C 293.19 303.58 288.40 305.63 285.14 307.34 C 276.12 311.83 267.66 317.42 258.47 321.55 C 254.24 323.62 248.70 321.67 246.59 317.50 C 243.65 312.46 247.47 306.04 252.72 304.59 C 262.87 301.28 273.16 298.41 283.35 295.20 Z" style="fill: rgb(0, 0, 0) !important;"/>
<path fill="#000000" opacity="1.00" d=" M 458.46 295.32 C 460.54 293.74 463.25 294.52 465.50 295.22 C 475.52 298.27 485.55 301.26 495.52 304.47 C 499.64 305.61 502.90 309.59 502.58 313.96 C 502.69 319.25 497.08 323.45 492.00 322.23 C 487.90 320.92 484.27 318.54 480.48 316.56 C 473.22 312.44 465.76 308.67 458.56 304.46 C 455.22 302.83 455.17 297.00 458.46 295.32 Z" style="fill: rgb(0, 0, 0) !important;"/>
<path fill="#000000" opacity="1.00" d=" M 372.43 359.41 C 375.38 358.36 378.80 360.24 379.23 363.40 C 380.85 372.18 381.08 381.15 382.30 389.99 C 382.59 393.98 383.18 398.02 382.64 402.03 C 381.60 407.19 375.03 410.10 370.43 407.60 C 366.81 406.00 364.79 401.89 365.34 398.03 C 366.14 387.36 367.38 376.73 368.55 366.10 C 368.84 363.52 369.49 360.16 372.43 359.41 Z" style="fill: rgb(0, 0, 0) !important;"/>
<path fill="#ffffff" opacity="1.00" d=" M 226.77 422.73 C 228.07 421.18 229.79 423.31 230.83 424.15 C 239.78 433.17 250.35 440.32 260.63 447.71 C 253.04 457.59 245.29 467.35 237.86 477.36 C 226.90 468.90 216.22 460.08 205.39 451.45 C 205.39 451.14 205.38 450.52 205.38 450.21 C 212.55 441.08 219.55 431.82 226.77 422.73 Z" style="fill: none !important;"/>
<path fill="#ffffff" opacity="1.00" d=" M 174.42 474.42 C 180.73 471.20 186.54 480.35 182.28 485.39 C 155.92 519.85 128.45 553.46 101.74 587.65 C 99.11 590.78 96.91 594.87 92.75 596.16 C 88.16 597.26 83.49 592.61 84.65 587.98 C 85.98 584.21 88.94 581.39 91.33 578.29 C 117.07 545.41 143.04 512.70 168.80 479.84 C 170.44 477.83 171.95 475.46 174.42 474.42 Z" style="fill: none !important;"/>
</svg>