<svg xmlns="http://www.w3.org/2000/svg" role="img" viewBox="87.28 137.28 765.44 765.44" width="32" height="38" style=""><g id="#ffffffff" fill="#fff" stroke="#fff" stroke-width=".094" style="fill: none !important;"><path d="M 0.00 0.00 L 1024.00 0.00 L 1024.00 1024.00 L 0.00 1024.00 L 0.00 0.00 M 511.22 155.18 C 507.74 162.21 504.82 169.51 501.44 176.58 C 500.94 177.87 499.17 177.51 498.12 177.89 C 490.86 178.98 483.46 179.12 476.24 180.45 C 474.05 180.68 473.29 183.54 475.01 184.87 C 480.95 190.63 487.38 195.88 493.06 201.91 C 491.73 209.98 489.46 217.89 488.27 225.98 C 487.86 228.01 490.19 230.17 492.12 228.88 C 499.67 225.35 506.40 220.25 514.09 216.96 C 521.21 220.75 528.01 225.13 535.15 228.88 C 537.08 230.60 539.81 228.37 539.29 226.09 C 538.05 217.91 535.84 209.90 534.64 201.70 C 540.44 195.77 547.10 190.76 552.91 184.85 C 554.35 183.51 553.53 180.90 551.60 180.59 C 543.35 179.12 534.86 179.10 526.66 177.42 C 522.65 169.87 519.89 161.69 515.83 154.18 C 514.75 152.10 511.77 153.29 511.22 155.18 M 620.48 203.62 C 616.78 208.66 613.30 213.86 609.67 218.96 C 603.74 218.69 597.85 217.90 591.95 217.23 C 590.33 217.13 587.80 216.60 587.30 218.81 C 590.39 225.45 596.01 230.50 599.52 236.92 C 596.78 243.32 593.57 249.56 591.44 256.20 C 590.90 258.33 593.43 258.69 594.95 258.03 C 601.07 256.14 607.12 253.99 613.15 251.82 C 618.40 256.27 623.23 261.23 628.74 265.37 C 629.91 265.90 631.98 265.75 631.70 263.99 C 632.11 257.24 631.50 250.47 631.86 243.72 C 637.54 238.57 645.75 236.74 650.91 230.98 C 644.73 226.55 636.62 226.34 629.80 223.24 C 627.37 216.07 626.76 208.40 624.21 201.27 C 622.67 201.55 621.25 202.21 620.48 203.62 M 321.96 213.92 C 319.19 218.45 317.24 223.42 315.16 228.29 C 310.77 229.04 306.35 229.57 301.91 229.92 C 300.45 229.99 299.28 230.88 298.16 231.71 C 301.57 236.32 306.72 239.18 310.32 243.64 C 309.35 248.42 308.09 253.16 307.35 257.99 C 307.01 260.44 309.88 260.23 311.29 259.32 C 315.23 257.16 319.13 254.90 322.95 252.53 C 327.86 255.08 332.37 258.35 337.40 260.68 C 337.75 260.24 338.44 259.35 338.78 258.90 C 338.35 253.68 336.71 248.63 335.69 243.50 C 339.70 239.71 344.28 236.42 347.72 232.10 L 347.43 230.96 C 342.37 228.96 336.70 229.56 331.45 228.34 C 328.60 224.01 327.22 218.91 324.62 214.45 C 324.33 213.30 322.50 212.71 321.96 213.92 M 410.39 224.48 C 405.92 225.29 401.21 225.05 396.96 226.82 C 399.25 230.29 402.84 232.51 405.68 235.45 C 407.56 237.04 405.81 239.48 405.63 241.45 C 405.31 244.12 403.27 247.22 404.88 249.72 C 409.17 248.62 412.62 245.60 416.68 243.92 C 419.99 245.74 423.11 247.92 426.53 249.53 C 427.45 249.95 428.22 249.75 428.87 248.94 C 428.74 244.71 427.37 240.67 426.42 236.59 C 429.37 233.03 433.64 230.74 436.07 226.75 C 431.88 224.79 427.12 225.42 422.71 224.41 C 420.08 220.49 419.43 215.44 416.04 212.01 C 413.80 216.00 412.30 220.34 410.39 224.48 M 705.73 239.47 C 703.33 243.89 701.58 248.62 699.33 253.11 C 694.84 253.57 690.37 254.22 685.87 254.51 C 684.36 254.46 681.92 255.78 683.52 257.41 C 686.71 261.41 691.39 263.97 694.48 268.08 C 694.00 273.66 691.77 278.95 691.62 284.58 C 697.49 284.09 702.13 279.79 707.26 277.24 C 711.62 279.54 715.64 282.46 720.13 284.51 C 721.36 285.24 723.11 284.84 723.17 283.21 C 722.51 278.30 721.08 273.53 720.29 268.65 C 723.13 263.97 728.97 261.68 731.77 256.94 C 732.77 255.62 730.53 254.88 729.59 254.70 C 725.04 253.88 720.39 253.91 715.86 253.12 C 712.47 248.38 711.64 242.17 707.95 237.63 C 706.90 237.90 706.16 238.52 705.73 239.47 M 496.55 255.81 C 462.17 261.33 432.24 287.13 421.13 320.02 C 413.27 342.79 414.67 368.54 424.60 390.46 C 429.70 401.67 437.21 411.55 445.10 420.92 C 453.69 431.09 460.97 442.76 464.15 455.81 C 465.84 462.14 465.87 468.73 466.82 475.18 C 467.64 481.15 472.89 486.12 478.99 486.20 C 500.65 486.31 522.31 486.26 543.97 486.21 C 548.34 486.19 553.24 486.03 556.64 482.88 C 560.44 479.73 561.14 474.51 561.44 469.89 C 562.20 459.49 564.71 449.15 569.59 439.89 C 577.85 423.99 592.24 412.27 600.14 396.13 C 609.64 378.78 613.36 358.47 610.76 338.87 C 606.71 304.14 582.03 272.86 549.32 260.61 C 532.60 254.22 514.16 252.75 496.55 255.81 M 366.33 291.36 C 363.94 296.57 361.72 301.85 359.40 307.09 C 352.94 307.90 346.21 307.68 340.00 309.84 C 343.25 315.70 349.31 319.35 353.88 324.13 C 353.73 330.70 350.79 336.89 350.55 343.48 C 351.70 343.50 352.98 344.02 354.05 343.37 C 359.06 340.74 363.86 337.74 368.81 335.01 C 374.28 338.11 379.41 341.83 385.12 344.48 C 385.50 344.12 386.27 343.40 386.66 343.04 C 385.89 336.64 384.05 330.40 383.17 324.01 C 387.31 320.51 391.00 316.53 395.20 313.10 C 396.42 312.35 397.52 310.15 395.73 309.36 C 389.94 307.34 383.37 308.75 377.64 306.51 C 374.57 301.23 373.14 295.10 369.71 290.02 C 368.50 288.24 366.71 289.91 366.33 291.36 M 287.86 314.18 C 250.17 317.50 212.50 320.97 174.83 324.46 C 165.68 325.21 156.94 328.97 149.82 334.72 C 118.01 358.73 101.10 399.60 103.13 439.01 C 104.37 468.78 116.07 497.85 135.24 520.59 C 158.90 548.47 194.03 567.25 230.86 568.44 C 230.84 616.31 230.90 664.18 230.88 712.05 C 230.92 735.70 230.60 759.35 231.24 782.98 C 231.57 790.61 235.35 797.92 241.26 802.72 C 246.02 806.84 252.25 808.46 257.90 810.94 C 310.97 833.69 364.01 856.50 417.09 879.21 C 425.17 882.73 433.18 886.79 442.01 888.05 C 452.10 889.93 462.01 886.40 471.85 884.62 C 535.00 871.13 598.07 857.30 661.17 843.59 C 712.18 832.55 763.20 821.62 814.17 810.44 C 823.19 808.62 830.74 801.59 833.63 792.92 C 835.77 785.82 835.11 778.33 835.23 771.02 C 835.29 703.36 835.24 635.69 835.24 568.02 C 835.47 560.32 831.34 552.21 823.91 549.35 C 810.32 543.97 796.42 539.38 782.63 534.56 C 778.12 539.88 775.16 546.45 771.21 552.24 C 781.03 555.91 790.99 559.26 800.68 563.30 C 686.78 583.12 572.82 602.57 458.91 622.32 C 450.66 623.63 442.01 626.19 433.82 623.12 C 387.50 608.07 341.49 592.11 295.22 576.88 C 282.85 572.56 270.34 568.59 258.04 564.09 C 264.93 561.59 272.22 560.50 279.30 558.64 C 275.62 552.55 271.99 546.42 268.05 540.50 L 267.30 540.15 C 261.70 541.07 256.14 542.22 250.55 543.25 C 231.52 477.87 213.36 412.23 194.62 346.77 C 236.13 342.82 277.59 338.29 319.08 334.14 C 324.07 333.57 329.08 333.15 334.02 332.19 C 331.98 327.20 327.00 324.29 324.48 319.60 C 322.89 317.05 322.77 314.00 322.24 311.13 C 310.75 311.61 299.33 313.27 287.86 314.18 M 670.50 316.56 C 666.70 322.60 663.86 329.20 660.09 335.27 C 653.38 335.26 646.61 335.11 639.93 335.77 C 639.57 336.26 638.83 337.26 638.47 337.76 C 642.85 343.36 648.40 348.03 652.49 353.82 C 651.04 359.93 648.73 365.81 647.45 371.96 C 646.86 373.32 647.58 374.52 648.42 375.55 C 655.12 373.20 661.31 369.64 667.84 366.88 C 673.24 370.18 678.24 374.08 683.58 377.47 C 684.86 378.42 686.61 378.68 687.52 377.06 C 687.31 370.04 685.71 363.13 685.10 356.14 C 690.90 351.67 696.87 347.38 702.35 342.51 C 701.38 341.46 700.50 340.16 698.96 340.04 C 692.88 338.72 686.70 337.95 680.64 336.52 C 678.25 330.40 676.08 324.20 673.96 317.98 C 673.55 316.39 671.83 314.79 670.50 316.56 M 759.16 332.45 C 756.97 336.54 755.54 340.99 753.45 345.13 C 749.08 345.68 744.42 345.00 740.30 346.73 C 741.99 351.21 746.91 353.32 749.80 357.00 C 749.08 361.10 746.85 365.41 747.56 369.49 C 752.02 370.00 755.35 365.32 759.53 364.09 C 763.81 365.70 767.14 369.64 771.85 369.93 C 771.85 365.45 770.46 361.15 769.55 356.81 C 772.48 353.75 776.15 351.41 778.72 348.03 L 778.52 346.84 C 774.40 345.54 770.02 345.31 765.74 345.06 C 763.31 340.98 762.83 335.68 759.16 332.45 M 270.19 355.70 C 267.72 359.64 266.55 364.19 264.40 368.28 C 259.97 369.05 255.12 368.53 251.09 370.83 C 253.84 374.38 257.56 376.97 260.80 380.04 C 260.29 384.48 258.07 388.78 258.61 393.30 C 263.21 393.26 266.72 389.35 270.88 387.71 C 273.56 389.24 276.16 390.90 278.88 392.35 C 280.17 392.84 281.61 394.17 283.02 393.20 C 282.88 388.73 281.17 384.49 280.55 380.08 C 283.52 376.60 288.71 374.78 290.22 370.29 C 285.76 369.30 281.21 368.73 276.67 368.19 C 274.49 364.04 273.62 359.09 270.19 355.70 M 312.80 394.83 C 304.41 397.58 296.92 404.25 295.19 413.18 C 292.54 422.80 298.13 431.78 301.29 440.52 C 309.13 460.98 316.98 481.43 324.72 501.93 C 312.91 483.73 302.56 464.61 291.26 446.08 C 291.45 445.65 291.82 444.79 292.01 444.36 C 290.75 441.28 289.39 438.23 288.00 435.21 C 282.29 437.72 276.65 440.42 271.03 443.13 C 268.96 444.02 267.21 446.50 268.23 448.76 C 270.35 453.30 273.52 457.30 275.49 461.94 C 269.33 465.35 262.43 468.17 258.09 473.99 C 252.60 481.05 251.91 491.54 256.96 499.04 C 269.72 519.87 282.79 540.51 295.65 561.27 C 296.50 562.97 298.43 563.51 300.07 564.15 C 311.83 568.10 323.64 571.93 335.39 575.94 C 320.41 551.28 304.87 526.94 289.77 502.35 C 286.90 497.50 283.59 492.91 281.09 487.85 C 279.08 484.50 283.45 479.86 286.89 481.88 C 289.47 484.10 290.84 487.34 292.72 490.12 C 311.45 519.49 329.77 549.11 348.39 578.55 C 349.54 580.70 352.09 581.08 354.16 581.89 C 364.44 585.33 374.68 588.88 385.04 592.09 C 387.42 586.69 391.81 582.10 397.58 580.40 C 425.68 570.91 454.03 562.15 482.15 552.72 C 480.05 549.92 478.51 546.65 476.23 544.06 C 469.53 542.36 463.09 538.28 460.29 531.72 C 457.26 525.74 457.94 518.57 460.81 512.67 C 459.08 509.01 457.51 505.11 457.61 500.99 C 457.48 497.27 458.90 493.79 460.14 490.36 C 456.78 486.27 454.31 481.35 453.51 476.09 C 452.72 468.45 452.65 460.56 449.84 453.29 C 445.13 440.70 436.07 430.51 427.75 420.20 C 414.93 404.50 406.59 385.26 403.63 365.22 C 373.27 374.83 343.06 384.93 312.80 394.83 M 812.10 392.99 C 809.55 397.55 808.00 402.60 805.48 407.18 C 800.07 408.05 794.23 407.34 789.16 409.68 C 791.60 415.02 796.97 418.08 801.06 422.04 C 800.12 427.39 798.14 432.56 797.83 438.01 C 798.18 438.23 798.87 438.68 799.22 438.90 C 804.49 437.39 808.74 433.62 813.74 431.45 C 818.18 433.82 822.31 436.80 826.91 438.89 C 827.40 438.86 828.39 438.78 828.89 438.75 L 829.37 438.04 C 828.87 432.65 827.41 427.38 826.60 422.03 C 830.08 418.33 834.37 415.45 837.72 411.63 C 838.88 409.63 836.46 408.77 834.91 408.58 C 830.54 408.12 826.18 407.70 821.83 407.13 C 819.02 402.67 817.89 397.40 815.12 392.95 C 814.55 391.61 812.60 391.73 812.10 392.99 M 630.14 405.41 C 623.37 405.99 615.95 405.93 610.25 410.19 C 605.74 413.17 603.10 417.99 600.50 422.56 C 592.66 436.60 584.34 450.38 576.17 464.23 C 574.52 467.23 574.94 470.81 574.48 474.09 C 573.98 480.17 571.21 485.77 567.70 490.66 C 570.42 496.99 570.88 504.47 567.82 510.77 C 566.67 512.62 567.78 514.64 568.26 516.51 C 570.59 523.03 569.11 530.56 564.76 535.89 C 561.57 540.37 556.33 542.44 551.34 544.17 C 547.04 551.93 540.89 558.91 532.75 562.74 C 529.40 564.45 525.65 565.03 522.16 566.34 C 519.27 575.11 522.85 585.33 529.86 591.18 C 532.16 593.04 534.68 595.82 537.95 595.05 C 547.39 593.59 556.79 591.86 566.20 590.18 C 557.13 587.20 545.35 586.84 540.08 577.59 C 553.47 578.63 566.62 581.65 579.89 583.64 C 584.88 584.25 589.84 586.27 594.92 585.29 C 600.74 584.30 606.56 583.30 612.37 582.25 C 588.96 577.07 565.45 572.01 541.64 569.00 C 549.36 564.83 558.47 565.29 566.98 565.20 C 589.84 566.05 612.39 570.30 634.97 573.69 C 637.02 573.70 639.98 574.64 641.25 572.43 C 643.53 569.21 645.26 565.66 647.22 562.25 C 674.07 514.38 700.15 466.08 727.27 418.36 C 728.89 421.90 730.37 425.51 732.30 428.90 C 705.04 477.63 678.72 526.90 651.31 575.55 C 654.74 574.90 658.19 574.29 661.61 573.54 C 667.71 563.53 673.17 553.14 678.82 542.87 C 698.36 507.60 717.42 472.06 737.08 436.85 C 739.07 439.33 741.13 441.75 743.27 444.10 C 720.42 486.52 698.03 529.19 674.61 571.30 C 677.90 570.67 681.23 570.17 684.52 569.52 C 696.38 548.60 707.40 527.22 719.00 506.17 C 729.25 487.35 739.09 468.29 749.63 449.63 C 751.89 451.08 754.06 452.67 756.14 454.39 C 735.92 492.23 715.93 530.19 695.82 568.10 C 701.20 567.05 706.64 566.29 711.97 564.99 C 712.98 564.78 713.70 564.19 714.12 563.22 C 732.57 528.39 751.04 493.57 769.67 458.82 C 771.28 455.56 773.53 452.57 774.63 449.08 C 775.47 445.75 772.12 443.26 769.19 442.82 C 762.55 441.50 755.20 440.79 750.00 435.97 C 740.34 427.13 736.71 413.89 734.51 401.44 C 734.04 398.11 730.39 398.53 727.95 398.77 C 695.35 401.13 662.74 403.15 630.14 405.41 M 770.40 475.36 C 762.94 489.99 754.68 504.25 748.19 519.34 C 750.75 516.71 752.68 513.56 754.73 510.53 C 760.01 502.41 765.72 494.58 770.99 486.45 C 773.35 487.85 775.78 489.16 778.22 490.45 C 763.28 514.19 748.12 537.77 733.05 561.43 C 739.63 560.30 746.21 559.20 752.72 557.69 C 765.84 537.44 778.92 517.17 791.96 496.87 C 794.09 493.19 796.87 489.87 798.48 485.91 C 799.35 482.90 796.68 480.69 794.11 479.91 C 786.95 477.23 779.95 474.14 772.74 471.62 C 771.75 472.72 771.07 474.05 770.40 475.36 M 475.34 494.47 C 471.34 495.70 469.61 500.99 471.69 504.51 C 473.23 507.50 476.82 508.52 479.96 508.36 C 502.98 508.29 526.00 508.44 549.01 508.30 C 552.03 508.44 555.13 506.80 556.31 503.94 C 558.26 499.63 554.91 493.90 550.07 493.89 C 527.74 493.70 505.39 493.88 483.06 493.82 C 480.47 493.85 477.84 493.74 475.34 494.47 M 473.89 517.89 C 470.48 520.83 471.02 526.83 474.67 529.32 C 477.85 531.34 481.80 530.42 485.35 530.61 C 487.36 537.91 491.27 545.00 497.98 548.96 C 508.02 555.35 522.19 554.83 531.76 547.75 C 537.34 543.72 540.29 537.19 542.01 530.72 C 546.40 530.30 552.24 531.57 555.02 527.14 C 558.18 522.75 554.57 515.75 549.08 516.14 C 526.04 516.07 502.99 516.19 479.95 516.10 C 477.81 516.03 475.46 516.25 473.89 517.89 M 458.09 571.45 C 439.85 577.67 421.33 583.09 403.05 589.17 C 398.24 590.82 401.40 597.81 405.86 596.82 C 416.91 594.02 427.58 589.91 438.50 586.67 C 459.90 579.81 481.36 573.12 502.62 565.82 C 498.98 564.21 495.41 562.49 491.88 560.68 C 480.58 564.16 469.39 567.98 458.09 571.45 M 420.08 603.31 C 425.61 605.58 431.41 607.15 437.12 608.89 C 439.40 609.72 441.74 608.87 443.93 608.18 C 466.68 600.75 489.54 593.66 512.21 586.00 C 510.88 582.27 509.75 578.45 509.29 574.51 C 479.56 584.11 449.78 593.60 420.08 603.31 Z"/><path d="M465.58 366.49C467.63 357.46 478.49 350.95 487.19 355.09 494.35 358.35 497.81 366.03 499.84 373.18 501.32 377.88 502.15 382.76 503.26 387.57 510.3 388.02 517.38 387.86 524.43 387.65 525.98 379.19 527.72 370.56 532 363 534.98 357.65 540.75 353.51 547.06 353.8 554.9 354.38 562.14 361.03 562.47 369.07 562.96 377.74 557.56 385.88 550.4 390.37 545.11 393.86 538.79 395.07 532.72 396.45 529.2 421.32 528.27 446.48 528.52 471.58 525.3 471.56 522.09 471.56 518.88 471.48 518.77 446.68 519.48 421.77 522.96 397.18 516.86 397.31 510.76 397.4 504.66 397.2 507.9 421.83 508.8 446.7 508.78 471.53 505.59 471.55 502.41 471.56 499.22 471.54 499.27 446.48 498.61 421.33 494.85 396.52 487.44 395.06 479.81 392.96 473.97 387.92 467.9 382.8 463.66 374.53 465.58 366.49M475.24 373.92C478.07 381.45 486.17 384.98 493.48 386.64 491.96 380.13 490.67 373.4 487.23 367.57 485.77 365.11 483.07 362.86 480.03 363.56 475.56 364.46 473.2 369.93 475.24 373.92M540.01 368.09C536.78 373.72 535.6 380.22 534.34 386.51 539.01 385.32 543.89 383.95 547.6 380.69 550.64 377.99 553.1 374.16 552.89 369.95 552.9 366.42 549.62 363.16 546.05 363.48 543.29 363.62 541.34 365.91 540.01 368.09zM139.66 390.47C146.4 376.16 156.53 363.27 169.49 354.11 174.65 369.93 178.67 386.11 183.38 402.07 190.83 428 198.16 453.98 205.48 479.95 211.38 499.95 216.61 520.14 222.73 540.07 203.57 537.21 185.35 528.85 170.34 516.66 151.82 501.64 138.63 480.28 133.38 457.03 128.39 434.96 130.22 411.14 139.66 390.47M160.82 483.21C169.91 498.26 183.98 509.93 199.81 517.38 187.19 472.8 174.73 428.19 161.85 383.69 140.51 412.31 141.83 453.74 160.82 483.21zM315.35 413.3C317.77 411.24 321.29 413.16 321.97 415.96 337.66 456.29 353.17 496.69 368.91 537 371.42 543.98 374.33 550.82 376.58 557.89 377.79 560.71 375 564.23 371.96 563.27 369.37 562.32 368.7 559.4 367.68 557.16 349.76 511.59 332.42 465.79 314.62 420.18 313.62 417.94 313.03 414.94 315.35 413.3zM262.27 596.62C314.87 614.68 367.15 633.64 419.75 651.69 419.86 706.89 419.72 762.08 419.84 817.28 414.51 818.91 409.2 821.2 405.31 825.32 402.02 828.53 400.36 832.89 398.34 836.91 381.58 830.04 364.97 822.81 348.27 815.8 327.46 806.78 306.33 798.42 285.65 789.11 284.8 782.51 284.5 775.66 281.5 769.57 277.8 760.31 270.53 753.07 262.29 747.7 262.21 697.34 262.26 646.98 262.27 596.62M280.2 738.88C290.73 747.89 298.62 760.2 301.46 773.83 301.97 775.1 301.61 777.27 303.31 777.72 332.4 789.9 361.44 802.23 390.5 814.51 393.73 810.68 397.9 807.87 401.69 804.72 401.92 757.92 401.82 711.08 401.75 664.27 361.31 649.83 320.83 635.51 280.27 621.43 280.21 660.58 280.29 699.73 280.2 738.88zM681.46 617.77C721.53 610.94 761.56 603.8 801.62 596.9 801.69 646.5 801.65 696.09 801.44 745.69 791.23 750.06 782.56 758.21 778.3 768.54 775.79 774 774.87 780 774.53 785.96 681.91 806.54 589.28 827.04 496.58 847.25 493.93 840.23 490.61 833.15 484.57 828.4 480.99 825.36 476.61 823.51 472.23 821.94 472.08 766.2 472.23 710.47 472.08 654.74 518.28 646.81 564.43 638.62 610.6 630.56 610.83 642.69 610.76 654.82 611.1 666.95 611.19 673.69 610.25 680.98 613.97 687.02 617.61 693.63 625.93 696.14 633.04 694.9 640.78 693.67 648.44 691.95 656.16 690.57 661.5 689.43 667.27 689.08 671.85 685.8 678.87 680.98 681.99 672.18 682.19 663.96 682.38 648.55 681.4 633.17 681.46 617.77M699.78 632.92C699.7 643.28 699.99 653.64 699.91 664 699.88 670.92 698.37 677.84 695.46 684.12 690.26 695.96 678.69 704.6 666.01 706.77 657.7 708.37 649.41 710.05 641.09 711.59 633.78 712.98 626.13 713.59 618.87 711.66 606.33 708.53 596.55 697.4 594.09 684.85 591.86 674.01 593.21 662.88 592.73 651.9 558.67 657.88 524.65 664.06 490.57 669.92 490.7 716.66 490.5 763.4 490.68 810.13 492.07 811.81 494.09 812.86 495.77 814.25 500.28 817.57 503.63 822.12 506.73 826.72 590.65 808.49 674.49 789.88 758.31 771.17 761.87 756.63 771.13 743.95 783.14 735.18 783.23 696.21 783.15 657.24 783.21 618.28 755.39 623.06 727.63 628.26 699.78 632.92z"/><path d="M 636.21 646.88 C 633.71 638.46 641.20 628.94 650.03 629.80 C 656.56 630.27 661.53 636.72 660.77 643.14 C 660.46 647.23 658.07 650.73 655.54 653.81 C 655.92 660.24 657.94 666.61 657.43 673.06 C 654.77 676.46 649.87 676.50 645.94 676.78 C 644.13 676.73 641.01 676.69 641.39 674.05 C 641.35 667.93 642.43 661.87 642.82 655.77 C 640.12 653.23 636.97 650.73 636.21 646.88 Z"/></g><g id="#000000ff" stroke="#000" stroke-width=".094" style="fill: rgb(0, 0, 0) !important; stroke: rgb(0, 0, 0) !important;"><path d="M511.22 155.18C511.77 153.29 514.75 152.1 515.83 154.18 519.89 161.69 522.65 169.87 526.66 177.42 534.86 179.1 543.35 179.12 551.6 180.59 553.53 180.9 554.35 183.51 552.91 184.85 547.1 190.76 540.44 195.77 534.64 201.7 535.84 209.9 538.05 217.91 539.29 226.09 539.81 228.37 537.08 230.6 535.15 228.88 528.01 225.13 521.21 220.75 514.09 216.96 506.4 220.25 499.67 225.35 492.12 228.88 490.19 230.17 487.86 228.01 488.27 225.98 489.46 217.89 491.73 209.98 493.06 201.91 487.38 195.88 480.95 190.63 475.01 184.87 473.29 183.54 474.05 180.68 476.24 180.45 483.46 179.12 490.86 178.98 498.12 177.89 499.17 177.51 500.94 177.87 501.44 176.58 504.82 169.51 507.74 162.21 511.22 155.18zM620.48 203.62C621.25 202.21 622.67 201.55 624.21 201.27 626.76 208.4 627.37 216.07 629.8 223.24 636.62 226.34 644.73 226.55 650.91 230.98 645.75 236.74 637.54 238.57 631.86 243.72 631.5 250.47 632.11 257.24 631.7 263.99 631.98 265.75 629.91 265.9 628.74 265.37 623.23 261.23 618.4 256.27 613.15 251.82 607.12 253.99 601.07 256.14 594.95 258.03 593.43 258.69 590.9 258.33 591.44 256.2 593.57 249.56 596.78 243.32 599.52 236.92 596.01 230.5 590.39 225.45 587.3 218.81 587.8 216.6 590.33 217.13 591.95 217.23 597.85 217.9 603.74 218.69 609.67 218.96 613.3 213.86 616.78 208.66 620.48 203.62zM321.96 213.92C322.5 212.71 324.33 213.3 324.62 214.45 327.22 218.91 328.6 224.01 331.45 228.34 336.7 229.56 342.37 228.96 347.43 230.96L347.72 232.1C344.28 236.42 339.7 239.71 335.69 243.5 336.71 248.63 338.35 253.68 338.78 258.9 338.44 259.35 337.75 260.24 337.4 260.68 332.37 258.35 327.86 255.08 322.95 252.53 319.13 254.9 315.23 257.16 311.29 259.32 309.88 260.23 307.01 260.44 307.35 257.99 308.09 253.16 309.35 248.42 310.32 243.64 306.72 239.18 301.57 236.32 298.16 231.71 299.28 230.88 300.45 229.99 301.91 229.92 306.35 229.57 310.77 229.04 315.16 228.29 317.24 223.42 319.19 218.45 321.96 213.92zM410.39 224.48C412.3 220.34 413.8 216 416.04 212.01 419.43 215.44 420.08 220.49 422.71 224.41 427.12 225.42 431.88 224.79 436.07 226.75 433.64 230.74 429.37 233.03 426.42 236.59 427.37 240.67 428.74 244.71 428.87 248.94 428.22 249.75 427.45 249.95 426.53 249.53 423.11 247.92 419.99 245.74 416.68 243.92 412.62 245.6 409.17 248.62 404.88 249.72 403.27 247.22 405.31 244.12 405.63 241.45 405.81 239.48 407.56 237.04 405.68 235.45 402.84 232.51 399.25 230.29 396.96 226.82 401.21 225.05 405.92 225.29 410.39 224.48zM705.73 239.47C706.16 238.52 706.9 237.9 707.95 237.63 711.64 242.17 712.47 248.38 715.86 253.12 720.39 253.91 725.04 253.88 729.59 254.7 730.53 254.88 732.77 255.62 731.77 256.94 728.97 261.68 723.13 263.97 720.29 268.65 721.08 273.53 722.51 278.3 723.17 283.21 723.11 284.84 721.36 285.24 720.13 284.51 715.64 282.46 711.62 279.54 707.26 277.24 702.13 279.79 697.49 284.09 691.62 284.58 691.77 278.95 694 273.66 694.48 268.08 691.39 263.97 686.71 261.41 683.52 257.41 681.92 255.78 684.36 254.46 685.87 254.51 690.37 254.22 694.84 253.57 699.33 253.11 701.58 248.62 703.33 243.89 705.73 239.47zM496.55 255.81C514.16 252.75 532.6 254.22 549.32 260.61 582.03 272.86 606.71 304.14 610.76 338.87 613.36 358.47 609.64 378.78 600.14 396.13 592.24 412.27 577.85 423.99 569.59 439.89 564.71 449.15 562.2 459.49 561.44 469.89 561.14 474.51 560.44 479.73 556.64 482.88 553.24 486.03 548.34 486.19 543.97 486.21 522.31 486.26 500.65 486.31 478.99 486.2 472.89 486.12 467.64 481.15 466.82 475.18 465.87 468.73 465.84 462.14 464.15 455.81 460.97 442.76 453.69 431.09 445.1 420.92 437.21 411.55 429.7 401.67 424.6 390.46 414.67 368.54 413.27 342.79 421.13 320.02 432.24 287.13 462.17 261.33 496.55 255.81M465.58 366.49C463.66 374.53 467.9 382.8 473.97 387.92 479.81 392.96 487.44 395.06 494.85 396.52 498.61 421.33 499.27 446.48 499.22 471.54 502.41 471.56 505.59 471.55 508.78 471.53 508.8 446.7 507.9 421.83 504.66 397.2 510.76 397.4 516.86 397.31 522.96 397.18 519.48 421.77 518.77 446.68 518.88 471.48 522.09 471.56 525.3 471.56 528.52 471.58 528.27 446.48 529.2 421.32 532.72 396.45 538.79 395.07 545.11 393.86 550.4 390.37 557.56 385.88 562.96 377.74 562.47 369.07 562.14 361.03 554.9 354.38 547.06 353.8 540.75 353.51 534.98 357.65 532 363 527.72 370.56 525.98 379.19 524.43 387.65 517.38 387.86 510.3 388.02 503.26 387.57 502.15 382.76 501.32 377.88 499.84 373.18 497.81 366.03 494.35 358.35 487.19 355.09 478.49 350.95 467.63 357.46 465.58 366.49zM366.33 291.36C366.71 289.91 368.5 288.24 369.71 290.02 373.14 295.1 374.57 301.23 377.64 306.51 383.37 308.75 389.94 307.34 395.73 309.36 397.52 310.15 396.42 312.35 395.2 313.1 391 316.53 387.31 320.51 383.17 324.01 384.05 330.4 385.89 336.64 386.66 343.04 386.27 343.4 385.5 344.12 385.12 344.48 379.41 341.83 374.28 338.11 368.81 335.01 363.86 337.74 359.06 340.74 354.05 343.37 352.98 344.02 351.7 343.5 350.55 343.48 350.79 336.89 353.73 330.7 353.88 324.13 349.31 319.35 343.25 315.7 340 309.84 346.21 307.68 352.94 307.9 359.4 307.09 361.72 301.85 363.94 296.57 366.33 291.36z" style="fill: rgb(0, 0, 0) !important; stroke: rgb(0, 0, 0) !important;"/><path d="M287.86 314.18C299.33 313.27 310.75 311.61 322.24 311.13 322.77 314 322.89 317.05 324.48 319.6 327 324.29 331.98 327.2 334.02 332.19 329.08 333.15 324.07 333.57 319.08 334.14 277.59 338.29 236.13 342.82 194.62 346.77 213.36 412.23 231.52 477.87 250.55 543.25 256.14 542.22 261.7 541.07 267.3 540.15L268.05 540.5C271.99 546.42 275.62 552.55 279.3 558.64 272.22 560.5 264.93 561.59 258.04 564.09 270.34 568.59 282.85 572.56 295.22 576.88 341.49 592.11 387.5 608.07 433.82 623.12 442.01 626.19 450.66 623.63 458.91 622.32 572.82 602.57 686.78 583.12 800.68 563.3 790.99 559.26 781.03 555.91 771.21 552.24 775.16 546.45 778.12 539.88 782.63 534.56 796.42 539.38 810.32 543.97 823.91 549.35 831.34 552.21 835.47 560.32 835.24 568.02 835.24 635.69 835.29 703.36 835.23 771.02 835.11 778.33 835.77 785.82 833.63 792.92 830.74 801.59 823.19 808.62 814.17 810.44 763.2 821.62 712.18 832.55 661.17 843.59 598.07 857.3 535 871.13 471.85 884.62 462.01 886.4 452.1 889.93 442.01 888.05 433.18 886.79 425.17 882.73 417.09 879.21 364.01 856.5 310.97 833.69 257.9 810.94 252.25 808.46 246.02 806.84 241.26 802.72 235.35 797.92 231.57 790.61 231.24 782.98 230.6 759.35 230.92 735.7 230.88 712.05 230.9 664.18 230.84 616.31 230.86 568.44 194.03 567.25 158.9 548.47 135.24 520.59 116.07 497.85 104.37 468.78 103.13 439.01 101.1 399.6 118.01 358.73 149.82 334.72 156.94 328.97 165.68 325.21 174.83 324.46 212.5 320.97 250.17 317.5 287.86 314.18M139.66 390.47C130.22 411.14 128.39 434.96 133.38 457.03 138.63 480.28 151.82 501.64 170.34 516.66 185.35 528.85 203.57 537.21 222.73 540.07 216.61 520.14 211.38 499.95 205.48 479.95 198.16 453.98 190.83 428 183.38 402.07 178.67 386.11 174.65 369.93 169.49 354.11 156.53 363.27 146.4 376.16 139.66 390.47M262.27 596.62C262.26 646.98 262.21 697.34 262.29 747.7 270.53 753.07 277.8 760.31 281.5 769.57 284.5 775.66 284.8 782.51 285.65 789.11 306.33 798.42 327.46 806.78 348.27 815.8 364.97 822.81 381.58 830.04 398.34 836.91 400.36 832.89 402.02 828.53 405.31 825.32 409.2 821.2 414.51 818.91 419.84 817.28 419.72 762.08 419.86 706.89 419.75 651.69 367.15 633.64 314.87 614.68 262.27 596.62M681.46 617.77C681.4 633.17 682.38 648.55 682.19 663.96 681.99 672.18 678.87 680.98 671.85 685.8 667.27 689.08 661.5 689.43 656.16 690.57 648.44 691.95 640.78 693.67 633.04 694.9 625.93 696.14 617.61 693.63 613.97 687.02 610.25 680.98 611.19 673.69 611.1 666.95 610.76 654.82 610.83 642.69 610.6 630.56 564.43 638.62 518.28 646.81 472.08 654.74 472.23 710.47 472.08 766.2 472.23 821.94 476.61 823.51 480.99 825.36 484.57 828.4 490.61 833.15 493.93 840.23 496.58 847.25 589.28 827.04 681.91 806.54 774.53 785.96 774.87 780 775.79 774 778.3 768.54 782.56 758.21 791.23 750.06 801.44 745.69 801.65 696.09 801.69 646.5 801.62 596.9 761.56 603.8 721.53 610.94 681.46 617.77M636.21 646.88C636.97 650.73 640.12 653.23 642.82 655.77 642.43 661.87 641.35 667.93 641.39 674.05 641.01 676.69 644.13 676.73 645.94 676.78 649.87 676.5 654.77 676.46 657.43 673.06 657.94 666.61 655.92 660.24 655.54 653.81 658.07 650.73 660.46 647.23 660.77 643.14 661.53 636.72 656.56 630.27 650.03 629.8 641.2 628.94 633.71 638.46 636.21 646.88zM670.5 316.56C671.83 314.79 673.55 316.39 673.96 317.98 676.08 324.2 678.25 330.4 680.64 336.52 686.7 337.95 692.88 338.72 698.96 340.04 700.5 340.16 701.38 341.46 702.35 342.51 696.87 347.38 690.9 351.67 685.1 356.14 685.71 363.13 687.31 370.04 687.52 377.06 686.61 378.68 684.86 378.42 683.58 377.47 678.24 374.08 673.24 370.18 667.84 366.88 661.31 369.64 655.12 373.2 648.42 375.55 647.58 374.52 646.86 373.32 647.45 371.96 648.73 365.81 651.04 359.93 652.49 353.82 648.4 348.03 642.85 343.36 638.47 337.76 638.83 337.26 639.57 336.26 639.93 335.77 646.61 335.11 653.38 335.26 660.09 335.27 663.86 329.2 666.7 322.6 670.5 316.56zM759.16 332.45C762.83 335.68 763.31 340.98 765.74 345.06 770.02 345.31 774.4 345.54 778.52 346.84L778.72 348.03C776.15 351.41 772.48 353.75 769.55 356.81 770.46 361.15 771.85 365.45 771.85 369.93 767.14 369.64 763.81 365.7 759.53 364.09 755.35 365.32 752.02 370 747.56 369.49 746.85 365.41 749.08 361.1 749.8 357 746.91 353.32 741.99 351.21 740.3 346.73 744.42 345 749.08 345.68 753.45 345.13 755.54 340.99 756.97 336.54 759.16 332.45z" style="fill: rgb(0, 0, 0) !important; stroke: rgb(0, 0, 0) !important;"/><path d="M270.19 355.7C273.62 359.09 274.49 364.04 276.67 368.19 281.21 368.73 285.76 369.3 290.22 370.29 288.71 374.78 283.52 376.6 280.55 380.08 281.17 384.49 282.88 388.73 283.02 393.2 281.61 394.17 280.17 392.84 278.88 392.35 276.16 390.9 273.56 389.24 270.88 387.71 266.72 389.35 263.21 393.26 258.61 393.3 258.07 388.78 260.29 384.48 260.8 380.04 257.56 376.97 253.84 374.38 251.09 370.83 255.12 368.53 259.97 369.05 264.4 368.28 266.55 364.19 267.72 359.64 270.19 355.7zM475.24 373.92C473.2 369.93 475.56 364.46 480.03 363.56 483.07 362.86 485.77 365.11 487.23 367.57 490.67 373.4 491.96 380.13 493.48 386.64 486.17 384.98 478.07 381.45 475.24 373.92zM540.01 368.09C541.34 365.91 543.29 363.62 546.05 363.48 549.62 363.16 552.9 366.42 552.89 369.95 553.1 374.16 550.64 377.99 547.6 380.69 543.89 383.95 539.01 385.32 534.34 386.51 535.6 380.22 536.78 373.72 540.01 368.09zM312.8 394.83C343.06 384.93 373.27 374.83 403.63 365.22 406.59 385.26 414.93 404.5 427.75 420.2 436.07 430.51 445.13 440.7 449.84 453.29 452.65 460.56 452.72 468.45 453.51 476.09 454.31 481.35 456.78 486.27 460.14 490.36 458.9 493.79 457.48 497.27 457.61 500.99 457.51 505.11 459.08 509.01 460.81 512.67 457.94 518.57 457.26 525.74 460.29 531.72 463.09 538.28 469.53 542.36 476.23 544.06 478.51 546.65 480.05 549.92 482.15 552.72 454.03 562.15 425.68 570.91 397.58 580.4 391.81 582.1 387.42 586.69 385.04 592.09 374.68 588.88 364.44 585.33 354.16 581.89 352.09 581.08 349.54 580.7 348.39 578.55 329.77 549.11 311.45 519.49 292.72 490.12 290.84 487.34 289.47 484.1 286.89 481.88 283.45 479.86 279.08 484.5 281.09 487.85 283.59 492.91 286.9 497.5 289.77 502.35 304.87 526.94 320.41 551.28 335.39 575.94 323.64 571.93 311.83 568.1 300.07 564.15 298.43 563.51 296.5 562.97 295.65 561.27 282.79 540.51 269.72 519.87 256.96 499.04 251.91 491.54 252.6 481.05 258.09 473.99 262.43 468.17 269.33 465.35 275.49 461.94 273.52 457.3 270.35 453.3 268.23 448.76 267.21 446.5 268.96 444.02 271.03 443.13 276.65 440.42 282.29 437.72 288 435.21 289.39 438.23 290.75 441.28 292.01 444.36 291.82 444.79 291.45 445.65 291.26 446.08 302.56 464.61 312.91 483.73 324.72 501.93 316.98 481.43 309.13 460.98 301.29 440.52 298.13 431.78 292.54 422.8 295.19 413.18 296.92 404.25 304.41 397.58 312.8 394.83M315.35 413.3C313.03 414.94 313.62 417.94 314.62 420.18 332.42 465.79 349.76 511.59 367.68 557.16 368.7 559.4 369.37 562.32 371.96 563.27 375 564.23 377.79 560.71 376.58 557.89 374.33 550.82 371.42 543.98 368.91 537 353.17 496.69 337.66 456.29 321.97 415.96 321.29 413.16 317.77 411.24 315.35 413.3zM160.82 483.21C141.83 453.74 140.51 412.31 161.85 383.69 174.73 428.19 187.19 472.8 199.81 517.38 183.98 509.93 169.91 498.26 160.82 483.21zM812.1 392.99C812.6 391.73 814.55 391.61 815.12 392.95 817.89 397.4 819.02 402.67 821.83 407.13 826.18 407.7 830.54 408.12 834.91 408.58 836.46 408.77 838.88 409.63 837.72 411.63 834.37 415.45 830.08 418.33 826.6 422.03 827.41 427.38 828.87 432.65 829.37 438.04L828.89 438.75C828.39 438.78 827.4 438.86 826.91 438.89 822.31 436.8 818.18 433.82 813.74 431.45 808.74 433.62 804.49 437.39 799.22 438.9 798.87 438.68 798.18 438.23 797.83 438.01 798.14 432.56 800.12 427.39 801.06 422.04 796.97 418.08 791.6 415.02 789.16 409.68 794.23 407.34 800.07 408.05 805.48 407.18 808 402.6 809.55 397.55 812.1 392.99zM630.14 405.41C662.74 403.15 695.35 401.13 727.95 398.77 730.39 398.53 734.04 398.11 734.51 401.44 736.71 413.89 740.34 427.13 750 435.97 755.2 440.79 762.55 441.5 769.19 442.82 772.12 443.26 775.47 445.75 774.63 449.08 773.53 452.57 771.28 455.56 769.67 458.82 751.04 493.57 732.57 528.39 714.12 563.22 713.7 564.19 712.98 564.78 711.97 564.99 706.64 566.29 701.2 567.05 695.82 568.1 715.93 530.19 735.92 492.23 756.14 454.39 754.06 452.67 751.89 451.08 749.63 449.63 739.09 468.29 729.25 487.35 719 506.17 707.4 527.22 696.38 548.6 684.52 569.52 681.23 570.17 677.9 570.67 674.61 571.3 698.03 529.19 720.42 486.52 743.27 444.1 741.13 441.75 739.07 439.33 737.08 436.85 717.42 472.06 698.36 507.6 678.82 542.87 673.17 553.14 667.71 563.53 661.61 573.54 658.19 574.29 654.74 574.9 651.31 575.55 678.72 526.9 705.04 477.63 732.3 428.9 730.37 425.51 728.89 421.9 727.27 418.36 700.15 466.08 674.07 514.38 647.22 562.25 645.26 565.66 643.53 569.21 641.25 572.43 639.98 574.64 637.02 573.7 634.97 573.69 612.39 570.3 589.84 566.05 566.98 565.2 558.47 565.29 549.36 564.83 541.64 569 565.45 572.01 588.96 577.07 612.37 582.25 606.56 583.3 600.74 584.3 594.92 585.29 589.84 586.27 584.88 584.25 579.89 583.64 566.62 581.65 553.47 578.63 540.08 577.59 545.35 586.84 557.13 587.2 566.2 590.18 556.79 591.86 547.39 593.59 537.95 595.05 534.68 595.82 532.16 593.04 529.86 591.18 522.85 585.33 519.27 575.11 522.16 566.34 525.65 565.03 529.4 564.45 532.75 562.74 540.89 558.91 547.04 551.93 551.34 544.17 556.33 542.44 561.57 540.37 564.76 535.89 569.11 530.56 570.59 523.03 568.26 516.51 567.78 514.64 566.67 512.62 567.82 510.77 570.88 504.47 570.42 496.99 567.7 490.66 571.21 485.77 573.98 480.17 574.48 474.09 574.94 470.81 574.52 467.23 576.17 464.23 584.34 450.38 592.66 436.6 600.5 422.56 603.1 417.99 605.74 413.17 610.25 410.19 615.95 405.93 623.37 405.99 630.14 405.41zM770.4 475.36C771.07 474.05 771.75 472.72 772.74 471.62 779.95 474.14 786.95 477.23 794.11 479.91 796.68 480.69 799.35 482.9 798.48 485.91 796.87 489.87 794.09 493.19 791.96 496.87 778.92 517.17 765.84 537.44 752.72 557.69 746.21 559.2 739.63 560.3 733.05 561.43 748.12 537.77 763.28 514.19 778.22 490.45 775.78 489.16 773.35 487.85 770.99 486.45 765.72 494.58 760.01 502.41 754.73 510.53 752.68 513.56 750.75 516.71 748.19 519.34 754.68 504.25 762.94 489.99 770.4 475.36z" style="fill: rgb(0, 0, 0) !important; stroke: rgb(0, 0, 0) !important;"/><path d="M475.34 494.47C477.84 493.74 480.47 493.85 483.06 493.82 505.39 493.88 527.74 493.7 550.07 493.89 554.91 493.9 558.26 499.63 556.31 503.94 555.13 506.8 552.03 508.44 549.01 508.3 526 508.44 502.98 508.29 479.96 508.36 476.82 508.52 473.23 507.5 471.69 504.51 469.61 500.99 471.34 495.7 475.34 494.47zM473.89 517.89C475.46 516.25 477.81 516.03 479.95 516.1 502.99 516.19 526.04 516.07 549.08 516.14 554.57 515.75 558.18 522.75 555.02 527.14 552.24 531.57 546.4 530.3 542.01 530.72 540.29 537.19 537.34 543.72 531.76 547.75 522.19 554.83 508.02 555.35 497.98 548.96 491.27 545 487.36 537.91 485.35 530.61 481.8 530.42 477.85 531.34 474.67 529.32 471.02 526.83 470.48 520.83 473.89 517.89zM458.09 571.45C469.39 567.98 480.58 564.16 491.88 560.68 495.41 562.49 498.98 564.21 502.62 565.82 481.36 573.12 459.9 579.81 438.5 586.67 427.58 589.91 416.91 594.02 405.86 596.82 401.4 597.81 398.24 590.82 403.05 589.17 421.33 583.09 439.85 577.67 458.09 571.45zM420.08 603.31C449.78 593.6 479.56 584.11 509.29 574.51 509.75 578.45 510.88 582.27 512.21 586 489.54 593.66 466.68 600.75 443.93 608.18 441.74 608.87 439.4 609.72 437.12 608.89 431.41 607.15 425.61 605.58 420.08 603.31zM699.78 632.92C727.63 628.26 755.39 623.06 783.21 618.28 783.15 657.24 783.23 696.21 783.14 735.18 771.13 743.95 761.87 756.63 758.31 771.17 674.49 789.88 590.65 808.49 506.73 826.72 503.63 822.12 500.28 817.57 495.77 814.25 494.09 812.86 492.07 811.81 490.68 810.13 490.5 763.4 490.7 716.66 490.57 669.92 524.65 664.06 558.67 657.88 592.73 651.9 593.21 662.88 591.86 674.01 594.09 684.85 596.55 697.4 606.33 708.53 618.87 711.66 626.13 713.59 633.78 712.98 641.09 711.59 649.41 710.05 657.7 708.37 666.01 706.77 678.69 704.6 690.26 695.96 695.46 684.12 698.37 677.84 699.88 670.92 699.91 664 699.99 653.64 699.7 643.28 699.78 632.92zM280.2 738.88C280.29 699.73 280.21 660.58 280.27 621.43 320.83 635.51 361.31 649.83 401.75 664.27 401.82 711.08 401.92 757.92 401.69 804.72 397.9 807.87 393.73 810.68 390.5 814.51 361.44 802.23 332.4 789.9 303.31 777.72 301.61 777.27 301.97 775.1 301.46 773.83 298.62 760.2 290.73 747.89 280.2 738.88z" style="fill: rgb(0, 0, 0) !important; stroke: rgb(0, 0, 0) !important;"/></g></svg>