<svg xmlns="http://www.w3.org/2000/svg" viewBox="149.70803833007812 27.66678237915039 570.2647399902344 820.3332176208496" version="1.1">
<path fill="#ffffff" opacity="1.00" d=" M 0.00 0.00 L 875.00 0.00 L 875.00 875.00 L 0.00 875.00 L 0.00 0.00 M 431.43 28.59 C 425.47 30.05 421.88 36.06 421.80 41.95 C 421.71 64.64 421.81 87.34 421.74 110.04 C 421.71 113.00 422.08 116.03 423.24 118.77 C 425.60 124.44 432.72 127.84 438.54 125.58 C 443.92 124.05 447.73 118.58 447.57 113.03 C 447.58 89.00 447.58 64.98 447.56 40.95 C 447.70 32.84 439.22 26.43 431.43 28.59 M 296.46 62.73 C 288.59 64.54 284.24 74.43 288.38 81.43 C 299.98 102.11 311.85 122.66 323.71 143.19 C 325.79 147.01 328.58 151.00 333.07 152.08 C 339.43 154.06 346.59 149.99 348.66 143.78 C 350.43 139.85 349.14 135.46 347.00 131.98 C 335.74 112.22 324.43 92.48 313.12 72.75 C 311.67 70.30 310.41 67.66 308.37 65.64 C 305.18 62.79 300.60 61.67 296.46 62.73 M 567.40 62.64 C 563.80 63.39 560.56 65.66 558.76 68.87 C 546.95 89.13 535.51 109.60 523.73 129.87 C 522.18 132.73 520.31 135.66 520.35 139.03 C 519.78 145.64 525.31 152.17 531.99 152.49 C 535.85 152.89 539.92 151.46 542.47 148.47 C 544.66 145.85 546.23 142.80 547.94 139.86 C 558.98 120.33 570.20 100.91 581.28 81.40 C 583.53 77.14 583.28 71.51 580.44 67.57 C 577.45 63.69 572.24 61.50 567.40 62.64 M 383.72 164.69 C 362.38 172.32 342.49 184.38 326.48 200.48 C 300.63 225.53 284.91 260.27 281.56 295.97 C 281.02 305.30 281.02 314.67 281.58 324.00 C 284.90 358.78 300.20 392.36 324.53 417.48 C 338.52 432.30 349.31 450.73 352.61 471.04 C 354.19 479.16 353.58 487.88 357.49 495.41 C 360.90 502.96 368.19 508.20 376.15 510.02 C 385.75 512.20 395.67 510.81 405.42 511.22 C 405.55 503.81 405.40 496.39 404.73 489.01 C 404.74 479.09 403.69 469.22 403.16 459.33 C 400.64 430.56 397.32 401.62 388.90 373.88 C 388.47 371.02 385.43 370.13 383.44 368.55 C 376.04 363.28 369.08 356.21 367.13 347.01 C 365.26 340.25 368.68 332.13 375.41 329.57 C 381.08 327.05 387.52 330.36 391.25 334.75 C 397.23 341.87 400.55 350.72 403.86 359.29 C 406.52 361.39 410.06 361.89 413.22 362.90 C 429.99 367.12 448.13 366.68 464.30 360.30 C 465.67 359.93 465.96 358.38 466.50 357.29 C 469.37 349.68 472.53 342.03 477.58 335.58 C 480.38 332.03 484.40 329.24 488.98 328.73 C 493.97 328.40 498.81 331.48 501.23 335.76 C 503.21 339.62 503.04 344.24 502.21 348.39 C 499.31 358.87 490.29 365.95 481.66 371.76 C 475.40 389.96 472.44 409.15 469.73 428.17 C 466.37 455.71 464.27 483.42 464.38 511.18 C 476.34 510.65 489.21 513.09 500.31 507.40 C 509.43 502.88 514.96 493.01 515.49 483.02 C 516.75 464.18 523.12 445.61 534.42 430.41 C 540.11 422.23 547.45 415.41 553.71 407.70 C 572.02 385.34 583.76 357.69 587.40 329.03 C 591.54 296.05 584.79 261.72 568.16 232.90 C 547.40 196.14 510.43 169.30 469.35 159.98 C 441.13 153.52 411.07 155.19 383.72 164.69 M 195.44 162.63 C 186.75 164.97 184.37 177.46 190.41 183.62 C 192.82 186.01 195.99 187.38 198.86 189.11 C 218.00 200.31 237.27 211.32 256.32 222.68 C 259.74 224.65 263.89 226.01 267.79 224.69 C 274.84 223.11 279.28 214.82 276.71 208.08 C 275.07 203.12 270.13 200.59 265.91 198.14 C 246.03 186.71 226.35 174.90 206.38 163.63 C 203.05 161.83 199.04 161.33 195.44 162.63 M 665.42 162.63 C 661.96 163.90 658.98 166.14 655.79 167.92 C 636.88 178.98 617.78 189.72 599.00 201.00 C 593.31 203.93 590.92 211.04 593.07 216.94 C 594.82 221.08 598.64 224.41 603.16 225.07 C 607.60 226.05 611.69 223.52 615.35 221.37 C 635.33 209.62 655.34 197.94 675.43 186.39 C 679.99 184.09 683.11 179.13 682.66 173.96 C 682.49 165.75 673.11 159.35 665.42 162.63 M 159.44 297.59 C 152.09 299.29 148.22 308.19 151.24 314.92 C 153.14 319.59 158.01 322.80 163.04 322.78 C 188.05 322.80 213.05 322.81 238.06 322.75 C 241.93 322.92 245.80 321.21 248.23 318.19 C 252.75 313.02 252.10 304.53 246.87 300.11 C 243.36 297.03 238.46 296.74 234.02 296.84 C 212.67 297.11 191.35 296.85 170.00 296.86 C 166.47 296.84 162.90 296.78 159.44 297.59 M 627.41 297.64 C 622.39 298.98 618.55 303.84 618.42 309.04 C 617.55 316.16 623.88 323.05 631.05 322.77 C 656.04 322.81 681.03 322.78 706.02 322.78 C 710.16 322.97 714.31 321.03 716.83 317.75 C 721.14 312.37 720.07 303.64 714.41 299.64 C 708.79 295.53 701.45 297.37 695.00 297.14 C 678.67 296.92 662.34 296.78 646.00 296.87 C 639.81 297.00 633.53 296.40 627.41 297.64 M 410.01 380.59 C 411.49 389.27 413.83 397.78 415.13 406.49 C 420.86 441.08 423.30 476.13 423.63 511.16 C 431.17 510.90 438.80 511.82 446.29 510.62 C 446.33 499.36 446.17 488.06 447.20 476.84 C 448.59 444.56 452.45 412.33 459.76 380.82 C 443.41 384.39 426.29 384.78 410.01 380.59 M 261.54 394.75 C 258.66 395.48 256.11 397.09 253.55 398.55 C 233.43 410.48 213.20 422.23 192.96 433.94 C 187.73 437.08 184.91 444.44 187.87 450.01 C 189.64 454.55 194.16 457.72 199.04 457.78 C 203.87 458.27 207.88 455.13 211.83 452.87 C 231.22 441.56 250.66 430.34 270.03 418.98 C 274.48 416.70 277.71 412.10 277.45 406.99 C 277.44 399.12 269.15 392.73 261.54 394.75 M 602.40 394.70 C 596.42 395.97 591.75 401.84 592.38 408.02 C 592.18 413.76 597.10 417.80 601.68 420.33 C 622.14 432.19 642.60 444.06 663.06 455.93 C 668.18 459.07 675.75 458.46 679.60 453.58 C 683.72 449.14 683.89 441.64 680.05 436.98 C 676.76 432.99 671.73 431.19 667.43 428.56 C 649.95 418.37 632.45 408.23 614.98 398.02 C 611.22 395.75 606.92 393.49 602.40 394.70 M 372.40 522.59 C 367.05 524.01 363.16 529.51 363.47 535.02 C 363.22 542.10 370.11 547.97 376.99 547.65 C 415.64 547.64 454.29 547.67 492.93 547.65 C 498.41 547.72 503.95 544.06 505.48 538.71 C 505.98 535.10 506.30 531.01 504.08 527.88 C 501.69 523.68 496.71 521.74 492.06 521.79 C 454.36 521.82 416.67 521.82 378.97 521.82 C 376.76 521.81 374.54 522.04 372.40 522.59 M 378.33 558.44 C 370.36 559.32 365.04 568.56 368.26 575.91 C 370.33 581.43 376.28 584.33 381.96 584.11 C 417.32 584.17 452.68 584.11 488.04 584.15 C 494.19 584.41 500.62 580.42 501.87 574.16 C 504.17 566.38 497.20 557.67 489.07 558.28 C 452.16 558.38 415.23 558.13 378.33 558.44 M 392.33 594.72 C 393.28 599.80 396.24 604.10 399.26 608.16 C 348.33 609.78 297.39 611.16 246.46 612.77 C 237.75 612.98 230.54 618.94 225.82 625.82 C 217.45 639.16 215.98 656.58 221.96 671.14 C 223.69 675.59 226.55 679.45 229.20 683.38 C 223.75 683.48 218.05 683.46 213.06 685.97 C 205.96 689.34 201.31 696.15 198.11 703.08 C 194.39 712.13 192.70 722.22 194.68 731.89 C 196.70 744.18 203.79 756.75 215.98 761.29 C 201.54 778.37 201.32 805.95 216.14 822.86 C 220.35 827.85 226.55 830.92 233.05 831.36 C 302.54 836.40 371.99 841.95 441.48 847.00 C 450.63 848.26 459.81 846.78 468.97 846.46 C 534.97 842.31 600.95 837.79 666.97 833.93 C 673.62 834.23 678.42 825.38 673.62 820.32 C 671.28 816.34 666.17 817.83 662.71 816.17 C 652.93 803.89 653.79 785.31 662.90 772.91 C 663.95 771.17 666.23 771.75 667.93 771.35 C 672.45 771.07 676.27 766.52 675.54 762.00 C 675.21 758.16 671.86 755.56 668.44 754.44 C 668.44 751.74 668.36 748.71 666.43 746.61 C 664.25 744.05 660.68 743.75 657.57 743.40 C 648.01 730.76 648.84 712.42 657.77 699.70 C 660.42 698.28 664.01 698.70 666.14 696.23 C 669.26 693.21 669.28 687.79 666.11 684.80 C 662.14 680.68 655.87 682.93 650.85 681.74 C 649.56 679.58 648.48 677.04 646.16 675.81 C 643.81 674.53 641.07 674.68 638.50 674.50 C 629.97 663.99 629.38 648.80 634.67 636.69 C 635.82 634.29 636.84 631.52 639.19 630.04 C 642.07 629.50 645.54 630.19 647.72 627.75 C 651.25 624.78 651.66 618.96 648.27 615.74 C 645.80 612.82 641.77 613.22 638.35 612.93 C 582.43 611.36 526.53 609.44 470.61 607.90 C 473.32 603.82 476.49 599.73 477.07 594.69 C 448.83 594.58 420.57 594.52 392.33 594.72 Z" style="fill: none !important;"/>
<path fill="#000000" opacity="1.00" d=" M 431.43 28.59 C 439.22 26.43 447.70 32.84 447.56 40.95 C 447.58 64.98 447.58 89.00 447.57 113.03 C 447.73 118.58 443.92 124.05 438.54 125.58 C 432.72 127.84 425.60 124.44 423.24 118.77 C 422.08 116.03 421.71 113.00 421.74 110.04 C 421.81 87.34 421.71 64.64 421.80 41.95 C 421.88 36.06 425.47 30.05 431.43 28.59 Z" style="fill: rgb(0, 0, 0) !important;"/>
<path fill="#000000" opacity="1.00" d=" M 296.46 62.73 C 300.60 61.67 305.18 62.79 308.37 65.64 C 310.41 67.66 311.67 70.30 313.12 72.75 C 324.43 92.48 335.74 112.22 347.00 131.98 C 349.14 135.46 350.43 139.85 348.66 143.78 C 346.59 149.99 339.43 154.06 333.07 152.08 C 328.58 151.00 325.79 147.01 323.71 143.19 C 311.85 122.66 299.98 102.11 288.38 81.43 C 284.24 74.43 288.59 64.54 296.46 62.73 Z" style="fill: rgb(0, 0, 0) !important;"/>
<path fill="#000000" opacity="1.00" d=" M 567.40 62.64 C 572.24 61.50 577.45 63.69 580.44 67.57 C 583.28 71.51 583.53 77.14 581.28 81.40 C 570.20 100.91 558.98 120.33 547.94 139.86 C 546.23 142.80 544.66 145.85 542.47 148.47 C 539.92 151.46 535.85 152.89 531.99 152.49 C 525.31 152.17 519.78 145.64 520.35 139.03 C 520.31 135.66 522.18 132.73 523.73 129.87 C 535.51 109.60 546.95 89.13 558.76 68.87 C 560.56 65.66 563.80 63.39 567.40 62.64 Z" style="fill: rgb(0, 0, 0) !important;"/>
<path fill="#000000" opacity="1.00" d=" M 383.72 164.69 C 411.07 155.19 441.13 153.52 469.35 159.98 C 510.43 169.30 547.40 196.14 568.16 232.90 C 584.79 261.72 591.54 296.05 587.40 329.03 C 583.76 357.69 572.02 385.34 553.71 407.70 C 547.45 415.41 540.11 422.23 534.42 430.41 C 523.12 445.61 516.75 464.18 515.49 483.02 C 514.96 493.01 509.43 502.88 500.31 507.40 C 489.21 513.09 476.34 510.65 464.38 511.18 C 464.27 483.42 466.37 455.71 469.73 428.17 C 472.44 409.15 475.40 389.96 481.66 371.76 C 490.29 365.95 499.31 358.87 502.21 348.39 C 503.04 344.24 503.21 339.62 501.23 335.76 C 498.81 331.48 493.97 328.40 488.98 328.73 C 484.40 329.24 480.38 332.03 477.58 335.58 C 472.53 342.03 469.37 349.68 466.50 357.29 C 465.96 358.38 465.67 359.93 464.30 360.30 C 448.13 366.68 429.99 367.12 413.22 362.90 C 410.06 361.89 406.52 361.39 403.86 359.29 C 400.55 350.72 397.23 341.87 391.25 334.75 C 387.52 330.36 381.08 327.05 375.41 329.57 C 368.68 332.13 365.26 340.25 367.13 347.01 C 369.08 356.21 376.04 363.28 383.44 368.55 C 385.43 370.13 388.47 371.02 388.90 373.88 C 397.32 401.62 400.64 430.56 403.16 459.33 C 403.69 469.22 404.74 479.09 404.73 489.01 C 405.40 496.39 405.55 503.81 405.42 511.22 C 395.67 510.81 385.75 512.20 376.15 510.02 C 368.19 508.20 360.90 502.96 357.49 495.41 C 353.58 487.88 354.19 479.16 352.61 471.04 C 349.31 450.73 338.52 432.30 324.53 417.48 C 300.20 392.36 284.90 358.78 281.58 324.00 C 281.02 314.67 281.02 305.30 281.56 295.97 C 284.91 260.27 300.63 225.53 326.48 200.48 C 342.49 184.38 362.38 172.32 383.72 164.69 M 410.44 186.75 C 389.47 190.87 369.59 200.42 353.35 214.32 C 330.62 233.40 315.50 261.04 311.00 290.32 C 309.35 296.11 314.29 302.28 320.11 302.79 C 325.96 303.67 331.61 298.79 331.98 292.97 C 337.37 254.75 366.51 221.30 403.48 210.40 C 407.44 209.14 411.53 208.43 415.56 207.45 C 420.18 206.36 424.17 201.90 423.76 196.99 C 424.41 190.14 416.83 184.69 410.44 186.75 Z" style="fill: rgb(0, 0, 0) !important;"/>
<path fill="#000000" opacity="1.00" d=" M 195.44 162.63 C 199.04 161.33 203.05 161.83 206.38 163.63 C 226.35 174.90 246.03 186.71 265.91 198.14 C 270.13 200.59 275.07 203.12 276.71 208.08 C 279.28 214.82 274.84 223.11 267.79 224.69 C 263.89 226.01 259.74 224.65 256.32 222.68 C 237.27 211.32 218.00 200.31 198.86 189.11 C 195.99 187.38 192.82 186.01 190.41 183.62 C 184.37 177.46 186.75 164.97 195.44 162.63 Z" style="fill: rgb(0, 0, 0) !important;"/>
<path fill="#000000" opacity="1.00" d=" M 665.42 162.63 C 673.11 159.35 682.49 165.75 682.66 173.96 C 683.11 179.13 679.99 184.09 675.43 186.39 C 655.34 197.94 635.33 209.62 615.35 221.37 C 611.69 223.52 607.60 226.05 603.16 225.07 C 598.64 224.41 594.82 221.08 593.07 216.94 C 590.92 211.04 593.31 203.93 599.00 201.00 C 617.78 189.72 636.88 178.98 655.79 167.92 C 658.98 166.14 661.96 163.90 665.42 162.63 Z" style="fill: rgb(0, 0, 0) !important;"/>
<path fill="#ffffff" opacity="1.00" d=" M 410.44 186.75 C 416.83 184.69 424.41 190.14 423.76 196.99 C 424.17 201.90 420.18 206.36 415.56 207.45 C 411.53 208.43 407.44 209.14 403.48 210.40 C 366.51 221.30 337.37 254.75 331.98 292.97 C 331.61 298.79 325.96 303.67 320.11 302.79 C 314.29 302.28 309.35 296.11 311.00 290.32 C 315.50 261.04 330.62 233.40 353.35 214.32 C 369.59 200.42 389.47 190.87 410.44 186.75 Z" style="fill: none !important;"/>
<path fill="#000000" opacity="1.00" d=" M 159.44 297.59 C 162.90 296.78 166.47 296.84 170.00 296.86 C 191.35 296.85 212.67 297.11 234.02 296.84 C 238.46 296.74 243.36 297.03 246.87 300.11 C 252.10 304.53 252.75 313.02 248.23 318.19 C 245.80 321.21 241.93 322.92 238.06 322.75 C 213.05 322.81 188.05 322.80 163.04 322.78 C 158.01 322.80 153.14 319.59 151.24 314.92 C 148.22 308.19 152.09 299.29 159.44 297.59 Z" style="fill: rgb(0, 0, 0) !important;"/>
<path fill="#000000" opacity="1.00" d=" M 627.41 297.64 C 633.53 296.40 639.81 297.00 646.00 296.87 C 662.34 296.78 678.67 296.92 695.00 297.14 C 701.45 297.37 708.79 295.53 714.41 299.64 C 720.07 303.64 721.14 312.37 716.83 317.75 C 714.31 321.03 710.16 322.97 706.02 322.78 C 681.03 322.78 656.04 322.81 631.05 322.77 C 623.88 323.05 617.55 316.16 618.42 309.04 C 618.55 303.84 622.39 298.98 627.41 297.64 Z" style="fill: rgb(0, 0, 0) !important;"/>
<path fill="#000000" opacity="1.00" d=" M 410.01 380.59 C 426.29 384.78 443.41 384.39 459.76 380.82 C 452.45 412.33 448.59 444.56 447.20 476.84 C 446.17 488.06 446.33 499.36 446.29 510.62 C 438.80 511.82 431.17 510.90 423.63 511.16 C 423.30 476.13 420.86 441.08 415.13 406.49 C 413.83 397.78 411.49 389.27 410.01 380.59 Z" style="fill: rgb(0, 0, 0) !important;"/>
<path fill="#000000" opacity="1.00" d=" M 261.54 394.75 C 269.15 392.73 277.44 399.12 277.45 406.99 C 277.71 412.10 274.48 416.70 270.03 418.98 C 250.66 430.34 231.22 441.56 211.83 452.87 C 207.88 455.13 203.87 458.27 199.04 457.78 C 194.16 457.72 189.64 454.55 187.87 450.01 C 184.91 444.44 187.73 437.08 192.96 433.94 C 213.20 422.23 233.43 410.48 253.55 398.55 C 256.11 397.09 258.66 395.48 261.54 394.75 Z" style="fill: rgb(0, 0, 0) !important;"/>
<path fill="#000000" opacity="1.00" d=" M 602.40 394.70 C 606.92 393.49 611.22 395.75 614.98 398.02 C 632.45 408.23 649.95 418.37 667.43 428.56 C 671.73 431.19 676.76 432.99 680.05 436.98 C 683.89 441.64 683.72 449.14 679.60 453.58 C 675.75 458.46 668.18 459.07 663.06 455.93 C 642.60 444.06 622.14 432.19 601.68 420.33 C 597.10 417.80 592.18 413.76 592.38 408.02 C 591.75 401.84 596.42 395.97 602.40 394.70 Z" style="fill: rgb(0, 0, 0) !important;"/>
<path fill="#000000" opacity="1.00" d=" M 372.40 522.59 C 374.54 522.04 376.76 521.81 378.97 521.82 C 416.67 521.82 454.36 521.82 492.06 521.79 C 496.71 521.74 501.69 523.68 504.08 527.88 C 506.30 531.01 505.98 535.10 505.48 538.71 C 503.95 544.06 498.41 547.72 492.93 547.65 C 454.29 547.67 415.64 547.64 376.99 547.65 C 370.11 547.97 363.22 542.10 363.47 535.02 C 363.16 529.51 367.05 524.01 372.40 522.59 Z" style="fill: rgb(0, 0, 0) !important;"/>
<path fill="#000000" opacity="1.00" d=" M 378.33 558.44 C 415.23 558.13 452.16 558.38 489.07 558.28 C 497.20 557.67 504.17 566.38 501.87 574.16 C 500.62 580.42 494.19 584.41 488.04 584.15 C 452.68 584.11 417.32 584.17 381.96 584.11 C 376.28 584.33 370.33 581.43 368.26 575.91 C 365.04 568.56 370.36 559.32 378.33 558.44 Z" style="fill: rgb(0, 0, 0) !important;"/>
<path fill="#000000" opacity="1.00" d=" M 392.33 594.72 C 420.57 594.52 448.83 594.58 477.07 594.69 C 476.49 599.73 473.32 603.82 470.61 607.90 C 526.53 609.44 582.43 611.36 638.35 612.93 C 641.77 613.22 645.80 612.82 648.27 615.74 C 651.66 618.96 651.25 624.78 647.72 627.75 C 645.54 630.19 642.07 629.50 639.19 630.04 C 636.84 631.52 635.82 634.29 634.67 636.69 C 629.38 648.80 629.97 663.99 638.50 674.50 C 641.07 674.68 643.81 674.53 646.16 675.81 C 648.48 677.04 649.56 679.58 650.85 681.74 C 655.87 682.93 662.14 680.68 666.11 684.80 C 669.28 687.79 669.26 693.21 666.14 696.23 C 664.01 698.70 660.42 698.28 657.77 699.70 C 648.84 712.42 648.01 730.76 657.57 743.40 C 660.68 743.75 664.25 744.05 666.43 746.61 C 668.36 748.71 668.44 751.74 668.44 754.44 C 671.86 755.56 675.21 758.16 675.54 762.00 C 676.27 766.52 672.45 771.07 667.93 771.35 C 666.23 771.75 663.95 771.17 662.90 772.91 C 653.79 785.31 652.93 803.89 662.71 816.17 C 666.17 817.83 671.28 816.34 673.62 820.32 C 678.42 825.38 673.62 834.23 666.97 833.93 C 600.95 837.79 534.97 842.31 468.97 846.46 C 459.81 846.78 450.63 848.26 441.48 847.00 C 371.99 841.95 302.54 836.40 233.05 831.36 C 226.55 830.92 220.35 827.85 216.14 822.86 C 201.32 805.95 201.54 778.37 215.98 761.29 C 203.79 756.75 196.70 744.18 194.68 731.89 C 192.70 722.22 194.39 712.13 198.11 703.08 C 201.31 696.15 205.96 689.34 213.06 685.97 C 218.05 683.46 223.75 683.48 229.20 683.38 C 226.55 679.45 223.69 675.59 221.96 671.14 C 215.98 656.58 217.45 639.16 225.82 625.82 C 230.54 618.94 237.75 612.98 246.46 612.77 C 297.39 611.16 348.33 609.78 399.26 608.16 C 396.24 604.10 393.28 599.80 392.33 594.72 M 264.11 628.14 C 255.49 643.12 255.07 662.55 263.31 677.77 C 264.04 678.82 264.70 680.47 266.21 680.48 C 271.71 680.73 277.18 681.29 282.68 681.49 C 275.21 670.32 274.01 656.03 276.31 643.09 C 277.27 636.90 280.44 631.47 283.04 625.88 C 277.77 625.79 272.50 625.56 267.23 625.52 C 265.52 625.20 264.91 627.04 264.11 628.14 M 373.69 655.99 C 373.42 666.34 375.87 677.31 382.54 685.48 C 388.01 685.52 393.44 686.27 398.90 686.42 C 388.92 669.58 389.09 647.07 399.63 630.56 C 394.13 629.40 388.47 629.83 382.89 629.52 C 377.02 637.05 374.51 646.62 373.69 655.99 M 455.98 635.49 C 449.18 635.74 443.56 640.98 441.00 647.00 C 438.28 652.76 438.00 659.32 438.78 665.55 C 440.23 672.35 444.09 679.25 450.69 682.17 C 454.32 683.79 458.34 683.06 462.15 682.80 C 515.10 680.39 568.04 677.78 620.99 675.43 C 619.56 671.68 617.86 668.01 617.02 664.06 C 614.74 652.70 616.60 640.91 621.12 630.33 C 566.07 631.86 511.03 633.75 455.98 635.49 M 242.48 697.51 C 233.51 711.94 232.82 730.94 239.59 746.38 C 240.55 747.87 240.94 750.62 243.16 750.57 C 249.11 750.80 255.03 751.41 260.98 751.50 C 252.26 734.88 252.96 714.23 261.85 697.83 C 255.40 697.98 248.86 696.74 242.48 697.51 M 493.06 708.35 C 487.18 708.21 481.80 711.89 478.93 716.87 C 473.56 726.07 472.88 738.19 478.35 747.51 C 480.85 751.68 485.03 755.44 490.06 755.84 C 495.44 755.97 500.82 755.41 506.18 754.97 C 551.09 751.45 596.00 747.97 640.91 744.59 C 637.81 737.13 635.96 729.08 636.42 720.97 C 636.15 713.56 638.99 706.63 640.99 699.65 C 591.68 702.41 542.38 705.55 493.06 708.35 M 412.06 704.60 C 405.84 715.46 404.48 728.44 405.92 740.71 C 407.01 746.83 408.29 753.53 412.48 758.33 C 419.20 758.66 425.92 759.10 432.65 759.52 C 424.79 745.84 423.83 728.87 428.79 714.04 C 429.79 711.13 431.38 708.44 432.00 705.41 C 425.35 705.13 418.72 704.42 412.06 704.60 M 248.52 765.43 C 237.65 781.62 237.04 804.00 247.43 820.57 C 252.92 821.29 258.47 821.62 264.00 821.88 C 260.85 815.79 258.23 809.30 257.51 802.42 C 255.57 790.03 258.78 777.23 264.82 766.36 C 259.41 765.74 253.96 765.47 248.52 765.43 M 614.15 774.06 C 561.11 776.85 508.07 779.64 455.02 782.32 C 449.45 782.49 444.58 786.27 441.97 791.02 C 436.82 799.98 436.31 811.70 441.39 820.80 C 444.40 825.85 449.75 830.35 455.99 829.76 C 486.00 828.06 515.98 825.92 545.99 824.14 C 579.27 821.85 612.60 820.07 645.88 817.71 C 644.47 813.69 642.90 809.71 642.09 805.52 C 639.82 794.37 642.01 782.94 646.20 772.53 C 635.50 772.73 624.83 773.55 614.15 774.06 M 374.71 794.96 C 373.49 805.47 373.90 816.65 379.06 826.15 C 380.26 828.12 381.31 831.04 384.02 831.20 C 388.75 831.50 393.45 832.16 398.19 832.48 C 388.37 814.89 389.41 792.35 399.97 775.34 C 394.34 774.66 388.67 774.54 383.01 774.49 C 378.89 780.67 376.08 787.66 374.71 794.96 Z" style="fill: rgb(0, 0, 0) !important;"/>
<path fill="#ffffff" opacity="1.00" d=" M 264.11 628.14 C 264.91 627.04 265.52 625.20 267.23 625.52 C 272.50 625.56 277.77 625.79 283.04 625.88 C 280.44 631.47 277.27 636.90 276.31 643.09 C 274.01 656.03 275.21 670.32 282.68 681.49 C 277.18 681.29 271.71 680.73 266.21 680.48 C 264.70 680.47 264.04 678.82 263.31 677.77 C 255.07 662.55 255.49 643.12 264.11 628.14 Z" style="fill: none !important;"/>
<path fill="#ffffff" opacity="1.00" d=" M 373.69 655.99 C 374.51 646.62 377.02 637.05 382.89 629.52 C 388.47 629.83 394.13 629.40 399.63 630.56 C 389.09 647.07 388.92 669.58 398.90 686.42 C 393.44 686.27 388.01 685.52 382.54 685.48 C 375.87 677.31 373.42 666.34 373.69 655.99 Z" style="fill: none !important;"/>
<path fill="#ffffff" opacity="1.00" d=" M 455.98 635.49 C 511.03 633.75 566.07 631.86 621.12 630.33 C 616.60 640.91 614.74 652.70 617.02 664.06 C 617.86 668.01 619.56 671.68 620.99 675.43 C 568.04 677.78 515.10 680.39 462.15 682.80 C 458.34 683.06 454.32 683.79 450.69 682.17 C 444.09 679.25 440.23 672.35 438.78 665.55 C 438.00 659.32 438.28 652.76 441.00 647.00 C 443.56 640.98 449.18 635.74 455.98 635.49 Z" style="fill: none !important;"/>
<path fill="#ffffff" opacity="1.00" d=" M 242.48 697.51 C 248.86 696.74 255.40 697.98 261.85 697.83 C 252.96 714.23 252.26 734.88 260.98 751.50 C 255.03 751.41 249.11 750.80 243.16 750.57 C 240.94 750.62 240.55 747.87 239.59 746.38 C 232.82 730.94 233.51 711.94 242.48 697.51 Z" style="fill: none !important;"/>
<path fill="#ffffff" opacity="1.00" d=" M 493.06 708.35 C 542.38 705.55 591.68 702.41 640.99 699.65 C 638.99 706.63 636.15 713.56 636.42 720.97 C 635.96 729.08 637.81 737.13 640.91 744.59 C 596.00 747.97 551.09 751.45 506.18 754.97 C 500.82 755.41 495.44 755.97 490.06 755.84 C 485.03 755.44 480.85 751.68 478.35 747.51 C 472.88 738.19 473.56 726.07 478.93 716.87 C 481.80 711.89 487.18 708.21 493.06 708.35 Z" style="fill: none !important;"/>
<path fill="#ffffff" opacity="1.00" d=" M 412.06 704.60 C 418.72 704.42 425.35 705.13 432.00 705.41 C 431.38 708.44 429.79 711.13 428.79 714.04 C 423.83 728.87 424.79 745.84 432.65 759.52 C 425.92 759.10 419.20 758.66 412.48 758.33 C 408.29 753.53 407.01 746.83 405.92 740.71 C 404.48 728.44 405.84 715.46 412.06 704.60 Z" style="fill: none !important;"/>
<path fill="#ffffff" opacity="1.00" d=" M 248.52 765.43 C 253.96 765.47 259.41 765.74 264.82 766.36 C 258.78 777.23 255.57 790.03 257.51 802.42 C 258.23 809.30 260.85 815.79 264.00 821.88 C 258.47 821.62 252.92 821.29 247.43 820.57 C 237.04 804.00 237.65 781.62 248.52 765.43 Z" style="fill: none !important;"/>
<path fill="#ffffff" opacity="1.00" d=" M 614.15 774.06 C 624.83 773.55 635.50 772.73 646.20 772.53 C 642.01 782.94 639.82 794.37 642.09 805.52 C 642.90 809.71 644.47 813.69 645.88 817.71 C 612.60 820.07 579.27 821.85 545.99 824.14 C 515.98 825.92 486.00 828.06 455.99 829.76 C 449.75 830.35 444.40 825.85 441.39 820.80 C 436.31 811.70 436.82 799.98 441.97 791.02 C 444.58 786.27 449.45 782.49 455.02 782.32 C 508.07 779.64 561.11 776.85 614.15 774.06 Z" style="fill: none !important;"/>
<path fill="#ffffff" opacity="1.00" d=" M 374.71 794.96 C 376.08 787.66 378.89 780.67 383.01 774.49 C 388.67 774.54 394.34 774.66 399.97 775.34 C 389.41 792.35 388.37 814.89 398.19 832.48 C 393.45 832.16 388.75 831.50 384.02 831.20 C 381.31 831.04 380.26 828.12 379.06 826.15 C 373.90 816.65 373.49 805.47 374.71 794.96 Z" style="fill: none !important;"/>
</svg>