<svg xmlns="http://www.w3.org/2000/svg" role="img" viewBox="151.00 147.00 721.00 728.00" width="32" height="38" style=""><g id="#ffffffff" fill="#fff" stroke="#fff" stroke-width=".094" style="fill: none !important;"><path d="M 0.00 0.00 L 1024.00 0.00 L 1024.00 1024.00 L 0.00 1024.00 L 0.00 0.00 M 741.23 162.31 C 738.43 163.15 736.55 166.14 736.85 169.03 C 737.34 174.90 737.52 180.82 738.57 186.63 C 738.95 189.67 742.48 191.83 745.29 190.32 C 747.81 188.85 747.92 185.65 748.23 183.07 C 748.50 178.37 749.05 173.69 749.29 168.99 C 749.77 164.77 745.38 160.80 741.23 162.31 M 673.27 184.32 C 670.45 185.24 668.97 188.20 668.83 191.01 C 669.16 194.64 672.20 196.98 674.28 199.67 C 680.92 208.00 687.85 216.10 694.80 224.17 C 696.42 225.86 698.42 228.43 701.11 227.38 C 703.94 226.10 702.89 222.59 701.66 220.50 C 695.38 209.22 688.51 198.29 681.59 187.40 C 679.97 184.64 676.33 182.88 673.27 184.32 M 808.22 184.35 C 805.05 185.77 803.75 189.25 801.91 191.94 C 796.02 200.90 790.51 210.09 785.27 219.44 C 784.30 221.45 782.63 223.73 783.79 226.02 C 785.11 227.84 787.91 228.18 789.40 226.36 C 796.66 218.60 803.30 210.28 810.00 202.04 C 812.37 198.97 815.37 196.31 817.11 192.80 C 819.08 187.66 813.30 181.79 808.22 184.35 M 740.42 202.48 C 738.50 203.14 737.31 204.86 736.48 206.60 C 730.06 219.54 724.00 232.65 717.68 245.64 C 716.91 247.15 716.14 249.12 714.11 249.09 C 699.59 251.45 685.00 253.42 670.48 255.75 C 665.05 256.15 661.55 263.34 665.48 267.48 C 676.07 278.50 687.15 289.07 697.69 300.15 C 699.24 301.32 698.92 303.27 698.63 304.94 C 696.09 319.26 693.58 333.60 691.22 347.96 C 689.82 353.01 694.97 358.04 699.96 356.64 C 704.13 355.25 707.72 352.60 711.63 350.64 C 722.14 345.19 732.42 339.27 743.08 334.14 C 751.73 337.64 759.60 342.88 767.99 346.99 C 773.78 349.79 779.13 353.48 785.01 356.10 C 788.48 357.76 793.21 356.36 794.82 352.75 C 796.25 349.58 794.94 346.10 794.48 342.87 C 792.25 329.87 789.83 316.90 787.57 303.90 C 787.14 302.39 787.48 300.77 788.74 299.77 C 797.55 290.90 806.36 282.02 815.27 273.24 C 817.79 270.72 820.81 268.43 822.20 265.02 C 823.48 261.03 820.65 256.45 816.51 255.82 C 802.99 253.61 789.40 251.77 775.85 249.70 C 773.50 249.24 770.18 249.48 769.23 246.70 C 762.45 233.08 756.14 219.22 749.27 205.64 C 747.69 202.38 743.68 201.22 740.42 202.48 M 631.42 243.57 C 626.87 245.51 626.72 252.75 631.31 254.71 C 635.66 256.47 640.38 257.10 644.87 258.44 C 647.50 259.10 650.81 260.38 652.99 258.00 C 655.54 255.84 654.40 251.67 651.65 250.26 C 647.93 248.14 643.84 246.78 639.98 244.95 C 637.34 243.77 634.28 242.17 631.42 243.57 M 850.32 243.39 C 846.00 244.87 841.94 247.03 837.74 248.80 C 835.16 249.99 831.82 251.62 832.12 255.01 C 831.68 258.10 835.39 259.88 838.00 259.34 C 842.37 258.51 846.62 257.16 850.93 256.03 C 853.83 255.26 857.39 254.39 858.32 251.07 C 859.97 246.44 854.93 241.41 850.32 243.39 M 370.92 293.90 C 327.03 320.10 294.60 364.86 284.00 414.94 C 278.59 440.51 278.31 467.22 283.67 492.82 C 290.62 527.12 308.00 558.93 331.94 584.33 C 323.10 594.63 314.16 604.87 304.95 614.82 C 301.08 612.37 296.94 609.44 292.00 609.83 C 285.30 609.63 279.39 613.61 275.62 618.89 C 242.93 656.04 210.01 693.00 177.48 730.28 C 170.12 737.54 165.59 747.61 165.38 757.98 C 164.84 771.41 171.67 784.80 182.89 792.23 C 197.92 802.89 220.35 800.21 232.76 786.71 C 267.75 746.76 302.72 706.78 337.85 666.95 C 343.97 659.48 342.57 647.56 335.04 641.56 C 344.21 631.06 353.44 620.61 362.58 610.08 C 380.60 622.49 400.77 631.83 422.04 637.03 C 464.78 647.98 511.53 643.11 550.84 622.95 C 583.28 606.51 611.04 580.82 629.56 549.49 C 648.89 516.71 658.02 477.99 654.86 440.02 C 651.90 401.17 636.38 363.42 611.18 333.69 C 588.52 306.97 558.43 286.32 524.89 275.91 C 474.20 259.45 416.43 266.11 370.92 293.90 M 667.59 305.81 C 657.07 308.59 646.55 311.36 636.08 314.35 C 633.57 315.11 630.76 316.01 629.34 318.41 C 627.09 321.60 628.59 326.48 632.14 328.01 C 635.03 329.50 638.19 328.03 640.89 326.82 C 651.60 321.99 662.31 317.14 672.86 311.99 C 675.33 311.08 676.61 307.51 674.42 305.66 C 672.34 304.37 669.78 305.38 667.59 305.81 M 813.13 305.20 C 811.47 305.75 810.12 307.89 811.20 309.52 C 811.83 310.94 813.35 311.64 814.63 312.40 C 824.90 317.67 835.53 322.18 846.00 327.03 C 848.48 328.18 851.42 329.39 854.12 328.13 C 857.75 326.76 859.18 321.92 857.28 318.64 C 855.67 315.62 852.01 314.95 849.05 313.96 C 839.40 311.27 829.70 308.71 820.01 306.17 C 817.76 305.69 815.46 304.75 813.13 305.20 M 747.31 371.27 C 742.34 376.64 740.37 383.99 739.70 391.11 C 739.25 397.40 737.07 403.40 734.10 408.93 C 740.39 412.08 745.89 416.53 751.78 420.35 C 757.79 413.64 764.12 406.92 767.73 398.54 C 771.16 390.63 772.82 381.56 770.63 373.10 C 769.45 368.28 765.09 364.07 759.95 364.16 C 754.82 364.12 750.55 367.64 747.31 371.27 M 695.17 391.27 C 692.88 396.18 689.58 400.56 685.41 404.03 C 688.89 408.45 692.27 412.98 695.05 417.89 C 700.55 415.31 706.40 413.14 711.06 409.12 C 716.58 404.39 721.34 398.34 723.14 391.18 C 724.08 387.61 723.96 383.46 721.63 380.43 C 719.38 377.53 715.35 376.59 711.89 377.35 C 704.42 378.89 698.41 384.52 695.17 391.27 M 669.53 417.38 C 667.89 423.09 673.17 429.32 679.05 428.75 C 683.90 428.32 687.66 424.77 690.95 421.50 C 688.01 416.56 684.58 411.92 681.25 407.24 C 676.33 408.95 671.12 412.11 669.53 417.38 M 721.70 431.04 C 722.02 438.30 730.73 443.19 737.24 440.23 C 743.16 437.81 745.75 431.47 748.18 426.03 C 742.10 422.33 736.43 418.00 730.23 414.53 C 726.03 419.11 721.44 424.40 721.70 431.04 M 685.84 441.96 C 679.43 444.21 674.85 449.41 669.39 453.18 C 669.65 461.62 668.88 470.03 668.05 478.42 C 676.90 477.74 685.90 476.19 693.70 471.69 C 699.86 468.19 705.62 463.28 708.57 456.70 C 710.99 451.36 708.96 443.98 703.31 441.65 C 697.77 439.39 691.38 439.99 685.84 441.96 M 620.89 608.80 C 612.26 612.99 604.01 618.31 597.54 625.47 C 591.47 632.04 586.33 639.40 581.40 646.83 C 588.97 654.50 596.27 662.46 602.93 670.95 C 609.83 665.43 617.26 660.26 625.84 657.77 C 635.60 654.90 645.72 651.46 653.01 644.00 C 658.87 638.02 664.71 630.71 664.94 621.96 C 665.45 613.64 658.94 605.96 650.97 604.16 C 640.80 601.67 630.16 604.47 620.89 608.80 M 702.60 628.58 C 697.28 634.15 694.79 641.58 691.22 648.24 C 688.17 654.02 683.60 658.79 678.86 663.21 C 684.87 670.47 690.80 677.81 696.13 685.60 C 701.97 682.30 708.26 679.79 713.77 675.91 C 725.10 668.14 734.52 657.12 739.09 644.05 C 740.90 638.37 742.21 631.98 739.93 626.24 C 737.65 619.91 730.72 615.67 724.04 616.50 C 715.55 617.30 708.42 622.73 702.60 628.58 M 554.21 673.92 C 550.82 685.15 561.22 697.88 573.00 696.25 C 583.00 694.78 590.17 686.49 595.71 678.69 C 588.74 670.05 580.49 662.52 573.61 653.80 C 565.86 658.86 556.90 664.48 554.21 673.92 M 653.76 684.74 C 649.68 695.05 660.37 707.15 671.10 704.65 C 678.69 702.89 683.80 696.47 689.34 691.50 C 683.57 683.87 677.56 676.43 671.75 668.84 C 664.14 671.59 656.86 677.06 653.76 684.74 M 458.90 693.87 C 449.81 699.87 442.79 708.31 435.40 716.18 C 441.34 725.43 448.53 733.83 454.07 743.34 C 461.66 738.85 469.67 734.62 478.51 733.33 C 487.39 731.95 496.54 730.23 504.18 725.20 C 511.08 720.64 517.45 714.61 520.63 706.83 C 523.06 701.03 521.84 694.08 517.89 689.25 C 514.06 683.92 507.27 682.02 501.05 681.40 C 486.06 680.24 471.23 685.61 458.90 693.87 M 590.35 719.50 C 581.98 723.16 575.30 729.55 568.32 735.26 C 562.43 740.14 555.14 742.75 548.06 745.37 C 551.55 755.81 553.33 766.72 556.44 777.26 C 566.49 776.08 576.74 776.02 586.57 773.31 C 599.38 769.86 611.46 763.22 620.89 753.86 C 626.19 748.23 631.39 741.16 630.76 733.02 C 630.42 725.25 624.42 718.39 616.93 716.58 C 608.08 714.46 598.65 716.02 590.35 719.50 M 405.38 739.37 C 399.85 750.09 408.86 764.97 421.02 764.63 C 431.09 764.18 439.35 757.28 445.78 750.11 C 439.45 740.85 433.10 731.59 426.58 722.46 C 418.83 727.03 409.27 730.52 405.38 739.37 M 510.70 757.68 C 502.82 766.64 508.01 782.83 519.58 785.69 C 528.78 788.26 537.54 783.22 546.04 780.46 C 543.76 769.59 540.35 758.97 538.02 748.10 C 528.24 747.84 517.68 750.41 510.70 757.68 M 349.09 757.12 C 336.21 759.24 324.71 766.48 315.86 775.88 C 310.95 780.89 307.54 787.10 303.16 792.54 C 309.46 799.26 315.67 806.07 321.66 813.06 C 325.00 810.62 328.19 807.95 331.86 806.02 C 339.94 801.38 349.68 800.61 357.47 795.37 C 364.21 790.80 370.31 784.48 372.64 776.50 C 374.53 770.29 372.04 762.85 366.42 759.43 C 361.29 756.16 354.89 756.22 349.09 757.12 M 446.86 793.89 C 436.89 796.73 428.89 803.67 421.10 810.19 C 414.91 815.38 407.43 818.71 399.86 821.37 C 402.85 831.71 405.18 842.21 407.52 852.72 C 418.54 851.73 429.82 852.01 440.47 848.58 C 454.57 844.03 468.31 836.33 477.10 824.10 C 480.82 818.97 483.33 812.35 481.55 806.02 C 480.00 799.47 474.34 794.48 467.93 792.86 C 461.01 790.95 453.68 792.15 446.86 793.89 M 281.05 814.05 C 277.23 823.46 285.70 835.49 295.98 834.36 C 304.58 833.26 310.87 826.40 315.61 819.68 C 309.66 812.47 302.95 805.94 296.91 798.82 C 290.93 803.01 283.84 806.87 281.05 814.05 M 362.16 833.20 C 354.22 842.08 359.27 858.24 370.83 861.10 C 379.91 863.33 388.97 859.27 397.17 855.75 C 394.84 844.93 392.05 834.15 389.23 823.43 C 379.64 823.82 368.81 825.61 362.16 833.20 Z"/><path d="M739.32 226.28C741.93 223.69 746.54 227.72 744.83 230.79 740.84 240.86 736.01 250.57 731.72 260.51 730.65 263.25 728.8 266.04 725.58 266.25 714.7 267.5 703.87 269.22 692.99 270.5 689.3 271.48 686.77 265.85 690.11 263.91 694.57 262.26 699.54 262.54 704.18 261.55 710.75 260.31 717.65 260.19 723.99 258.09 727.84 250.77 730.92 243.05 734.54 235.61 736.14 232.51 737.03 228.97 739.32 226.28zM449.44 305.74C488.49 300.83 529.22 312.32 560.02 336.79 588.05 358.76 607.85 390.97 614.65 425.94 622.93 465.5 613.43 508.14 589.85 540.87 568.94 570.82 536.7 592.63 501.18 601.07 465.61 609.39 426.96 603.92 395.21 585.82 366.1 569.78 342.83 543.64 329.67 513.18 320.2 491.5 316.23 467.49 317.96 443.91 319.96 418.31 328.51 393.22 342.83 371.88 366.62 335.85 406.48 310.82 449.44 305.74M455.56 325.86C428.7 328.33 403.02 340.04 382.81 357.77 355.07 381.85 338.57 418.26 338.53 454.97 338.4 460.63 344.54 465.01 349.86 463.09 353.99 462.24 356.16 458 356.1 454.07 356.15 436.36 360.62 418.69 368.96 403.07 387.06 367.68 425.23 343.51 465 342.53 468.15 342.36 471.51 342.93 474.45 341.52 478.52 339.8 480.49 334.49 478.68 330.49 477.31 327.13 473.63 325.07 470.07 325.23 465.23 325.25 460.38 325.35 455.56 325.86M551.49 412.72C536.68 416.47 524.39 426.2 513.94 436.97 518.83 444.75 523.53 452.65 527.94 460.72 532.45 458.54 537 456.3 541.91 455.13 547.86 453.57 554.07 453.78 560.09 452.61 567.46 451.41 574.34 447.89 580.02 443.11 583.92 439.6 587.81 435.4 588.75 430.05 590.23 422.15 584.27 414.19 576.73 412.19 568.48 409.99 559.68 410.51 551.49 412.72M486.77 454.63C481.63 462.91 487.25 475.44 496.96 476.8 506.16 477.89 514.24 471.94 520.59 465.98 515.65 457.93 511.03 449.7 506.21 441.58 499.05 444.65 490.88 447.46 486.77 454.63M580.54 469.41C574.5 473.71 574.42 483.47 579.9 488.26 584.11 492.25 590.65 491.96 595.82 490.6 598.43 481.94 600.17 472.85 599.84 463.74 593.33 465.21 586.18 465.47 580.54 469.41M416.87 500.99C411 509.08 408.74 518.98 405.77 528.35 412.96 532.5 420.61 535.87 427.43 540.67 430.13 537.29 432.46 533.6 435.46 530.47 440.55 524.79 448 521.83 452.8 515.84 457.75 509.72 461.13 502.03 461.31 494.09 461.49 485.82 452.91 479.37 444.99 480.84 433.21 482.96 423.39 491.25 416.87 500.99M540.51 487.86C527.57 489.94 515.88 496.64 506 505.01 497.47 512.49 491.28 522.11 484.68 531.22 492.24 539.22 499.94 547.11 506.87 555.69 513.42 550.66 520.11 545.45 528.06 542.87 536.85 539.92 546.26 537.65 553.55 531.57 560.34 525.89 566.57 518.81 568.86 510.06 571.1 502.55 567.06 494.24 560.58 490.25 554.56 486.68 547.2 486.78 540.51 487.86M402.11 535.86C397.85 541.77 392.9 548.22 393.5 555.95 393.96 564.46 404.2 570.77 411.94 566.97 419.34 563.63 422.3 555.3 424.42 548.07 416.99 543.97 409.77 539.51 402.11 535.86M457.62 558.43C453.52 570.07 464.78 583.9 477.08 581.63 487.02 579.68 494.07 571.4 499.67 563.54 492.05 555.3 484.34 547.14 476.89 538.75 469.41 543.98 460.64 549.28 457.62 558.43zM285.19 633.27C290.81 630.13 297.13 638.25 292.98 642.99 261.85 678.83 230.37 714.39 199.04 750.06 196.57 753.5 190.73 753.03 188.76 749.33 186.85 746.69 187.73 743.12 189.83 740.89 219.66 707.01 249.51 673.13 279.21 639.13 281.06 637.06 282.67 634.59 285.19 633.27z"/></g><g id="#000000ff" stroke="#000" stroke-width=".094" style="fill: rgb(0, 0, 0) !important; stroke: rgb(0, 0, 0) !important;"><path d="M741.23 162.31C745.38 160.8 749.77 164.77 749.29 168.99 749.05 173.69 748.5 178.37 748.23 183.07 747.92 185.65 747.81 188.85 745.29 190.32 742.48 191.83 738.95 189.67 738.57 186.63 737.52 180.82 737.34 174.9 736.85 169.03 736.55 166.14 738.43 163.15 741.23 162.31zM673.27 184.32C676.33 182.88 679.97 184.64 681.59 187.4 688.51 198.29 695.38 209.22 701.66 220.5 702.89 222.59 703.94 226.1 701.11 227.38 698.42 228.43 696.42 225.86 694.8 224.17 687.85 216.1 680.92 208 674.28 199.67 672.2 196.98 669.16 194.64 668.83 191.01 668.97 188.2 670.45 185.24 673.27 184.32zM808.22 184.35C813.3 181.79 819.08 187.66 817.11 192.8 815.37 196.31 812.37 198.97 810 202.04 803.3 210.28 796.66 218.6 789.4 226.36 787.91 228.18 785.11 227.84 783.79 226.02 782.63 223.73 784.3 221.45 785.27 219.44 790.51 210.09 796.02 200.9 801.91 191.94 803.75 189.25 805.05 185.77 808.22 184.35zM740.42 202.48C743.68 201.22 747.69 202.38 749.27 205.64 756.14 219.22 762.45 233.08 769.23 246.7 770.18 249.48 773.5 249.24 775.85 249.7 789.4 251.77 802.99 253.61 816.51 255.82 820.65 256.45 823.48 261.03 822.2 265.02 820.81 268.43 817.79 270.72 815.27 273.24 806.36 282.02 797.55 290.9 788.74 299.77 787.48 300.77 787.14 302.39 787.57 303.9 789.83 316.9 792.25 329.87 794.48 342.87 794.94 346.1 796.25 349.58 794.82 352.75 793.21 356.36 788.48 357.76 785.01 356.1 779.13 353.48 773.78 349.79 767.99 346.99 759.6 342.88 751.73 337.64 743.08 334.14 732.42 339.27 722.14 345.19 711.63 350.64 707.72 352.6 704.13 355.25 699.96 356.64 694.97 358.04 689.82 353.01 691.22 347.96 693.58 333.6 696.09 319.26 698.63 304.94 698.92 303.27 699.24 301.32 697.69 300.15 687.15 289.07 676.07 278.5 665.48 267.48 661.55 263.34 665.05 256.15 670.48 255.75 685 253.42 699.59 251.45 714.11 249.09 716.14 249.12 716.91 247.15 717.68 245.64 724 232.65 730.06 219.54 736.48 206.6 737.31 204.86 738.5 203.14 740.42 202.48M739.32 226.28C737.03 228.97 736.14 232.51 734.54 235.61 730.92 243.05 727.84 250.77 723.99 258.09 717.65 260.19 710.75 260.31 704.18 261.55 699.54 262.54 694.57 262.26 690.11 263.91 686.77 265.85 689.3 271.48 692.99 270.5 703.87 269.22 714.7 267.5 725.58 266.25 728.8 266.04 730.65 263.25 731.72 260.51 736.01 250.57 740.84 240.86 744.83 230.79 746.54 227.72 741.93 223.69 739.32 226.28zM631.42 243.57C634.28 242.17 637.34 243.77 639.98 244.95 643.84 246.78 647.93 248.14 651.65 250.26 654.4 251.67 655.54 255.84 652.99 258 650.81 260.38 647.5 259.1 644.87 258.44 640.38 257.1 635.66 256.47 631.31 254.71 626.72 252.75 626.87 245.51 631.42 243.57zM850.32 243.39C854.93 241.41 859.97 246.44 858.32 251.07 857.39 254.39 853.83 255.26 850.93 256.03 846.62 257.16 842.37 258.51 838 259.34 835.39 259.88 831.68 258.1 832.12 255.01 831.82 251.62 835.16 249.99 837.74 248.8 841.94 247.03 846 244.87 850.32 243.39zM370.92 293.9C416.43 266.11 474.2 259.45 524.89 275.91 558.43 286.32 588.52 306.97 611.18 333.69 636.38 363.42 651.9 401.17 654.86 440.02 658.02 477.99 648.89 516.71 629.56 549.49 611.04 580.82 583.28 606.51 550.84 622.95 511.53 643.11 464.78 647.98 422.04 637.03 400.77 631.83 380.6 622.49 362.58 610.08 353.44 620.61 344.21 631.06 335.04 641.56 342.57 647.56 343.97 659.48 337.85 666.95 302.72 706.78 267.75 746.76 232.76 786.71 220.35 800.21 197.92 802.89 182.89 792.23 171.67 784.8 164.84 771.41 165.38 757.98 165.59 747.61 170.12 737.54 177.48 730.28 210.01 693 242.93 656.04 275.62 618.89 279.39 613.61 285.3 609.63 292 609.83 296.94 609.44 301.08 612.37 304.95 614.82 314.16 604.87 323.1 594.63 331.94 584.33 308 558.93 290.62 527.12 283.67 492.82 278.31 467.22 278.59 440.51 284 414.94 294.6 364.86 327.03 320.1 370.92 293.9M449.44 305.74C406.48 310.82 366.62 335.85 342.83 371.88 328.51 393.22 319.96 418.31 317.96 443.91 316.23 467.49 320.2 491.5 329.67 513.18 342.83 543.64 366.1 569.78 395.21 585.82 426.96 603.92 465.61 609.39 501.18 601.07 536.7 592.63 568.94 570.82 589.85 540.87 613.43 508.14 622.93 465.5 614.65 425.94 607.85 390.97 588.05 358.76 560.02 336.79 529.22 312.32 488.49 300.83 449.44 305.74M285.19 633.27C282.67 634.59 281.06 637.06 279.21 639.13 249.51 673.13 219.66 707.01 189.83 740.89 187.73 743.12 186.85 746.69 188.76 749.33 190.73 753.03 196.57 753.5 199.04 750.06 230.37 714.39 261.85 678.83 292.98 642.99 297.13 638.25 290.81 630.13 285.19 633.27zM667.59 305.81C669.78 305.38 672.34 304.37 674.42 305.66 676.61 307.51 675.33 311.08 672.86 311.99 662.31 317.14 651.6 321.99 640.89 326.82 638.19 328.03 635.03 329.5 632.14 328.01 628.59 326.48 627.09 321.6 629.34 318.41 630.76 316.01 633.57 315.11 636.08 314.35 646.55 311.36 657.07 308.59 667.59 305.81zM813.13 305.2C815.46 304.75 817.76 305.69 820.01 306.17 829.7 308.71 839.4 311.27 849.05 313.96 852.01 314.95 855.67 315.62 857.28 318.64 859.18 321.92 857.75 326.76 854.12 328.13 851.42 329.39 848.48 328.18 846 327.03 835.53 322.18 824.9 317.67 814.63 312.4 813.35 311.64 811.83 310.94 811.2 309.52 810.12 307.89 811.47 305.75 813.13 305.2z" style="fill: rgb(0, 0, 0) !important; stroke: rgb(0, 0, 0) !important;"/><path d="M455.56 325.86C460.38 325.35 465.23 325.25 470.07 325.23 473.63 325.07 477.31 327.13 478.68 330.49 480.49 334.49 478.52 339.8 474.45 341.52 471.51 342.93 468.15 342.36 465 342.53 425.23 343.51 387.06 367.68 368.96 403.07 360.62 418.69 356.15 436.36 356.1 454.07 356.16 458 353.99 462.24 349.86 463.09 344.54 465.01 338.4 460.63 338.53 454.97 338.57 418.26 355.07 381.85 382.81 357.77 403.02 340.04 428.7 328.33 455.56 325.86zM747.31 371.27C750.55 367.64 754.82 364.12 759.95 364.16 765.09 364.07 769.45 368.28 770.63 373.1 772.82 381.56 771.16 390.63 767.73 398.54 764.12 406.92 757.79 413.64 751.78 420.35 745.89 416.53 740.39 412.08 734.1 408.93 737.07 403.4 739.25 397.4 739.7 391.11 740.37 383.99 742.34 376.64 747.31 371.27zM695.17 391.27C698.41 384.52 704.42 378.89 711.89 377.35 715.35 376.59 719.38 377.53 721.63 380.43 723.96 383.46 724.08 387.61 723.14 391.18 721.34 398.34 716.58 404.39 711.06 409.12 706.4 413.14 700.55 415.31 695.05 417.89 692.27 412.98 688.89 408.45 685.41 404.03 689.58 400.56 692.88 396.18 695.17 391.27zM669.53 417.38C671.12 412.11 676.33 408.95 681.25 407.24 684.58 411.92 688.01 416.56 690.95 421.5 687.66 424.77 683.9 428.32 679.05 428.75 673.17 429.32 667.89 423.09 669.53 417.38zM551.49 412.72C559.68 410.51 568.48 409.99 576.73 412.19 584.27 414.19 590.23 422.15 588.75 430.05 587.81 435.4 583.92 439.6 580.02 443.11 574.34 447.89 567.46 451.41 560.09 452.61 554.07 453.78 547.86 453.57 541.91 455.13 537 456.3 532.45 458.54 527.94 460.72 523.53 452.65 518.83 444.75 513.94 436.97 524.39 426.2 536.68 416.47 551.49 412.72zM721.7 431.04C721.44 424.4 726.03 419.11 730.23 414.53 736.43 418 742.1 422.33 748.18 426.03 745.75 431.47 743.16 437.81 737.24 440.23 730.73 443.19 722.02 438.3 721.7 431.04zM685.84 441.96C691.38 439.99 697.77 439.39 703.31 441.65 708.96 443.98 710.99 451.36 708.57 456.7 705.62 463.28 699.86 468.19 693.7 471.69 685.9 476.19 676.9 477.74 668.05 478.42 668.88 470.03 669.65 461.62 669.39 453.18 674.85 449.41 679.43 444.21 685.84 441.96zM486.77 454.63C490.88 447.46 499.05 444.65 506.21 441.58 511.03 449.7 515.65 457.93 520.59 465.98 514.24 471.94 506.16 477.89 496.96 476.8 487.25 475.44 481.63 462.91 486.77 454.63zM580.54 469.41C586.18 465.47 593.33 465.21 599.84 463.74 600.17 472.85 598.43 481.94 595.82 490.6 590.65 491.96 584.11 492.25 579.9 488.26 574.42 483.47 574.5 473.71 580.54 469.41zM416.87 500.99C423.39 491.25 433.21 482.96 444.99 480.84 452.91 479.37 461.49 485.82 461.31 494.09 461.13 502.03 457.75 509.72 452.8 515.84 448 521.83 440.55 524.79 435.46 530.47 432.46 533.6 430.13 537.29 427.43 540.67 420.61 535.87 412.96 532.5 405.77 528.35 408.74 518.98 411 509.08 416.87 500.99zM540.51 487.86C547.2 486.78 554.56 486.68 560.58 490.25 567.06 494.24 571.1 502.55 568.86 510.06 566.57 518.81 560.34 525.89 553.55 531.57 546.26 537.65 536.85 539.92 528.06 542.87 520.11 545.45 513.42 550.66 506.87 555.69 499.94 547.11 492.24 539.22 484.68 531.22 491.28 522.11 497.47 512.49 506 505.01 515.88 496.64 527.57 489.94 540.51 487.86zM402.11 535.86C409.77 539.51 416.99 543.97 424.42 548.07 422.3 555.3 419.34 563.63 411.94 566.97 404.2 570.77 393.96 564.46 393.5 555.95 392.9 548.22 397.85 541.77 402.11 535.86zM457.62 558.43C460.64 549.28 469.41 543.98 476.89 538.75 484.34 547.14 492.05 555.3 499.67 563.54 494.07 571.4 487.02 579.68 477.08 581.63 464.78 583.9 453.52 570.07 457.62 558.43zM620.89 608.8C630.16 604.47 640.8 601.67 650.97 604.16 658.94 605.96 665.45 613.64 664.94 621.96 664.71 630.71 658.87 638.02 653.01 644 645.72 651.46 635.6 654.9 625.84 657.77 617.26 660.26 609.83 665.43 602.93 670.95 596.27 662.46 588.97 654.5 581.4 646.83 586.33 639.4 591.47 632.04 597.54 625.47 604.01 618.31 612.26 612.99 620.89 608.8zM702.6 628.58C708.42 622.73 715.55 617.3 724.04 616.5 730.72 615.67 737.65 619.91 739.93 626.24 742.21 631.98 740.9 638.37 739.09 644.05 734.52 657.12 725.1 668.14 713.77 675.91 708.26 679.79 701.97 682.3 696.13 685.6 690.8 677.81 684.87 670.47 678.86 663.21 683.6 658.79 688.17 654.02 691.22 648.24 694.79 641.58 697.28 634.15 702.6 628.58zM554.21 673.92C556.9 664.48 565.86 658.86 573.61 653.8 580.49 662.52 588.74 670.05 595.71 678.69 590.17 686.49 583 694.78 573 696.25 561.22 697.88 550.82 685.15 554.21 673.92zM653.76 684.74C656.86 677.06 664.14 671.59 671.75 668.84 677.56 676.43 683.57 683.87 689.34 691.5 683.8 696.47 678.69 702.89 671.1 704.65 660.37 707.15 649.68 695.05 653.76 684.74zM458.9 693.87C471.23 685.61 486.06 680.24 501.05 681.4 507.27 682.02 514.06 683.92 517.89 689.25 521.84 694.08 523.06 701.03 520.63 706.83 517.45 714.61 511.08 720.64 504.18 725.2 496.54 730.23 487.39 731.95 478.51 733.33 469.67 734.62 461.66 738.85 454.07 743.34 448.53 733.83 441.34 725.43 435.4 716.18 442.79 708.31 449.81 699.87 458.9 693.87zM590.35 719.5C598.65 716.02 608.08 714.46 616.93 716.58 624.42 718.39 630.42 725.25 630.76 733.02 631.39 741.16 626.19 748.23 620.89 753.86 611.46 763.22 599.38 769.86 586.57 773.31 576.74 776.02 566.49 776.08 556.44 777.26 553.33 766.72 551.55 755.81 548.06 745.37 555.14 742.75 562.43 740.14 568.32 735.26 575.3 729.55 581.98 723.16 590.35 719.5zM405.38 739.37C409.27 730.52 418.83 727.03 426.58 722.46 433.1 731.59 439.45 740.85 445.78 750.11 439.35 757.28 431.09 764.18 421.02 764.63 408.86 764.97 399.85 750.09 405.38 739.37zM510.7 757.68C517.68 750.41 528.24 747.84 538.02 748.1 540.35 758.97 543.76 769.59 546.04 780.46 537.54 783.22 528.78 788.26 519.58 785.69 508.01 782.83 502.82 766.64 510.7 757.68zM349.09 757.12C354.89 756.22 361.29 756.16 366.42 759.43 372.04 762.85 374.53 770.29 372.64 776.5 370.31 784.48 364.21 790.8 357.47 795.37 349.68 800.61 339.94 801.38 331.86 806.02 328.19 807.95 325 810.62 321.66 813.06 315.67 806.07 309.46 799.26 303.16 792.54 307.54 787.1 310.95 780.89 315.86 775.88 324.71 766.48 336.21 759.24 349.09 757.12zM446.86 793.89C453.68 792.15 461.01 790.95 467.93 792.86 474.34 794.48 480 799.47 481.55 806.02 483.33 812.35 480.82 818.97 477.1 824.1 468.31 836.33 454.57 844.03 440.47 848.58 429.82 852.01 418.54 851.73 407.52 852.72 405.18 842.21 402.85 831.71 399.86 821.37 407.43 818.71 414.91 815.38 421.1 810.19 428.89 803.67 436.89 796.73 446.86 793.89zM281.05 814.05C283.84 806.87 290.93 803.01 296.91 798.82 302.95 805.94 309.66 812.47 315.61 819.68 310.87 826.4 304.58 833.26 295.98 834.36 285.7 835.49 277.23 823.46 281.05 814.05zM362.16 833.2C368.81 825.61 379.64 823.82 389.23 823.43 392.05 834.15 394.84 844.93 397.17 855.75 388.97 859.27 379.91 863.33 370.83 861.1 359.27 858.24 354.22 842.08 362.16 833.2z" style="fill: rgb(0, 0, 0) !important; stroke: rgb(0, 0, 0) !important;"/></g></svg>