<svg xmlns="http://www.w3.org/2000/svg" viewBox="-0.5 -0.5 757 757" version="1.1" width="32" height="32" style="">
<path fill="#ffffff" opacity="1.00" d=" M 0.00 0.00 L 756.00 0.00 L 756.00 756.00 L 0.00 756.00 L 0.00 0.00 M 369.57 14.83 C 369.14 15.92 368.69 17.00 368.26 18.09 C 367.18 20.41 366.13 22.73 365.12 25.07 C 364.33 26.73 363.57 28.39 362.81 30.05 C 361.48 33.08 360.24 36.16 358.55 39.01 C 358.59 39.32 358.67 39.93 358.72 40.24 C 357.60 40.99 356.57 42.03 355.16 42.14 C 347.13 43.01 339.10 43.92 331.05 44.60 C 327.98 45.02 324.41 44.73 322.03 47.06 C 321.86 47.84 321.69 48.62 321.52 49.39 C 321.80 49.86 322.34 50.80 322.62 51.27 C 330.34 59.31 339.20 66.27 346.53 74.70 C 346.45 75.85 346.38 76.99 346.31 78.14 C 345.35 81.88 344.50 85.66 344.28 89.53 L 343.75 89.50 C 343.46 92.71 342.66 95.85 342.14 99.02 C 341.66 100.63 341.43 102.29 341.15 103.94 C 340.42 105.96 340.53 108.11 340.66 110.21 C 342.51 110.81 344.59 111.90 346.42 110.60 C 354.37 106.37 362.02 101.61 369.83 97.16 C 371.83 96.14 374.12 94.45 376.41 95.73 C 385.08 100.23 393.33 105.51 401.90 110.20 C 403.19 110.84 404.60 111.16 405.99 111.53 C 406.60 111.15 407.81 110.39 408.42 110.01 C 408.52 107.85 408.47 105.69 408.41 103.53 L 407.69 103.50 C 407.57 102.02 407.42 100.54 407.26 99.07 C 406.71 97.43 406.43 95.74 406.17 94.04 C 405.67 92.04 405.32 90.01 404.77 88.02 C 404.59 86.68 404.42 85.35 404.25 84.01 C 403.53 82.23 403.42 80.30 403.34 78.41 L 402.68 78.50 C 402.63 77.19 402.58 75.88 402.53 74.57 C 409.74 66.75 417.80 59.76 425.54 52.47 C 426.94 51.24 427.43 49.39 427.59 47.60 L 426.90 47.47 C 425.79 45.21 423.10 45.33 420.98 44.97 C 412.00 43.95 402.98 43.18 394.00 42.11 C 392.07 42.01 390.85 40.57 390.25 38.87 C 389.42 36.91 388.54 34.99 387.62 33.07 C 387.17 32.02 386.72 30.98 386.28 29.93 C 385.61 28.59 384.96 27.23 384.35 25.87 C 383.44 23.94 382.56 22.00 381.69 20.05 C 381.11 18.68 380.50 17.33 379.87 15.99 C 378.59 12.92 377.12 8.73 372.94 9.37 C 371.72 11.13 370.58 12.94 369.57 14.83 M 259.45 63.85 C 259.36 69.99 258.18 76.06 258.35 82.22 C 252.52 86.10 245.97 88.79 240.28 92.88 C 240.82 94.14 241.49 95.49 242.94 95.89 C 248.50 98.04 254.08 100.16 259.50 102.67 C 259.53 103.63 259.56 104.59 259.60 105.56 L 260.30 105.47 C 260.41 106.99 260.55 108.51 260.72 110.02 C 261.57 112.05 261.53 114.28 261.63 116.45 C 261.80 116.48 262.14 116.54 262.31 116.57 C 262.40 118.11 262.50 119.65 262.61 121.19 C 262.93 121.62 263.56 122.49 263.88 122.92 C 268.35 122.53 269.86 117.55 272.67 114.76 C 274.86 112.46 276.54 109.55 279.10 107.71 C 285.17 107.81 291.07 109.76 297.13 110.15 C 299.12 110.33 299.84 108.72 299.52 106.98 C 297.34 104.17 295.75 100.97 293.78 98.02 C 292.38 95.67 290.94 93.33 289.38 91.08 C 289.63 90.39 289.90 89.70 290.17 89.01 C 292.05 84.67 294.27 80.48 296.34 76.23 C 296.64 75.70 297.23 74.65 297.53 74.12 C 297.52 73.21 297.51 71.39 297.50 70.48 C 290.37 70.82 283.77 73.99 276.81 75.35 C 271.84 71.17 267.70 66.10 262.87 61.78 C 261.35 60.48 259.09 61.99 259.45 63.85 M 484.81 62.88 C 481.39 66.10 478.18 69.54 474.93 72.92 C 473.91 73.92 472.67 75.20 471.08 74.85 C 464.89 73.76 459.03 71.18 452.78 70.43 C 450.68 71.24 451.43 73.43 452.14 74.98 C 452.65 75.98 453.15 77.00 453.66 78.01 C 454.38 79.36 455.10 80.71 455.77 82.08 C 456.74 84.41 457.77 86.71 458.90 88.96 C 459.04 89.50 459.31 90.60 459.45 91.15 C 457.27 95.25 454.56 99.05 452.17 103.03 C 451.06 104.80 449.91 106.64 449.75 108.81 L 449.00 106.50 C 448.85 106.81 448.55 107.44 448.40 107.75 C 449.50 108.52 450.41 109.86 451.89 109.83 C 458.24 110.01 464.41 107.54 470.73 107.91 C 474.53 112.30 478.05 116.92 481.59 121.52 C 482.65 123.03 484.63 122.58 486.20 122.50 C 486.41 120.63 486.66 118.75 487.23 116.95 C 487.43 115.17 487.58 113.38 487.72 111.59 L 488.28 111.51 C 488.37 108.51 489.07 105.59 489.73 102.67 C 495.71 99.38 502.53 98.01 508.47 94.65 C 508.46 94.17 508.46 93.21 508.45 92.73 C 502.90 88.58 496.47 85.88 490.69 82.08 C 490.36 76.47 490.78 70.78 489.68 65.24 C 489.56 64.01 489.42 62.77 489.31 61.54 C 487.64 61.22 485.90 61.46 484.81 62.88 M 181.18 82.94 C 178.34 85.16 176.52 88.33 174.33 91.12 C 170.26 95.98 166.36 100.97 162.26 105.80 C 154.77 105.12 147.42 103.35 140.03 102.02 C 136.76 101.49 132.74 100.17 130.37 103.28 C 130.58 104.19 130.81 105.10 131.04 106.01 C 134.36 111.33 137.78 116.59 140.75 122.11 C 142.41 124.71 143.92 127.41 145.69 129.95 C 145.46 130.95 145.23 131.96 144.92 132.94 C 144.36 133.99 143.81 135.04 143.28 136.10 C 142.59 137.43 141.92 138.77 141.28 140.12 C 140.79 141.08 140.30 142.03 139.80 142.98 C 137.95 147.05 135.94 151.03 133.99 155.04 C 133.14 156.59 133.30 158.47 133.86 160.09 C 135.88 160.72 138.05 160.52 140.06 159.93 C 146.72 158.06 153.41 156.31 160.10 154.56 C 161.94 154.19 164.27 153.54 165.76 155.11 C 172.26 160.90 177.82 167.69 184.45 173.33 C 185.85 174.86 187.87 174.22 189.54 173.60 C 190.94 169.54 190.16 165.17 190.82 160.99 C 191.81 155.27 191.02 149.42 191.80 143.69 C 193.01 141.84 195.12 140.98 196.99 139.98 C 202.56 137.30 207.79 134.00 213.33 131.25 C 215.25 130.32 217.01 129.11 218.58 127.67 C 218.53 126.71 218.48 125.76 218.44 124.80 C 209.70 119.77 199.72 117.45 190.58 113.29 C 190.50 112.04 190.42 110.79 190.35 109.54 L 189.69 109.48 C 189.59 107.89 189.47 106.31 189.33 104.74 C 188.06 98.79 187.16 92.75 186.26 86.74 C 186.05 85.97 185.65 84.45 185.44 83.69 C 184.32 82.77 182.48 81.71 181.18 82.94 M 563.50 83.62 C 562.87 86.03 562.47 88.49 562.28 90.98 C 561.49 93.07 561.40 95.32 561.33 97.53 L 560.67 97.52 C 560.56 99.53 560.43 101.53 560.34 103.55 L 559.70 103.58 C 559.57 105.39 559.43 107.21 559.25 109.02 C 558.86 110.41 558.56 111.81 558.34 113.23 C 549.21 117.57 539.26 120.06 530.34 124.82 C 530.07 126.94 531.13 128.86 533.09 129.70 C 539.06 132.66 544.60 136.39 550.62 139.26 C 553.22 140.56 556.02 141.87 557.47 144.55 C 557.58 149.66 557.29 154.84 558.31 159.87 C 558.65 164.32 558.10 168.92 559.59 173.22 C 560.21 173.54 561.45 174.19 562.07 174.52 C 562.98 174.08 563.87 173.60 564.74 173.08 C 572.07 166.99 577.76 158.96 585.68 153.62 C 591.67 155.56 597.82 156.96 603.89 158.63 C 607.65 159.58 611.44 161.14 615.39 160.36 C 615.60 158.54 615.69 156.67 615.08 154.91 C 614.78 154.43 614.17 153.48 613.87 153.00 C 613.25 151.62 612.58 150.26 611.88 148.93 C 610.83 146.64 609.77 144.37 608.63 142.14 C 607.55 139.71 606.43 137.30 605.32 134.89 C 604.46 133.03 602.84 131.02 604.12 128.94 C 604.68 127.97 605.25 127.00 605.81 126.02 C 607.10 123.89 608.39 121.77 609.65 119.63 C 611.24 117.16 612.69 114.60 614.30 112.15 C 614.77 111.33 615.26 110.51 615.76 109.69 C 616.52 108.48 617.25 107.25 618.01 106.02 C 618.23 105.15 618.45 104.28 618.67 103.40 C 617.35 102.26 615.97 100.68 614.00 101.34 C 605.84 102.41 597.78 104.16 589.67 105.53 C 588.45 105.65 587.06 105.90 586.02 105.09 C 580.16 97.89 574.46 90.52 568.49 83.41 C 567.20 81.49 564.95 82.61 563.50 83.62 M 367.08 144.31 L 366.54 144.45 C 366.32 155.63 366.46 166.82 366.42 178.00 C 365.82 183.39 372.04 187.72 376.97 185.79 C 379.70 185.11 381.35 182.65 382.44 180.23 C 382.56 169.80 382.45 159.37 382.49 148.94 C 382.62 146.74 381.99 144.65 381.32 142.59 L 380.84 142.57 C 377.70 137.37 368.69 138.40 367.08 144.31 M 522.82 150.83 C 514.41 158.79 507.00 167.73 500.30 177.15 C 498.48 179.71 496.77 182.33 495.20 185.04 C 493.75 187.33 492.43 189.70 490.97 191.98 C 490.24 193.68 490.41 195.51 490.71 197.29 C 492.26 197.38 494.00 197.56 495.05 196.14 C 508.58 182.99 523.23 170.81 539.78 161.62 C 543.36 160.21 541.01 155.75 541.40 152.86 C 537.23 150.37 532.81 148.30 528.76 145.61 C 526.64 147.18 524.70 148.98 522.82 150.83 M 207.71 152.86 C 207.29 154.95 208.15 157.67 206.35 159.21 C 207.43 160.29 208.60 161.29 209.97 162.00 C 224.78 170.27 237.95 181.10 250.41 192.54 C 252.79 194.77 254.85 198.30 258.65 197.54 C 258.96 195.24 258.53 192.84 257.42 190.79 C 255.20 187.26 253.08 183.66 250.77 180.18 C 244.91 170.86 237.54 162.65 230.21 154.49 L 229.50 154.53 C 229.48 154.32 229.46 153.92 229.44 153.72 C 226.35 151.04 223.70 147.84 220.22 145.63 C 216.11 148.14 211.85 150.39 207.71 152.86 M 293.59 161.86 C 292.43 164.50 292.21 167.46 293.60 170.07 C 296.66 174.92 299.20 180.09 302.19 184.99 C 303.51 187.32 304.83 189.65 306.24 191.94 C 308.02 195.01 309.31 198.75 312.51 200.67 C 314.47 201.99 316.96 201.48 319.19 201.44 C 322.78 199.34 325.64 195.20 324.07 190.93 C 321.97 187.30 319.93 183.64 317.77 180.05 C 314.08 173.75 310.70 167.25 306.74 161.11 C 303.60 156.60 296.55 157.67 293.59 161.86 M 439.27 166.07 C 436.53 170.69 433.70 175.26 431.15 179.99 C 430.16 181.69 429.20 183.40 428.23 185.10 C 427.06 187.02 426.01 189.00 424.93 190.97 C 422.96 196.42 428.23 202.67 433.94 201.63 C 438.07 201.27 440.07 197.26 441.74 194.00 C 443.41 190.99 445.12 188.00 446.83 185.01 C 448.17 182.69 449.49 180.35 450.81 178.01 C 451.60 176.68 452.38 175.33 453.19 174.01 C 454.19 172.38 455.12 170.70 455.74 168.89 C 456.36 168.77 456.99 168.65 457.62 168.53 C 455.79 167.34 456.67 164.65 455.66 162.90 C 455.64 162.64 455.59 162.14 455.56 161.88 C 453.37 159.48 450.24 157.50 446.84 158.33 C 442.90 158.99 440.92 162.85 439.27 166.07 M 633.93 182.48 C 633.64 183.08 633.05 184.28 632.75 184.88 C 631.39 187.26 630.03 189.63 628.69 192.01 C 628.19 193.03 627.69 194.05 627.21 195.07 C 626.32 196.65 625.47 198.24 624.63 199.84 C 624.27 201.01 624.18 202.52 622.67 202.70 C 615.46 204.02 607.97 202.78 600.78 204.30 C 600.40 204.73 599.64 205.58 599.26 206.01 C 603.78 211.81 608.90 217.10 613.90 222.49 C 615.45 223.95 614.41 226.25 614.29 228.05 C 613.67 229.45 613.44 230.97 613.26 232.48 L 612.73 232.51 C 612.55 233.67 612.37 234.83 612.19 235.99 C 611.60 237.42 611.40 238.95 611.23 240.48 L 610.67 240.47 C 610.53 241.67 610.39 242.87 610.25 244.07 C 609.96 245.13 609.72 246.19 609.52 247.27 C 611.03 247.52 612.67 248.39 614.17 247.56 C 619.42 245.01 624.53 242.14 629.85 239.71 C 631.20 239.06 632.86 238.74 634.16 239.72 C 639.87 243.23 645.25 247.27 651.05 250.65 C 651.66 250.52 652.90 250.27 653.52 250.15 C 653.65 247.71 653.55 245.28 653.30 242.86 C 652.58 240.55 652.48 238.12 652.30 235.73 C 651.15 232.75 652.15 229.32 650.41 226.56 L 651.51 226.64 L 651.38 225.73 C 656.87 221.28 662.25 216.70 667.68 212.17 C 667.69 211.30 667.69 209.56 667.70 208.69 C 660.88 206.62 653.69 206.27 646.79 204.61 C 644.53 204.34 644.58 201.65 643.74 200.04 C 643.13 198.35 642.49 196.68 641.85 195.01 C 641.41 193.98 640.97 192.96 640.52 191.94 C 640.51 191.71 640.48 191.24 640.46 191.01 C 639.61 189.35 638.87 187.65 638.23 185.91 C 638.04 185.35 637.66 184.23 637.47 183.67 C 636.59 182.59 635.17 182.60 633.93 182.48 M 110.64 185.86 C 109.89 187.94 109.04 189.98 108.27 192.05 C 107.76 193.35 107.28 194.65 106.78 195.95 C 106.42 196.94 106.05 197.92 105.68 198.91 C 104.69 200.84 104.84 204.17 102.20 204.61 C 95.33 206.30 88.25 206.92 81.40 208.68 C 81.40 209.52 81.39 211.21 81.39 212.05 C 86.77 216.74 92.29 221.27 97.73 225.89 C 97.70 228.78 97.47 231.66 97.36 234.54 L 96.70 234.54 C 96.60 236.72 96.46 238.91 96.28 241.09 C 95.47 243.76 95.21 246.62 95.53 249.39 C 96.65 251.41 99.03 250.13 100.49 249.26 C 106.05 245.80 111.26 241.79 116.99 238.62 C 123.79 241.49 130.12 245.35 136.93 248.16 C 137.50 247.91 138.63 247.41 139.20 247.16 C 139.26 246.52 139.38 245.23 139.44 244.59 C 139.26 244.56 138.91 244.49 138.73 244.46 C 138.51 241.24 137.55 238.16 136.69 235.08 C 136.04 231.60 134.64 228.27 134.33 224.73 C 133.99 223.19 135.42 222.25 136.23 221.20 C 139.76 217.40 143.34 213.65 146.79 209.78 C 148.94 208.92 148.59 206.38 148.85 204.52 C 142.02 202.76 134.88 203.76 127.94 202.92 C 126.57 202.99 125.59 202.09 124.72 201.18 C 123.90 198.62 122.44 196.34 121.28 193.93 C 120.77 193.00 120.26 192.06 119.74 191.14 C 119.22 190.08 118.68 189.04 118.15 188.00 C 117.52 186.90 116.93 185.78 116.36 184.66 C 115.51 183.65 114.71 181.85 113.05 182.60 C 111.31 182.53 111.48 184.86 110.64 185.86 M 348.22 206.55 C 333.80 210.50 320.88 218.86 310.23 229.23 C 303.63 235.94 298.19 243.68 293.81 252.01 C 292.76 254.31 291.73 256.63 290.71 258.95 C 290.22 260.34 289.70 261.73 289.22 263.13 C 288.87 264.10 288.54 265.08 288.23 266.07 C 287.85 267.38 287.51 268.70 287.18 270.02 C 286.64 271.82 286.43 273.69 286.32 275.56 L 285.69 275.53 C 285.58 277.44 285.46 279.34 285.32 281.25 C 284.11 288.01 284.24 295.13 285.22 301.92 C 285.41 305.50 286.38 308.96 286.74 312.52 L 287.19 312.49 C 287.46 313.97 287.78 315.46 288.22 316.90 C 288.72 318.26 289.24 319.62 289.71 321.00 C 290.07 321.91 290.42 322.82 290.77 323.75 C 291.16 324.49 291.52 325.23 291.89 325.98 C 296.37 335.15 301.72 343.93 308.17 351.86 C 313.12 357.80 317.43 364.25 321.22 370.99 C 321.67 372.02 322.15 373.06 322.61 374.10 C 323.17 375.39 323.72 376.70 324.29 378.00 C 324.61 378.96 324.94 379.92 325.29 380.88 C 325.90 382.92 326.53 384.96 327.29 386.96 C 327.44 388.45 327.59 389.96 327.72 391.47 L 328.35 391.53 C 328.43 394.31 328.53 397.12 329.28 399.82 C 329.43 402.33 329.87 404.80 330.65 407.19 C 330.88 407.69 331.35 408.70 331.59 409.20 C 334.38 413.19 339.01 415.99 343.97 415.83 C 364.30 415.87 384.63 415.88 404.96 415.83 C 409.94 416.05 414.57 413.26 417.42 409.30 C 418.05 407.60 418.68 405.90 419.34 404.22 C 419.74 399.77 420.26 395.31 421.19 390.95 C 421.46 389.29 421.74 387.65 422.20 386.04 C 422.68 384.31 423.21 382.59 423.68 380.86 C 424.18 379.59 424.67 378.32 425.18 377.05 C 425.99 375.03 426.89 373.05 427.75 371.05 C 429.94 366.91 432.46 362.95 435.22 359.16 C 440.08 352.97 445.03 346.83 449.22 340.16 C 451.52 336.46 453.78 332.74 455.79 328.88 C 456.02 328.38 456.49 327.39 456.72 326.90 C 457.61 324.99 458.44 323.05 459.26 321.12 C 460.15 318.26 461.48 315.51 461.71 312.49 C 461.87 312.46 462.18 312.41 462.34 312.39 C 462.43 310.76 462.52 309.13 462.62 307.51 L 463.33 307.48 C 463.42 305.13 463.56 302.79 463.64 300.46 L 464.29 300.45 C 464.15 294.39 465.01 288.21 463.69 282.23 C 463.52 279.88 463.47 277.49 462.74 275.23 C 462.56 274.14 462.39 273.03 462.23 271.94 C 461.79 270.64 461.49 269.28 461.22 267.95 C 460.55 265.93 459.91 263.91 459.30 261.89 C 458.77 260.57 458.27 259.24 457.76 257.93 C 456.88 255.62 455.86 253.37 454.69 251.19 C 454.23 250.34 453.78 249.48 453.33 248.63 C 441.99 228.27 422.47 212.56 400.00 206.26 C 383.18 201.38 364.99 201.53 348.22 206.55 M 239.43 215.81 C 239.45 218.73 238.47 222.32 240.77 224.65 C 243.26 226.91 246.36 228.33 249.22 230.04 C 256.47 234.35 263.71 238.70 271.12 242.71 C 274.63 244.68 279.08 243.25 281.41 240.14 C 282.83 237.19 282.78 233.83 281.21 230.95 C 279.64 229.46 277.93 228.13 276.01 227.12 C 267.36 222.41 259.06 217.07 250.50 212.20 C 246.51 209.93 241.70 212.20 239.43 215.81 M 497.51 212.73 C 488.86 218.18 479.89 223.10 471.09 228.30 C 469.45 229.24 468.26 230.73 466.97 232.07 C 466.57 234.33 465.99 236.89 467.25 238.99 C 469.15 242.65 473.92 244.78 477.76 242.82 C 486.58 238.12 495.03 232.76 503.76 227.91 C 505.90 226.75 507.87 225.26 509.32 223.28 C 509.42 222.03 509.84 220.94 510.60 220.00 C 509.63 218.50 509.46 216.69 509.07 215.00 C 506.38 211.43 501.35 210.17 497.51 212.73 M 161.96 217.52 C 158.86 220.80 155.86 224.20 152.39 227.09 C 152.22 229.11 152.36 231.13 152.55 233.15 C 152.86 233.62 153.48 234.56 153.79 235.03 C 177.68 240.49 200.57 250.19 221.17 263.46 C 222.70 262.81 224.20 261.93 223.42 260.00 C 221.60 256.82 218.48 254.64 216.01 252.00 C 200.13 237.56 181.88 225.59 161.96 217.52 M 584.86 218.49 C 570.57 224.41 557.28 232.61 544.97 241.96 C 538.11 247.58 531.06 253.12 525.34 259.95 C 525.23 261.72 526.28 262.80 527.78 263.52 C 541.05 254.91 555.35 247.98 570.14 242.42 C 578.66 239.21 587.53 237.10 596.21 234.45 C 596.45 232.90 596.54 231.24 597.52 229.93 C 597.29 226.41 593.71 224.73 591.70 222.26 C 589.77 220.54 587.94 216.94 584.86 218.49 M 617.17 264.07 C 614.12 264.97 610.91 264.65 607.79 264.53 C 607.75 293.35 607.76 322.17 607.76 350.99 C 607.60 376.40 608.20 401.83 607.35 427.23 C 606.15 433.39 606.39 439.72 606.31 445.96 C 606.52 482.20 606.00 518.46 606.63 554.69 C 607.61 552.65 608.66 550.65 609.70 548.64 C 610.83 546.41 611.93 544.16 613.12 541.96 C 614.71 538.65 616.38 535.37 617.69 531.93 C 618.42 530.26 619.13 528.59 619.77 526.89 C 620.48 525.25 621.15 523.61 621.74 521.93 C 622.23 520.64 622.72 519.37 623.24 518.10 C 624.07 515.69 624.99 513.31 625.73 510.87 C 627.42 506.30 628.61 501.56 630.23 496.97 C 630.79 494.59 631.48 492.24 632.22 489.91 C 632.49 488.61 632.79 487.32 633.16 486.04 C 633.80 483.00 634.39 479.94 635.28 476.96 C 635.42 475.47 635.58 473.98 635.71 472.50 L 636.31 472.49 C 636.41 470.34 636.57 468.18 637.30 466.14 C 637.49 464.13 637.63 462.10 638.28 460.17 C 638.96 455.16 639.35 450.09 640.31 445.13 C 640.67 436.22 642.01 427.38 641.65 418.44 L 642.30 418.51 C 642.20 367.33 642.35 316.15 642.22 264.97 C 638.51 262.46 634.69 260.13 631.11 257.45 C 626.23 259.16 622.07 262.42 617.17 264.07 M 107.43 264.30 C 107.18 298.20 107.37 332.12 107.31 366.03 C 107.45 387.20 106.98 408.38 107.58 429.55 C 108.62 438.31 108.64 447.19 110.27 455.89 C 110.44 457.96 110.58 460.07 111.26 462.07 C 111.47 464.01 111.70 465.97 112.21 467.88 C 112.45 469.60 112.72 471.34 113.19 473.03 C 113.43 474.73 113.68 476.45 114.22 478.09 C 114.70 481.08 115.42 484.02 116.23 486.95 C 117.61 493.03 119.52 498.97 121.27 504.96 C 121.55 505.95 121.85 506.94 122.17 507.93 C 122.49 508.92 122.83 509.91 123.18 510.90 C 123.52 511.89 123.87 512.88 124.25 513.88 C 124.72 515.25 125.22 516.63 125.68 518.02 C 126.22 519.33 126.75 520.65 127.29 521.97 C 128.13 524.10 129.02 526.22 129.70 528.42 L 130.16 528.64 C 130.90 530.84 131.86 532.97 132.76 535.11 C 132.99 535.62 133.45 536.63 133.68 537.14 C 135.64 540.93 137.35 544.85 139.28 548.67 C 140.09 550.19 140.85 551.90 142.60 552.61 C 142.67 529.41 142.61 506.21 142.63 483.01 C 142.45 465.89 143.07 448.74 142.34 431.63 C 141.14 425.38 141.58 418.96 141.32 412.64 C 141.22 363.23 141.28 313.83 141.33 264.42 C 136.87 265.02 132.19 264.67 128.20 262.45 C 124.70 260.97 121.67 258.25 117.92 257.53 C 114.31 259.60 111.15 262.38 107.43 264.30 M 576.49 280.96 C 576.47 281.21 576.42 281.72 576.39 281.97 C 575.45 283.68 574.65 285.48 574.06 287.34 C 569.53 288.81 564.66 288.44 560.08 289.78 C 561.74 294.40 566.67 296.66 569.62 300.38 C 569.00 304.89 567.47 309.25 567.30 313.82 C 571.69 313.10 575.01 309.91 579.03 308.28 C 583.94 308.57 587.34 313.36 592.30 313.79 C 592.33 312.95 592.40 311.25 592.44 310.41 L 591.70 310.58 C 591.58 309.00 591.44 307.42 591.28 305.85 C 590.50 303.99 590.42 301.97 590.30 300.01 C 593.53 296.76 598.11 294.28 599.75 289.84 C 595.76 288.89 591.66 288.65 587.63 288.09 C 584.51 286.83 584.38 282.69 582.75 280.12 C 582.27 278.85 581.78 277.59 581.31 276.34 C 580.71 276.28 579.52 276.18 578.93 276.12 C 578.17 277.76 577.35 279.37 576.49 280.96 M 166.77 278.91 C 165.90 281.32 164.75 283.61 163.82 285.99 C 163.22 286.88 162.70 288.01 161.48 288.12 C 157.55 288.82 153.48 288.74 149.64 289.91 C 149.58 290.79 149.60 291.77 150.45 292.32 C 153.17 294.87 155.89 297.43 158.61 299.98 C 158.52 301.81 158.41 303.64 158.33 305.48 L 157.64 305.51 C 157.42 308.30 157.15 311.08 157.11 313.88 C 160.61 313.16 163.43 310.88 166.53 309.26 C 167.74 308.63 169.14 307.77 170.52 308.52 C 174.28 310.21 177.40 313.23 181.58 313.98 C 181.56 312.23 181.48 310.50 181.34 308.77 C 180.69 307.24 180.47 305.60 180.24 303.98 C 179.94 302.80 179.65 301.63 179.38 300.46 C 182.66 297.17 186.05 294.00 189.39 290.77 C 185.31 287.51 179.54 289.44 174.97 287.28 C 174.14 285.12 173.18 283.01 172.22 280.91 C 171.46 279.30 170.76 277.66 170.12 276.00 C 168.07 275.74 167.37 277.31 166.77 278.91 M 220.45 288.81 C 220.38 291.17 220.09 293.58 220.64 295.92 C 222.06 299.01 225.66 300.60 228.95 300.50 C 239.24 300.46 249.54 300.51 259.84 300.45 C 261.89 300.50 263.73 299.55 265.37 298.40 C 265.65 298.08 266.21 297.43 266.48 297.10 C 267.62 294.56 268.16 291.43 266.63 288.93 C 266.60 288.69 266.56 288.21 266.54 287.96 C 264.80 286.08 262.65 284.26 259.91 284.42 C 249.29 284.33 238.66 284.40 228.04 284.39 C 224.83 284.20 222.33 286.47 220.45 288.81 M 482.36 287.91 C 482.36 288.16 482.37 288.66 482.38 288.92 C 480.89 291.03 481.52 293.75 481.93 296.12 C 483.60 298.48 486.13 300.36 489.15 300.35 C 499.77 300.59 510.41 300.46 521.04 300.46 C 524.17 300.58 526.77 298.52 528.54 296.13 C 528.71 293.69 528.70 291.24 528.53 288.80 C 526.69 286.46 524.16 284.35 521.01 284.40 C 510.36 284.38 499.69 284.34 489.04 284.43 C 486.33 284.32 484.17 286.13 482.36 287.91 M 200.58 328.00 C 200.62 392.86 200.60 457.72 200.66 522.58 L 201.16 522.51 C 201.52 526.26 205.49 528.41 208.97 528.21 C 225.37 528.07 241.80 529.52 257.91 532.63 C 280.53 537.44 302.86 544.53 323.17 555.74 C 338.76 563.92 353.17 574.19 366.65 585.47 C 366.71 557.78 366.63 530.09 366.69 502.40 C 354.19 499.98 343.46 491.17 338.28 479.61 C 330.97 477.26 323.91 472.55 321.21 465.05 C 320.69 463.67 320.18 462.30 319.63 460.95 C 319.34 457.60 319.32 454.23 319.66 450.88 C 320.16 449.59 320.62 448.29 321.10 447.00 C 321.58 446.00 322.07 445.01 322.57 444.02 C 321.89 442.76 321.27 441.46 320.66 440.17 C 320.37 439.12 320.07 438.08 319.73 437.05 C 319.34 433.65 319.35 430.22 319.64 426.81 C 320.26 425.54 320.85 424.26 321.54 423.02 C 321.73 421.42 321.53 419.79 320.34 418.61 C 318.60 416.26 317.29 413.64 316.10 410.98 C 315.73 409.64 315.43 408.28 315.12 406.95 C 314.39 404.51 314.36 401.95 314.35 399.44 L 313.71 399.55 C 313.63 397.68 313.49 395.81 313.30 393.96 C 312.76 392.38 312.51 390.72 312.32 389.07 C 311.65 387.01 310.98 384.96 310.35 382.89 C 309.35 380.81 308.36 378.73 307.36 376.65 C 306.83 375.78 306.31 374.90 305.79 374.03 C 302.05 367.64 297.07 362.11 292.68 356.18 C 291.07 353.84 289.41 351.54 287.80 349.20 C 287.13 348.16 286.45 347.13 285.77 346.11 C 283.67 342.51 281.63 338.88 279.75 335.16 C 278.90 333.55 278.32 331.48 276.43 330.82 C 254.36 323.49 231.13 319.63 207.88 319.33 C 203.40 319.25 200.14 323.75 200.58 328.00 M 470.98 331.82 C 469.67 335.03 467.91 338.03 466.26 341.07 C 465.43 342.37 464.61 343.68 463.83 345.01 C 458.71 353.63 452.25 361.31 446.31 369.35 C 445.12 371.22 443.95 373.10 442.79 374.99 C 441.76 376.94 440.74 378.89 439.74 380.86 C 438.27 384.80 436.73 388.75 436.17 392.95 C 435.69 394.65 435.46 396.42 435.27 398.19 C 434.57 401.08 434.59 404.07 434.05 406.99 C 433.49 408.71 432.95 410.44 432.40 412.17 C 432.14 412.67 431.60 413.65 431.33 414.15 C 431.08 414.65 430.59 415.65 430.35 416.15 C 429.35 417.79 428.34 419.42 427.25 420.99 C 427.52 421.98 427.81 422.96 428.12 423.95 C 428.50 424.95 428.90 425.95 429.33 426.95 C 429.70 430.62 429.72 434.32 429.29 437.99 C 428.77 439.33 428.33 440.69 427.87 442.05 C 427.40 442.69 426.94 443.33 426.49 443.98 C 430.22 449.94 430.59 457.59 428.39 464.16 C 426.25 469.41 422.62 474.07 417.51 476.69 C 415.11 478.26 411.53 478.18 410.14 481.02 C 409.92 481.54 409.48 482.58 409.27 483.10 C 408.42 484.33 407.59 485.57 406.76 486.82 C 400.81 494.77 392.12 500.54 382.32 502.42 C 382.35 530.11 382.28 557.79 382.40 585.48 C 391.10 578.34 400.02 571.44 409.52 565.39 C 444.86 542.15 486.92 530.10 529.01 528.34 C 533.67 528.05 538.36 528.54 543.01 528.01 C 546.28 527.56 548.84 524.35 548.45 521.04 C 548.40 456.00 548.58 390.95 548.37 325.90 C 547.62 322.38 544.98 319.03 541.02 319.27 C 517.26 319.76 493.25 323.38 470.98 331.82 M 168.34 351.59 C 164.97 352.44 162.47 355.03 160.60 357.83 C 159.85 360.14 159.28 362.52 159.39 364.97 C 159.34 430.98 159.44 496.99 159.36 563.00 C 159.15 565.80 159.95 568.75 162.34 570.43 C 166.78 574.07 172.86 572.37 178.02 571.78 C 196.24 569.69 214.61 568.11 232.96 569.04 C 253.97 569.82 274.87 573.26 295.11 578.99 C 306.45 582.11 317.29 586.72 328.31 590.80 C 313.85 590.66 299.46 589.08 285.03 588.42 C 267.06 587.27 249.06 586.60 231.05 586.26 C 211.32 586.13 191.50 585.90 171.90 588.40 C 167.66 588.84 163.47 587.86 159.51 586.44 C 159.42 591.33 159.33 596.23 159.59 601.13 C 160.14 602.37 160.66 603.65 161.18 604.93 C 163.88 608.80 168.25 611.64 173.10 611.53 C 225.40 611.60 277.70 611.54 330.00 611.56 C 333.14 611.11 335.14 613.89 336.72 616.15 C 339.12 619.43 341.63 622.69 344.86 625.22 C 362.11 640.28 390.85 639.14 406.98 622.93 C 410.44 619.36 412.68 614.70 416.61 611.56 C 469.75 611.56 522.88 611.60 576.02 611.55 C 581.14 611.65 585.88 608.57 588.22 604.07 C 588.56 603.04 588.94 602.03 589.36 601.03 C 589.69 596.29 589.55 591.54 589.53 586.81 C 585.22 587.70 580.86 588.97 576.41 588.35 C 570.28 587.52 564.11 586.95 557.93 586.60 C 520.92 585.29 483.89 587.09 446.97 589.43 C 438.13 589.66 429.33 591.25 420.49 590.57 C 430.29 587.51 439.68 583.24 449.53 580.31 C 469.86 574.27 490.87 570.38 512.05 569.27 C 532.10 567.85 552.23 569.50 572.15 571.88 C 575.68 572.36 579.31 573.20 582.87 572.36 C 586.54 571.37 589.94 568.06 589.57 564.01 C 589.62 497.65 589.55 431.28 589.59 364.92 C 589.72 362.50 589.13 360.15 588.36 357.88 C 586.50 355.20 584.25 352.47 580.98 351.57 C 575.54 350.18 569.87 351.03 564.33 350.78 C 564.20 407.52 564.30 464.25 564.28 520.99 C 564.21 522.28 564.00 523.57 563.65 524.84 C 563.53 526.04 563.43 527.26 563.35 528.48 L 562.52 528.46 C 562.52 528.89 562.52 529.75 562.52 530.18 C 560.16 534.82 556.71 539.01 551.82 541.09 C 544.11 545.16 535.22 542.97 526.93 543.99 C 493.23 545.87 459.61 554.50 430.10 571.09 C 415.32 579.05 401.70 588.98 389.00 599.92 C 381.39 606.68 369.27 607.10 361.29 600.76 C 347.46 589.26 333.04 578.28 317.02 569.99 C 283.79 551.85 245.71 543.64 208.01 543.59 C 199.46 543.62 190.81 538.88 187.11 531.01 C 186.60 529.68 186.12 528.36 185.60 527.06 C 184.91 506.04 185.46 485.00 185.27 463.98 C 185.26 426.26 185.32 388.54 185.28 350.82 C 179.64 351.02 173.88 350.23 168.34 351.59 M 334.53 428.81 C 334.43 430.93 334.43 433.06 334.54 435.19 C 336.39 438.14 339.30 440.79 343.05 440.45 C 364.02 440.51 384.98 440.49 405.95 440.45 C 408.85 440.63 411.47 439.21 413.44 437.19 C 414.90 434.33 414.93 431.04 414.05 428.01 C 412.06 425.55 409.35 423.33 405.99 423.61 C 385.00 423.66 364.01 423.60 343.03 423.65 C 339.31 423.34 336.46 425.96 334.53 428.81 M 334.51 452.78 C 334.41 454.98 334.40 457.19 334.50 459.40 C 336.58 462.05 339.30 464.80 342.98 464.48 C 364.35 464.49 385.71 464.56 407.07 464.46 C 409.62 464.51 411.67 462.86 413.40 461.18 C 414.89 458.60 414.64 455.60 414.46 452.75 C 412.57 449.88 409.70 447.25 406.00 447.58 C 384.99 447.61 363.97 447.57 342.95 447.63 C 339.28 447.33 336.39 449.92 334.51 452.78 M 351.43 473.48 L 352.14 473.62 C 352.56 474.83 353.05 476.04 353.55 477.24 C 356.89 481.55 361.37 484.99 366.54 486.79 C 378.66 491.19 394.38 484.51 397.81 471.64 C 382.43 471.68 367.06 471.72 351.69 471.64 C 351.62 472.10 351.49 473.02 351.43 473.48 M 199.18 628.27 C 235.80 664.03 277.75 694.18 322.91 718.20 C 339.17 726.45 355.56 734.68 373.01 740.11 C 375.05 740.89 377.11 739.81 379.05 739.24 C 404.98 730.18 429.29 717.11 452.81 703.05 C 487.87 681.92 520.61 656.90 549.88 628.27 C 532.72 628.22 515.47 627.78 498.36 628.48 C 461.69 658.50 421.23 684.27 377.52 702.78 C 374.23 704.81 370.90 702.23 367.80 701.13 C 325.50 682.66 286.21 657.59 250.57 628.37 C 233.47 627.90 216.30 628.16 199.18 628.27 Z" style="fill: none !important;"/>
<path fill="#000000" opacity="1.00" d=" M 369.57 14.83 C 370.58 12.94 371.72 11.13 372.94 9.37 C 377.12 8.73 378.59 12.92 379.87 15.99 C 380.50 17.33 381.11 18.68 381.69 20.05 C 382.56 22.00 383.44 23.94 384.35 25.87 C 384.96 27.23 385.61 28.59 386.28 29.93 C 386.72 30.98 387.17 32.02 387.62 33.07 C 388.54 34.99 389.42 36.91 390.25 38.87 C 390.85 40.57 392.07 42.01 394.00 42.11 C 402.98 43.18 412.00 43.95 420.98 44.97 C 423.10 45.33 425.79 45.21 426.90 47.47 L 427.59 47.60 C 427.43 49.39 426.94 51.24 425.54 52.47 C 417.80 59.76 409.74 66.75 402.53 74.57 C 402.58 75.88 402.63 77.19 402.68 78.50 L 403.34 78.41 C 403.42 80.30 403.53 82.23 404.25 84.01 C 404.42 85.35 404.59 86.68 404.77 88.02 C 405.32 90.01 405.67 92.04 406.17 94.04 C 406.43 95.74 406.71 97.43 407.26 99.07 C 407.42 100.54 407.57 102.02 407.69 103.50 L 408.41 103.53 C 408.47 105.69 408.52 107.85 408.42 110.01 C 407.81 110.39 406.60 111.15 405.99 111.53 C 404.60 111.16 403.19 110.84 401.90 110.20 C 393.33 105.51 385.08 100.23 376.41 95.73 C 374.12 94.45 371.83 96.14 369.83 97.16 C 362.02 101.61 354.37 106.37 346.42 110.60 C 344.59 111.90 342.51 110.81 340.66 110.21 C 340.53 108.11 340.42 105.96 341.15 103.94 C 341.43 102.29 341.66 100.63 342.14 99.02 C 342.66 95.85 343.46 92.71 343.75 89.50 L 344.28 89.53 C 344.50 85.66 345.35 81.88 346.31 78.14 C 346.38 76.99 346.45 75.85 346.53 74.70 C 339.20 66.27 330.34 59.31 322.62 51.27 C 322.34 50.80 321.80 49.86 321.52 49.39 C 321.69 48.62 321.86 47.84 322.03 47.06 C 324.41 44.73 327.98 45.02 331.05 44.60 C 339.10 43.92 347.13 43.01 355.16 42.14 C 356.57 42.03 357.60 40.99 358.72 40.24 C 358.67 39.93 358.59 39.32 358.55 39.01 C 360.24 36.16 361.48 33.08 362.81 30.05 C 363.57 28.39 364.33 26.73 365.12 25.07 C 366.13 22.73 367.18 20.41 368.26 18.09 C 368.69 17.00 369.14 15.92 369.57 14.83 Z" style="fill: rgb(0, 0, 0) !important;"/>
<path fill="#000000" opacity="1.00" d=" M 259.45 63.85 C 259.09 61.99 261.35 60.48 262.87 61.78 C 267.70 66.10 271.84 71.17 276.81 75.35 C 283.77 73.99 290.37 70.82 297.50 70.48 C 297.51 71.39 297.52 73.21 297.53 74.12 C 297.23 74.65 296.64 75.70 296.34 76.23 C 294.27 80.48 292.05 84.67 290.17 89.01 C 289.90 89.70 289.63 90.39 289.38 91.08 C 290.94 93.33 292.38 95.67 293.78 98.02 C 295.75 100.97 297.34 104.17 299.52 106.98 C 299.84 108.72 299.12 110.33 297.13 110.15 C 291.07 109.76 285.17 107.81 279.10 107.71 C 276.54 109.55 274.86 112.46 272.67 114.76 C 269.86 117.55 268.35 122.53 263.88 122.92 C 263.56 122.49 262.93 121.62 262.61 121.19 C 262.50 119.65 262.40 118.11 262.31 116.57 C 262.14 116.54 261.80 116.48 261.63 116.45 C 261.53 114.28 261.57 112.05 260.72 110.02 C 260.55 108.51 260.41 106.99 260.30 105.47 L 259.60 105.56 C 259.56 104.59 259.53 103.63 259.50 102.67 C 254.08 100.16 248.50 98.04 242.94 95.89 C 241.49 95.49 240.82 94.14 240.28 92.88 C 245.97 88.79 252.52 86.10 258.35 82.22 C 258.18 76.06 259.36 69.99 259.45 63.85 Z" style="fill: rgb(0, 0, 0) !important;"/>
<path fill="#000000" opacity="1.00" d=" M 484.81 62.88 C 485.90 61.46 487.64 61.22 489.31 61.54 C 489.42 62.77 489.56 64.01 489.68 65.24 C 490.78 70.78 490.36 76.47 490.69 82.08 C 496.47 85.88 502.90 88.58 508.45 92.73 C 508.46 93.21 508.46 94.17 508.47 94.65 C 502.53 98.01 495.71 99.38 489.73 102.67 C 489.07 105.59 488.37 108.51 488.28 111.51 L 487.72 111.59 C 487.58 113.38 487.43 115.17 487.23 116.95 C 486.66 118.75 486.41 120.63 486.20 122.50 C 484.63 122.58 482.65 123.03 481.59 121.52 C 478.05 116.92 474.53 112.30 470.73 107.91 C 464.41 107.54 458.24 110.01 451.89 109.83 C 450.41 109.86 449.50 108.52 448.40 107.75 C 448.55 107.44 448.85 106.81 449.00 106.50 L 449.75 108.81 C 449.91 106.64 451.06 104.80 452.17 103.03 C 454.56 99.05 457.27 95.25 459.45 91.15 C 459.31 90.60 459.04 89.50 458.90 88.96 C 457.77 86.71 456.74 84.41 455.77 82.08 C 455.10 80.71 454.38 79.36 453.66 78.01 C 453.15 77.00 452.65 75.98 452.14 74.98 C 451.43 73.43 450.68 71.24 452.78 70.43 C 459.03 71.18 464.89 73.76 471.08 74.85 C 472.67 75.20 473.91 73.92 474.93 72.92 C 478.18 69.54 481.39 66.10 484.81 62.88 Z" style="fill: rgb(0, 0, 0) !important;"/>
<path fill="#000000" opacity="1.00" d=" M 181.18 82.94 C 182.48 81.71 184.32 82.77 185.44 83.69 C 185.65 84.45 186.05 85.97 186.26 86.74 C 187.16 92.75 188.06 98.79 189.33 104.74 C 189.47 106.31 189.59 107.89 189.69 109.48 L 190.35 109.54 C 190.42 110.79 190.50 112.04 190.58 113.29 C 199.72 117.45 209.70 119.77 218.44 124.80 C 218.48 125.76 218.53 126.71 218.58 127.67 C 217.01 129.11 215.25 130.32 213.33 131.25 C 207.79 134.00 202.56 137.30 196.99 139.98 C 195.12 140.98 193.01 141.84 191.80 143.69 C 191.02 149.42 191.81 155.27 190.82 160.99 C 190.16 165.17 190.94 169.54 189.54 173.60 C 187.87 174.22 185.85 174.86 184.45 173.33 C 177.82 167.69 172.26 160.90 165.76 155.11 C 164.27 153.54 161.94 154.19 160.10 154.56 C 153.41 156.31 146.72 158.06 140.06 159.93 C 138.05 160.52 135.88 160.72 133.86 160.09 C 133.30 158.47 133.14 156.59 133.99 155.04 C 135.94 151.03 137.95 147.05 139.80 142.98 C 140.30 142.03 140.79 141.08 141.28 140.12 C 141.92 138.77 142.59 137.43 143.28 136.10 C 143.81 135.04 144.36 133.99 144.92 132.94 C 145.23 131.96 145.46 130.95 145.69 129.95 C 143.92 127.41 142.41 124.71 140.75 122.11 C 137.78 116.59 134.36 111.33 131.04 106.01 C 130.81 105.10 130.58 104.19 130.37 103.28 C 132.74 100.17 136.76 101.49 140.03 102.02 C 147.42 103.35 154.77 105.12 162.26 105.80 C 166.36 100.97 170.26 95.98 174.33 91.12 C 176.52 88.33 178.34 85.16 181.18 82.94 Z" style="fill: rgb(0, 0, 0) !important;"/>
<path fill="#000000" opacity="1.00" d=" M 563.50 83.62 C 564.95 82.61 567.20 81.49 568.49 83.41 C 574.46 90.52 580.16 97.89 586.02 105.09 C 587.06 105.90 588.45 105.65 589.67 105.53 C 597.78 104.16 605.84 102.41 614.00 101.34 C 615.97 100.68 617.35 102.26 618.67 103.40 C 618.45 104.28 618.23 105.15 618.01 106.02 C 617.25 107.25 616.52 108.48 615.76 109.69 C 615.26 110.51 614.77 111.33 614.30 112.15 C 612.69 114.60 611.24 117.16 609.65 119.63 C 608.39 121.77 607.10 123.89 605.81 126.02 C 605.25 127.00 604.68 127.97 604.12 128.94 C 602.84 131.02 604.46 133.03 605.32 134.89 C 606.43 137.30 607.55 139.71 608.63 142.14 C 609.77 144.37 610.83 146.64 611.88 148.93 C 612.58 150.26 613.25 151.62 613.87 153.00 C 614.17 153.48 614.78 154.43 615.08 154.91 C 615.69 156.67 615.60 158.54 615.39 160.36 C 611.44 161.14 607.65 159.58 603.89 158.63 C 597.82 156.96 591.67 155.56 585.68 153.62 C 577.76 158.96 572.07 166.99 564.74 173.08 C 563.87 173.60 562.98 174.08 562.07 174.52 C 561.45 174.19 560.21 173.54 559.59 173.22 C 558.10 168.92 558.65 164.32 558.31 159.87 C 557.29 154.84 557.58 149.66 557.47 144.55 C 556.02 141.87 553.22 140.56 550.62 139.26 C 544.60 136.39 539.06 132.66 533.09 129.70 C 531.13 128.86 530.07 126.94 530.34 124.82 C 539.26 120.06 549.21 117.57 558.34 113.23 C 558.56 111.81 558.86 110.41 559.25 109.02 C 559.43 107.21 559.57 105.39 559.70 103.58 L 560.34 103.55 C 560.43 101.53 560.56 99.53 560.67 97.52 L 561.33 97.53 C 561.40 95.32 561.49 93.07 562.28 90.98 C 562.47 88.49 562.87 86.03 563.50 83.62 Z" style="fill: rgb(0, 0, 0) !important;"/>
<path fill="#000000" opacity="1.00" d=" M 367.08 144.31 C 368.69 138.40 377.70 137.37 380.84 142.57 L 381.32 142.59 C 381.99 144.65 382.62 146.74 382.49 148.94 C 382.45 159.37 382.56 169.80 382.44 180.23 C 381.35 182.65 379.70 185.11 376.97 185.79 C 372.04 187.72 365.82 183.39 366.42 178.00 C 366.46 166.82 366.32 155.63 366.54 144.45 L 367.08 144.31 Z" style="fill: rgb(0, 0, 0) !important;"/>
<path fill="#000000" opacity="1.00" d=" M 522.82 150.83 C 524.70 148.98 526.64 147.18 528.76 145.61 C 532.81 148.30 537.23 150.37 541.40 152.86 C 541.01 155.75 543.36 160.21 539.78 161.62 C 523.23 170.81 508.58 182.99 495.05 196.14 C 494.00 197.56 492.26 197.38 490.71 197.29 C 490.41 195.51 490.24 193.68 490.97 191.98 C 492.43 189.70 493.75 187.33 495.20 185.04 C 496.77 182.33 498.48 179.71 500.30 177.15 C 507.00 167.73 514.41 158.79 522.82 150.83 Z" style="fill: rgb(0, 0, 0) !important;"/>
<path fill="#000000" opacity="1.00" d=" M 207.71 152.86 C 211.85 150.39 216.11 148.14 220.22 145.63 C 223.70 147.84 226.35 151.04 229.44 153.72 C 229.46 153.92 229.48 154.32 229.50 154.53 L 230.21 154.49 C 237.54 162.65 244.91 170.86 250.77 180.18 C 253.08 183.66 255.20 187.26 257.42 190.79 C 258.53 192.84 258.96 195.24 258.65 197.54 C 254.85 198.30 252.79 194.77 250.41 192.54 C 237.95 181.10 224.78 170.27 209.97 162.00 C 208.60 161.29 207.43 160.29 206.35 159.21 C 208.15 157.67 207.29 154.95 207.71 152.86 Z" style="fill: rgb(0, 0, 0) !important;"/>
<path fill="#000000" opacity="1.00" d=" M 293.59 161.86 C 296.55 157.67 303.60 156.60 306.74 161.11 C 310.70 167.25 314.08 173.75 317.77 180.05 C 319.93 183.64 321.97 187.30 324.07 190.93 C 325.64 195.20 322.78 199.34 319.19 201.44 C 316.96 201.48 314.47 201.99 312.51 200.67 C 309.31 198.75 308.02 195.01 306.24 191.94 C 304.83 189.65 303.51 187.32 302.19 184.99 C 299.20 180.09 296.66 174.92 293.60 170.07 C 292.21 167.46 292.43 164.50 293.59 161.86 Z" style="fill: rgb(0, 0, 0) !important;"/>
<path fill="#000000" opacity="1.00" d=" M 439.27 166.07 C 440.92 162.85 442.90 158.99 446.84 158.33 C 450.24 157.50 453.37 159.48 455.56 161.88 C 455.59 162.14 455.64 162.64 455.66 162.90 C 456.67 164.65 455.79 167.34 457.62 168.53 C 456.99 168.65 456.36 168.77 455.74 168.89 C 455.12 170.70 454.19 172.38 453.19 174.01 C 452.38 175.33 451.60 176.68 450.81 178.01 C 449.49 180.35 448.17 182.69 446.83 185.01 C 445.12 188.00 443.41 190.99 441.74 194.00 C 440.07 197.26 438.07 201.27 433.94 201.63 C 428.23 202.67 422.96 196.42 424.93 190.97 C 426.01 189.00 427.06 187.02 428.23 185.10 C 429.20 183.40 430.16 181.69 431.15 179.99 C 433.70 175.26 436.53 170.69 439.27 166.07 Z" style="fill: rgb(0, 0, 0) !important;"/>
<path fill="#000000" opacity="1.00" d=" M 633.93 182.48 C 635.17 182.60 636.59 182.59 637.47 183.67 C 637.66 184.23 638.04 185.35 638.23 185.91 C 638.87 187.65 639.61 189.35 640.46 191.01 C 640.48 191.24 640.51 191.71 640.52 191.94 C 640.97 192.96 641.41 193.98 641.85 195.01 C 642.49 196.68 643.13 198.35 643.74 200.04 C 644.58 201.65 644.53 204.34 646.79 204.61 C 653.69 206.27 660.88 206.62 667.70 208.69 C 667.69 209.56 667.69 211.30 667.68 212.17 C 662.25 216.70 656.87 221.28 651.38 225.73 L 651.51 226.64 L 650.41 226.56 C 652.15 229.32 651.15 232.75 652.30 235.73 C 652.48 238.12 652.58 240.55 653.30 242.86 C 653.55 245.28 653.65 247.71 653.52 250.15 C 652.90 250.27 651.66 250.52 651.05 250.65 C 645.25 247.27 639.87 243.23 634.16 239.72 C 632.86 238.74 631.20 239.06 629.85 239.71 C 624.53 242.14 619.42 245.01 614.17 247.56 C 612.67 248.39 611.03 247.52 609.52 247.27 C 609.72 246.19 609.96 245.13 610.25 244.07 C 610.39 242.87 610.53 241.67 610.67 240.47 L 611.23 240.48 C 611.40 238.95 611.60 237.42 612.19 235.99 C 612.37 234.83 612.55 233.67 612.73 232.51 L 613.26 232.48 C 613.44 230.97 613.67 229.45 614.29 228.05 C 614.41 226.25 615.45 223.95 613.90 222.49 C 608.90 217.10 603.78 211.81 599.26 206.01 C 599.64 205.58 600.40 204.73 600.78 204.30 C 607.97 202.78 615.46 204.02 622.67 202.70 C 624.18 202.52 624.27 201.01 624.63 199.84 C 625.47 198.24 626.32 196.65 627.21 195.07 C 627.69 194.05 628.19 193.03 628.69 192.01 C 630.03 189.63 631.39 187.26 632.75 184.88 C 633.05 184.28 633.64 183.08 633.93 182.48 Z" style="fill: rgb(0, 0, 0) !important;"/>
<path fill="#000000" opacity="1.00" d=" M 110.64 185.86 C 111.48 184.86 111.31 182.53 113.05 182.60 C 114.71 181.85 115.51 183.65 116.36 184.66 C 116.93 185.78 117.52 186.90 118.15 188.00 C 118.68 189.04 119.22 190.08 119.74 191.14 C 120.26 192.06 120.77 193.00 121.28 193.93 C 122.44 196.34 123.90 198.62 124.72 201.18 C 125.59 202.09 126.57 202.99 127.94 202.92 C 134.88 203.76 142.02 202.76 148.85 204.52 C 148.59 206.38 148.94 208.92 146.79 209.78 C 143.34 213.65 139.76 217.40 136.23 221.20 C 135.42 222.25 133.99 223.19 134.33 224.73 C 134.64 228.27 136.04 231.60 136.69 235.08 C 137.55 238.16 138.51 241.24 138.73 244.46 C 138.91 244.49 139.26 244.56 139.44 244.59 C 139.38 245.23 139.26 246.52 139.20 247.16 C 138.63 247.41 137.50 247.91 136.93 248.16 C 130.12 245.35 123.79 241.49 116.99 238.62 C 111.26 241.79 106.05 245.80 100.49 249.26 C 99.03 250.13 96.65 251.41 95.53 249.39 C 95.21 246.62 95.47 243.76 96.28 241.09 C 96.46 238.91 96.60 236.72 96.70 234.54 L 97.36 234.54 C 97.47 231.66 97.70 228.78 97.73 225.89 C 92.29 221.27 86.77 216.74 81.39 212.05 C 81.39 211.21 81.40 209.52 81.40 208.68 C 88.25 206.92 95.33 206.30 102.20 204.61 C 104.84 204.17 104.69 200.84 105.68 198.91 C 106.05 197.92 106.42 196.94 106.78 195.95 C 107.28 194.65 107.76 193.35 108.27 192.05 C 109.04 189.98 109.89 187.94 110.64 185.86 Z" style="fill: rgb(0, 0, 0) !important;"/>
<path fill="#000000" opacity="1.00" d=" M 348.22 206.55 C 364.99 201.53 383.18 201.38 400.00 206.26 C 422.47 212.56 441.99 228.27 453.33 248.63 C 453.78 249.48 454.23 250.34 454.69 251.19 C 455.86 253.37 456.88 255.62 457.76 257.93 C 458.27 259.24 458.77 260.57 459.30 261.89 C 459.91 263.91 460.55 265.93 461.22 267.95 C 461.49 269.28 461.79 270.64 462.23 271.94 C 462.39 273.03 462.56 274.14 462.74 275.23 C 463.47 277.49 463.52 279.88 463.69 282.23 C 465.01 288.21 464.15 294.39 464.29 300.45 L 463.64 300.46 C 463.56 302.79 463.42 305.13 463.33 307.48 L 462.62 307.51 C 462.52 309.13 462.43 310.76 462.34 312.39 C 462.18 312.41 461.87 312.46 461.71 312.49 C 461.48 315.51 460.15 318.26 459.26 321.12 C 458.44 323.05 457.61 324.99 456.72 326.90 C 456.49 327.39 456.02 328.38 455.79 328.88 C 453.78 332.74 451.52 336.46 449.22 340.16 C 445.03 346.83 440.08 352.97 435.22 359.16 C 432.46 362.95 429.94 366.91 427.75 371.05 C 426.89 373.05 425.99 375.03 425.18 377.05 C 424.67 378.32 424.18 379.59 423.68 380.86 C 423.21 382.59 422.68 384.31 422.20 386.04 C 421.74 387.65 421.46 389.29 421.19 390.95 C 420.26 395.31 419.74 399.77 419.34 404.22 C 418.68 405.90 418.05 407.60 417.42 409.30 C 414.57 413.26 409.94 416.05 404.96 415.83 C 384.63 415.88 364.30 415.87 343.97 415.83 C 339.01 415.99 334.38 413.19 331.59 409.20 C 331.35 408.70 330.88 407.69 330.65 407.19 C 329.87 404.80 329.43 402.33 329.28 399.82 C 328.53 397.12 328.43 394.31 328.35 391.53 L 327.72 391.47 C 327.59 389.96 327.44 388.45 327.29 386.96 C 326.53 384.96 325.90 382.92 325.29 380.88 C 324.94 379.92 324.61 378.96 324.29 378.00 C 323.72 376.70 323.17 375.39 322.61 374.10 C 322.15 373.06 321.67 372.02 321.22 370.99 C 317.43 364.25 313.12 357.80 308.17 351.86 C 301.72 343.93 296.37 335.15 291.89 325.98 C 291.52 325.23 291.16 324.49 290.77 323.75 C 290.42 322.82 290.07 321.91 289.71 321.00 C 289.24 319.62 288.72 318.26 288.22 316.90 C 287.78 315.46 287.46 313.97 287.19 312.49 L 286.74 312.52 C 286.38 308.96 285.41 305.50 285.22 301.92 C 284.24 295.13 284.11 288.01 285.32 281.25 C 285.46 279.34 285.58 277.44 285.69 275.53 L 286.32 275.56 C 286.43 273.69 286.64 271.82 287.18 270.02 C 287.51 268.70 287.85 267.38 288.23 266.07 C 288.54 265.08 288.87 264.10 289.22 263.13 C 289.70 261.73 290.22 260.34 290.71 258.95 C 291.73 256.63 292.76 254.31 293.81 252.01 C 298.19 243.68 303.63 235.94 310.23 229.23 C 320.88 218.86 333.80 210.50 348.22 206.55 M 392.95 223.45 C 392.02 225.46 391.18 227.51 390.36 229.57 C 387.87 229.91 385.37 230.24 382.90 230.65 C 384.20 232.37 385.77 233.86 387.53 235.12 C 387.62 237.75 387.97 240.64 386.44 242.96 C 388.36 242.64 390.14 241.90 391.74 240.80 C 394.53 239.03 397.14 242.60 399.75 243.26 C 399.64 242.17 399.42 240.00 399.30 238.91 C 399.03 237.97 398.78 237.03 398.55 236.09 C 400.49 234.46 402.24 232.63 403.94 230.76 C 401.21 230.38 398.48 229.96 395.82 229.26 C 395.75 228.66 395.60 227.45 395.53 226.85 C 394.77 225.65 393.93 224.47 392.95 223.45 M 347.47 229.44 C 332.29 235.74 319.39 247.78 312.73 262.86 C 312.05 264.59 311.33 266.29 310.57 267.98 C 310.52 268.28 310.41 268.86 310.36 269.15 C 308.97 272.63 307.85 276.29 307.53 280.04 C 307.09 282.99 309.04 285.92 311.81 286.90 C 315.12 288.32 318.77 286.21 320.37 283.26 C 320.58 281.86 320.86 280.48 321.20 279.11 C 321.66 276.65 322.44 274.26 323.42 271.96 C 323.45 271.71 323.49 271.21 323.51 270.95 C 324.91 268.29 326.27 265.60 327.74 262.97 C 329.82 259.72 332.16 256.63 334.82 253.83 C 341.09 247.52 348.87 242.80 357.36 240.16 C 360.98 239.10 362.02 235.16 361.56 231.79 C 360.37 230.32 359.45 228.39 357.55 227.74 C 354.12 226.43 350.60 228.16 347.47 229.44 M 418.10 241.00 C 417.69 241.50 416.89 242.51 416.49 243.02 C 416.49 243.26 416.51 243.75 416.51 244.00 C 415.54 245.96 414.64 247.96 413.75 249.97 C 413.05 251.42 412.74 253.28 411.25 254.17 C 407.13 254.84 402.94 255.00 398.81 255.59 C 398.43 255.90 397.67 256.52 397.29 256.83 C 400.99 259.74 404.21 263.22 407.60 266.48 C 407.52 268.16 407.43 269.84 407.36 271.53 L 406.67 271.53 C 406.57 272.69 406.47 273.86 406.36 275.03 C 405.70 276.86 405.48 278.79 405.38 280.73 C 410.02 279.72 413.58 276.30 417.92 274.54 C 421.98 275.67 425.44 278.40 429.06 280.51 C 429.68 280.49 430.92 280.44 431.54 280.42 C 431.25 279.62 430.97 278.83 430.69 278.04 C 430.56 276.50 430.44 274.97 430.34 273.44 L 429.66 273.45 C 429.48 270.98 429.28 268.51 429.33 266.03 C 432.97 263.13 436.16 259.72 439.70 256.70 C 435.28 254.63 430.25 255.11 425.61 253.99 C 424.67 253.74 424.29 252.78 423.71 252.12 C 422.95 250.02 422.05 247.98 421.15 245.95 C 420.96 245.42 420.60 244.36 420.41 243.82 C 419.67 242.85 418.90 241.91 418.10 241.00 M 329.41 304.88 C 329.39 305.14 329.37 305.65 329.35 305.91 C 327.76 309.79 328.35 314.23 329.58 318.15 C 334.55 328.74 346.66 332.65 357.33 334.60 C 357.38 336.84 357.49 339.08 357.66 341.32 C 358.89 346.61 358.41 352.11 358.69 357.49 L 359.33 357.50 C 359.33 366.17 359.84 374.83 359.73 383.50 L 360.36 383.44 C 360.27 389.36 360.34 395.30 360.46 401.23 C 363.82 401.23 367.19 401.24 370.56 401.20 C 370.53 392.48 370.40 383.77 370.27 375.06 C 369.38 367.57 369.53 360.02 369.32 352.49 L 368.71 352.47 C 368.61 346.72 368.31 340.98 368.09 335.23 C 372.59 335.41 377.10 335.37 381.61 335.36 C 380.82 340.61 380.41 345.89 380.34 351.20 C 379.40 355.41 379.70 359.75 379.50 364.03 C 379.46 376.44 378.21 388.77 378.60 401.19 C 382.15 401.16 385.78 401.56 389.26 400.60 C 389.22 389.68 389.35 378.77 389.65 367.86 C 390.47 361.86 390.32 355.80 390.64 349.76 C 391.55 345.87 391.40 341.85 391.64 337.88 C 391.85 337.01 392.27 335.28 392.48 334.41 C 402.36 332.52 413.37 329.11 418.74 319.84 C 419.27 318.58 419.81 317.32 420.40 316.08 C 420.72 313.01 420.72 309.91 420.45 306.84 C 419.85 305.61 419.29 304.37 418.73 303.13 C 415.11 297.13 407.95 292.64 400.79 294.29 C 394.99 295.23 390.77 300.03 388.19 305.01 C 387.48 306.69 386.79 308.38 386.15 310.09 C 385.24 312.81 384.44 315.59 384.22 318.47 L 383.68 318.45 C 383.56 320.33 383.44 322.24 382.78 324.03 L 382.66 324.73 C 377.28 325.22 371.86 325.42 366.49 324.66 C 366.31 324.01 365.95 322.70 365.78 322.04 C 365.51 320.35 365.22 318.67 364.79 317.02 C 364.43 315.67 364.08 314.34 363.67 313.02 C 363.59 312.50 363.42 311.46 363.34 310.93 C 362.80 309.63 362.30 308.33 361.80 307.02 C 359.42 299.98 352.93 293.95 345.24 293.88 C 338.36 294.13 332.48 298.93 329.41 304.88 Z" style="fill: rgb(0, 0, 0) !important;"/>
<path fill="#000000" opacity="1.00" d=" M 239.43 215.81 C 241.70 212.20 246.51 209.93 250.50 212.20 C 259.06 217.07 267.36 222.41 276.01 227.12 C 277.93 228.13 279.64 229.46 281.21 230.95 C 282.78 233.83 282.83 237.19 281.41 240.14 C 279.08 243.25 274.63 244.68 271.12 242.71 C 263.71 238.70 256.47 234.35 249.22 230.04 C 246.36 228.33 243.26 226.91 240.77 224.65 C 238.47 222.32 239.45 218.73 239.43 215.81 Z" style="fill: rgb(0, 0, 0) !important;"/>
<path fill="#000000" opacity="1.00" d=" M 497.51 212.73 C 501.35 210.17 506.38 211.43 509.07 215.00 C 509.46 216.69 509.63 218.50 510.60 220.00 C 509.84 220.94 509.42 222.03 509.32 223.28 C 507.87 225.26 505.90 226.75 503.76 227.91 C 495.03 232.76 486.58 238.12 477.76 242.82 C 473.92 244.78 469.15 242.65 467.25 238.99 C 465.99 236.89 466.57 234.33 466.97 232.07 C 468.26 230.73 469.45 229.24 471.09 228.30 C 479.89 223.10 488.86 218.18 497.51 212.73 Z" style="fill: rgb(0, 0, 0) !important;"/>
<path fill="#000000" opacity="1.00" d=" M 161.96 217.52 C 181.88 225.59 200.13 237.56 216.01 252.00 C 218.48 254.64 221.60 256.82 223.42 260.00 C 224.20 261.93 222.70 262.81 221.17 263.46 C 200.57 250.19 177.68 240.49 153.79 235.03 C 153.48 234.56 152.86 233.62 152.55 233.15 C 152.36 231.13 152.22 229.11 152.39 227.09 C 155.86 224.20 158.86 220.80 161.96 217.52 Z" style="fill: rgb(0, 0, 0) !important;"/>
<path fill="#000000" opacity="1.00" d=" M 584.86 218.49 C 587.94 216.94 589.77 220.54 591.70 222.26 C 593.71 224.73 597.29 226.41 597.52 229.93 C 596.54 231.24 596.45 232.90 596.21 234.45 C 587.53 237.10 578.66 239.21 570.14 242.42 C 555.35 247.98 541.05 254.91 527.78 263.52 C 526.28 262.80 525.23 261.72 525.34 259.95 C 531.06 253.12 538.11 247.58 544.97 241.96 C 557.28 232.61 570.57 224.41 584.86 218.49 Z" style="fill: rgb(0, 0, 0) !important;"/>
<path fill="#ffffff" opacity="1.00" d=" M 392.95 223.45 C 393.93 224.47 394.77 225.65 395.53 226.85 C 395.60 227.45 395.75 228.66 395.82 229.26 C 398.48 229.96 401.21 230.38 403.94 230.76 C 402.24 232.63 400.49 234.46 398.55 236.09 C 398.78 237.03 399.03 237.97 399.30 238.91 C 399.42 240.00 399.64 242.17 399.75 243.26 C 397.14 242.60 394.53 239.03 391.74 240.80 C 390.14 241.90 388.36 242.64 386.44 242.96 C 387.97 240.64 387.62 237.75 387.53 235.12 C 385.77 233.86 384.20 232.37 382.90 230.65 C 385.37 230.24 387.87 229.91 390.36 229.57 C 391.18 227.51 392.02 225.46 392.95 223.45 Z" style="fill: none !important;"/>
<path fill="#ffffff" opacity="1.00" d=" M 347.47 229.44 C 350.60 228.16 354.12 226.43 357.55 227.74 C 359.45 228.39 360.37 230.32 361.56 231.79 C 362.02 235.16 360.98 239.10 357.36 240.16 C 348.87 242.80 341.09 247.52 334.82 253.83 C 332.16 256.63 329.82 259.72 327.74 262.97 C 326.27 265.60 324.91 268.29 323.51 270.95 C 323.49 271.21 323.45 271.71 323.42 271.96 C 322.44 274.26 321.66 276.65 321.20 279.11 C 320.86 280.48 320.58 281.86 320.37 283.26 C 318.77 286.21 315.12 288.32 311.81 286.90 C 309.04 285.92 307.09 282.99 307.53 280.04 C 307.85 276.29 308.97 272.63 310.36 269.15 C 310.41 268.86 310.52 268.28 310.57 267.98 C 311.33 266.29 312.05 264.59 312.73 262.86 C 319.39 247.78 332.29 235.74 347.47 229.44 Z" style="fill: none !important;"/>
<path fill="#ffffff" opacity="1.00" d=" M 418.10 241.00 C 418.90 241.91 419.67 242.85 420.41 243.82 C 420.60 244.36 420.96 245.42 421.15 245.95 C 422.05 247.98 422.95 250.02 423.71 252.12 C 424.29 252.78 424.67 253.74 425.61 253.99 C 430.25 255.11 435.28 254.63 439.70 256.70 C 436.16 259.72 432.97 263.13 429.33 266.03 C 429.28 268.51 429.48 270.98 429.66 273.45 L 430.34 273.44 C 430.44 274.97 430.56 276.50 430.69 278.04 C 430.97 278.83 431.25 279.62 431.54 280.42 C 430.92 280.44 429.68 280.49 429.06 280.51 C 425.44 278.40 421.98 275.67 417.92 274.54 C 413.58 276.30 410.02 279.72 405.38 280.73 C 405.48 278.79 405.70 276.86 406.36 275.03 C 406.47 273.86 406.57 272.69 406.67 271.53 L 407.36 271.53 C 407.43 269.84 407.52 268.16 407.60 266.48 C 404.21 263.22 400.99 259.74 397.29 256.83 C 397.67 256.52 398.43 255.90 398.81 255.59 C 402.94 255.00 407.13 254.84 411.25 254.17 C 412.74 253.28 413.05 251.42 413.75 249.97 C 414.64 247.96 415.54 245.96 416.51 244.00 C 416.51 243.75 416.49 243.26 416.49 243.02 C 416.89 242.51 417.69 241.50 418.10 241.00 Z" style="fill: none !important;"/>
<path fill="#000000" opacity="1.00" d=" M 617.17 264.07 C 622.07 262.42 626.23 259.16 631.11 257.45 C 634.69 260.13 638.51 262.46 642.22 264.97 C 642.35 316.15 642.20 367.33 642.30 418.51 L 641.65 418.44 C 642.01 427.38 640.67 436.22 640.31 445.13 C 639.35 450.09 638.96 455.16 638.28 460.17 C 637.63 462.10 637.49 464.13 637.30 466.14 C 636.57 468.18 636.41 470.34 636.31 472.49 L 635.71 472.50 C 635.58 473.98 635.42 475.47 635.28 476.96 C 634.39 479.94 633.80 483.00 633.16 486.04 C 632.79 487.32 632.49 488.61 632.22 489.91 C 631.48 492.24 630.79 494.59 630.23 496.97 C 628.61 501.56 627.42 506.30 625.73 510.87 C 624.99 513.31 624.07 515.69 623.24 518.10 C 622.72 519.37 622.23 520.64 621.74 521.93 C 621.15 523.61 620.48 525.25 619.77 526.89 C 619.13 528.59 618.42 530.26 617.69 531.93 C 616.38 535.37 614.71 538.65 613.12 541.96 C 611.93 544.16 610.83 546.41 609.70 548.64 C 608.66 550.65 607.61 552.65 606.63 554.69 C 606.00 518.46 606.52 482.20 606.31 445.96 C 606.39 439.72 606.15 433.39 607.35 427.23 C 608.20 401.83 607.60 376.40 607.76 350.99 C 607.76 322.17 607.75 293.35 607.79 264.53 C 610.91 264.65 614.12 264.97 617.17 264.07 Z" style="fill: rgb(0, 0, 0) !important;"/>
<path fill="#000000" opacity="1.00" d=" M 107.43 264.30 C 111.15 262.38 114.31 259.60 117.92 257.53 C 121.67 258.25 124.70 260.97 128.20 262.45 C 132.19 264.67 136.87 265.02 141.33 264.42 C 141.28 313.83 141.22 363.23 141.32 412.64 C 141.58 418.96 141.14 425.38 142.34 431.63 C 143.07 448.74 142.45 465.89 142.63 483.01 C 142.61 506.21 142.67 529.41 142.60 552.61 C 140.85 551.90 140.09 550.19 139.28 548.67 C 137.35 544.85 135.64 540.93 133.68 537.14 C 133.45 536.63 132.99 535.62 132.76 535.11 C 131.86 532.97 130.90 530.84 130.16 528.64 L 129.70 528.42 C 129.02 526.22 128.13 524.10 127.29 521.97 C 126.75 520.65 126.22 519.33 125.68 518.02 C 125.22 516.63 124.72 515.25 124.25 513.88 C 123.87 512.88 123.52 511.89 123.18 510.90 C 122.83 509.91 122.49 508.92 122.17 507.93 C 121.85 506.94 121.55 505.95 121.27 504.96 C 119.52 498.97 117.61 493.03 116.23 486.95 C 115.42 484.02 114.70 481.08 114.22 478.09 C 113.68 476.45 113.43 474.73 113.19 473.03 C 112.72 471.34 112.45 469.60 112.21 467.88 C 111.70 465.97 111.47 464.01 111.26 462.07 C 110.58 460.07 110.44 457.96 110.27 455.89 C 108.64 447.19 108.62 438.31 107.58 429.55 C 106.98 408.38 107.45 387.20 107.31 366.03 C 107.37 332.12 107.18 298.20 107.43 264.30 Z" style="fill: rgb(0, 0, 0) !important;"/>
<path fill="#000000" opacity="1.00" d=" M 576.49 280.96 C 577.35 279.37 578.17 277.76 578.93 276.12 C 579.52 276.18 580.71 276.28 581.31 276.34 C 581.78 277.59 582.27 278.85 582.75 280.12 C 584.38 282.69 584.51 286.83 587.63 288.09 C 591.66 288.65 595.76 288.89 599.75 289.84 C 598.11 294.28 593.53 296.76 590.30 300.01 C 590.42 301.97 590.50 303.99 591.28 305.85 C 591.44 307.42 591.58 309.00 591.70 310.58 L 592.44 310.41 C 592.40 311.25 592.33 312.95 592.30 313.79 C 587.34 313.36 583.94 308.57 579.03 308.28 C 575.01 309.91 571.69 313.10 567.30 313.82 C 567.47 309.25 569.00 304.89 569.62 300.38 C 566.67 296.66 561.74 294.40 560.08 289.78 C 564.66 288.44 569.53 288.81 574.06 287.34 C 574.65 285.48 575.45 283.68 576.39 281.97 C 576.42 281.72 576.47 281.21 576.49 280.96 Z" style="fill: rgb(0, 0, 0) !important;"/>
<path fill="#000000" opacity="1.00" d=" M 166.77 278.91 C 167.37 277.31 168.07 275.74 170.12 276.00 C 170.76 277.66 171.46 279.30 172.22 280.91 C 173.18 283.01 174.14 285.12 174.97 287.28 C 179.54 289.44 185.31 287.51 189.39 290.77 C 186.05 294.00 182.66 297.17 179.38 300.46 C 179.65 301.63 179.94 302.80 180.24 303.98 C 180.47 305.60 180.69 307.24 181.34 308.77 C 181.48 310.50 181.56 312.23 181.58 313.98 C 177.40 313.23 174.28 310.21 170.52 308.52 C 169.14 307.77 167.74 308.63 166.53 309.26 C 163.43 310.88 160.61 313.16 157.11 313.88 C 157.15 311.08 157.42 308.30 157.64 305.51 L 158.33 305.48 C 158.41 303.64 158.52 301.81 158.61 299.98 C 155.89 297.43 153.17 294.87 150.45 292.32 C 149.60 291.77 149.58 290.79 149.64 289.91 C 153.48 288.74 157.55 288.82 161.48 288.12 C 162.70 288.01 163.22 286.88 163.82 285.99 C 164.75 283.61 165.90 281.32 166.77 278.91 Z" style="fill: rgb(0, 0, 0) !important;"/>
<path fill="#000000" opacity="1.00" d=" M 220.45 288.81 C 222.33 286.47 224.83 284.20 228.04 284.39 C 238.66 284.40 249.29 284.33 259.91 284.42 C 262.65 284.26 264.80 286.08 266.54 287.96 C 266.56 288.21 266.60 288.69 266.63 288.93 C 268.16 291.43 267.62 294.56 266.48 297.10 C 266.21 297.43 265.65 298.08 265.37 298.40 C 263.73 299.55 261.89 300.50 259.84 300.45 C 249.54 300.51 239.24 300.46 228.95 300.50 C 225.66 300.60 222.06 299.01 220.64 295.92 C 220.09 293.58 220.38 291.17 220.45 288.81 Z" style="fill: rgb(0, 0, 0) !important;"/>
<path fill="#000000" opacity="1.00" d=" M 482.36 287.91 C 484.17 286.13 486.33 284.32 489.04 284.43 C 499.69 284.34 510.36 284.38 521.01 284.40 C 524.16 284.35 526.69 286.46 528.53 288.80 C 528.70 291.24 528.71 293.69 528.54 296.13 C 526.77 298.52 524.17 300.58 521.04 300.46 C 510.41 300.46 499.77 300.59 489.15 300.35 C 486.13 300.36 483.60 298.48 481.93 296.12 C 481.52 293.75 480.89 291.03 482.38 288.92 C 482.37 288.66 482.36 288.16 482.36 287.91 Z" style="fill: rgb(0, 0, 0) !important;"/>
<path fill="#ffffff" opacity="1.00" d=" M 329.41 304.88 C 332.48 298.93 338.36 294.13 345.24 293.88 C 352.93 293.95 359.42 299.98 361.80 307.02 C 362.30 308.33 362.80 309.63 363.34 310.93 C 363.42 311.46 363.59 312.50 363.67 313.02 C 364.08 314.34 364.43 315.67 364.79 317.02 C 365.22 318.67 365.51 320.35 365.78 322.04 C 365.95 322.70 366.31 324.01 366.49 324.66 C 371.86 325.42 377.28 325.22 382.66 324.73 L 382.78 324.03 C 383.44 322.24 383.56 320.33 383.68 318.45 L 384.22 318.47 C 384.44 315.59 385.24 312.81 386.15 310.09 C 386.79 308.38 387.48 306.69 388.19 305.01 C 390.77 300.03 394.99 295.23 400.79 294.29 C 407.95 292.64 415.11 297.13 418.73 303.13 C 419.29 304.37 419.85 305.61 420.45 306.84 C 420.72 309.91 420.72 313.01 420.40 316.08 C 419.81 317.32 419.27 318.58 418.74 319.84 C 413.37 329.11 402.36 332.52 392.48 334.41 C 392.27 335.28 391.85 337.01 391.64 337.88 C 391.40 341.85 391.55 345.87 390.64 349.76 C 390.32 355.80 390.47 361.86 389.65 367.86 C 389.35 378.77 389.22 389.68 389.26 400.60 C 385.78 401.56 382.15 401.16 378.60 401.19 C 378.21 388.77 379.46 376.44 379.50 364.03 C 379.70 359.75 379.40 355.41 380.34 351.20 C 380.41 345.89 380.82 340.61 381.61 335.36 C 377.10 335.37 372.59 335.41 368.09 335.23 C 368.31 340.98 368.61 346.72 368.71 352.47 L 369.32 352.49 C 369.53 360.02 369.38 367.57 370.27 375.06 C 370.40 383.77 370.53 392.48 370.56 401.20 C 367.19 401.24 363.82 401.23 360.46 401.23 C 360.34 395.30 360.27 389.36 360.36 383.44 L 359.73 383.50 C 359.84 374.83 359.33 366.17 359.33 357.50 L 358.69 357.49 C 358.41 352.11 358.89 346.61 357.66 341.32 C 357.49 339.08 357.38 336.84 357.33 334.60 C 346.66 332.65 334.55 328.74 329.58 318.15 C 328.35 314.23 327.76 309.79 329.35 305.91 C 329.37 305.65 329.39 305.14 329.41 304.88 M 338.47 309.82 C 338.43 311.82 338.77 313.79 339.57 315.64 C 343.66 320.33 349.76 322.42 355.72 323.44 C 355.31 320.96 354.67 318.51 354.04 316.08 C 353.72 314.90 353.44 313.71 353.20 312.52 L 352.78 312.46 C 352.34 311.08 351.84 309.73 351.33 308.40 C 350.60 307.50 349.88 306.59 349.19 305.68 C 345.19 302.49 340.00 305.56 338.47 309.82 M 397.18 310.00 C 396.70 311.31 396.26 312.64 395.79 313.95 C 395.44 315.26 395.08 316.58 394.65 317.87 C 394.43 319.72 394.25 321.59 394.10 323.45 C 400.31 322.14 406.99 319.83 410.44 314.08 C 410.47 312.35 410.47 310.63 410.46 308.90 C 408.79 306.83 406.91 304.35 403.96 304.34 C 400.60 304.17 398.35 307.24 397.18 310.00 Z" style="fill: none !important;"/>
<path fill="#000000" opacity="1.00" d=" M 338.47 309.82 C 340.00 305.56 345.19 302.49 349.19 305.68 C 349.88 306.59 350.60 307.50 351.33 308.40 C 351.84 309.73 352.34 311.08 352.78 312.46 L 353.20 312.52 C 353.44 313.71 353.72 314.90 354.04 316.08 C 354.67 318.51 355.31 320.96 355.72 323.44 C 349.76 322.42 343.66 320.33 339.57 315.64 C 338.77 313.79 338.43 311.82 338.47 309.82 Z" style="fill: rgb(0, 0, 0) !important;"/>
<path fill="#000000" opacity="1.00" d=" M 397.18 310.00 C 398.35 307.24 400.60 304.17 403.96 304.34 C 406.91 304.35 408.79 306.83 410.46 308.90 C 410.47 310.63 410.47 312.35 410.44 314.08 C 406.99 319.83 400.31 322.14 394.10 323.45 C 394.25 321.59 394.43 319.72 394.65 317.87 C 395.08 316.58 395.44 315.26 395.79 313.95 C 396.26 312.64 396.70 311.31 397.18 310.00 Z" style="fill: rgb(0, 0, 0) !important;"/>
<path fill="#000000" opacity="1.00" d=" M 200.58 328.00 C 200.14 323.75 203.40 319.25 207.88 319.33 C 231.13 319.63 254.36 323.49 276.43 330.82 C 278.32 331.48 278.90 333.55 279.75 335.16 C 281.63 338.88 283.67 342.51 285.77 346.11 C 286.45 347.13 287.13 348.16 287.80 349.20 C 289.41 351.54 291.07 353.84 292.68 356.18 C 297.07 362.11 302.05 367.64 305.79 374.03 C 306.31 374.90 306.83 375.78 307.36 376.65 C 308.36 378.73 309.35 380.81 310.35 382.89 C 310.98 384.96 311.65 387.01 312.32 389.07 C 312.51 390.72 312.76 392.38 313.30 393.96 C 313.49 395.81 313.63 397.68 313.71 399.55 L 314.35 399.44 C 314.36 401.95 314.39 404.51 315.12 406.95 C 315.43 408.28 315.73 409.64 316.10 410.98 C 317.29 413.64 318.60 416.26 320.34 418.61 C 321.53 419.79 321.73 421.42 321.54 423.02 C 320.85 424.26 320.26 425.54 319.64 426.81 C 319.35 430.22 319.34 433.65 319.73 437.05 C 320.07 438.08 320.37 439.12 320.66 440.17 C 321.27 441.46 321.89 442.76 322.57 444.02 C 322.07 445.01 321.58 446.00 321.10 447.00 C 320.62 448.29 320.16 449.59 319.66 450.88 C 319.32 454.23 319.34 457.60 319.63 460.95 C 320.18 462.30 320.69 463.67 321.21 465.05 C 323.91 472.55 330.97 477.26 338.28 479.61 C 343.46 491.17 354.19 499.98 366.69 502.40 C 366.63 530.09 366.71 557.78 366.65 585.47 C 353.17 574.19 338.76 563.92 323.17 555.74 C 302.86 544.53 280.53 537.44 257.91 532.63 C 241.80 529.52 225.37 528.07 208.97 528.21 C 205.49 528.41 201.52 526.26 201.16 522.51 L 200.66 522.58 C 200.60 457.72 200.62 392.86 200.58 328.00 Z" style="fill: rgb(0, 0, 0) !important;"/>
<path fill="#000000" opacity="1.00" d=" M 470.98 331.82 C 493.25 323.38 517.26 319.76 541.02 319.27 C 544.98 319.03 547.62 322.38 548.37 325.90 C 548.58 390.95 548.40 456.00 548.45 521.04 C 548.84 524.35 546.28 527.56 543.01 528.01 C 538.36 528.54 533.67 528.05 529.01 528.34 C 486.92 530.10 444.86 542.15 409.52 565.39 C 400.02 571.44 391.10 578.34 382.40 585.48 C 382.28 557.79 382.35 530.11 382.32 502.42 C 392.12 500.54 400.81 494.77 406.76 486.82 C 407.59 485.57 408.42 484.33 409.27 483.10 C 409.48 482.58 409.92 481.54 410.14 481.02 C 411.53 478.18 415.11 478.26 417.51 476.69 C 422.62 474.07 426.25 469.41 428.39 464.16 C 430.59 457.59 430.22 449.94 426.49 443.98 C 426.94 443.33 427.40 442.69 427.87 442.05 C 428.33 440.69 428.77 439.33 429.29 437.99 C 429.72 434.32 429.70 430.62 429.33 426.95 C 428.90 425.95 428.50 424.95 428.12 423.95 C 427.81 422.96 427.52 421.98 427.25 420.99 C 428.34 419.42 429.35 417.79 430.35 416.15 C 430.59 415.65 431.08 414.65 431.33 414.15 C 431.60 413.65 432.14 412.67 432.40 412.17 C 432.95 410.44 433.49 408.71 434.05 406.99 C 434.59 404.07 434.57 401.08 435.27 398.19 C 435.46 396.42 435.69 394.65 436.17 392.95 C 436.73 388.75 438.27 384.80 439.74 380.86 C 440.74 378.89 441.76 376.94 442.79 374.99 C 443.95 373.10 445.12 371.22 446.31 369.35 C 452.25 361.31 458.71 353.63 463.83 345.01 C 464.61 343.68 465.43 342.37 466.26 341.07 C 467.91 338.03 469.67 335.03 470.98 331.82 Z" style="fill: rgb(0, 0, 0) !important;"/>
<path fill="#000000" opacity="1.00" d=" M 168.34 351.59 C 173.88 350.23 179.64 351.02 185.28 350.82 C 185.32 388.54 185.26 426.26 185.27 463.98 C 185.46 485.00 184.91 506.04 185.60 527.06 C 186.12 528.36 186.60 529.68 187.11 531.01 C 190.81 538.88 199.46 543.62 208.01 543.59 C 245.71 543.64 283.79 551.85 317.02 569.99 C 333.04 578.28 347.46 589.26 361.29 600.76 C 369.27 607.10 381.39 606.68 389.00 599.92 C 401.70 588.98 415.32 579.05 430.10 571.09 C 459.61 554.50 493.23 545.87 526.93 543.99 C 535.22 542.97 544.11 545.16 551.82 541.09 C 556.71 539.01 560.16 534.82 562.52 530.18 C 562.52 529.75 562.52 528.89 562.52 528.46 L 563.35 528.48 C 563.43 527.26 563.53 526.04 563.65 524.84 C 564.00 523.57 564.21 522.28 564.28 520.99 C 564.30 464.25 564.20 407.52 564.33 350.78 C 569.87 351.03 575.54 350.18 580.98 351.57 C 584.25 352.47 586.50 355.20 588.36 357.88 C 589.13 360.15 589.72 362.50 589.59 364.92 C 589.55 431.28 589.62 497.65 589.57 564.01 C 589.94 568.06 586.54 571.37 582.87 572.36 C 579.31 573.20 575.68 572.36 572.15 571.88 C 552.23 569.50 532.10 567.85 512.05 569.27 C 490.87 570.38 469.86 574.27 449.53 580.31 C 439.68 583.24 430.29 587.51 420.49 590.57 C 429.33 591.25 438.13 589.66 446.97 589.43 C 483.89 587.09 520.92 585.29 557.93 586.60 C 564.11 586.95 570.28 587.52 576.41 588.35 C 580.86 588.97 585.22 587.70 589.53 586.81 C 589.55 591.54 589.69 596.29 589.36 601.03 C 588.94 602.03 588.56 603.04 588.22 604.07 C 585.88 608.57 581.14 611.65 576.02 611.55 C 522.88 611.60 469.75 611.56 416.61 611.56 C 412.68 614.70 410.44 619.36 406.98 622.93 C 390.85 639.14 362.11 640.28 344.86 625.22 C 341.63 622.69 339.12 619.43 336.72 616.15 C 335.14 613.89 333.14 611.11 330.00 611.56 C 277.70 611.54 225.40 611.60 173.10 611.53 C 168.25 611.64 163.88 608.80 161.18 604.93 C 160.66 603.65 160.14 602.37 159.59 601.13 C 159.33 596.23 159.42 591.33 159.51 586.44 C 163.47 587.86 167.66 588.84 171.90 588.40 C 191.50 585.90 211.32 586.13 231.05 586.26 C 249.06 586.60 267.06 587.27 285.03 588.42 C 299.46 589.08 313.85 590.66 328.31 590.80 C 317.29 586.72 306.45 582.11 295.11 578.99 C 274.87 573.26 253.97 569.82 232.96 569.04 C 214.61 568.11 196.24 569.69 178.02 571.78 C 172.86 572.37 166.78 574.07 162.34 570.43 C 159.95 568.75 159.15 565.80 159.36 563.00 C 159.44 496.99 159.34 430.98 159.39 364.97 C 159.28 362.52 159.85 360.14 160.60 357.83 C 162.47 355.03 164.97 352.44 168.34 351.59 Z" style="fill: rgb(0, 0, 0) !important;"/>
<path fill="#000000" opacity="1.00" d=" M 334.53 428.81 C 336.46 425.96 339.31 423.34 343.03 423.65 C 364.01 423.60 385.00 423.66 405.99 423.61 C 409.35 423.33 412.06 425.55 414.05 428.01 C 414.93 431.04 414.90 434.33 413.44 437.19 C 411.47 439.21 408.85 440.63 405.95 440.45 C 384.98 440.49 364.02 440.51 343.05 440.45 C 339.30 440.79 336.39 438.14 334.54 435.19 C 334.43 433.06 334.43 430.93 334.53 428.81 Z" style="fill: rgb(0, 0, 0) !important;"/>
<path fill="#000000" opacity="1.00" d=" M 334.51 452.78 C 336.39 449.92 339.28 447.33 342.95 447.63 C 363.97 447.57 384.99 447.61 406.00 447.58 C 409.70 447.25 412.57 449.88 414.46 452.75 C 414.64 455.60 414.89 458.60 413.40 461.18 C 411.67 462.86 409.62 464.51 407.07 464.46 C 385.71 464.56 364.35 464.49 342.98 464.48 C 339.30 464.80 336.58 462.05 334.50 459.40 C 334.40 457.19 334.41 454.98 334.51 452.78 Z" style="fill: rgb(0, 0, 0) !important;"/>
<path fill="#000000" opacity="1.00" d=" M 351.43 473.48 C 351.49 473.02 351.62 472.10 351.69 471.64 C 367.06 471.72 382.43 471.68 397.81 471.64 C 394.38 484.51 378.66 491.19 366.54 486.79 C 361.37 484.99 356.89 481.55 353.55 477.24 C 353.05 476.04 352.56 474.83 352.14 473.62 L 351.43 473.48 Z" style="fill: rgb(0, 0, 0) !important;"/>
<path fill="#000000" opacity="1.00" d=" M 199.18 628.27 C 216.30 628.16 233.47 627.90 250.57 628.37 C 286.21 657.59 325.50 682.66 367.80 701.13 C 370.90 702.23 374.23 704.81 377.52 702.78 C 421.23 684.27 461.69 658.50 498.36 628.48 C 515.47 627.78 532.72 628.22 549.88 628.27 C 520.61 656.90 487.87 681.92 452.81 703.05 C 429.29 717.11 404.98 730.18 379.05 739.24 C 377.11 739.81 375.05 740.89 373.01 740.11 C 355.56 734.68 339.17 726.45 322.91 718.20 C 277.75 694.18 235.80 664.03 199.18 628.27 Z" style="fill: rgb(0, 0, 0) !important;"/>
</svg>