<svg xmlns="http://www.w3.org/2000/svg" role="img" viewBox="98.28 153.28 869.44 716.44" width="32" height="38" style=""><g id="#ffffffff" style="fill: rgb(0, 0, 0) !important;"><path fill="#fff" stroke="#fff" stroke-width=".094" d="M 0.00 0.00 L 1024.00 0.00 L 1024.00 1024.00 L 0.00 1024.00 L 0.00 0.00 M 281.78 184.94 C 281.69 215.70 281.82 246.47 281.70 277.23 C 303.62 273.27 327.01 279.87 343.57 294.78 C 346.53 293.39 348.87 290.49 351.81 288.80 C 367.25 278.03 387.02 274.14 405.50 277.17 C 405.33 246.48 405.58 215.79 405.43 185.10 C 405.32 177.51 398.74 170.49 391.01 170.61 C 359.35 170.59 327.69 170.61 296.04 170.61 C 288.54 170.79 281.81 177.36 281.78 184.94 M 831.79 173.78 C 828.01 182.04 824.88 190.61 821.08 198.86 C 820.07 201.14 818.36 203.11 816.08 204.17 C 807.87 208.08 799.32 211.23 791.12 215.15 C 789.24 215.85 788.68 217.96 787.25 219.13 C 782.75 218.92 778.24 218.66 773.76 219.21 C 781.91 237.76 788.89 256.82 796.70 275.52 C 799.36 281.69 804.27 286.85 810.29 289.85 C 819.89 294.14 829.70 298.00 839.40 302.09 C 839.44 288.19 839.26 274.28 839.44 260.39 C 841.23 254.12 844.15 248.22 846.49 242.13 C 848.04 238.73 849.23 234.53 852.95 232.86 C 861.50 228.56 870.67 225.57 879.18 221.18 C 881.81 220.09 881.12 216.17 878.58 215.40 C 871.07 211.75 863.30 208.63 855.63 205.31 C 852.83 204.06 849.84 202.53 848.54 199.58 C 844.48 191.05 841.35 182.09 837.40 173.51 C 836.12 171.21 832.84 171.37 831.79 173.78 M 624.83 215.40 C 605.95 219.41 587.47 225.16 569.62 232.47 C 552.56 239.72 535.91 248.67 522.29 261.42 C 522.26 423.29 522.16 585.15 522.35 747.02 C 553.52 722.92 591.65 710.23 629.55 701.27 C 631.63 700.72 633.18 699.12 634.90 697.92 C 644.59 690.58 656.85 686.73 669.01 687.28 C 676.56 687.35 683.71 689.92 690.81 692.17 C 725.31 688.44 760.23 688.21 794.79 691.24 C 806.95 677.97 819.32 664.89 831.51 651.66 C 834.05 648.75 837.17 646.32 839.38 643.16 C 839.43 555.33 839.27 467.49 839.45 379.66 C 833.58 381.98 827.86 384.64 822.11 387.22 C 816.89 389.58 811.23 391.13 806.53 394.52 C 802.11 397.81 798.76 402.41 796.67 407.49 C 788.71 426.36 781.52 445.54 773.69 464.46 C 769.37 474.19 759.75 481.65 748.98 482.27 C 737.17 483.04 725.77 475.50 721.01 464.82 C 713.65 447.42 707.08 429.70 699.79 412.27 C 697.48 406.62 695.21 400.63 690.61 396.41 C 686.39 392.49 680.84 390.60 675.67 388.32 C 658.60 380.51 640.83 374.23 623.98 365.94 C 617.34 362.02 612.08 355.56 610.16 348.03 C 606.71 335.77 612.88 321.90 623.98 315.84 C 632.23 311.61 640.99 308.48 649.45 304.71 C 658.28 300.74 667.23 297.05 676.16 293.31 C 681.33 290.98 686.86 288.99 691.06 285.02 C 694.29 282.05 696.44 278.14 698.11 274.13 C 705.31 256.54 712.13 238.79 719.26 221.16 C 722.05 213.42 727.24 206.12 735.01 202.80 C 698.00 203.55 661.00 207.45 624.83 215.40 M 196.87 206.34 C 190.36 206.71 184.55 212.42 184.58 219.04 C 184.53 373.38 184.56 527.72 184.56 682.06 C 184.59 686.80 187.66 691.31 192.09 693.01 C 197.18 695.20 202.72 693.36 207.98 692.92 C 270.09 686.36 333.36 688.02 394.53 701.21 C 432.44 710.17 470.63 722.79 501.71 747.06 C 501.70 585.21 501.81 423.36 501.69 261.52 C 496.36 256.32 490.42 251.78 484.09 247.86 C 466.16 236.23 446.04 228.50 425.71 222.22 C 425.77 242.57 425.80 262.91 425.70 283.25 C 428.94 285.33 432.36 287.11 435.41 289.47 C 452.49 301.91 463.28 322.05 465.56 342.92 C 467.76 360.17 463.18 377.70 454.71 392.70 C 447.28 406.77 436.34 418.49 425.73 430.19 C 425.83 463.47 425.73 496.76 425.80 530.05 C 425.77 533.32 425.96 536.70 424.82 539.84 C 422.61 546.77 415.18 551.75 407.90 550.77 C 402.35 550.32 397.97 546.51 393.92 543.07 C 377.21 529.91 360.46 516.82 343.73 503.69 C 327.55 516.15 311.69 529.02 295.61 541.62 C 290.66 545.53 285.77 550.71 279.01 550.85 C 269.68 551.64 261.16 543.18 261.36 533.94 C 261.27 499.34 261.27 464.73 261.41 430.13 C 256.07 423.89 250.23 418.08 245.22 411.55 C 236.85 400.71 229.36 388.90 225.18 375.77 C 218.89 357.17 220.36 336.24 228.59 318.47 C 235.08 303.59 247.01 291.34 261.31 283.77 C 261.41 256.76 261.37 229.74 261.40 202.73 C 239.85 203.05 218.32 204.34 196.87 206.34 M 745.35 220.52 C 742.12 221.28 740.30 224.34 739.13 227.19 C 732.03 243.82 725.73 260.77 718.63 277.40 C 716.18 283.35 713.83 289.48 709.78 294.56 C 704.59 301.65 697.13 306.76 689.09 310.13 C 671.34 317.82 653.42 325.12 635.64 332.72 C 631.50 334.41 628.57 339.40 630.41 343.75 C 631.68 347.34 635.54 348.79 638.73 350.22 C 653.57 356.78 668.73 362.56 683.47 369.34 C 691.56 372.78 699.91 376.45 706.08 382.93 C 709.81 387.03 712.96 391.70 715.25 396.76 C 723.43 415.78 730.60 435.21 738.70 454.26 C 740.19 457.73 742.73 461.75 746.99 461.74 C 751.61 461.98 754.83 457.88 756.17 453.90 C 763.28 435.73 770.37 417.56 777.72 399.48 C 782.10 388.68 790.05 378.98 800.82 374.10 C 819.67 365.20 839.21 357.80 858.19 349.18 C 861.47 347.74 864.72 344.90 864.63 341.02 C 864.77 336.86 861.43 333.54 857.74 332.20 C 840.69 324.63 823.38 317.68 806.16 310.52 C 800.89 308.14 795.63 305.52 791.25 301.70 C 785.18 296.55 780.63 289.76 777.65 282.41 C 770.05 263.88 762.75 245.23 755.31 226.63 C 753.97 222.59 749.77 219.14 745.35 220.52 M 148.46 245.60 C 134.34 248.31 122.16 259.22 117.91 272.95 C 114.85 281.31 115.95 290.32 115.76 299.02 C 115.76 459.35 115.78 619.68 115.77 780.01 C 115.87 791.46 120.76 802.98 129.56 810.43 C 136.37 816.90 145.60 820.57 154.98 820.77 C 251.61 820.77 348.24 820.77 444.88 820.77 C 449.19 829.68 455.56 837.84 464.31 842.74 C 478.52 851.56 495.70 853.36 512.08 853.44 C 528.15 853.48 544.94 851.58 559.00 843.18 C 567.93 838.18 574.86 830.04 579.06 820.77 C 609.57 820.76 640.07 820.81 670.58 820.75 C 656.55 806.68 642.91 792.17 628.69 778.31 C 599.14 777.99 569.54 778.26 539.98 778.17 C 424.68 778.15 309.38 778.19 194.08 778.17 C 186.59 778.16 179.10 775.38 173.66 770.20 C 167.26 764.36 163.68 755.71 163.92 747.06 C 164.25 722.39 164.06 697.70 164.13 673.02 C 164.16 530.26 164.18 387.50 164.18 244.74 C 158.93 244.68 153.61 244.39 148.46 245.60 M 859.90 244.68 C 860.03 266.83 860.12 288.99 860.09 311.14 C 864.38 312.95 868.92 314.39 872.70 317.21 C 878.55 321.51 883.10 327.87 884.43 335.10 C 886.33 343.99 883.78 353.84 877.40 360.40 C 872.81 365.57 866.25 368.03 860.18 370.90 C 859.45 375.56 860.28 380.31 860.05 385.01 C 859.58 397.00 860.32 409.00 859.91 420.98 C 859.93 445.31 859.81 469.64 860.09 493.96 C 859.70 536.32 860.28 578.69 859.90 621.06 C 868.23 612.94 875.43 603.70 884.06 595.87 C 890.83 589.78 899.46 586.15 908.30 584.30 C 908.40 484.84 908.30 385.39 908.36 285.94 C 908.42 270.01 898.58 254.34 883.76 248.17 C 876.32 244.66 867.97 244.43 859.90 244.68 M 261.46 308.32 C 249.55 317.92 242.86 332.98 241.73 348.04 C 240.86 364.10 247.21 379.72 256.66 392.45 C 263.37 402.20 271.49 410.84 279.66 419.36 C 299.90 439.54 321.52 458.28 343.62 476.39 C 359.54 463.54 374.98 450.10 390.10 436.33 C 402.81 424.34 415.50 412.20 426.31 398.42 C 434.85 387.81 442.06 375.66 444.63 362.13 C 447.40 348.30 444.77 333.48 437.46 321.43 C 430.79 309.79 419.08 301.18 406.02 298.18 C 391.91 294.67 376.27 297.00 364.15 305.16 C 356.04 310.61 349.77 318.26 343.95 326.00 C 338.49 319.81 333.91 312.73 327.20 307.75 C 308.68 292.85 279.61 292.81 261.46 308.32 M 893.25 615.21 C 844.06 667.91 795.30 721.01 746.01 773.62 C 727.56 754.53 708.93 735.58 690.21 716.74 C 677.36 704.35 654.30 704.85 642.75 718.76 C 632.17 730.00 631.37 748.97 641.07 760.99 C 647.25 768.45 654.62 774.79 661.20 781.87 C 681.20 802.20 701.07 822.65 721.08 842.96 C 732.20 855.02 752.15 856.79 765.65 847.79 C 770.67 844.54 774.28 839.67 778.45 835.47 C 833.54 776.24 888.58 716.95 943.89 657.93 C 954.07 646.05 953.85 627.02 943.72 615.21 C 936.31 606.46 924.26 602.04 912.96 604.01 C 905.27 605.15 898.44 609.58 893.25 615.21 M 198.96 714.45 C 194.06 714.75 189.19 713.60 184.62 711.91 C 184.53 723.28 184.60 734.65 184.49 746.03 C 183.77 751.69 188.05 757.82 194.06 757.69 C 289.96 757.76 385.86 757.72 481.76 757.71 C 475.81 753.32 469.48 749.43 462.92 746.03 C 447.56 738.39 431.51 732.14 414.96 727.60 C 344.88 708.19 270.89 705.60 198.96 714.45 M 591.99 733.02 C 574.54 739.23 557.46 746.93 542.30 757.68 C 566.95 757.81 591.60 757.67 616.25 757.73 C 612.56 747.55 612.55 736.26 615.71 725.95 C 607.65 727.77 599.78 730.33 591.99 733.02 Z" style="fill: none !important;"/></g><g id="#000000ff" stroke="#000" stroke-width=".094" style="fill: rgb(0, 0, 0) !important; stroke: rgb(0, 0, 0) !important;"><path d="M281.78 184.94C281.81 177.36 288.54 170.79 296.04 170.61 327.69 170.61 359.35 170.59 391.01 170.61 398.74 170.49 405.32 177.51 405.43 185.1 405.58 215.79 405.33 246.48 405.5 277.17 387.02 274.14 367.25 278.03 351.81 288.8 348.87 290.49 346.53 293.39 343.57 294.78 327.01 279.87 303.62 273.27 281.7 277.23 281.82 246.47 281.69 215.7 281.78 184.94zM831.79 173.78C832.84 171.37 836.12 171.21 837.4 173.51 841.35 182.09 844.48 191.05 848.54 199.58 849.84 202.53 852.83 204.06 855.63 205.31 863.3 208.63 871.07 211.75 878.58 215.4 881.12 216.17 881.81 220.09 879.18 221.18 870.67 225.57 861.5 228.56 852.95 232.86 849.23 234.53 848.04 238.73 846.49 242.13 844.15 248.22 841.23 254.12 839.44 260.39 839.26 274.28 839.44 288.19 839.4 302.09 829.7 298 819.89 294.14 810.29 289.85 804.27 286.85 799.36 281.69 796.7 275.52 788.89 256.82 781.91 237.76 773.76 219.21 778.24 218.66 782.75 218.92 787.25 219.13 788.68 217.96 789.24 215.85 791.12 215.15 799.32 211.23 807.87 208.08 816.08 204.17 818.36 203.11 820.07 201.14 821.08 198.86 824.88 190.61 828.01 182.04 831.79 173.78zM624.83 215.4C661 207.45 698 203.55 735.01 202.8 727.24 206.12 722.05 213.42 719.26 221.16 712.13 238.79 705.31 256.54 698.11 274.13 696.44 278.14 694.29 282.05 691.06 285.02 686.86 288.99 681.33 290.98 676.16 293.31 667.23 297.05 658.28 300.74 649.45 304.71 640.99 308.48 632.23 311.61 623.98 315.84 612.88 321.9 606.71 335.77 610.16 348.03 612.08 355.56 617.34 362.02 623.98 365.94 640.83 374.23 658.6 380.51 675.67 388.32 680.84 390.6 686.39 392.49 690.61 396.41 695.21 400.63 697.48 406.62 699.79 412.27 707.08 429.7 713.65 447.42 721.01 464.82 725.77 475.5 737.17 483.04 748.98 482.27 759.75 481.65 769.37 474.19 773.69 464.46 781.52 445.54 788.71 426.36 796.67 407.49 798.76 402.41 802.11 397.81 806.53 394.52 811.23 391.13 816.89 389.58 822.11 387.22 827.86 384.64 833.58 381.98 839.45 379.66 839.27 467.49 839.43 555.33 839.38 643.16 837.17 646.32 834.05 648.75 831.51 651.66 819.32 664.89 806.95 677.97 794.79 691.24 760.23 688.21 725.31 688.44 690.81 692.17 683.71 689.92 676.56 687.35 669.01 687.28 656.85 686.73 644.59 690.58 634.9 697.92 633.18 699.12 631.63 700.72 629.55 701.27 591.65 710.23 553.52 722.92 522.35 747.02 522.16 585.15 522.26 423.29 522.29 261.42 535.91 248.67 552.56 239.72 569.62 232.47 587.47 225.16 605.95 219.41 624.83 215.4z" style="fill: rgb(0, 0, 0) !important; stroke: rgb(0, 0, 0) !important;"/><path d="M196.87 206.34C218.32 204.34 239.85 203.05 261.4 202.73 261.37 229.74 261.41 256.76 261.31 283.77 247.01 291.34 235.08 303.59 228.59 318.47 220.36 336.24 218.89 357.17 225.18 375.77 229.36 388.9 236.85 400.71 245.22 411.55 250.23 418.08 256.07 423.89 261.41 430.13 261.27 464.73 261.27 499.34 261.36 533.94 261.16 543.18 269.68 551.64 279.01 550.85 285.77 550.71 290.66 545.53 295.61 541.62 311.69 529.02 327.55 516.15 343.73 503.69 360.46 516.82 377.21 529.91 393.92 543.07 397.97 546.51 402.35 550.32 407.9 550.77 415.18 551.75 422.61 546.77 424.82 539.84 425.96 536.7 425.77 533.32 425.8 530.05 425.73 496.76 425.83 463.47 425.73 430.19 436.34 418.49 447.28 406.77 454.71 392.7 463.18 377.7 467.76 360.17 465.56 342.92 463.28 322.05 452.49 301.91 435.41 289.47 432.36 287.11 428.94 285.33 425.7 283.25 425.8 262.91 425.77 242.57 425.71 222.22 446.04 228.5 466.16 236.23 484.09 247.86 490.42 251.78 496.36 256.32 501.69 261.52 501.81 423.36 501.7 585.21 501.71 747.06 470.63 722.79 432.44 710.17 394.53 701.21 333.36 688.02 270.09 686.36 207.98 692.92 202.72 693.36 197.18 695.2 192.09 693.01 187.66 691.31 184.59 686.8 184.56 682.06 184.56 527.72 184.53 373.38 184.58 219.04 184.55 212.42 190.36 206.71 196.87 206.34zM745.35 220.52C749.77 219.14 753.97 222.59 755.31 226.63 762.75 245.23 770.05 263.88 777.65 282.41 780.63 289.76 785.18 296.55 791.25 301.7 795.63 305.52 800.89 308.14 806.16 310.52 823.38 317.68 840.69 324.63 857.74 332.2 861.43 333.54 864.77 336.86 864.63 341.02 864.72 344.9 861.47 347.74 858.19 349.18 839.21 357.8 819.67 365.2 800.82 374.1 790.05 378.98 782.1 388.68 777.72 399.48 770.37 417.56 763.28 435.73 756.17 453.9 754.83 457.88 751.61 461.98 746.99 461.74 742.73 461.75 740.19 457.73 738.7 454.26 730.6 435.21 723.43 415.78 715.25 396.76 712.96 391.7 709.81 387.03 706.08 382.93 699.91 376.45 691.56 372.78 683.47 369.34 668.73 362.56 653.57 356.78 638.73 350.22 635.54 348.79 631.68 347.34 630.41 343.75 628.57 339.4 631.5 334.41 635.64 332.72 653.42 325.12 671.34 317.82 689.09 310.13 697.13 306.76 704.59 301.65 709.78 294.56 713.83 289.48 716.18 283.35 718.63 277.4 725.73 260.77 732.03 243.82 739.13 227.19 740.3 224.34 742.12 221.28 745.35 220.52z" style="fill: rgb(0, 0, 0) !important; stroke: rgb(0, 0, 0) !important;"/><path d="M148.46 245.6C153.61 244.39 158.93 244.68 164.18 244.74 164.18 387.5 164.16 530.26 164.13 673.02 164.06 697.7 164.25 722.39 163.92 747.06 163.68 755.71 167.26 764.36 173.66 770.2 179.1 775.38 186.59 778.16 194.08 778.17 309.38 778.19 424.68 778.15 539.98 778.17 569.54 778.26 599.14 777.99 628.69 778.31 642.91 792.17 656.55 806.68 670.58 820.75 640.07 820.81 609.57 820.76 579.06 820.77 574.86 830.04 567.93 838.18 559 843.18 544.94 851.58 528.15 853.48 512.08 853.44 495.7 853.36 478.52 851.56 464.31 842.74 455.56 837.84 449.19 829.68 444.88 820.77 348.24 820.77 251.61 820.77 154.98 820.77 145.6 820.57 136.37 816.9 129.56 810.43 120.76 802.98 115.87 791.46 115.77 780.01 115.78 619.68 115.76 459.35 115.76 299.02 115.95 290.32 114.85 281.31 117.91 272.95 122.16 259.22 134.34 248.31 148.46 245.6zM859.9 244.68C867.97 244.43 876.32 244.66 883.76 248.17 898.58 254.34 908.42 270.01 908.36 285.94 908.3 385.39 908.4 484.84 908.3 584.3 899.46 586.15 890.83 589.78 884.06 595.87 875.43 603.7 868.23 612.94 859.9 621.06 860.28 578.69 859.7 536.32 860.09 493.96 859.81 469.64 859.93 445.31 859.91 420.98 860.32 409 859.58 397 860.05 385.01 860.28 380.31 859.45 375.56 860.18 370.9 866.25 368.03 872.81 365.57 877.4 360.4 883.78 353.84 886.33 343.99 884.43 335.1 883.1 327.87 878.55 321.51 872.7 317.21 868.92 314.39 864.38 312.95 860.09 311.14 860.12 288.99 860.03 266.83 859.9 244.68z" style="fill: rgb(0, 0, 0) !important; stroke: rgb(0, 0, 0) !important;"/><path d="M261.46 308.32C279.61 292.81 308.68 292.85 327.2 307.75 333.91 312.73 338.49 319.81 343.95 326 349.77 318.26 356.04 310.61 364.15 305.16 376.27 297 391.91 294.67 406.02 298.18 419.08 301.18 430.79 309.79 437.46 321.43 444.77 333.48 447.4 348.3 444.63 362.13 442.06 375.66 434.85 387.81 426.31 398.42 415.5 412.2 402.81 424.34 390.1 436.33 374.98 450.1 359.54 463.54 343.62 476.39 321.52 458.28 299.9 439.54 279.66 419.36 271.49 410.84 263.37 402.2 256.66 392.45 247.21 379.72 240.86 364.1 241.73 348.04 242.86 332.98 249.55 317.92 261.46 308.32zM893.25 615.21C898.44 609.58 905.27 605.15 912.96 604.01 924.26 602.04 936.31 606.46 943.72 615.21 953.85 627.02 954.07 646.05 943.89 657.93 888.58 716.95 833.54 776.24 778.45 835.47 774.28 839.67 770.67 844.54 765.65 847.79 752.15 856.79 732.2 855.02 721.08 842.96 701.07 822.65 681.2 802.2 661.2 781.87 654.62 774.79 647.25 768.45 641.07 760.99 631.37 748.97 632.17 730 642.75 718.76 654.3 704.85 677.36 704.35 690.21 716.74 708.93 735.58 727.56 754.53 746.01 773.62 795.3 721.01 844.06 667.91 893.25 615.21zM198.96 714.45C270.89 705.6 344.88 708.19 414.96 727.6 431.51 732.14 447.56 738.39 462.92 746.03 469.48 749.43 475.81 753.32 481.76 757.71 385.86 757.72 289.96 757.76 194.06 757.69 188.05 757.82 183.77 751.69 184.49 746.03 184.6 734.65 184.53 723.28 184.62 711.91 189.19 713.6 194.06 714.75 198.96 714.45zM591.99 733.02C599.78 730.33 607.65 727.77 615.71 725.95 612.55 736.26 612.56 747.55 616.25 757.73 591.6 757.67 566.95 757.81 542.3 757.68 557.46 746.93 574.54 739.23 591.99 733.02z" style="fill: rgb(0, 0, 0) !important; stroke: rgb(0, 0, 0) !important;"/></g></svg>