<svg xmlns="http://www.w3.org/2000/svg" viewBox="-0.5 -0.5 781 781" version="1.1" width="32" height="32" style="">
<path fill="#ffffff" opacity="1.00" d=" M 0.00 0.00 L 780.00 0.00 L 780.00 780.00 L 0.00 780.00 L 0.00 0.00 M 489.40 70.56 C 484.53 72.23 481.31 77.98 482.86 82.98 C 484.74 87.49 488.84 90.44 491.90 94.08 C 495.69 98.61 499.73 102.93 504.00 107.01 C 507.59 110.37 513.67 110.63 517.47 107.47 C 521.85 104.05 521.74 96.86 518.00 93.01 C 511.97 86.35 506.09 79.55 499.92 73.02 C 497.27 70.08 493.04 69.76 489.40 70.56 M 648.58 71.60 C 644.47 74.80 641.36 79.06 637.94 82.94 C 634.58 86.61 631.05 90.14 628.07 94.12 C 625.85 96.97 625.89 100.94 626.79 104.27 C 628.61 107.51 632.18 109.90 635.99 109.58 C 640.91 109.85 644.20 105.49 647.31 102.33 C 652.34 96.41 658.14 91.16 662.79 84.93 C 666.48 79.75 662.72 72.20 657.05 70.48 C 654.24 70.14 651.01 69.85 648.58 71.60 M 570.63 72.70 C 568.19 73.80 566.43 75.93 565.33 78.32 C 556.60 96.00 548.03 113.75 539.34 131.44 C 538.28 134.38 534.69 134.16 532.14 134.65 C 513.80 137.65 495.35 140.05 477.03 143.14 C 473.10 143.65 469.16 146.79 469.42 151.05 C 468.96 154.21 471.25 156.65 473.33 158.67 C 481.99 167.01 490.54 175.46 499.09 183.91 C 504.73 189.28 510.52 194.50 515.93 200.10 C 517.14 201.28 516.48 203.17 516.41 204.65 C 512.83 223.09 509.75 241.63 506.54 260.14 C 505.83 264.23 506.15 269.46 510.43 271.47 C 514.93 274.18 519.61 270.92 523.54 268.76 C 539.88 260.31 556.05 251.52 572.33 242.95 C 573.57 242.02 574.93 243.34 576.13 243.73 C 593.60 253.01 611.02 262.39 628.55 271.55 C 631.87 273.30 636.38 272.83 638.83 269.83 C 641.51 267.00 640.75 262.82 640.42 259.31 C 636.98 241.47 634.24 223.50 630.63 205.69 C 630.50 203.63 629.50 200.90 631.51 199.45 C 645.83 185.45 660.48 171.80 674.60 157.61 C 677.06 155.26 678.58 151.43 676.70 148.28 C 675.28 144.69 671.47 143.15 667.90 142.71 C 649.18 139.64 630.38 137.10 611.65 134.08 C 609.89 133.86 608.34 132.95 607.68 131.25 C 598.74 113.45 590.20 95.44 581.31 77.61 C 579.52 73.51 574.93 71.32 570.63 72.70 M 159.59 181.96 C 159.46 207.50 159.51 233.04 159.56 258.58 C 178.82 255.58 199.37 259.26 215.67 270.23 C 220.79 273.53 225.26 277.69 229.88 281.64 C 239.87 271.69 252.07 263.72 265.86 260.31 C 276.76 257.20 288.23 256.92 299.39 258.60 C 299.39 233.40 299.40 208.21 299.41 183.01 C 299.25 176.04 301.20 168.98 305.11 163.19 C 307.36 159.82 310.59 157.32 313.40 154.46 C 271.94 154.22 230.47 154.44 189.01 154.34 C 173.79 153.31 159.97 166.94 159.59 181.96 M 326.55 165.32 C 319.50 167.95 315.65 175.71 315.71 182.92 C 315.76 192.67 315.66 202.41 315.73 212.16 C 333.16 216.15 350.69 220.51 366.82 228.41 C 371.32 230.68 375.91 232.95 379.80 236.21 C 381.32 237.36 382.27 239.20 382.31 241.12 C 382.29 368.73 382.34 496.35 382.30 623.96 C 381.00 623.51 379.72 623.01 378.49 622.42 C 361.77 613.94 343.56 608.99 325.37 604.83 C 300.62 599.42 275.32 597.08 250.04 596.47 C 197.66 595.30 145.40 601.15 94.04 611.21 C 90.77 611.80 87.35 612.13 84.08 611.40 C 80.04 609.50 76.91 605.55 76.69 601.01 C 76.67 477.68 76.70 354.34 76.67 231.01 C 76.83 227.04 75.99 222.80 77.93 219.13 C 79.32 215.87 82.70 214.00 86.08 213.51 C 101.11 211.03 116.19 208.80 131.31 206.95 C 134.70 206.19 138.42 207.02 141.56 205.28 C 141.41 198.66 141.58 192.03 141.48 185.41 C 125.25 186.66 109.10 189.06 93.02 191.58 C 86.11 192.69 78.97 193.40 72.61 196.53 C 65.53 199.76 60.26 206.25 57.76 213.54 C 55.60 219.25 56.48 225.47 56.29 231.43 C 49.87 232.74 43.23 234.67 38.45 239.41 C 32.23 244.75 28.43 252.81 28.42 261.01 C 28.43 385.01 28.39 509.01 28.43 633.01 C 28.14 648.52 41.36 662.91 56.98 663.39 C 151.68 663.51 246.38 663.31 341.08 663.50 C 349.45 680.65 367.04 692.77 386.02 694.57 C 392.91 694.76 399.97 695.17 406.70 693.33 C 422.71 689.53 437.00 678.48 444.05 663.53 C 538.72 663.26 633.40 663.55 728.08 663.41 C 743.32 663.05 756.98 649.32 756.72 633.98 C 756.78 509.65 756.73 385.32 756.73 260.99 C 756.88 254.16 754.13 247.45 749.79 242.25 C 744.77 235.99 737.08 232.81 729.35 231.49 C 729.98 221.88 728.88 211.31 722.09 203.89 C 715.42 195.69 704.51 192.56 694.32 192.26 C 694.80 192.08 695.30 191.90 695.80 191.72 C 687.48 191.27 679.36 189.05 671.04 188.48 C 665.05 194.51 658.62 200.08 652.84 206.32 C 655.86 207.78 659.27 207.36 662.49 207.95 C 675.00 209.70 687.52 211.40 699.97 213.59 C 704.79 214.41 708.99 218.90 708.56 223.95 C 708.59 348.98 708.54 474.01 708.57 599.03 C 708.89 603.37 706.95 607.96 703.23 610.35 C 700.55 612.23 697.08 611.84 694.01 611.57 C 661.90 605.56 629.56 600.42 596.97 598.11 C 589.48 597.00 581.85 597.81 574.36 596.75 C 560.90 596.25 547.42 596.35 533.95 596.51 C 526.93 596.45 519.98 597.61 512.96 597.52 C 482.53 599.76 452.14 605.14 423.32 615.37 C 416.44 617.73 410.05 621.23 403.37 624.05 C 403.19 497.70 403.41 371.35 403.27 245.01 C 403.40 242.06 402.55 238.34 405.43 236.40 C 412.30 230.61 420.76 227.10 429.03 223.80 C 450.24 215.61 472.71 211.41 495.07 207.82 C 490.13 201.18 483.37 196.11 477.44 190.37 C 476.42 189.06 474.80 190.01 473.54 190.19 C 460.59 192.96 447.66 195.83 435.02 199.79 C 420.21 204.67 405.27 210.30 392.85 219.97 C 380.43 210.92 366.19 204.84 351.66 200.08 C 351.63 194.03 351.62 187.99 351.53 181.95 C 351.56 178.31 350.15 174.83 348.33 171.75 C 343.90 164.70 334.10 161.92 326.55 165.32 M 268.81 279.80 C 251.43 284.62 238.64 298.72 229.52 313.61 C 225.83 308.91 222.60 303.86 218.83 299.21 C 207.97 285.98 191.34 276.96 173.99 277.37 C 161.75 276.88 149.25 280.11 139.06 286.99 C 124.39 296.19 114.36 312.09 111.68 329.14 C 108.67 346.45 112.58 364.55 120.97 379.87 C 128.02 393.52 138.35 405.04 148.57 416.37 C 169.46 437.94 192.17 457.69 215.68 476.37 C 219.05 478.85 222.12 481.94 226.04 483.58 C 229.39 484.09 233.24 484.23 235.99 481.88 C 262.92 460.76 289.12 438.54 312.54 413.53 C 327.45 397.87 340.91 379.73 345.96 358.34 C 348.29 349.74 347.83 340.75 347.55 331.95 C 346.11 318.60 340.17 305.79 331.01 295.98 C 321.39 285.70 308.03 279.05 294.04 277.53 C 285.58 277.09 276.93 277.04 268.81 279.80 M 627.59 347.72 C 624.64 349.28 622.77 352.14 620.49 354.46 C 613.19 361.86 606.82 370.11 599.56 377.56 C 578.44 401.52 556.95 425.16 535.80 449.10 C 534.39 448.68 533.18 447.89 532.24 446.77 C 520.32 434.36 508.20 422.14 496.02 409.98 C 494.39 408.32 492.23 407.30 490.02 406.68 C 486.26 406.50 482.99 408.92 480.57 411.57 C 476.07 416.43 471.04 420.76 466.58 425.66 C 462.94 429.46 463.56 436.08 467.51 439.46 C 488.25 460.05 508.34 481.28 528.93 502.02 C 530.73 504.04 533.27 505.15 536.00 504.83 C 540.87 505.40 543.94 501.04 546.78 497.83 C 581.32 459.03 615.82 420.18 650.76 381.74 C 653.13 378.84 656.66 376.10 656.48 371.98 C 656.71 367.62 653.19 364.43 650.24 361.76 C 645.37 357.62 641.11 352.82 636.16 348.79 C 633.83 346.73 630.40 347.26 627.59 347.72 Z" style="fill: none !important;"/>
<path fill="#000000" opacity="1.00" d=" M 489.40 70.56 C 493.04 69.76 497.27 70.08 499.92 73.02 C 506.09 79.55 511.97 86.35 518.00 93.01 C 521.74 96.86 521.85 104.05 517.47 107.47 C 513.67 110.63 507.59 110.37 504.00 107.01 C 499.73 102.93 495.69 98.61 491.90 94.08 C 488.84 90.44 484.74 87.49 482.86 82.98 C 481.31 77.98 484.53 72.23 489.40 70.56 Z" style="fill: rgb(0, 0, 0) !important;"/>
<path fill="#000000" opacity="1.00" d=" M 648.58 71.60 C 651.01 69.85 654.24 70.14 657.05 70.48 C 662.72 72.20 666.48 79.75 662.79 84.93 C 658.14 91.16 652.34 96.41 647.31 102.33 C 644.20 105.49 640.91 109.85 635.99 109.58 C 632.18 109.90 628.61 107.51 626.79 104.27 C 625.89 100.94 625.85 96.97 628.07 94.12 C 631.05 90.14 634.58 86.61 637.94 82.94 C 641.36 79.06 644.47 74.80 648.58 71.60 Z" style="fill: rgb(0, 0, 0) !important;"/>
<path fill="#000000" opacity="1.00" d=" M 570.63 72.70 C 574.93 71.32 579.52 73.51 581.31 77.61 C 590.20 95.44 598.74 113.45 607.68 131.25 C 608.34 132.95 609.89 133.86 611.65 134.08 C 630.38 137.10 649.18 139.64 667.90 142.71 C 671.47 143.15 675.28 144.69 676.70 148.28 C 678.58 151.43 677.06 155.26 674.60 157.61 C 660.48 171.80 645.83 185.45 631.51 199.45 C 629.50 200.90 630.50 203.63 630.63 205.69 C 634.24 223.50 636.98 241.47 640.42 259.31 C 640.75 262.82 641.51 267.00 638.83 269.83 C 636.38 272.83 631.87 273.30 628.55 271.55 C 611.02 262.39 593.60 253.01 576.13 243.73 C 574.93 243.34 573.57 242.02 572.33 242.95 C 556.05 251.52 539.88 260.31 523.54 268.76 C 519.61 270.92 514.93 274.18 510.43 271.47 C 506.15 269.46 505.83 264.23 506.54 260.14 C 509.75 241.63 512.83 223.09 516.41 204.65 C 516.48 203.17 517.14 201.28 515.93 200.10 C 510.52 194.50 504.73 189.28 499.09 183.91 C 490.54 175.46 481.99 167.01 473.33 158.67 C 471.25 156.65 468.96 154.21 469.42 151.05 C 469.16 146.79 473.10 143.65 477.03 143.14 C 495.35 140.05 513.80 137.65 532.14 134.65 C 534.69 134.16 538.28 134.38 539.34 131.44 C 548.03 113.75 556.60 96.00 565.33 78.32 C 566.43 75.93 568.19 73.80 570.63 72.70 Z" style="fill: rgb(0, 0, 0) !important;"/>
<path fill="#000000" opacity="1.00" d=" M 159.59 181.96 C 159.97 166.94 173.79 153.31 189.01 154.34 C 230.47 154.44 271.94 154.22 313.40 154.46 C 310.59 157.32 307.36 159.82 305.11 163.19 C 301.20 168.98 299.25 176.04 299.41 183.01 C 299.40 208.21 299.39 233.40 299.39 258.60 C 288.23 256.92 276.76 257.20 265.86 260.31 C 252.07 263.72 239.87 271.69 229.88 281.64 C 225.26 277.69 220.79 273.53 215.67 270.23 C 199.37 259.26 178.82 255.58 159.56 258.58 C 159.51 233.04 159.46 207.50 159.59 181.96 Z" style="fill: rgb(0, 0, 0) !important;"/>
<path fill="#000000" opacity="1.00" d=" M 326.55 165.32 C 334.10 161.92 343.90 164.70 348.33 171.75 C 350.15 174.83 351.56 178.31 351.53 181.95 C 351.62 187.99 351.63 194.03 351.66 200.08 C 366.19 204.84 380.43 210.92 392.85 219.97 C 405.27 210.30 420.21 204.67 435.02 199.79 C 447.66 195.83 460.59 192.96 473.54 190.19 C 474.80 190.01 476.42 189.06 477.44 190.37 C 483.37 196.11 490.13 201.18 495.07 207.82 C 472.71 211.41 450.24 215.61 429.03 223.80 C 420.76 227.10 412.30 230.61 405.43 236.40 C 402.55 238.34 403.40 242.06 403.27 245.01 C 403.41 371.35 403.19 497.70 403.37 624.05 C 410.05 621.23 416.44 617.73 423.32 615.37 C 452.14 605.14 482.53 599.76 512.96 597.52 C 519.98 597.61 526.93 596.45 533.95 596.51 C 547.42 596.35 560.90 596.25 574.36 596.75 C 581.85 597.81 589.48 597.00 596.97 598.11 C 629.56 600.42 661.90 605.56 694.01 611.57 C 697.08 611.84 700.55 612.23 703.23 610.35 C 706.95 607.96 708.89 603.37 708.57 599.03 C 708.54 474.01 708.59 348.98 708.56 223.95 C 708.99 218.90 704.79 214.41 699.97 213.59 C 687.52 211.40 675.00 209.70 662.49 207.95 C 659.27 207.36 655.86 207.78 652.84 206.32 C 658.62 200.08 665.05 194.51 671.04 188.48 C 679.36 189.05 687.48 191.27 695.80 191.72 C 695.30 191.90 694.80 192.08 694.32 192.26 C 704.51 192.56 715.42 195.69 722.09 203.89 C 728.88 211.31 729.98 221.88 729.35 231.49 C 737.08 232.81 744.77 235.99 749.79 242.25 C 754.13 247.45 756.88 254.16 756.73 260.99 C 756.73 385.32 756.78 509.65 756.72 633.98 C 756.98 649.32 743.32 663.05 728.08 663.41 C 633.40 663.55 538.72 663.26 444.05 663.53 C 437.00 678.48 422.71 689.53 406.70 693.33 C 399.97 695.17 392.91 694.76 386.02 694.57 C 367.04 692.77 349.45 680.65 341.08 663.50 C 246.38 663.31 151.68 663.51 56.98 663.39 C 41.36 662.91 28.14 648.52 28.43 633.01 C 28.39 509.01 28.43 385.01 28.42 261.01 C 28.43 252.81 32.23 244.75 38.45 239.41 C 43.23 234.67 49.87 232.74 56.29 231.43 C 56.48 225.47 55.60 219.25 57.76 213.54 C 60.26 206.25 65.53 199.76 72.61 196.53 C 78.97 193.40 86.11 192.69 93.02 191.58 C 109.10 189.06 125.25 186.66 141.48 185.41 C 141.58 192.03 141.41 198.66 141.56 205.28 C 138.42 207.02 134.70 206.19 131.31 206.95 C 116.19 208.80 101.11 211.03 86.08 213.51 C 82.70 214.00 79.32 215.87 77.93 219.13 C 75.99 222.80 76.83 227.04 76.67 231.01 C 76.70 354.34 76.67 477.68 76.69 601.01 C 76.91 605.55 80.04 609.50 84.08 611.40 C 87.35 612.13 90.77 611.80 94.04 611.21 C 145.40 601.15 197.66 595.30 250.04 596.47 C 275.32 597.08 300.62 599.42 325.37 604.83 C 343.56 608.99 361.77 613.94 378.49 622.42 C 379.72 623.01 381.00 623.51 382.30 623.96 C 382.34 496.35 382.29 368.73 382.31 241.12 C 382.27 239.20 381.32 237.36 379.80 236.21 C 375.91 232.95 371.32 230.68 366.82 228.41 C 350.69 220.51 333.16 216.15 315.73 212.16 C 315.66 202.41 315.76 192.67 315.71 182.92 C 315.65 175.71 319.50 167.95 326.55 165.32 Z" style="fill: rgb(0, 0, 0) !important;"/>
<path fill="#000000" opacity="1.00" d=" M 268.81 279.80 C 276.93 277.04 285.58 277.09 294.04 277.53 C 308.03 279.05 321.39 285.70 331.01 295.98 C 340.17 305.79 346.11 318.60 347.55 331.95 C 347.83 340.75 348.29 349.74 345.96 358.34 C 340.91 379.73 327.45 397.87 312.54 413.53 C 289.12 438.54 262.92 460.76 235.99 481.88 C 233.24 484.23 229.39 484.09 226.04 483.58 C 222.12 481.94 219.05 478.85 215.68 476.37 C 192.17 457.69 169.46 437.94 148.57 416.37 C 138.35 405.04 128.02 393.52 120.97 379.87 C 112.58 364.55 108.67 346.45 111.68 329.14 C 114.36 312.09 124.39 296.19 139.06 286.99 C 149.25 280.11 161.75 276.88 173.99 277.37 C 191.34 276.96 207.97 285.98 218.83 299.21 C 222.60 303.86 225.83 308.91 229.52 313.61 C 238.64 298.72 251.43 284.62 268.81 279.80 Z" style="fill: rgb(0, 0, 0) !important;"/>
<path fill="#000000" opacity="1.00" d=" M 627.59 347.72 C 630.40 347.26 633.83 346.73 636.16 348.79 C 641.11 352.82 645.37 357.62 650.24 361.76 C 653.19 364.43 656.71 367.62 656.48 371.98 C 656.66 376.10 653.13 378.84 650.76 381.74 C 615.82 420.18 581.32 459.03 546.78 497.83 C 543.94 501.04 540.87 505.40 536.00 504.83 C 533.27 505.15 530.73 504.04 528.93 502.02 C 508.34 481.28 488.25 460.05 467.51 439.46 C 463.56 436.08 462.94 429.46 466.58 425.66 C 471.04 420.76 476.07 416.43 480.57 411.57 C 482.99 408.92 486.26 406.50 490.02 406.68 C 492.23 407.30 494.39 408.32 496.02 409.98 C 508.20 422.14 520.32 434.36 532.24 446.77 C 533.18 447.89 534.39 448.68 535.80 449.10 C 556.95 425.16 578.44 401.52 599.56 377.56 C 606.82 370.11 613.19 361.86 620.49 354.46 C 622.77 352.14 624.64 349.28 627.59 347.72 Z" style="fill: rgb(0, 0, 0) !important;"/>
</svg>