<svg xmlns="http://www.w3.org/2000/svg" viewBox="237.17935180664062 229.74591064453125 549.7040100097656 564.3759765625" version="1.1" width="32" height="38" style="">
<path fill="#ffffff" opacity="1.00" d=" M 0.00 0.00 L 1024.00 0.00 L 1024.00 1024.00 L 0.00 1024.00 L 0.00 0.00 M 552.56 230.75 C 544.25 232.31 536.97 237.59 532.41 244.64 C 523.84 257.36 522.46 274.00 526.48 288.57 C 529.72 299.23 535.51 309.75 545.11 315.90 C 552.21 320.92 561.45 323.13 569.93 320.74 C 579.72 318.17 587.39 310.39 591.61 301.41 C 601.19 280.81 596.54 253.90 579.51 238.56 C 572.27 232.11 562.15 228.94 552.56 230.75 M 631.44 246.62 C 626.02 248.02 621.20 251.42 617.87 255.90 C 608.40 268.37 606.46 286.37 613.54 300.40 C 616.90 307.13 623.39 312.61 631.05 313.36 C 638.55 314.12 645.85 310.23 650.53 304.52 C 658.46 295.12 661.09 282.09 659.37 270.09 C 657.97 261.41 653.26 252.81 645.38 248.47 C 641.20 246.03 636.11 245.56 631.44 246.62 M 689.47 271.70 C 679.63 274.78 672.78 283.67 669.40 293.07 C 666.48 301.61 666.00 311.53 670.25 319.73 C 673.09 325.38 678.68 329.76 685.07 330.41 C 692.82 331.14 700.47 327.38 705.58 321.68 C 712.33 314.21 716.11 304.05 715.80 293.97 C 715.56 286.83 712.87 279.42 707.14 274.88 C 702.31 270.85 695.41 269.70 689.47 271.70 M 736.54 309.69 C 731.99 310.66 727.80 313.02 724.44 316.20 C 715.45 324.39 709.97 337.54 713.65 349.55 C 715.58 356.69 722.59 361.94 729.97 361.90 C 735.03 362.17 739.92 360.18 744.08 357.43 C 752.13 351.87 757.88 342.85 758.90 333.05 C 759.98 325.59 757.66 317.09 751.44 312.42 C 747.20 309.28 741.59 308.63 736.54 309.69 M 600.67 329.89 C 589.18 331.53 577.92 335.63 568.66 342.72 C 556.53 352.12 548.67 366.16 545.15 380.95 C 540.03 401.49 542.63 423.58 551.15 442.85 C 554.50 450.51 559.41 457.38 562.63 465.11 C 567.38 475.67 570.16 487.28 569.53 498.90 C 569.07 510.42 565.07 521.51 559.58 531.55 C 550.65 547.80 538.44 562.30 532.08 579.90 C 526.21 595.84 524.86 613.95 530.65 630.11 C 536.27 646.37 550.02 658.69 565.33 665.79 C 579.15 672.20 595.04 675.13 610.06 671.74 C 623.99 668.63 636.39 660.34 645.64 649.61 C 651.82 642.42 657.58 634.86 663.08 627.13 C 688.09 591.65 707.94 552.62 722.83 511.87 C 729.39 492.74 735.32 473.22 737.55 453.06 C 740.00 432.55 736.00 411.22 725.83 393.20 C 719.29 381.01 709.90 370.57 699.31 361.76 C 684.26 349.52 666.81 340.29 648.35 334.36 C 632.99 329.68 616.64 327.68 600.67 329.89 M 459.38 351.58 C 450.60 353.71 442.91 359.39 437.78 366.76 C 428.45 379.99 425.42 397.40 429.31 413.06 C 431.37 420.84 435.32 428.25 441.12 433.89 C 448.89 441.21 460.79 443.97 470.89 440.34 C 480.50 437.14 487.98 429.45 492.79 420.75 C 498.86 409.94 500.98 397.10 499.14 384.87 C 497.71 374.19 492.57 363.73 483.98 357.03 C 477.12 351.67 467.86 349.59 459.38 351.58 M 766.49 358.60 C 755.03 360.73 745.89 370.72 743.28 381.87 C 741.58 388.21 742.98 395.53 747.70 400.25 C 752.37 404.66 759.54 405.61 765.52 403.64 C 774.64 400.71 781.87 392.97 785.01 384.01 C 787.31 377.24 787.00 368.87 781.93 363.40 C 778.09 359.17 772.01 357.64 766.49 358.60 M 381.46 367.70 C 372.90 370.81 367.41 379.27 365.42 387.84 C 362.77 398.86 364.64 410.87 370.47 420.58 C 374.67 427.49 381.79 433.09 390.07 433.64 C 396.54 434.14 402.89 430.95 406.96 426.02 C 414.04 417.72 415.74 406.04 414.22 395.53 C 412.52 386.06 408.18 376.44 400.10 370.78 C 394.82 366.95 387.69 365.46 381.46 367.70 M 323.55 391.75 C 317.04 393.49 312.23 399.02 310.07 405.23 C 306.29 415.84 308.86 427.91 314.70 437.28 C 319.93 444.82 328.35 451.45 337.99 450.83 C 344.66 450.76 350.44 446.09 353.54 440.45 C 356.81 434.50 357.25 427.46 356.47 420.84 C 354.90 410.20 349.15 399.71 339.66 394.21 C 334.90 391.30 328.96 390.30 323.55 391.75 M 277.36 430.57 C 271.41 432.65 266.81 437.92 265.50 444.08 C 263.06 454.54 267.30 465.81 274.67 473.35 C 279.87 478.88 287.22 482.86 294.98 482.48 C 301.21 482.12 306.96 478.03 309.48 472.35 C 312.77 465.09 311.84 456.52 308.64 449.40 C 305.39 441.60 299.26 434.91 291.48 431.52 C 287.05 429.70 281.96 429.00 277.36 430.57 M 394.53 450.84 C 377.46 453.42 360.87 459.19 345.92 467.85 C 330.41 476.66 316.02 487.97 305.34 502.38 C 296.16 514.53 289.82 528.83 287.32 543.87 C 283.27 566.07 288.13 588.64 294.06 610.04 C 300.43 631.32 308.34 652.15 317.72 672.28 C 332.24 703.63 349.84 733.64 371.11 760.90 C 375.60 766.99 380.43 772.91 386.33 777.68 C 397.41 787.61 412.07 793.53 426.98 793.62 C 445.79 793.76 464.37 786.14 478.14 773.42 C 486.41 765.89 492.26 755.82 494.89 744.97 C 499.72 726.59 496.06 706.82 487.59 690.07 C 479.62 673.41 466.96 659.44 459.93 642.28 C 453.68 628.11 452.62 611.77 457.17 596.95 C 461.18 581.93 471.42 569.62 476.16 554.89 C 483.61 533.28 483.37 508.87 474.11 487.85 C 468.39 474.30 457.83 462.74 444.42 456.55 C 428.95 449.30 411.23 448.35 394.53 450.84 M 249.39 479.55 C 242.31 481.54 237.42 488.68 237.69 495.97 C 237.91 506.91 244.89 517.37 254.56 522.35 C 260.81 525.52 269.04 526.24 274.98 522.01 C 281.93 516.85 282.84 506.74 279.78 499.15 C 275.70 486.97 262.65 476.46 249.39 479.55 Z" style="fill: none !important;"/>
<path fill="#000000" opacity="1.00" d=" M 552.56 230.75 C 562.15 228.94 572.27 232.11 579.51 238.56 C 596.54 253.90 601.19 280.81 591.61 301.41 C 587.39 310.39 579.72 318.17 569.93 320.74 C 561.45 323.13 552.21 320.92 545.11 315.90 C 535.51 309.75 529.72 299.23 526.48 288.57 C 522.46 274.00 523.84 257.36 532.41 244.64 C 536.97 237.59 544.25 232.31 552.56 230.75 Z" style="fill: rgb(0, 0, 0) !important;"/>
<path fill="#000000" opacity="1.00" d=" M 631.44 246.62 C 636.11 245.56 641.20 246.03 645.38 248.47 C 653.26 252.81 657.97 261.41 659.37 270.09 C 661.09 282.09 658.46 295.12 650.53 304.52 C 645.85 310.23 638.55 314.12 631.05 313.36 C 623.39 312.61 616.90 307.13 613.54 300.40 C 606.46 286.37 608.40 268.37 617.87 255.90 C 621.20 251.42 626.02 248.02 631.44 246.62 Z" style="fill: rgb(0, 0, 0) !important;"/>
<path fill="#000000" opacity="1.00" d=" M 689.47 271.70 C 695.41 269.70 702.31 270.85 707.14 274.88 C 712.87 279.42 715.56 286.83 715.80 293.97 C 716.11 304.05 712.33 314.21 705.58 321.68 C 700.47 327.38 692.82 331.14 685.07 330.41 C 678.68 329.76 673.09 325.38 670.25 319.73 C 666.00 311.53 666.48 301.61 669.40 293.07 C 672.78 283.67 679.63 274.78 689.47 271.70 Z" style="fill: rgb(0, 0, 0) !important;"/>
<path fill="#000000" opacity="1.00" d=" M 736.54 309.69 C 741.59 308.63 747.20 309.28 751.44 312.42 C 757.66 317.09 759.98 325.59 758.90 333.05 C 757.88 342.85 752.13 351.87 744.08 357.43 C 739.92 360.18 735.03 362.17 729.97 361.90 C 722.59 361.94 715.58 356.69 713.65 349.55 C 709.97 337.54 715.45 324.39 724.44 316.20 C 727.80 313.02 731.99 310.66 736.54 309.69 Z" style="fill: rgb(0, 0, 0) !important;"/>
<path fill="#000000" opacity="1.00" d=" M 600.67 329.89 C 616.64 327.68 632.99 329.68 648.35 334.36 C 666.81 340.29 684.26 349.52 699.31 361.76 C 709.90 370.57 719.29 381.01 725.83 393.20 C 736.00 411.22 740.00 432.55 737.55 453.06 C 735.32 473.22 729.39 492.74 722.83 511.87 C 707.94 552.62 688.09 591.65 663.08 627.13 C 657.58 634.86 651.82 642.42 645.64 649.61 C 636.39 660.34 623.99 668.63 610.06 671.74 C 595.04 675.13 579.15 672.20 565.33 665.79 C 550.02 658.69 536.27 646.37 530.65 630.11 C 524.86 613.95 526.21 595.84 532.08 579.90 C 538.44 562.30 550.65 547.80 559.58 531.55 C 565.07 521.51 569.07 510.42 569.53 498.90 C 570.16 487.28 567.38 475.67 562.63 465.11 C 559.41 457.38 554.50 450.51 551.15 442.85 C 542.63 423.58 540.03 401.49 545.15 380.95 C 548.67 366.16 556.53 352.12 568.66 342.72 C 577.92 335.63 589.18 331.53 600.67 329.89 Z" style="fill: rgb(0, 0, 0) !important;"/>
<path fill="#000000" opacity="1.00" d=" M 459.38 351.58 C 467.86 349.59 477.12 351.67 483.98 357.03 C 492.57 363.73 497.71 374.19 499.14 384.87 C 500.98 397.10 498.86 409.94 492.79 420.75 C 487.98 429.45 480.50 437.14 470.89 440.34 C 460.79 443.97 448.89 441.21 441.12 433.89 C 435.32 428.25 431.37 420.84 429.31 413.06 C 425.42 397.40 428.45 379.99 437.78 366.76 C 442.91 359.39 450.60 353.71 459.38 351.58 Z" style="fill: rgb(0, 0, 0) !important;"/>
<path fill="#000000" opacity="1.00" d=" M 766.49 358.60 C 772.01 357.64 778.09 359.17 781.93 363.40 C 787.00 368.87 787.31 377.24 785.01 384.01 C 781.87 392.97 774.64 400.71 765.52 403.64 C 759.54 405.61 752.37 404.66 747.70 400.25 C 742.98 395.53 741.58 388.21 743.28 381.87 C 745.89 370.72 755.03 360.73 766.49 358.60 Z" style="fill: rgb(0, 0, 0) !important;"/>
<path fill="#000000" opacity="1.00" d=" M 381.46 367.70 C 387.69 365.46 394.82 366.95 400.10 370.78 C 408.18 376.44 412.52 386.06 414.22 395.53 C 415.74 406.04 414.04 417.72 406.96 426.02 C 402.89 430.95 396.54 434.14 390.07 433.64 C 381.79 433.09 374.67 427.49 370.47 420.58 C 364.64 410.87 362.77 398.86 365.42 387.84 C 367.41 379.27 372.90 370.81 381.46 367.70 Z" style="fill: rgb(0, 0, 0) !important;"/>
<path fill="#000000" opacity="1.00" d=" M 323.55 391.75 C 328.96 390.30 334.90 391.30 339.66 394.21 C 349.15 399.71 354.90 410.20 356.47 420.84 C 357.25 427.46 356.81 434.50 353.54 440.45 C 350.44 446.09 344.66 450.76 337.99 450.83 C 328.35 451.45 319.93 444.82 314.70 437.28 C 308.86 427.91 306.29 415.84 310.07 405.23 C 312.23 399.02 317.04 393.49 323.55 391.75 Z" style="fill: rgb(0, 0, 0) !important;"/>
<path fill="#000000" opacity="1.00" d=" M 277.36 430.57 C 281.96 429.00 287.05 429.70 291.48 431.52 C 299.26 434.91 305.39 441.60 308.64 449.40 C 311.84 456.52 312.77 465.09 309.48 472.35 C 306.96 478.03 301.21 482.12 294.98 482.48 C 287.22 482.86 279.87 478.88 274.67 473.35 C 267.30 465.81 263.06 454.54 265.50 444.08 C 266.81 437.92 271.41 432.65 277.36 430.57 Z" style="fill: rgb(0, 0, 0) !important;"/>
<path fill="#000000" opacity="1.00" d=" M 394.53 450.84 C 411.23 448.35 428.95 449.30 444.42 456.55 C 457.83 462.74 468.39 474.30 474.11 487.85 C 483.37 508.87 483.61 533.28 476.16 554.89 C 471.42 569.62 461.18 581.93 457.17 596.95 C 452.62 611.77 453.68 628.11 459.93 642.28 C 466.96 659.44 479.62 673.41 487.59 690.07 C 496.06 706.82 499.72 726.59 494.89 744.97 C 492.26 755.82 486.41 765.89 478.14 773.42 C 464.37 786.14 445.79 793.76 426.98 793.62 C 412.07 793.53 397.41 787.61 386.33 777.68 C 380.43 772.91 375.60 766.99 371.11 760.90 C 349.84 733.64 332.24 703.63 317.72 672.28 C 308.34 652.15 300.43 631.32 294.06 610.04 C 288.13 588.64 283.27 566.07 287.32 543.87 C 289.82 528.83 296.16 514.53 305.34 502.38 C 316.02 487.97 330.41 476.66 345.92 467.85 C 360.87 459.19 377.46 453.42 394.53 450.84 Z" style="fill: rgb(0, 0, 0) !important;"/>
<path fill="#000000" opacity="1.00" d=" M 249.39 479.55 C 262.65 476.46 275.70 486.97 279.78 499.15 C 282.84 506.74 281.93 516.85 274.98 522.01 C 269.04 526.24 260.81 525.52 254.56 522.35 C 244.89 517.37 237.91 506.91 237.69 495.97 C 237.42 488.68 242.31 481.54 249.39 479.55 Z" style="fill: rgb(0, 0, 0) !important;"/>
</svg>