<svg xmlns="http://www.w3.org/2000/svg" viewBox="171.68148803710938 216.82440185546875 680.7455139160156 590.7255859375" version="1.1" width="32" height="38" style="">
<path fill="#ffffff" opacity="1.00" d=" M 0.00 0.00 L 1024.00 0.00 L 1024.00 1024.00 L 0.00 1024.00 L 0.00 0.00 M 256.29 243.35 C 223.66 263.09 198.55 294.26 184.91 329.76 C 166.69 376.65 168.91 429.92 185.97 476.80 C 203.06 522.12 233.09 561.09 265.50 596.52 C 315.42 649.56 371.80 695.92 428.11 741.92 C 455.86 763.93 483.54 786.05 512.07 807.05 C 533.08 791.55 553.66 775.44 574.16 759.26 C 621.24 721.88 667.78 683.73 711.99 642.96 C 734.83 621.48 757.28 599.47 777.35 575.34 C 798.79 549.84 818.27 522.34 832.01 491.87 C 848.76 454.87 855.40 413.21 850.19 372.88 C 844.91 332.27 826.01 293.30 796.22 265.03 C 783.12 252.62 768.02 242.37 751.84 234.41 C 733.26 226.01 713.41 220.00 693.04 218.20 C 653.95 214.14 613.65 224.33 580.95 246.05 C 550.30 265.91 526.87 295.68 512.07 328.86 C 499.97 301.65 482.12 276.86 459.11 257.83 C 438.88 240.87 414.66 228.75 389.07 222.37 C 344.38 211.11 295.41 219.15 256.29 243.35 Z" style="fill: none !important;"/>
<path fill="#030303" opacity="1.00" d=" M 256.29 243.35 C 295.41 219.15 344.38 211.11 389.07 222.37 C 414.66 228.75 438.88 240.87 459.11 257.83 C 482.12 276.86 499.97 301.65 512.07 328.86 C 526.87 295.68 550.30 265.91 580.95 246.05 C 613.65 224.33 653.95 214.14 693.04 218.20 C 713.41 220.00 733.26 226.01 751.84 234.41 C 768.02 242.37 783.12 252.62 796.22 265.03 C 826.01 293.30 844.91 332.27 850.19 372.88 C 855.40 413.21 848.76 454.87 832.01 491.87 C 818.27 522.34 798.79 549.84 777.35 575.34 C 757.28 599.47 734.83 621.48 711.99 642.96 C 667.78 683.73 621.24 721.88 574.16 759.26 C 553.66 775.44 533.08 791.55 512.07 807.05 C 483.54 786.05 455.86 763.93 428.11 741.92 C 371.80 695.92 315.42 649.56 265.50 596.52 C 233.09 561.09 203.06 522.12 185.97 476.80 C 168.91 429.92 166.69 376.65 184.91 329.76 C 198.55 294.26 223.66 263.09 256.29 243.35 Z" style="fill: rgb(0, 0, 0) !important;"/>
</svg>