<svg xmlns="http://www.w3.org/2000/svg" viewBox="122.1563720703125 204.3000030517578 779.6785888671875 635.7484588623047" version="1.1" width="32" height="38" style="">
<path fill="#ffffff" opacity="1.00" d=" M 0.00 0.00 L 1024.00 0.00 L 1024.00 1024.00 L 0.00 1024.00 L 0.00 0.00 M 184.21 220.95 C 184.15 391.97 184.24 562.99 184.20 734.01 C 184.02 741.16 190.75 747.54 197.92 746.73 C 279.68 738.84 362.58 743.10 443.09 759.41 C 462.81 763.26 482.44 767.63 501.73 773.31 C 501.56 598.50 501.87 423.69 501.55 248.88 C 480.47 243.05 459.42 237.08 438.04 232.41 C 410.24 226.32 382.33 220.71 354.17 216.57 C 303.10 209.15 251.53 205.04 199.91 204.80 C 191.44 204.83 183.75 212.36 184.21 220.95 M 587.88 232.06 C 565.82 236.81 544.13 243.02 522.39 249.00 C 522.06 316.33 522.34 383.67 522.24 451.00 C 522.22 558.45 522.31 665.90 522.20 773.35 C 533.35 770.05 544.64 767.24 556.00 764.75 C 576.92 760.42 597.85 756.07 618.98 752.86 C 687.72 742.18 757.78 740.24 827.03 746.71 C 833.91 747.05 839.99 740.91 839.71 734.06 C 839.70 562.69 839.77 391.32 839.63 219.95 C 839.64 212.10 832.81 205.17 825.02 204.81 C 745.28 205.07 665.69 214.77 587.88 232.06 M 145.96 237.13 C 132.03 241.33 122.24 255.57 122.67 270.02 C 122.68 438.34 122.66 606.67 122.70 775.00 C 122.46 784.80 126.74 794.53 133.97 801.11 C 139.73 806.21 147.35 808.89 154.99 809.16 C 252.07 809.35 349.15 808.99 446.23 809.35 C 448.33 815.44 452.32 820.77 457.48 824.62 C 468.08 832.57 481.14 836.32 494.08 838.29 C 513.86 840.90 534.60 839.72 553.25 832.19 C 563.78 827.84 574.31 820.60 577.90 809.24 C 673.96 809.14 770.01 809.26 866.06 809.19 C 875.10 809.28 884.56 806.66 891.10 800.13 C 897.80 794.03 901.20 784.94 901.30 775.99 C 901.24 732.94 901.32 689.89 901.27 646.85 C 898.37 648.49 895.55 650.31 892.47 651.61 C 882.37 656.12 871.09 655.49 860.30 655.35 C 860.31 681.54 860.30 707.73 860.30 733.93 C 860.38 747.37 851.41 760.23 838.73 764.74 C 828.82 768.69 818.12 765.74 807.89 765.29 C 789.31 763.68 770.66 763.18 752.03 762.88 C 717.35 763.21 682.61 764.65 648.19 769.13 C 611.09 773.58 574.25 780.24 538.06 789.55 C 527.15 791.79 516.18 796.54 504.89 794.07 C 492.18 791.21 479.60 787.78 466.91 784.84 C 447.87 780.06 428.51 776.67 409.16 773.48 C 385.20 769.97 361.18 766.69 337.00 765.17 C 291.06 761.86 244.85 762.16 199.00 766.71 C 181.03 768.45 164.15 752.81 163.73 734.93 C 163.63 568.42 163.74 401.91 163.66 235.41 C 157.74 235.55 151.64 235.10 145.96 237.13 M 860.33 378.80 C 866.25 378.75 872.18 379.07 878.10 378.67 C 890.42 377.47 901.02 366.52 901.22 354.03 C 901.36 326.68 901.32 299.33 901.28 271.99 C 901.22 261.41 894.30 251.35 884.32 247.74 C 876.69 244.73 868.35 246.08 860.37 245.81 C 860.27 290.14 860.33 334.47 860.33 378.80 M 885.84 397.59 C 877.55 399.92 868.87 399.16 860.37 399.28 C 860.22 435.15 860.36 471.01 860.31 506.88 C 865.53 506.83 870.75 506.94 875.97 506.84 C 884.90 506.78 893.56 501.57 898.00 493.86 C 900.90 488.78 901.50 482.79 901.30 477.04 C 901.29 453.36 901.33 429.68 901.29 406.01 C 901.38 401.27 899.92 396.72 898.03 392.44 C 894.17 394.60 890.14 396.50 885.84 397.59 M 880.88 526.82 C 874.07 527.70 867.18 527.37 860.34 527.35 C 860.29 563.28 860.28 599.21 860.36 635.14 C 866.60 634.94 872.88 635.51 879.09 634.74 C 885.97 633.93 892.22 629.93 896.40 624.49 C 899.86 619.77 901.27 613.82 901.28 608.04 C 901.28 583.03 901.31 558.01 901.28 533.00 C 901.29 528.71 899.92 524.60 898.20 520.72 C 892.86 523.79 886.96 525.85 880.88 526.82 Z" style="fill: none !important;"/>
<path fill="#000000" opacity="1.00" d=" M 184.21 220.95 C 183.75 212.36 191.44 204.83 199.91 204.80 C 251.53 205.04 303.10 209.15 354.17 216.57 C 382.33 220.71 410.24 226.32 438.04 232.41 C 459.42 237.08 480.47 243.05 501.55 248.88 C 501.87 423.69 501.56 598.50 501.73 773.31 C 482.44 767.63 462.81 763.26 443.09 759.41 C 362.58 743.10 279.68 738.84 197.92 746.73 C 190.75 747.54 184.02 741.16 184.20 734.01 C 184.24 562.99 184.15 391.97 184.21 220.95 M 232.25 292.15 C 227.29 293.50 223.88 299.02 225.19 304.05 C 225.98 308.53 230.40 311.83 234.87 311.79 C 255.22 312.10 275.58 312.75 295.90 313.99 C 347.17 317.08 398.02 325.51 448.03 337.04 C 453.87 338.92 460.76 334.29 460.75 328.06 C 461.19 322.93 457.08 318.24 452.10 317.42 C 431.20 312.62 410.14 308.51 389.02 304.80 C 362.58 299.95 335.82 297.21 309.05 295.02 C 285.42 293.21 261.74 291.96 238.04 291.76 C 236.11 291.80 234.12 291.60 232.25 292.15 M 232.41 372.57 C 227.17 373.91 223.59 379.85 225.27 385.06 C 226.44 389.72 231.42 392.56 236.05 392.32 C 282.83 392.65 329.75 395.07 375.92 403.00 C 400.43 406.88 424.78 411.68 448.97 417.20 C 455.01 418.74 461.45 413.16 460.67 406.94 C 460.61 401.72 456.05 397.84 451.14 397.13 C 432.47 393.20 413.82 389.18 395.02 385.94 C 343.29 376.16 290.56 373.02 238.00 372.27 C 236.13 372.28 234.24 372.15 232.41 372.57 M 230.49 453.63 C 227.48 455.05 225.40 458.04 224.97 461.33 C 223.98 467.11 229.08 472.85 234.92 472.65 C 257.57 472.85 280.23 473.49 302.83 475.06 C 349.24 477.91 395.19 485.76 440.57 495.68 C 445.46 496.65 450.82 499.22 455.62 496.56 C 461.09 493.93 462.35 486.02 458.51 481.50 C 456.30 478.47 452.39 477.77 448.98 476.98 C 426.44 472.26 403.86 467.68 381.14 463.90 C 334.15 456.45 286.54 453.28 238.99 452.57 C 236.14 452.62 233.08 452.16 230.49 453.63 M 230.45 543.50 C 225.41 545.63 223.33 552.29 225.98 557.02 C 227.73 560.74 231.89 562.73 235.90 562.58 C 256.59 562.56 277.25 563.77 297.90 564.67 C 304.28 564.65 308.75 557.33 306.61 551.54 C 305.48 547.78 301.82 545.13 297.97 544.81 C 278.01 543.48 258.02 542.68 238.02 542.49 C 235.48 542.53 232.77 542.25 230.45 543.50 M 353.23 549.23 C 347.95 551.36 345.78 558.46 348.76 563.27 C 350.71 566.97 354.95 568.58 358.92 568.93 C 389.07 573.43 419.13 578.57 448.94 584.99 C 456.27 586.97 463.31 578.71 460.22 571.75 C 458.00 565.39 450.46 565.02 444.91 563.76 C 418.22 557.74 391.23 553.14 364.14 549.39 C 360.55 549.00 356.68 547.54 353.23 549.23 M 354.51 589.76 C 350.40 591.32 347.11 595.53 347.71 600.07 C 348.10 604.65 352.13 608.44 356.59 609.11 C 377.77 612.52 398.96 615.91 420.08 619.68 C 425.37 619.89 430.38 615.39 430.36 610.00 C 430.91 604.83 426.56 600.35 421.62 599.65 C 401.78 595.92 381.84 592.73 361.88 589.73 C 359.45 589.46 356.87 588.79 354.51 589.76 M 231.44 635.65 C 226.49 637.49 223.56 643.65 225.50 648.61 C 226.92 652.96 231.57 655.50 236.01 655.21 C 282.84 655.46 329.73 658.55 375.99 666.02 C 399.12 669.65 422.02 674.60 444.89 679.59 C 448.11 680.22 451.64 681.59 454.78 679.85 C 460.55 677.77 462.71 669.77 458.94 665.00 C 455.99 660.92 450.59 660.44 446.07 659.39 C 423.16 654.13 400.09 649.55 376.88 645.80 C 330.31 638.59 283.18 635.27 236.06 635.00 C 234.51 635.10 232.93 635.17 231.44 635.65 Z" style="fill: rgb(0, 0, 0) !important;"/>
<path fill="#000000" opacity="1.00" d=" M 587.88 232.06 C 665.69 214.77 745.28 205.07 825.02 204.81 C 832.81 205.17 839.64 212.10 839.63 219.95 C 839.77 391.32 839.70 562.69 839.71 734.06 C 839.99 740.91 833.91 747.05 827.03 746.71 C 757.78 740.24 687.72 742.18 618.98 752.86 C 597.85 756.07 576.92 760.42 556.00 764.75 C 544.64 767.24 533.35 770.05 522.20 773.35 C 522.31 665.90 522.22 558.45 522.24 451.00 C 522.34 383.67 522.06 316.33 522.39 249.00 C 544.13 243.02 565.82 236.81 587.88 232.06 M 748.23 293.30 C 734.50 330.84 720.74 368.37 706.95 405.89 C 705.84 408.70 705.93 411.98 707.44 414.63 C 710.12 420.06 718.13 421.56 722.80 417.83 C 724.66 416.46 725.40 414.17 726.26 412.12 C 729.07 404.53 731.74 396.88 734.64 389.31 C 750.01 389.28 765.39 389.21 780.76 389.30 C 783.31 396.25 786.04 403.13 788.53 410.11 C 789.84 414.55 792.61 419.62 797.87 419.79 C 804.77 420.89 811.30 413.64 808.93 406.92 C 795.40 369.66 781.32 332.58 767.79 295.31 C 766.61 291.88 764.38 288.47 760.82 287.22 C 755.89 285.38 749.95 288.41 748.23 293.30 M 660.13 301.06 C 630.53 305.03 601.21 310.84 572.10 317.43 C 567.53 318.24 563.32 322.17 563.27 326.99 C 562.89 331.63 566.52 335.95 570.94 337.02 C 574.26 337.89 577.65 336.80 580.87 336.01 C 587.80 334.12 594.92 333.08 601.91 331.45 C 623.78 326.59 645.97 323.51 668.08 320.02 C 671.37 319.36 674.43 317.15 675.49 313.87 C 677.74 308.34 673.76 301.39 667.90 300.41 C 665.29 300.05 662.69 300.71 660.13 301.06 M 661.13 381.12 C 631.52 385.07 602.25 391.15 573.02 397.20 C 569.40 397.86 565.87 399.85 564.23 403.26 C 561.78 408.11 564.34 414.48 569.36 416.44 C 573.83 418.45 578.67 416.43 583.13 415.45 C 609.20 409.79 635.45 404.93 661.87 401.20 C 666.27 400.51 671.69 400.34 674.38 396.15 C 677.86 391.41 675.86 384.05 670.64 381.50 C 667.71 379.74 664.26 380.56 661.13 381.12 M 754.39 451.53 C 750.32 452.70 747.48 456.78 747.55 460.98 C 747.60 481.32 747.60 501.66 747.60 521.99 C 747.54 526.49 750.65 530.74 754.98 532.01 C 760.90 534.32 767.74 529.22 767.83 523.02 C 767.90 502.33 767.89 481.64 767.82 460.95 C 768.10 454.26 760.59 448.90 754.39 451.53 M 657.58 461.94 C 628.84 465.82 600.41 471.62 572.07 477.74 C 567.64 478.50 563.51 482.17 563.32 486.85 C 562.54 493.46 569.54 499.17 575.90 497.47 C 606.32 490.36 637.13 484.97 668.07 480.69 C 675.39 479.57 678.69 469.75 673.69 464.36 C 669.69 459.49 662.94 461.24 657.58 461.94 M 657.64 548.85 C 628.56 553.17 599.69 558.78 571.09 565.56 C 566.74 566.47 563.45 570.47 563.32 574.90 C 562.65 580.97 569.15 586.31 575.00 584.97 C 605.54 578.47 636.07 571.63 667.09 567.75 C 671.23 567.40 674.77 564.10 675.78 560.13 C 677.04 555.87 674.84 550.84 670.82 548.92 C 666.72 546.54 661.99 548.57 657.64 548.85 M 713.30 576.93 C 714.88 581.79 720.14 584.13 724.98 583.69 C 740.81 583.65 756.65 583.64 772.49 583.69 C 754.66 608.14 737.26 632.89 719.65 657.49 C 717.23 660.85 714.20 663.93 712.76 667.89 C 711.02 674.25 716.45 680.97 723.00 680.76 C 744.99 680.90 766.99 680.75 788.98 680.79 C 791.36 680.73 793.81 680.93 796.14 680.26 C 801.45 678.60 804.73 672.00 802.39 666.84 C 800.93 662.63 796.32 660.35 792.07 660.38 C 775.43 660.34 758.79 660.41 742.15 660.43 C 761.65 633.76 780.77 606.82 800.07 580.01 C 802.45 577.12 803.49 573.10 802.22 569.50 C 800.62 565.51 796.23 563.10 792.02 563.24 C 768.98 563.20 745.94 563.25 722.89 563.23 C 716.09 562.84 710.52 570.64 713.30 576.93 M 664.10 588.02 C 643.27 591.12 622.55 594.92 601.89 598.92 C 595.86 599.87 591.62 606.89 594.29 612.55 C 596.00 617.05 601.18 619.68 605.84 618.46 C 626.51 614.40 647.31 611.08 668.10 607.69 C 672.37 607.05 675.95 603.42 676.23 599.06 C 677.07 592.57 670.50 586.51 664.10 588.02 M 661.17 644.03 C 631.06 648.28 601.18 654.14 571.52 660.84 C 567.24 661.74 563.52 665.42 563.33 669.92 C 562.50 675.11 567.08 679.92 572.03 680.62 C 575.67 680.79 579.19 679.53 582.74 678.84 C 610.94 672.77 639.25 667.01 667.89 663.45 C 674.41 662.41 678.57 654.01 674.68 648.40 C 672.09 643.61 666.00 642.77 661.17 644.03 Z" style="fill: rgb(0, 0, 0) !important;"/>
<path fill="#000000" opacity="1.00" d=" M 145.96 237.13 C 151.64 235.10 157.74 235.55 163.66 235.41 C 163.74 401.91 163.63 568.42 163.73 734.93 C 164.15 752.81 181.03 768.45 199.00 766.71 C 244.85 762.16 291.06 761.86 337.00 765.17 C 361.18 766.69 385.20 769.97 409.16 773.48 C 428.51 776.67 447.87 780.06 466.91 784.84 C 479.60 787.78 492.18 791.21 504.89 794.07 C 516.18 796.54 527.15 791.79 538.06 789.55 C 574.25 780.24 611.09 773.58 648.19 769.13 C 682.61 764.65 717.35 763.21 752.03 762.88 C 770.66 763.18 789.31 763.68 807.89 765.29 C 818.12 765.74 828.82 768.69 838.73 764.74 C 851.41 760.23 860.38 747.37 860.30 733.93 C 860.30 707.73 860.31 681.54 860.30 655.35 C 871.09 655.49 882.37 656.12 892.47 651.61 C 895.55 650.31 898.37 648.49 901.27 646.85 C 901.32 689.89 901.24 732.94 901.30 775.99 C 901.20 784.94 897.80 794.03 891.10 800.13 C 884.56 806.66 875.10 809.28 866.06 809.19 C 770.01 809.26 673.96 809.14 577.90 809.24 C 574.31 820.60 563.78 827.84 553.25 832.19 C 534.60 839.72 513.86 840.90 494.08 838.29 C 481.14 836.32 468.08 832.57 457.48 824.62 C 452.32 820.77 448.33 815.44 446.23 809.35 C 349.15 808.99 252.07 809.35 154.99 809.16 C 147.35 808.89 139.73 806.21 133.97 801.11 C 126.74 794.53 122.46 784.80 122.70 775.00 C 122.66 606.67 122.68 438.34 122.67 270.02 C 122.24 255.57 132.03 241.33 145.96 237.13 Z" style="fill: rgb(0, 0, 0) !important;"/>
<path fill="#000000" opacity="1.00" d=" M 860.33 378.80 C 860.33 334.47 860.27 290.14 860.37 245.81 C 868.35 246.08 876.69 244.73 884.32 247.74 C 894.30 251.35 901.22 261.41 901.28 271.99 C 901.32 299.33 901.36 326.68 901.22 354.03 C 901.02 366.52 890.42 377.47 878.10 378.67 C 872.18 379.07 866.25 378.75 860.33 378.80 Z" style="fill: rgb(0, 0, 0) !important;"/>
<path fill="#ffffff" opacity="1.00" d=" M 748.23 293.30 C 749.95 288.41 755.89 285.38 760.82 287.22 C 764.38 288.47 766.61 291.88 767.79 295.31 C 781.32 332.58 795.40 369.66 808.93 406.92 C 811.30 413.64 804.77 420.89 797.87 419.79 C 792.61 419.62 789.84 414.55 788.53 410.11 C 786.04 403.13 783.31 396.25 780.76 389.30 C 765.39 389.21 750.01 389.28 734.64 389.31 C 731.74 396.88 729.07 404.53 726.26 412.12 C 725.40 414.17 724.66 416.46 722.80 417.83 C 718.13 421.56 710.12 420.06 707.44 414.63 C 705.93 411.98 705.84 408.70 706.95 405.89 C 720.74 368.37 734.50 330.84 748.23 293.30 M 741.99 368.83 C 752.42 368.82 762.85 368.79 773.28 368.80 C 767.92 354.86 762.98 340.75 757.76 326.76 C 752.31 340.69 747.29 354.82 741.99 368.83 Z" style="fill: none !important;"/>
<path fill="#ffffff" opacity="1.00" d=" M 232.25 292.15 C 234.12 291.60 236.11 291.80 238.04 291.76 C 261.74 291.96 285.42 293.21 309.05 295.02 C 335.82 297.21 362.58 299.95 389.02 304.80 C 410.14 308.51 431.20 312.62 452.10 317.42 C 457.08 318.24 461.19 322.93 460.75 328.06 C 460.76 334.29 453.87 338.92 448.03 337.04 C 398.02 325.51 347.17 317.08 295.90 313.99 C 275.58 312.75 255.22 312.10 234.87 311.79 C 230.40 311.83 225.98 308.53 225.19 304.05 C 223.88 299.02 227.29 293.50 232.25 292.15 Z" style="fill: none !important;"/>
<path fill="#ffffff" opacity="1.00" d=" M 660.13 301.06 C 662.69 300.71 665.29 300.05 667.90 300.41 C 673.76 301.39 677.74 308.34 675.49 313.87 C 674.43 317.15 671.37 319.36 668.08 320.02 C 645.97 323.51 623.78 326.59 601.91 331.45 C 594.92 333.08 587.80 334.12 580.87 336.01 C 577.65 336.80 574.26 337.89 570.94 337.02 C 566.52 335.95 562.89 331.63 563.27 326.99 C 563.32 322.17 567.53 318.24 572.10 317.43 C 601.21 310.84 630.53 305.03 660.13 301.06 Z" style="fill: none !important;"/>
<path fill="#000000" opacity="1.00" d=" M 741.99 368.83 C 747.29 354.82 752.31 340.69 757.76 326.76 C 762.98 340.75 767.92 354.86 773.28 368.80 C 762.85 368.79 752.42 368.82 741.99 368.83 Z" style="fill: rgb(0, 0, 0) !important;"/>
<path fill="#ffffff" opacity="1.00" d=" M 232.41 372.57 C 234.24 372.15 236.13 372.28 238.00 372.27 C 290.56 373.02 343.29 376.16 395.02 385.94 C 413.82 389.18 432.47 393.20 451.14 397.13 C 456.05 397.84 460.61 401.72 460.67 406.94 C 461.45 413.16 455.01 418.74 448.97 417.20 C 424.78 411.68 400.43 406.88 375.92 403.00 C 329.75 395.07 282.83 392.65 236.05 392.32 C 231.42 392.56 226.44 389.72 225.27 385.06 C 223.59 379.85 227.17 373.91 232.41 372.57 Z" style="fill: none !important;"/>
<path fill="#ffffff" opacity="1.00" d=" M 661.13 381.12 C 664.26 380.56 667.71 379.74 670.64 381.50 C 675.86 384.05 677.86 391.41 674.38 396.15 C 671.69 400.34 666.27 400.51 661.87 401.20 C 635.45 404.93 609.20 409.79 583.13 415.45 C 578.67 416.43 573.83 418.45 569.36 416.44 C 564.34 414.48 561.78 408.11 564.23 403.26 C 565.87 399.85 569.40 397.86 573.02 397.20 C 602.25 391.15 631.52 385.07 661.13 381.12 Z" style="fill: none !important;"/>
<path fill="#000000" opacity="1.00" d=" M 885.84 397.59 C 890.14 396.50 894.17 394.60 898.03 392.44 C 899.92 396.72 901.38 401.27 901.29 406.01 C 901.33 429.68 901.29 453.36 901.30 477.04 C 901.50 482.79 900.90 488.78 898.00 493.86 C 893.56 501.57 884.90 506.78 875.97 506.84 C 870.75 506.94 865.53 506.83 860.31 506.88 C 860.36 471.01 860.22 435.15 860.37 399.28 C 868.87 399.16 877.55 399.92 885.84 397.59 Z" style="fill: rgb(0, 0, 0) !important;"/>
<path fill="#ffffff" opacity="1.00" d=" M 754.39 451.53 C 760.59 448.90 768.10 454.26 767.82 460.95 C 767.89 481.64 767.90 502.33 767.83 523.02 C 767.74 529.22 760.90 534.32 754.98 532.01 C 750.65 530.74 747.54 526.49 747.60 521.99 C 747.60 501.66 747.60 481.32 747.55 460.98 C 747.48 456.78 750.32 452.70 754.39 451.53 Z" style="fill: none !important;"/>
<path fill="#ffffff" opacity="1.00" d=" M 230.49 453.63 C 233.08 452.16 236.14 452.62 238.99 452.57 C 286.54 453.28 334.15 456.45 381.14 463.90 C 403.86 467.68 426.44 472.26 448.98 476.98 C 452.39 477.77 456.30 478.47 458.51 481.50 C 462.35 486.02 461.09 493.93 455.62 496.56 C 450.82 499.22 445.46 496.65 440.57 495.68 C 395.19 485.76 349.24 477.91 302.83 475.06 C 280.23 473.49 257.57 472.85 234.92 472.65 C 229.08 472.85 223.98 467.11 224.97 461.33 C 225.40 458.04 227.48 455.05 230.49 453.63 Z" style="fill: none !important;"/>
<path fill="#ffffff" opacity="1.00" d=" M 657.58 461.94 C 662.94 461.24 669.69 459.49 673.69 464.36 C 678.69 469.75 675.39 479.57 668.07 480.69 C 637.13 484.97 606.32 490.36 575.90 497.47 C 569.54 499.17 562.54 493.46 563.32 486.85 C 563.51 482.17 567.64 478.50 572.07 477.74 C 600.41 471.62 628.84 465.82 657.58 461.94 Z" style="fill: none !important;"/>
<path fill="#000000" opacity="1.00" d=" M 880.88 526.82 C 886.96 525.85 892.86 523.79 898.20 520.72 C 899.92 524.60 901.29 528.71 901.28 533.00 C 901.31 558.01 901.28 583.03 901.28 608.04 C 901.27 613.82 899.86 619.77 896.40 624.49 C 892.22 629.93 885.97 633.93 879.09 634.74 C 872.88 635.51 866.60 634.94 860.36 635.14 C 860.28 599.21 860.29 563.28 860.34 527.35 C 867.18 527.37 874.07 527.70 880.88 526.82 Z" style="fill: rgb(0, 0, 0) !important;"/>
<path fill="#ffffff" opacity="1.00" d=" M 230.45 543.50 C 232.77 542.25 235.48 542.53 238.02 542.49 C 258.02 542.68 278.01 543.48 297.97 544.81 C 301.82 545.13 305.48 547.78 306.61 551.54 C 308.75 557.33 304.28 564.65 297.90 564.67 C 277.25 563.77 256.59 562.56 235.90 562.58 C 231.89 562.73 227.73 560.74 225.98 557.02 C 223.33 552.29 225.41 545.63 230.45 543.50 Z" style="fill: none !important;"/>
<path fill="#ffffff" opacity="1.00" d=" M 657.64 548.85 C 661.99 548.57 666.72 546.54 670.82 548.92 C 674.84 550.84 677.04 555.87 675.78 560.13 C 674.77 564.10 671.23 567.40 667.09 567.75 C 636.07 571.63 605.54 578.47 575.00 584.97 C 569.15 586.31 562.65 580.97 563.32 574.90 C 563.45 570.47 566.74 566.47 571.09 565.56 C 599.69 558.78 628.56 553.17 657.64 548.85 Z" style="fill: none !important;"/>
<path fill="#ffffff" opacity="1.00" d=" M 353.23 549.23 C 356.68 547.54 360.55 549.00 364.14 549.39 C 391.23 553.14 418.22 557.74 444.91 563.76 C 450.46 565.02 458.00 565.39 460.22 571.75 C 463.31 578.71 456.27 586.97 448.94 584.99 C 419.13 578.57 389.07 573.43 358.92 568.93 C 354.95 568.58 350.71 566.97 348.76 563.27 C 345.78 558.46 347.95 551.36 353.23 549.23 Z" style="fill: none !important;"/>
<path fill="#ffffff" opacity="1.00" d=" M 713.30 576.93 C 710.52 570.64 716.09 562.84 722.89 563.23 C 745.94 563.25 768.98 563.20 792.02 563.24 C 796.23 563.10 800.62 565.51 802.22 569.50 C 803.49 573.10 802.45 577.12 800.07 580.01 C 780.77 606.82 761.65 633.76 742.15 660.43 C 758.79 660.41 775.43 660.34 792.07 660.38 C 796.32 660.35 800.93 662.63 802.39 666.84 C 804.73 672.00 801.45 678.60 796.14 680.26 C 793.81 680.93 791.36 680.73 788.98 680.79 C 766.99 680.75 744.99 680.90 723.00 680.76 C 716.45 680.97 711.02 674.25 712.76 667.89 C 714.20 663.93 717.23 660.85 719.65 657.49 C 737.26 632.89 754.66 608.14 772.49 583.69 C 756.65 583.64 740.81 583.65 724.98 583.69 C 720.14 584.13 714.88 581.79 713.30 576.93 Z" style="fill: none !important;"/>
<path fill="#ffffff" opacity="1.00" d=" M 664.10 588.02 C 670.50 586.51 677.07 592.57 676.23 599.06 C 675.95 603.42 672.37 607.05 668.10 607.69 C 647.31 611.08 626.51 614.40 605.84 618.46 C 601.18 619.68 596.00 617.05 594.29 612.55 C 591.62 606.89 595.86 599.87 601.89 598.92 C 622.55 594.92 643.27 591.12 664.10 588.02 Z" style="fill: none !important;"/>
<path fill="#ffffff" opacity="1.00" d=" M 354.51 589.76 C 356.87 588.79 359.45 589.46 361.88 589.73 C 381.84 592.73 401.78 595.92 421.62 599.65 C 426.56 600.35 430.91 604.83 430.36 610.00 C 430.38 615.39 425.37 619.89 420.08 619.68 C 398.96 615.91 377.77 612.52 356.59 609.11 C 352.13 608.44 348.10 604.65 347.71 600.07 C 347.11 595.53 350.40 591.32 354.51 589.76 Z" style="fill: none !important;"/>
<path fill="#ffffff" opacity="1.00" d=" M 231.44 635.65 C 232.93 635.17 234.51 635.10 236.06 635.00 C 283.18 635.27 330.31 638.59 376.88 645.80 C 400.09 649.55 423.16 654.13 446.07 659.39 C 450.59 660.44 455.99 660.92 458.94 665.00 C 462.71 669.77 460.55 677.77 454.78 679.85 C 451.64 681.59 448.11 680.22 444.89 679.59 C 422.02 674.60 399.12 669.65 375.99 666.02 C 329.73 658.55 282.84 655.46 236.01 655.21 C 231.57 655.50 226.92 652.96 225.50 648.61 C 223.56 643.65 226.49 637.49 231.44 635.65 Z" style="fill: none !important;"/>
<path fill="#ffffff" opacity="1.00" d=" M 661.17 644.03 C 666.00 642.77 672.09 643.61 674.68 648.40 C 678.57 654.01 674.41 662.41 667.89 663.45 C 639.25 667.01 610.94 672.77 582.74 678.84 C 579.19 679.53 575.67 680.79 572.03 680.62 C 567.08 679.92 562.50 675.11 563.33 669.92 C 563.52 665.42 567.24 661.74 571.52 660.84 C 601.18 654.14 631.06 648.28 661.17 644.03 Z" style="fill: none !important;"/>
</svg>