<svg xmlns="http://www.w3.org/2000/svg" viewBox="255.5386962890625 127.48222351074219 512.9970703125 769.0296783447266" version="1.1" width="32" height="38" style="">
<path fill="#ffffff" opacity="1.00" d=" M 0.00 0.00 L 1024.00 0.00 L 1024.00 1024.00 L 0.00 1024.00 L 0.00 0.00 M 432.89 140.29 C 407.20 148.70 382.80 161.10 361.02 177.11 C 317.19 208.89 283.81 254.97 267.79 306.73 C 251.72 357.86 252.14 414.06 269.00 464.94 C 280.82 500.35 300.40 533.01 325.21 560.82 C 365.88 607.66 387.99 669.56 388.19 731.43 C 470.73 731.53 553.28 731.44 635.83 731.49 C 636.33 712.36 637.84 693.16 642.23 674.48 C 650.27 636.80 667.11 601.06 690.72 570.65 C 698.21 560.88 707.03 552.21 714.16 542.15 C 722.98 530.64 730.60 518.26 737.61 505.58 C 756.70 469.85 767.35 429.57 767.98 389.04 C 768.82 348.83 760.17 308.39 742.61 272.18 C 727.08 239.83 704.45 211.00 677.01 187.90 C 645.56 161.70 607.95 142.62 567.84 134.08 C 523.36 124.12 476.30 126.48 432.89 140.29 M 388.14 761.63 C 388.20 783.11 388.12 804.58 388.21 826.06 C 388.52 835.52 396.63 843.68 406.07 844.19 C 416.63 844.44 427.20 844.26 437.76 844.28 C 444.09 862.05 456.88 877.50 473.45 886.60 C 497.78 899.47 528.67 899.18 552.59 885.49 C 568.26 876.38 580.30 861.43 586.26 844.34 C 596.84 844.18 607.42 844.44 618.00 844.25 C 627.79 843.70 636.05 834.82 635.87 825.01 C 635.91 803.89 635.91 782.77 635.87 761.64 C 553.29 761.63 470.72 761.68 388.14 761.63 Z" style="fill: none !important;"/>
<path fill="#000000" opacity="1.00" d=" M 432.89 140.29 C 476.30 126.48 523.36 124.12 567.84 134.08 C 607.95 142.62 645.56 161.70 677.01 187.90 C 704.45 211.00 727.08 239.83 742.61 272.18 C 760.17 308.39 768.82 348.83 767.98 389.04 C 767.35 429.57 756.70 469.85 737.61 505.58 C 730.60 518.26 722.98 530.64 714.16 542.15 C 707.03 552.21 698.21 560.88 690.72 570.65 C 667.11 601.06 650.27 636.80 642.23 674.48 C 637.84 693.16 636.33 712.36 635.83 731.49 C 553.28 731.44 470.73 731.53 388.19 731.43 C 387.99 669.56 365.88 607.66 325.21 560.82 C 300.40 533.01 280.82 500.35 269.00 464.94 C 252.14 414.06 251.72 357.86 267.79 306.73 C 283.81 254.97 317.19 208.89 361.02 177.11 C 382.80 161.10 407.20 148.70 432.89 140.29 M 397.19 262.21 C 363.85 293.95 344.57 339.93 345.55 385.97 C 346.12 391.88 350.53 397.09 356.18 398.81 C 362.75 400.99 370.55 397.81 373.60 391.57 C 376.69 386.57 375.05 380.56 375.70 375.05 C 377.80 336.01 397.77 298.54 428.62 274.62 C 428.52 262.71 428.73 250.79 428.60 238.88 C 417.19 245.26 406.74 253.30 397.19 262.21 Z" style="fill: rgb(0, 0, 0) !important;"/>
<path fill="#ffffff" opacity="1.00" d=" M 397.19 262.21 C 406.74 253.30 417.19 245.26 428.60 238.88 C 428.73 250.79 428.52 262.71 428.62 274.62 C 397.77 298.54 377.80 336.01 375.70 375.05 C 375.05 380.56 376.69 386.57 373.60 391.57 C 370.55 397.81 362.75 400.99 356.18 398.81 C 350.53 397.09 346.12 391.88 345.55 385.97 C 344.57 339.93 363.85 293.95 397.19 262.21 Z" style="fill: none !important;"/>
<path fill="#000000" opacity="1.00" d=" M 388.14 761.63 C 470.72 761.68 553.29 761.63 635.87 761.64 C 635.91 782.77 635.91 803.89 635.87 825.01 C 636.05 834.82 627.79 843.70 618.00 844.25 C 607.42 844.44 596.84 844.18 586.26 844.34 C 580.30 861.43 568.26 876.38 552.59 885.49 C 528.67 899.18 497.78 899.47 473.45 886.60 C 456.88 877.50 444.09 862.05 437.76 844.28 C 427.20 844.26 416.63 844.44 406.07 844.19 C 396.63 843.68 388.52 835.52 388.21 826.06 C 388.12 804.58 388.20 783.11 388.14 761.63 Z" style="fill: rgb(0, 0, 0) !important;"/>
</svg>