<svg xmlns="http://www.w3.org/2000/svg" viewBox="147.0614013671875 127.56387329101562 731.2740478515625 768.9040222167969" version="1.1" width="32" height="38" style="">
<path fill="#ffffff" opacity="1.00" d=" M 0.00 0.00 L 1024.00 0.00 L 1024.00 1024.00 L 0.00 1024.00 L 0.00 0.00 M 281.81 163.77 C 231.71 192.42 191.56 237.89 168.95 290.95 C 146.95 342.64 141.52 401.39 154.53 456.11 C 159.65 476.62 166.45 496.81 176.25 515.57 C 191.35 546.32 212.92 573.75 238.46 596.49 C 268.17 622.78 303.58 642.89 341.89 653.47 C 403.13 671.08 470.74 666.01 528.41 638.76 C 543.47 631.58 558.18 623.46 571.48 613.34 C 581.08 623.75 590.47 634.37 600.13 644.71 C 594.17 650.60 590.92 659.69 593.46 667.90 C 595.22 675.04 601.28 679.70 605.87 685.01 C 611.43 691.47 617.21 697.72 623.00 703.97 C 677.34 763.69 731.76 823.32 786.21 882.93 C 796.32 895.78 815.62 899.63 830.08 892.24 C 837.21 889.03 841.95 882.59 847.68 877.54 C 853.76 871.67 859.73 865.68 865.93 859.94 C 874.22 852.05 878.62 840.34 877.72 828.95 C 877.29 819.97 872.99 811.53 867.00 804.96 C 845.44 781.22 823.73 757.60 802.31 733.72 C 762.68 690.62 723.50 647.10 683.90 603.97 C 680.42 599.91 676.47 595.77 671.12 594.38 C 663.44 591.80 654.78 594.27 648.85 599.57 C 639.15 589.21 629.85 578.46 620.09 568.15 C 632.52 553.43 643.38 537.37 652.41 520.34 C 660.79 504.99 666.83 488.52 672.27 471.94 C 684.04 432.22 686.74 389.72 679.00 348.96 C 673.08 313.20 658.95 279.06 639.42 248.61 C 630.54 235.94 621.34 223.43 610.55 212.29 C 596.55 197.18 580.47 184.12 563.56 172.41 C 544.33 159.83 523.58 149.56 501.87 141.97 C 475.15 133.17 447.12 128.06 418.94 128.11 C 371.12 127.21 323.07 139.50 281.81 163.77 Z" style="fill: none !important;"/>
<path fill="#070807" opacity="1.00" d=" M 281.81 163.77 C 323.07 139.50 371.12 127.21 418.94 128.11 C 447.12 128.06 475.15 133.17 501.87 141.97 C 523.58 149.56 544.33 159.83 563.56 172.41 C 580.47 184.12 596.55 197.18 610.55 212.29 C 621.34 223.43 630.54 235.94 639.42 248.61 C 658.95 279.06 673.08 313.20 679.00 348.96 C 686.74 389.72 684.04 432.22 672.27 471.94 C 666.83 488.52 660.79 504.99 652.41 520.34 C 643.38 537.37 632.52 553.43 620.09 568.15 C 629.85 578.46 639.15 589.21 648.85 599.57 C 654.78 594.27 663.44 591.80 671.12 594.38 C 676.47 595.77 680.42 599.91 683.90 603.97 C 723.50 647.10 762.68 690.62 802.31 733.72 C 823.73 757.60 845.44 781.22 867.00 804.96 C 872.99 811.53 877.29 819.97 877.72 828.95 C 878.62 840.34 874.22 852.05 865.93 859.94 C 859.73 865.68 853.76 871.67 847.68 877.54 C 841.95 882.59 837.21 889.03 830.08 892.24 C 815.62 899.63 796.32 895.78 786.21 882.93 C 731.76 823.32 677.34 763.69 623.00 703.97 C 617.21 697.72 611.43 691.47 605.87 685.01 C 601.28 679.70 595.22 675.04 593.46 667.90 C 590.92 659.69 594.17 650.60 600.13 644.71 C 590.47 634.37 581.08 623.75 571.48 613.34 C 558.18 623.46 543.47 631.58 528.41 638.76 C 470.74 666.01 403.13 671.08 341.89 653.47 C 303.58 642.89 268.17 622.78 238.46 596.49 C 212.92 573.75 191.35 546.32 176.25 515.57 C 166.45 496.81 159.65 476.62 154.53 456.11 C 141.52 401.39 146.95 342.64 168.95 290.95 C 191.56 237.89 231.71 192.42 281.81 163.77 M 409.26 189.36 C 397.70 189.63 386.15 190.84 374.84 193.31 C 332.24 201.78 292.96 224.74 263.71 256.71 C 241.55 280.86 225.27 310.38 216.66 342.01 C 211.80 360.59 209.34 379.79 209.58 399.00 C 209.92 442.14 225.12 484.68 250.80 519.20 C 271.89 547.71 300.61 570.40 332.92 584.91 C 372.53 602.54 417.83 607.33 460.14 597.64 C 497.15 589.28 531.61 570.29 558.67 543.71 C 587.94 515.61 608.33 478.50 616.97 438.89 C 625.34 401.46 621.86 361.93 609.28 325.86 C 594.85 286.61 568.57 251.77 534.42 227.60 C 498.47 201.45 453.68 187.86 409.26 189.36 Z" style="fill: rgb(0, 0, 0) !important;"/>
<path fill="#ffffff" opacity="1.00" d=" M 409.26 189.36 C 453.68 187.86 498.47 201.45 534.42 227.60 C 568.57 251.77 594.85 286.61 609.28 325.86 C 621.86 361.93 625.34 401.46 616.97 438.89 C 608.33 478.50 587.94 515.61 558.67 543.71 C 531.61 570.29 497.15 589.28 460.14 597.64 C 417.83 607.33 372.53 602.54 332.92 584.91 C 300.61 570.40 271.89 547.71 250.80 519.20 C 225.12 484.68 209.92 442.14 209.58 399.00 C 209.34 379.79 211.80 360.59 216.66 342.01 C 225.27 310.38 241.55 280.86 263.71 256.71 C 292.96 224.74 332.24 201.78 374.84 193.31 C 386.15 190.84 397.70 189.63 409.26 189.36 M 392.62 215.92 C 337.06 223.02 285.90 257.34 257.95 305.82 C 228.05 356.16 225.23 421.43 250.62 474.19 C 266.16 506.96 291.56 535.00 322.85 553.38 C 359.08 575.31 403.18 583.89 444.97 576.96 C 497.73 568.18 546.02 535.30 573.04 489.07 C 593.91 453.88 602.22 411.40 596.04 370.95 C 591.27 336.31 576.00 303.29 552.94 277.03 C 532.17 253.43 505.35 235.04 475.64 224.66 C 449.20 215.06 420.46 212.61 392.62 215.92 Z" style="fill: none !important;"/>
<path fill="#070807" opacity="1.00" d=" M 392.62 215.92 C 420.46 212.61 449.20 215.06 475.64 224.66 C 505.35 235.04 532.17 253.43 552.94 277.03 C 576.00 303.29 591.27 336.31 596.04 370.95 C 602.22 411.40 593.91 453.88 573.04 489.07 C 546.02 535.30 497.73 568.18 444.97 576.96 C 403.18 583.89 359.08 575.31 322.85 553.38 C 291.56 535.00 266.16 506.96 250.62 474.19 C 225.23 421.43 228.05 356.16 257.95 305.82 C 285.90 257.34 337.06 223.02 392.62 215.92 Z" style="fill: rgb(0, 0, 0) !important;"/>
</svg>