<svg xmlns="http://www.w3.org/2000/svg" viewBox="153.08177185058594 259.1315002441406 717.8157501220703 506.2485046386719" version="1.1" width="32" height="38" style="">
<path fill="#ffffff" opacity="1.00" d=" M 0.00 0.00 L 1024.00 0.00 L 1024.00 1024.00 L 0.00 1024.00 L 0.00 0.00 M 672.85 269.38 C 635.04 277.06 597.70 289.33 564.76 309.76 C 549.21 319.00 535.17 330.54 522.20 343.09 C 521.98 483.66 522.17 624.24 522.11 764.82 C 531.69 756.76 541.11 748.41 551.83 741.85 C 587.02 718.67 627.79 705.24 669.02 697.80 C 713.21 690.10 758.51 689.31 803.04 694.34 C 807.65 694.85 812.09 690.74 811.67 686.07 C 811.66 547.08 811.64 408.08 811.65 269.09 C 811.55 264.53 807.69 260.34 803.14 259.93 C 759.56 258.88 715.69 260.87 672.85 269.38 M 212.33 269.92 C 212.35 408.29 212.30 546.68 212.34 685.05 C 211.88 689.87 215.95 694.78 220.97 694.31 C 269.19 688.89 318.31 690.25 365.93 699.91 C 408.42 708.78 450.21 724.46 485.07 750.80 C 490.86 755.37 496.48 760.12 502.10 764.88 C 501.58 741.26 502.02 717.62 501.87 694.00 C 501.90 579.33 501.80 464.66 501.92 349.99 C 501.63 347.47 502.78 344.32 500.81 342.32 C 474.42 315.65 440.92 297.06 405.87 284.34 C 346.44 263.26 282.63 258.23 220.01 259.94 C 215.42 260.77 212.04 265.29 212.33 269.92 M 153.62 324.02 C 153.63 465.00 153.61 605.99 153.62 746.97 C 153.09 752.74 158.15 758.10 163.97 757.68 C 262.72 757.72 361.48 757.75 460.24 757.67 C 453.43 752.60 445.78 748.71 438.25 744.82 C 419.64 735.63 400.07 728.45 379.93 723.47 C 329.21 710.25 276.01 708.24 224.05 713.80 C 216.62 714.79 208.87 712.60 203.07 707.86 C 196.14 702.52 192.51 693.66 192.64 685.03 C 192.62 561.21 192.65 437.38 192.62 313.55 C 182.75 313.59 172.87 313.53 163.00 313.60 C 157.53 313.44 153.33 318.79 153.62 324.02 M 831.43 685.00 C 831.66 694.64 826.87 704.45 818.62 709.61 C 812.90 713.40 805.78 714.74 799.05 713.72 C 737.40 707.20 673.87 711.58 615.14 732.28 C 597.20 739.04 579.54 746.93 563.63 757.72 C 663.05 757.66 762.48 757.83 861.90 757.64 C 866.56 757.07 870.43 752.70 870.38 747.98 C 870.40 606.33 870.41 464.67 870.37 323.01 C 870.24 318.11 866.09 313.28 860.95 313.58 C 851.09 313.57 841.23 313.60 831.36 313.57 C 831.48 437.38 831.36 561.19 831.43 685.00 Z" style="fill: none !important;"/>
<path fill="#000000" opacity="1.00" d=" M 672.85 269.38 C 715.69 260.87 759.56 258.88 803.14 259.93 C 807.69 260.34 811.55 264.53 811.65 269.09 C 811.64 408.08 811.66 547.08 811.67 686.07 C 812.09 690.74 807.65 694.85 803.04 694.34 C 758.51 689.31 713.21 690.10 669.02 697.80 C 627.79 705.24 587.02 718.67 551.83 741.85 C 541.11 748.41 531.69 756.76 522.11 764.82 C 522.17 624.24 521.98 483.66 522.20 343.09 C 535.17 330.54 549.21 319.00 564.76 309.76 C 597.70 289.33 635.04 277.06 672.85 269.38 M 660.49 362.67 C 649.67 365.67 640.95 374.93 638.41 385.84 C 635.06 399.19 641.67 414.41 653.78 421.00 C 663.61 426.59 676.50 426.26 686.04 420.17 C 693.52 415.66 698.67 407.70 700.31 399.18 C 702.72 387.23 697.47 374.40 687.61 367.32 C 679.93 361.70 669.59 360.14 660.49 362.67 M 625.69 444.81 C 625.70 453.92 625.65 463.04 625.70 472.16 C 631.71 472.24 637.72 472.21 643.74 472.15 C 643.80 507.04 643.74 541.94 643.75 576.84 C 637.73 576.80 631.72 576.86 625.71 576.84 C 625.72 585.96 625.73 595.08 625.72 604.21 C 654.76 604.23 683.79 604.20 712.83 604.24 C 712.83 595.09 712.87 585.94 712.81 576.79 C 706.78 576.84 700.75 576.81 694.72 576.81 C 694.87 532.80 694.74 488.80 694.78 444.80 C 671.75 444.82 648.72 444.79 625.69 444.81 Z" style="fill: rgb(0, 0, 0) !important;"/>
<path fill="#000000" opacity="1.00" d=" M 212.33 269.92 C 212.04 265.29 215.42 260.77 220.01 259.94 C 282.63 258.23 346.44 263.26 405.87 284.34 C 440.92 297.06 474.42 315.65 500.81 342.32 C 502.78 344.32 501.63 347.47 501.92 349.99 C 501.80 464.66 501.90 579.33 501.87 694.00 C 502.02 717.62 501.58 741.26 502.10 764.88 C 496.48 760.12 490.86 755.37 485.07 750.80 C 450.21 724.46 408.42 708.78 365.93 699.91 C 318.31 690.25 269.19 688.89 220.97 694.31 C 215.95 694.78 211.88 689.87 212.34 685.05 C 212.30 546.68 212.35 408.29 212.33 269.92 Z" style="fill: rgb(0, 0, 0) !important;"/>
<path fill="#000000" opacity="1.00" d=" M 153.62 324.02 C 153.33 318.79 157.53 313.44 163.00 313.60 C 172.87 313.53 182.75 313.59 192.62 313.55 C 192.65 437.38 192.62 561.21 192.64 685.03 C 192.51 693.66 196.14 702.52 203.07 707.86 C 208.87 712.60 216.62 714.79 224.05 713.80 C 276.01 708.24 329.21 710.25 379.93 723.47 C 400.07 728.45 419.64 735.63 438.25 744.82 C 445.78 748.71 453.43 752.60 460.24 757.67 C 361.48 757.75 262.72 757.72 163.97 757.68 C 158.15 758.10 153.09 752.74 153.62 746.97 C 153.61 605.99 153.63 465.00 153.62 324.02 Z" style="fill: rgb(0, 0, 0) !important;"/>
<path fill="#000000" opacity="1.00" d=" M 831.43 685.00 C 831.36 561.19 831.48 437.38 831.36 313.57 C 841.23 313.60 851.09 313.57 860.95 313.58 C 866.09 313.28 870.24 318.11 870.37 323.01 C 870.41 464.67 870.40 606.33 870.38 747.98 C 870.43 752.70 866.56 757.07 861.90 757.64 C 762.48 757.83 663.05 757.66 563.63 757.72 C 579.54 746.93 597.20 739.04 615.14 732.28 C 673.87 711.58 737.40 707.20 799.05 713.72 C 805.78 714.74 812.90 713.40 818.62 709.61 C 826.87 704.45 831.66 694.64 831.43 685.00 Z" style="fill: rgb(0, 0, 0) !important;"/>
<path fill="#ffffff" opacity="1.00" d=" M 660.49 362.67 C 669.59 360.14 679.93 361.70 687.61 367.32 C 697.47 374.40 702.72 387.23 700.31 399.18 C 698.67 407.70 693.52 415.66 686.04 420.17 C 676.50 426.26 663.61 426.59 653.78 421.00 C 641.67 414.41 635.06 399.19 638.41 385.84 C 640.95 374.93 649.67 365.67 660.49 362.67 Z" style="fill: none !important;"/>
<path fill="#ffffff" opacity="1.00" d=" M 625.69 444.81 C 648.72 444.79 671.75 444.82 694.78 444.80 C 694.74 488.80 694.87 532.80 694.72 576.81 C 700.75 576.81 706.78 576.84 712.81 576.79 C 712.87 585.94 712.83 595.09 712.83 604.24 C 683.79 604.20 654.76 604.23 625.72 604.21 C 625.73 595.08 625.72 585.96 625.71 576.84 C 631.72 576.86 637.73 576.80 643.75 576.84 C 643.74 541.94 643.80 507.04 643.74 472.15 C 637.72 472.21 631.71 472.24 625.70 472.16 C 625.65 463.04 625.70 453.92 625.69 444.81 Z" style="fill: none !important;"/>
</svg>