<svg xmlns="http://www.w3.org/2000/svg" viewBox="198.79855346679688 178.9169464111328 631.5250549316406 673.6930389404297" version="1.1" width="32" height="38" style="">
<path fill="#ffffff" opacity="1.00" d=" M 0.00 0.00 L 1024.00 0.00 L 1024.00 1024.00 L 0.00 1024.00 L 0.00 0.00 M 733.41 180.58 C 720.41 186.36 707.74 192.88 694.77 198.76 C 690.24 200.86 685.87 204.03 683.93 208.80 C 681.43 214.04 681.89 220.28 684.49 225.40 C 708.26 276.96 731.96 328.56 755.93 380.03 C 759.87 389.06 771.74 392.85 780.43 388.52 C 793.12 382.63 805.67 376.44 818.39 370.61 C 825.21 367.65 829.96 360.50 829.81 353.03 C 830.06 347.33 826.81 342.41 824.60 337.39 C 802.18 288.49 779.67 239.63 757.13 190.78 C 753.37 182.01 742.41 177.01 733.41 180.58 M 400.71 381.17 C 389.61 374.46 378.60 367.60 367.58 360.77 C 381.01 353.77 394.82 347.54 408.25 340.53 C 410.37 344.08 415.02 346.21 418.86 344.00 C 430.05 338.55 441.22 333.04 452.44 327.65 C 456.10 326.19 458.12 321.48 456.50 317.89 C 449.83 303.45 443.03 289.07 436.21 274.70 C 435.00 272.36 432.75 270.41 430.03 270.25 C 427.29 269.81 424.90 271.38 422.58 272.56 C 412.31 277.69 401.83 282.42 391.54 287.51 C 387.54 289.30 386.38 294.09 387.91 297.94 C 361.76 310.58 335.59 323.18 309.43 335.78 C 306.47 337.58 302.26 338.32 300.91 341.92 C 300.00 343.71 300.69 345.78 300.25 347.66 C 289.09 352.99 278.03 358.54 266.83 363.77 C 265.72 361.55 264.36 359.08 261.75 358.44 C 257.78 357.27 254.30 360.13 250.89 361.67 C 247.54 363.11 246.36 367.66 248.09 370.75 C 253.60 382.34 258.97 394.00 264.48 405.60 C 265.68 408.80 269.44 411.26 272.81 409.75 C 275.94 408.35 279.30 407.14 281.95 404.91 C 284.44 402.17 283.41 398.36 282.12 395.35 C 293.29 389.93 304.47 384.53 315.62 379.07 C 317.60 380.90 320.08 383.13 323.01 382.35 C 325.75 381.45 328.22 379.94 330.77 378.64 C 341.18 386.75 351.44 395.03 361.82 403.18 C 348.08 410.60 334.60 418.46 320.90 425.94 C 316.21 428.35 311.37 430.79 307.84 434.83 C 298.81 443.91 296.89 458.51 301.77 470.12 C 310.66 489.86 319.93 509.43 328.94 529.11 C 334.62 541.91 349.13 550.08 363.02 547.96 C 367.93 547.38 372.42 545.23 376.85 543.18 C 416.79 525.96 456.73 508.72 496.63 491.39 C 496.38 472.62 504.19 453.81 518.32 441.32 C 530.37 430.44 546.79 424.46 563.03 425.27 C 579.67 425.68 595.56 433.66 606.88 445.68 C 650.62 426.91 694.26 407.90 737.86 388.80 C 714.11 336.66 689.76 284.77 666.01 232.63 C 577.48 281.98 489.05 331.50 400.71 381.17 M 531.44 456.19 C 521.87 464.59 516.61 477.37 516.60 490.02 C 516.48 506.76 516.50 523.52 516.50 540.27 C 508.65 540.31 500.80 540.21 492.95 540.25 C 483.03 540.23 473.41 546.18 468.88 554.98 C 464.53 563.13 464.78 573.45 469.26 581.48 C 472.28 587.14 477.50 591.26 483.27 593.87 C 443.73 679.99 403.75 765.91 364.32 852.09 C 377.22 851.63 390.13 852.11 403.03 851.84 C 410.52 851.20 416.78 845.46 419.62 838.73 C 426.63 822.78 434.22 807.09 441.30 791.18 C 449.33 774.22 456.77 757.00 464.90 740.09 C 482.47 740.10 500.04 740.17 517.62 740.06 C 517.61 730.85 517.66 721.65 517.62 712.45 C 504.24 712.41 490.87 712.49 477.50 712.43 C 495.74 673.48 513.62 634.36 531.55 595.27 C 533.64 595.24 535.75 595.26 537.86 595.25 C 537.84 678.49 537.85 761.73 537.87 844.97 C 537.70 848.41 540.40 851.97 544.01 851.90 C 555.00 851.91 565.99 851.98 576.98 851.87 C 580.47 851.86 582.95 848.31 582.70 845.02 C 582.68 810.06 582.73 775.10 582.67 740.14 C 609.04 740.12 635.41 740.05 661.78 740.19 C 677.39 773.44 692.55 806.89 708.06 840.19 C 711.06 846.74 717.58 851.81 724.96 851.87 C 737.37 852.15 749.78 851.85 762.19 852.11 C 760.77 847.98 758.66 844.14 756.97 840.13 C 734.83 791.94 712.58 743.79 690.36 695.63 C 674.24 660.98 658.47 626.16 642.19 591.59 C 644.26 589.88 646.38 588.20 648.16 586.17 C 655.72 577.62 656.88 564.37 651.48 554.41 C 647.11 546.27 638.31 540.62 629.04 540.32 C 620.76 540.12 612.48 540.38 604.21 540.19 C 604.27 523.47 604.21 506.76 604.24 490.04 C 604.16 476.58 598.28 462.96 587.60 454.56 C 580.04 448.66 570.59 444.94 560.94 445.08 C 550.16 444.78 539.34 448.85 531.44 456.19 M 229.75 507.84 C 227.20 503.48 226.25 497.16 220.91 495.26 C 216.73 493.50 212.87 496.50 209.21 498.10 C 205.63 499.76 200.93 501.14 199.70 505.40 C 198.30 509.66 200.88 513.66 202.56 517.41 C 212.90 539.66 223.38 561.85 233.69 584.12 C 235.44 588.12 240.54 590.76 244.66 588.68 C 248.54 586.92 252.39 585.07 256.21 583.17 C 259.54 581.60 261.20 577.50 260.42 574.00 C 259.37 570.69 257.68 567.65 256.17 564.54 C 274.31 555.13 292.98 546.75 311.20 537.49 C 302.22 518.83 293.66 499.97 284.93 481.18 C 266.46 489.91 248.26 499.20 229.75 507.84 Z" style="fill: none !important;"/>
<path fill="#000000" opacity="1.00" d=" M 733.41 180.58 C 742.41 177.01 753.37 182.01 757.13 190.78 C 779.67 239.63 802.18 288.49 824.60 337.39 C 826.81 342.41 830.06 347.33 829.81 353.03 C 829.96 360.50 825.21 367.65 818.39 370.61 C 805.67 376.44 793.12 382.63 780.43 388.52 C 771.74 392.85 759.87 389.06 755.93 380.03 C 731.96 328.56 708.26 276.96 684.49 225.40 C 681.89 220.28 681.43 214.04 683.93 208.80 C 685.87 204.03 690.24 200.86 694.77 198.76 C 707.74 192.88 720.41 186.36 733.41 180.58 Z" style="fill: rgb(0, 0, 0) !important;"/>
<path fill="#000000" opacity="1.00" d=" M 400.71 381.17 C 489.05 331.50 577.48 281.98 666.01 232.63 C 689.76 284.77 714.11 336.66 737.86 388.80 C 694.26 407.90 650.62 426.91 606.88 445.68 C 595.56 433.66 579.67 425.68 563.03 425.27 C 546.79 424.46 530.37 430.44 518.32 441.32 C 504.19 453.81 496.38 472.62 496.63 491.39 C 456.73 508.72 416.79 525.96 376.85 543.18 C 372.42 545.23 367.93 547.38 363.02 547.96 C 349.13 550.08 334.62 541.91 328.94 529.11 C 319.93 509.43 310.66 489.86 301.77 470.12 C 296.89 458.51 298.81 443.91 307.84 434.83 C 311.37 430.79 316.21 428.35 320.90 425.94 C 334.60 418.46 348.08 410.60 361.82 403.18 C 351.44 395.03 341.18 386.75 330.77 378.64 C 328.22 379.94 325.75 381.45 323.01 382.35 C 320.08 383.13 317.60 380.90 315.62 379.07 C 304.47 384.53 293.29 389.93 282.12 395.35 C 283.41 398.36 284.44 402.17 281.95 404.91 C 279.30 407.14 275.94 408.35 272.81 409.75 C 269.44 411.26 265.68 408.80 264.48 405.60 C 258.97 394.00 253.60 382.34 248.09 370.75 C 246.36 367.66 247.54 363.11 250.89 361.67 C 254.30 360.13 257.78 357.27 261.75 358.44 C 264.36 359.08 265.72 361.55 266.83 363.77 C 278.03 358.54 289.09 352.99 300.25 347.66 C 300.69 345.78 300.00 343.71 300.91 341.92 C 302.26 338.32 306.47 337.58 309.43 335.78 C 335.59 323.18 361.76 310.58 387.91 297.94 C 386.38 294.09 387.54 289.30 391.54 287.51 C 401.83 282.42 412.31 277.69 422.58 272.56 C 424.90 271.38 427.29 269.81 430.03 270.25 C 432.75 270.41 435.00 272.36 436.21 274.70 C 443.03 289.07 449.83 303.45 456.50 317.89 C 458.12 321.48 456.10 326.19 452.44 327.65 C 441.22 333.04 430.05 338.55 418.86 344.00 C 415.02 346.21 410.37 344.08 408.25 340.53 C 394.82 347.54 381.01 353.77 367.58 360.77 C 378.60 367.60 389.61 374.46 400.71 381.17 M 644.44 273.69 C 578.23 310.29 512.26 347.32 446.09 384.00 C 443.40 385.51 440.45 387.22 439.25 390.24 C 436.75 395.80 440.70 403.18 446.85 403.86 C 450.96 404.48 454.48 401.88 457.86 399.96 C 523.07 363.69 588.21 327.28 653.53 291.21 C 657.23 289.27 659.51 285.08 658.89 280.90 C 658.30 274.36 650.05 270.01 644.44 273.69 M 408.33 405.54 C 398.47 410.34 389.13 416.16 379.45 421.33 C 375.41 423.66 371.14 425.62 367.28 428.27 C 362.46 431.86 362.78 439.97 367.61 443.43 C 370.84 446.02 375.53 446.08 379.04 443.98 C 391.47 437.16 403.85 430.24 416.19 423.26 C 420.81 420.63 422.29 414.08 419.56 409.60 C 417.37 405.82 412.41 404.16 408.33 405.54 Z" style="fill: rgb(0, 0, 0) !important;"/>
<path fill="#ffffff" opacity="1.00" d=" M 644.44 273.69 C 650.05 270.01 658.30 274.36 658.89 280.90 C 659.51 285.08 657.23 289.27 653.53 291.21 C 588.21 327.28 523.07 363.69 457.86 399.96 C 454.48 401.88 450.96 404.48 446.85 403.86 C 440.70 403.18 436.75 395.80 439.25 390.24 C 440.45 387.22 443.40 385.51 446.09 384.00 C 512.26 347.32 578.23 310.29 644.44 273.69 Z" style="fill: none !important;"/>
<path fill="#ffffff" opacity="1.00" d=" M 408.33 405.54 C 412.41 404.16 417.37 405.82 419.56 409.60 C 422.29 414.08 420.81 420.63 416.19 423.26 C 403.85 430.24 391.47 437.16 379.04 443.98 C 375.53 446.08 370.84 446.02 367.61 443.43 C 362.78 439.97 362.46 431.86 367.28 428.27 C 371.14 425.62 375.41 423.66 379.45 421.33 C 389.13 416.16 398.47 410.34 408.33 405.54 Z" style="fill: none !important;"/>
<path fill="#000000" opacity="1.00" d=" M 531.44 456.19 C 539.34 448.85 550.16 444.78 560.94 445.08 C 570.59 444.94 580.04 448.66 587.60 454.56 C 598.28 462.96 604.16 476.58 604.24 490.04 C 604.21 506.76 604.27 523.47 604.21 540.19 C 612.48 540.38 620.76 540.12 629.04 540.32 C 638.31 540.62 647.11 546.27 651.48 554.41 C 656.88 564.37 655.72 577.62 648.16 586.17 C 646.38 588.20 644.26 589.88 642.19 591.59 C 658.47 626.16 674.24 660.98 690.36 695.63 C 712.58 743.79 734.83 791.94 756.97 840.13 C 758.66 844.14 760.77 847.98 762.19 852.11 C 749.78 851.85 737.37 852.15 724.96 851.87 C 717.58 851.81 711.06 846.74 708.06 840.19 C 692.55 806.89 677.39 773.44 661.78 740.19 C 635.41 740.05 609.04 740.12 582.67 740.14 C 582.73 775.10 582.68 810.06 582.70 845.02 C 582.95 848.31 580.47 851.86 576.98 851.87 C 565.99 851.98 555.00 851.91 544.01 851.90 C 540.40 851.97 537.70 848.41 537.87 844.97 C 537.85 761.73 537.84 678.49 537.86 595.25 C 535.75 595.26 533.64 595.24 531.55 595.27 C 513.62 634.36 495.74 673.48 477.50 712.43 C 490.87 712.49 504.24 712.41 517.62 712.45 C 517.66 721.65 517.61 730.85 517.62 740.06 C 500.04 740.17 482.47 740.10 464.90 740.09 C 456.77 757.00 449.33 774.22 441.30 791.18 C 434.22 807.09 426.63 822.78 419.62 838.73 C 416.78 845.46 410.52 851.20 403.03 851.84 C 390.13 852.11 377.22 851.63 364.32 852.09 C 403.75 765.91 443.73 679.99 483.27 593.87 C 477.50 591.26 472.28 587.14 469.26 581.48 C 464.78 573.45 464.53 563.13 468.88 554.98 C 473.41 546.18 483.03 540.23 492.95 540.25 C 500.80 540.21 508.65 540.31 516.50 540.27 C 516.50 523.52 516.48 506.76 516.60 490.02 C 516.61 477.37 521.87 464.59 531.44 456.19 M 556.38 475.63 C 548.72 477.63 543.68 486.47 546.12 494.07 C 547.81 501.74 556.50 506.48 563.97 504.55 C 571.89 502.83 577.23 493.81 574.68 486.06 C 572.64 478.38 564.12 473.16 556.38 475.63 M 582.65 595.22 C 582.74 634.29 582.67 673.36 582.70 712.43 C 604.89 712.49 627.07 712.46 649.26 712.42 C 631.06 673.39 613.22 634.19 594.98 595.17 C 590.87 595.18 586.76 595.22 582.65 595.22 Z" style="fill: rgb(0, 0, 0) !important;"/>
<path fill="#ffffff" opacity="1.00" d=" M 556.38 475.63 C 564.12 473.16 572.64 478.38 574.68 486.06 C 577.23 493.81 571.89 502.83 563.97 504.55 C 556.50 506.48 547.81 501.74 546.12 494.07 C 543.68 486.47 548.72 477.63 556.38 475.63 Z" style="fill: none !important;"/>
<path fill="#000000" opacity="1.00" d=" M 229.75 507.84 C 248.26 499.20 266.46 489.91 284.93 481.18 C 293.66 499.97 302.22 518.83 311.20 537.49 C 292.98 546.75 274.31 555.13 256.17 564.54 C 257.68 567.65 259.37 570.69 260.42 574.00 C 261.20 577.50 259.54 581.60 256.21 583.17 C 252.39 585.07 248.54 586.92 244.66 588.68 C 240.54 590.76 235.44 588.12 233.69 584.12 C 223.38 561.85 212.90 539.66 202.56 517.41 C 200.88 513.66 198.30 509.66 199.70 505.40 C 200.93 501.14 205.63 499.76 209.21 498.10 C 212.87 496.50 216.73 493.50 220.91 495.26 C 226.25 497.16 227.20 503.48 229.75 507.84 Z" style="fill: rgb(0, 0, 0) !important;"/>
<path fill="#ffffff" opacity="1.00" d=" M 582.65 595.22 C 586.76 595.22 590.87 595.18 594.98 595.17 C 613.22 634.19 631.06 673.39 649.26 712.42 C 627.07 712.46 604.89 712.49 582.70 712.43 C 582.67 673.36 582.74 634.29 582.65 595.22 Z" style="fill: none !important;"/>
</svg>