<svg xmlns="http://www.w3.org/2000/svg" viewBox="153.11993408203125 204.1077117919922 717.8119506835938 615.7103424072266" version="1.1" width="32" height="38" style="">
<path fill="#ffffff" opacity="1.00" d=" M 0.00 0.00 L 1024.00 0.00 L 1024.00 1024.00 L 0.00 1024.00 L 0.00 0.00 M 259.88 219.93 C 226.09 234.84 197.37 260.76 178.79 292.66 C 162.45 320.52 153.90 352.77 153.68 385.03 C 153.64 401.76 153.69 418.50 153.68 435.24 C 200.60 435.25 247.53 435.22 294.45 435.25 C 294.50 411.50 293.97 387.70 296.13 364.03 C 298.16 340.76 301.84 317.62 307.80 295.03 C 315.81 263.38 327.71 232.47 345.15 204.78 C 316.09 203.66 286.52 207.92 259.88 219.93 M 348.22 270.98 C 340.55 299.41 336.34 328.68 334.17 358.01 C 332.24 383.72 332.86 409.50 332.73 435.25 C 452.24 435.23 571.75 435.21 691.27 435.27 C 691.06 413.18 691.84 391.06 690.65 368.99 C 688.35 324.92 681.18 280.81 665.85 239.31 C 661.64 227.31 656.17 215.82 649.90 204.77 C 558.16 204.64 466.42 204.72 374.69 204.74 C 362.18 225.14 354.55 248.04 348.22 270.98 M 714.82 289.29 C 721.78 313.72 725.63 338.93 727.92 364.20 C 730.10 387.82 729.59 411.56 729.57 435.25 C 776.50 435.26 823.42 435.20 870.35 435.26 C 870.37 418.51 870.39 401.77 870.35 385.02 C 870.12 347.24 858.49 309.39 836.24 278.73 C 814.34 247.86 782.14 224.51 746.09 213.04 C 724.48 206.15 701.63 204.07 679.04 204.80 C 695.28 230.89 706.75 259.70 714.82 289.29 M 153.67 460.77 C 153.60 566.19 153.70 671.62 153.62 777.04 C 153.59 793.26 163.65 809.11 178.60 815.59 C 186.80 819.65 196.11 819.39 205.02 819.26 C 234.84 819.24 264.66 819.24 294.47 819.28 C 294.44 699.76 294.50 580.24 294.43 460.72 C 247.51 460.75 200.59 460.68 153.67 460.77 M 332.78 460.77 C 332.70 580.27 332.80 699.77 332.74 819.27 C 452.24 819.25 571.74 819.22 691.24 819.28 C 691.27 699.75 691.27 580.22 691.26 460.69 C 657.10 460.77 622.94 460.66 588.78 460.78 C 588.74 486.52 588.77 512.25 588.81 537.99 C 589.16 563.44 575.36 588.39 554.01 602.12 C 538.89 612.37 519.91 616.09 501.91 613.82 C 485.38 611.74 469.56 604.08 457.88 592.18 C 443.83 578.27 435.25 558.83 435.20 538.99 C 435.18 512.89 435.24 486.79 435.20 460.69 C 401.06 460.79 366.92 460.64 332.78 460.77 M 460.70 460.78 C 460.71 484.52 460.67 508.26 460.71 532.00 C 460.13 542.42 461.79 553.05 466.81 562.29 C 475.09 578.02 492.26 588.34 509.97 588.83 C 521.88 589.42 533.89 585.60 543.42 578.48 C 555.66 569.29 563.25 554.25 563.26 538.93 C 563.29 512.85 563.26 486.78 563.28 460.70 C 529.09 460.80 494.89 460.63 460.70 460.78 M 729.58 460.77 C 729.54 580.27 729.63 699.77 729.55 819.27 C 762.70 819.27 795.84 819.24 828.98 819.26 C 842.88 819.21 856.39 811.50 863.81 799.80 C 868.53 792.49 870.61 783.66 870.42 775.02 C 870.30 670.25 870.47 565.48 870.33 460.70 C 823.42 460.76 776.50 460.67 729.58 460.77 Z" style="fill: none !important;"/>
<path fill="#000000" opacity="1.00" d=" M 259.88 219.93 C 286.52 207.92 316.09 203.66 345.15 204.78 C 327.71 232.47 315.81 263.38 307.80 295.03 C 301.84 317.62 298.16 340.76 296.13 364.03 C 293.97 387.70 294.50 411.50 294.45 435.25 C 247.53 435.22 200.60 435.25 153.68 435.24 C 153.69 418.50 153.64 401.76 153.68 385.03 C 153.90 352.77 162.45 320.52 178.79 292.66 C 197.37 260.76 226.09 234.84 259.88 219.93 Z" style="fill: rgb(0, 0, 0) !important;"/>
<path fill="#000000" opacity="1.00" d=" M 348.22 270.98 C 354.55 248.04 362.18 225.14 374.69 204.74 C 466.42 204.72 558.16 204.64 649.90 204.77 C 656.17 215.82 661.64 227.31 665.85 239.31 C 681.18 280.81 688.35 324.92 690.65 368.99 C 691.84 391.06 691.06 413.18 691.27 435.27 C 571.75 435.21 452.24 435.23 332.73 435.25 C 332.86 409.50 332.24 383.72 334.17 358.01 C 336.34 328.68 340.55 299.41 348.22 270.98 Z" style="fill: rgb(0, 0, 0) !important;"/>
<path fill="#000000" opacity="1.00" d=" M 714.82 289.29 C 706.75 259.70 695.28 230.89 679.04 204.80 C 701.63 204.07 724.48 206.15 746.09 213.04 C 782.14 224.51 814.34 247.86 836.24 278.73 C 858.49 309.39 870.12 347.24 870.35 385.02 C 870.39 401.77 870.37 418.51 870.35 435.26 C 823.42 435.20 776.50 435.26 729.57 435.25 C 729.59 411.56 730.10 387.82 727.92 364.20 C 725.63 338.93 721.78 313.72 714.82 289.29 Z" style="fill: rgb(0, 0, 0) !important;"/>
<path fill="#000000" opacity="1.00" d=" M 153.67 460.77 C 200.59 460.68 247.51 460.75 294.43 460.72 C 294.50 580.24 294.44 699.76 294.47 819.28 C 264.66 819.24 234.84 819.24 205.02 819.26 C 196.11 819.39 186.80 819.65 178.60 815.59 C 163.65 809.11 153.59 793.26 153.62 777.04 C 153.70 671.62 153.60 566.19 153.67 460.77 Z" style="fill: rgb(0, 0, 0) !important;"/>
<path fill="#000000" opacity="1.00" d=" M 332.78 460.77 C 366.92 460.64 401.06 460.79 435.20 460.69 C 435.24 486.79 435.18 512.89 435.20 538.99 C 435.25 558.83 443.83 578.27 457.88 592.18 C 469.56 604.08 485.38 611.74 501.91 613.82 C 519.91 616.09 538.89 612.37 554.01 602.12 C 575.36 588.39 589.16 563.44 588.81 537.99 C 588.77 512.25 588.74 486.52 588.78 460.78 C 622.94 460.66 657.10 460.77 691.26 460.69 C 691.27 580.22 691.27 699.75 691.24 819.28 C 571.74 819.22 452.24 819.25 332.74 819.27 C 332.80 699.77 332.70 580.27 332.78 460.77 Z" style="fill: rgb(0, 0, 0) !important;"/>
<path fill="#000000" opacity="1.00" d=" M 460.70 460.78 C 494.89 460.63 529.09 460.80 563.28 460.70 C 563.26 486.78 563.29 512.85 563.26 538.93 C 563.25 554.25 555.66 569.29 543.42 578.48 C 533.89 585.60 521.88 589.42 509.97 588.83 C 492.26 588.34 475.09 578.02 466.81 562.29 C 461.79 553.05 460.13 542.42 460.71 532.00 C 460.67 508.26 460.71 484.52 460.70 460.78 M 497.70 491.74 C 490.68 497.45 487.84 507.68 490.92 516.19 C 492.42 520.87 495.85 524.54 499.50 527.68 C 499.49 533.80 499.48 539.92 499.49 546.04 C 499.49 552.58 505.40 558.45 511.95 558.36 C 518.48 558.41 524.50 552.64 524.49 546.06 C 524.56 539.92 524.46 533.78 524.49 527.64 C 531.03 523.06 534.95 514.97 534.21 506.99 C 533.40 499.76 529.28 492.74 522.75 489.28 C 514.96 484.82 504.50 485.92 497.70 491.74 Z" style="fill: rgb(0, 0, 0) !important;"/>
<path fill="#000000" opacity="1.00" d=" M 729.58 460.77 C 776.50 460.67 823.42 460.76 870.33 460.70 C 870.47 565.48 870.30 670.25 870.42 775.02 C 870.61 783.66 868.53 792.49 863.81 799.80 C 856.39 811.50 842.88 819.21 828.98 819.26 C 795.84 819.24 762.70 819.27 729.55 819.27 C 729.63 699.77 729.54 580.27 729.58 460.77 Z" style="fill: rgb(0, 0, 0) !important;"/>
<path fill="#ffffff" opacity="1.00" d=" M 497.70 491.74 C 504.50 485.92 514.96 484.82 522.75 489.28 C 529.28 492.74 533.40 499.76 534.21 506.99 C 534.95 514.97 531.03 523.06 524.49 527.64 C 524.46 533.78 524.56 539.92 524.49 546.06 C 524.50 552.64 518.48 558.41 511.95 558.36 C 505.40 558.45 499.49 552.58 499.49 546.04 C 499.48 539.92 499.49 533.80 499.50 527.68 C 495.85 524.54 492.42 520.87 490.92 516.19 C 487.84 507.68 490.68 497.45 497.70 491.74 Z" style="fill: none !important;"/>
</svg>