<svg xmlns="http://www.w3.org/2000/svg" viewBox="153.0460662841797 168.588134765625 717.9425201416016 687.0354614257812" version="1.1" width="32" height="38" style="">
<path fill="#ffffff" opacity="1.00" d=" M 0.00 0.00 L 1024.00 0.00 L 1024.00 1024.00 L 0.00 1024.00 L 0.00 0.00 M 175.82 198.93 C 161.34 215.30 153.09 237.18 153.65 259.07 C 153.58 412.07 153.60 565.07 153.66 718.07 C 169.51 701.97 190.63 691.18 213.11 688.44 C 220.04 687.41 227.05 687.72 234.03 687.67 C 249.88 687.68 265.74 687.61 281.59 687.68 C 281.61 519.09 281.57 350.50 281.58 181.91 C 282.07 175.48 276.71 168.91 270.06 169.11 C 260.37 169.06 250.69 169.11 241.01 169.12 C 216.32 169.02 192.09 180.47 175.82 198.93 M 742.69 178.93 C 742.12 182.58 742.56 186.30 742.45 189.98 C 742.38 348.51 742.53 507.04 742.35 665.57 C 757.89 665.75 773.45 665.21 788.98 665.89 C 820.53 667.94 849.85 684.62 870.34 708.27 C 870.43 558.19 870.40 408.11 870.39 258.04 C 870.77 231.22 858.27 204.42 837.02 187.96 C 822.23 176.48 803.82 169.24 784.99 169.14 C 774.63 169.06 764.27 169.10 753.91 169.16 C 748.43 169.09 743.54 173.61 742.69 178.93 M 307.22 256.10 C 307.30 402.08 307.21 548.05 307.25 694.03 C 307.25 697.72 307.50 701.57 306.03 705.07 C 303.85 710.07 298.38 713.30 292.97 713.17 C 270.97 713.13 248.98 713.16 226.98 713.19 C 205.67 712.83 184.21 722.11 170.45 738.50 C 160.21 750.23 154.18 765.50 153.63 781.07 C 152.80 797.17 158.17 813.34 167.78 826.20 C 176.44 837.84 188.76 846.59 202.40 851.42 C 215.15 855.80 228.78 855.02 242.05 855.10 C 313.35 855.00 384.66 855.32 455.96 854.90 C 461.83 855.18 467.55 851.38 469.64 845.91 C 475.27 831.79 481.51 817.94 487.25 803.87 C 488.44 801.06 489.61 797.98 492.24 796.19 C 496.03 793.32 501.51 792.96 505.54 795.57 C 508.77 797.33 510.27 800.84 511.64 804.06 C 517.00 816.49 522.04 829.04 527.42 841.46 C 529.27 845.41 530.61 850.01 534.50 852.51 C 538.96 855.85 544.82 855.00 550.03 855.08 C 625.34 855.09 700.66 855.10 775.98 855.11 C 785.99 854.85 796.01 855.28 806.02 854.61 C 828.46 852.67 849.41 839.08 860.59 819.56 C 869.57 804.81 872.18 786.79 869.47 769.87 C 866.56 746.08 853.63 723.82 834.45 709.46 C 818.53 697.05 798.17 690.81 778.07 691.15 C 763.71 691.16 749.36 691.13 735.01 691.17 C 730.03 691.46 724.45 691.01 720.82 687.17 C 716.04 682.80 716.81 675.83 716.85 669.99 C 716.82 531.96 716.93 393.93 716.76 255.90 C 692.49 255.93 668.22 255.83 643.94 255.94 C 637.81 255.74 631.46 259.75 630.08 265.91 C 628.68 271.95 631.48 277.79 633.94 283.14 C 638.20 293.39 643.49 303.67 643.53 315.04 C 643.87 326.47 639.39 337.57 632.57 346.59 C 623.28 360.09 608.97 370.41 603.62 386.40 C 599.39 398.42 604.72 410.82 603.76 423.05 C 603.26 432.08 598.06 440.68 590.25 445.25 C 586.41 447.62 581.43 449.21 577.12 447.15 C 573.15 445.71 570.89 441.78 569.89 437.89 C 566.98 427.74 563.61 417.57 563.06 406.95 C 562.41 395.29 565.49 383.49 571.79 373.66 C 577.23 364.76 584.98 357.68 591.89 349.98 C 595.73 345.55 599.08 340.08 598.80 334.00 C 598.83 328.44 595.99 323.45 593.12 318.87 C 586.90 309.50 581.76 299.47 576.22 289.70 C 571.01 280.53 565.92 271.29 560.85 262.05 C 558.57 257.80 553.76 255.68 549.06 255.90 C 524.37 255.91 499.67 255.83 474.98 255.95 C 470.67 255.85 466.01 256.50 462.92 259.82 C 454.14 268.81 445.86 278.29 436.76 286.95 C 434.75 289.06 432.00 287.12 430.47 285.47 C 422.49 277.46 414.17 269.81 405.98 262.02 C 402.66 258.91 398.90 255.53 393.99 255.91 C 365.07 255.99 336.13 255.66 307.22 256.10 Z" style="fill: none !important;"/>
<path fill="#000000" opacity="1.00" d=" M 175.82 198.93 C 192.09 180.47 216.32 169.02 241.01 169.12 C 250.69 169.11 260.37 169.06 270.06 169.11 C 276.71 168.91 282.07 175.48 281.58 181.91 C 281.57 350.50 281.61 519.09 281.59 687.68 C 265.74 687.61 249.88 687.68 234.03 687.67 C 227.05 687.72 220.04 687.41 213.11 688.44 C 190.63 691.18 169.51 701.97 153.66 718.07 C 153.60 565.07 153.58 412.07 153.65 259.07 C 153.09 237.18 161.34 215.30 175.82 198.93 Z" style="fill: rgb(0, 0, 0) !important;"/>
<path fill="#000000" opacity="1.00" d=" M 742.69 178.93 C 743.54 173.61 748.43 169.09 753.91 169.16 C 764.27 169.10 774.63 169.06 784.99 169.14 C 803.82 169.24 822.23 176.48 837.02 187.96 C 858.27 204.42 870.77 231.22 870.39 258.04 C 870.40 408.11 870.43 558.19 870.34 708.27 C 849.85 684.62 820.53 667.94 788.98 665.89 C 773.45 665.21 757.89 665.75 742.35 665.57 C 742.53 507.04 742.38 348.51 742.45 189.98 C 742.56 186.30 742.12 182.58 742.69 178.93 Z" style="fill: rgb(0, 0, 0) !important;"/>
<path fill="#000000" opacity="1.00" d=" M 307.22 256.10 C 336.13 255.66 365.07 255.99 393.99 255.91 C 398.90 255.53 402.66 258.91 405.98 262.02 C 414.17 269.81 422.49 277.46 430.47 285.47 C 432.00 287.12 434.75 289.06 436.76 286.95 C 445.86 278.29 454.14 268.81 462.92 259.82 C 466.01 256.50 470.67 255.85 474.98 255.95 C 499.67 255.83 524.37 255.91 549.06 255.90 C 553.76 255.68 558.57 257.80 560.85 262.05 C 565.92 271.29 571.01 280.53 576.22 289.70 C 581.76 299.47 586.90 309.50 593.12 318.87 C 595.99 323.45 598.83 328.44 598.80 334.00 C 599.08 340.08 595.73 345.55 591.89 349.98 C 584.98 357.68 577.23 364.76 571.79 373.66 C 565.49 383.49 562.41 395.29 563.06 406.95 C 563.61 417.57 566.98 427.74 569.89 437.89 C 570.89 441.78 573.15 445.71 577.12 447.15 C 581.43 449.21 586.41 447.62 590.25 445.25 C 598.06 440.68 603.26 432.08 603.76 423.05 C 604.72 410.82 599.39 398.42 603.62 386.40 C 608.97 370.41 623.28 360.09 632.57 346.59 C 639.39 337.57 643.87 326.47 643.53 315.04 C 643.49 303.67 638.20 293.39 633.94 283.14 C 631.48 277.79 628.68 271.95 630.08 265.91 C 631.46 259.75 637.81 255.74 643.94 255.94 C 668.22 255.83 692.49 255.93 716.76 255.90 C 716.93 393.93 716.82 531.96 716.85 669.99 C 716.81 675.83 716.04 682.80 720.82 687.17 C 724.45 691.01 730.03 691.46 735.01 691.17 C 749.36 691.13 763.71 691.16 778.07 691.15 C 798.17 690.81 818.53 697.05 834.45 709.46 C 853.63 723.82 866.56 746.08 869.47 769.87 C 872.18 786.79 869.57 804.81 860.59 819.56 C 849.41 839.08 828.46 852.67 806.02 854.61 C 796.01 855.28 785.99 854.85 775.98 855.11 C 700.66 855.10 625.34 855.09 550.03 855.08 C 544.82 855.00 538.96 855.85 534.50 852.51 C 530.61 850.01 529.27 845.41 527.42 841.46 C 522.04 829.04 517.00 816.49 511.64 804.06 C 510.27 800.84 508.77 797.33 505.54 795.57 C 501.51 792.96 496.03 793.32 492.24 796.19 C 489.61 797.98 488.44 801.06 487.25 803.87 C 481.51 817.94 475.27 831.79 469.64 845.91 C 467.55 851.38 461.83 855.18 455.96 854.90 C 384.66 855.32 313.35 855.00 242.05 855.10 C 228.78 855.02 215.15 855.80 202.40 851.42 C 188.76 846.59 176.44 837.84 167.78 826.20 C 158.17 813.34 152.80 797.17 153.63 781.07 C 154.18 765.50 160.21 750.23 170.45 738.50 C 184.21 722.11 205.67 712.83 226.98 713.19 C 248.98 713.16 270.97 713.13 292.97 713.17 C 298.38 713.30 303.85 710.07 306.03 705.07 C 307.50 701.57 307.25 697.72 307.25 694.03 C 307.21 548.05 307.30 402.08 307.22 256.10 M 422.52 371.31 C 415.63 371.40 408.65 370.91 401.86 372.39 C 391.36 374.71 381.31 380.06 374.20 388.21 C 369.71 393.32 370.54 401.94 375.82 406.18 C 378.88 409.15 383.26 409.63 387.32 409.54 C 390.33 418.13 393.08 426.81 396.46 435.26 C 387.74 435.28 379.01 435.19 370.30 435.35 C 364.49 435.52 359.46 440.33 358.72 446.03 C 357.41 453.27 363.66 460.76 371.05 460.63 C 413.73 460.67 456.40 460.59 499.08 460.68 C 505.18 460.93 510.91 456.12 511.82 450.10 C 513.29 442.95 507.18 435.70 500.01 435.30 C 491.45 435.17 482.89 435.28 474.33 435.26 C 477.31 426.65 480.26 418.04 483.50 409.53 C 489.03 409.91 495.03 407.63 497.76 402.56 C 500.00 398.36 500.00 392.85 497.04 388.99 C 489.78 380.18 479.21 374.41 468.07 372.20 C 461.41 370.97 454.60 371.39 447.87 371.24 C 448.32 363.51 440.56 357.04 433.05 358.55 C 426.86 359.36 422.43 365.19 422.52 371.31 M 678.54 439.78 C 669.81 442.70 661.47 446.77 653.74 451.77 C 650.05 454.03 648.06 458.71 649.58 462.88 C 651.17 468.41 658.30 471.37 663.22 468.20 C 668.86 464.55 674.78 461.33 681.14 459.10 C 685.26 457.87 690.05 455.86 690.95 451.11 C 693.27 443.99 685.35 437.06 678.54 439.78 M 632.37 480.56 C 627.71 482.12 625.25 487.38 626.03 492.06 C 626.71 501.50 632.41 509.60 638.85 516.13 C 641.66 519.17 646.37 520.41 650.15 518.46 C 655.36 516.25 657.42 508.81 653.75 504.38 C 651.14 501.26 648.30 498.27 646.47 494.58 C 644.27 491.22 644.90 486.76 642.37 483.57 C 640.19 480.43 635.90 479.32 632.37 480.56 M 552.54 486.80 C 548.24 488.31 547.49 493.13 546.92 497.04 C 543.47 514.60 535.93 531.54 523.94 544.95 C 510.79 560.46 492.11 569.62 477.75 583.79 C 468.79 592.64 462.18 604.34 461.05 617.03 C 459.89 628.64 464.48 640.96 473.71 648.30 C 481.93 654.99 492.02 658.75 502.04 661.86 C 513.82 665.41 525.36 670.29 535.41 677.48 C 539.11 680.04 542.72 684.78 547.83 682.94 C 553.68 681.50 555.43 672.97 550.70 669.29 C 538.18 658.42 522.61 651.79 506.91 646.96 C 498.05 643.93 488.28 641.44 481.79 634.20 C 475.98 628.14 475.50 618.68 478.28 611.12 C 481.90 600.56 490.33 592.65 499.02 586.10 C 512.43 575.99 526.60 566.43 537.32 553.31 C 550.68 537.69 559.06 518.19 562.84 498.09 C 563.31 495.55 563.85 492.75 562.57 490.37 C 560.92 486.69 556.12 485.30 552.54 486.80 M 664.53 530.67 C 659.38 532.56 656.84 539.08 659.47 543.93 C 662.52 549.89 665.00 556.14 666.64 562.65 C 667.31 565.77 669.79 568.25 672.79 569.25 C 677.31 570.93 683.05 568.54 684.68 563.91 C 686.27 560.03 684.61 555.90 683.54 552.12 C 681.43 545.74 679.22 539.25 675.35 533.69 C 673.05 530.24 668.26 529.21 664.53 530.67 M 673.53 587.73 C 669.96 588.72 667.48 591.95 666.74 595.49 C 665.12 602.18 662.52 608.55 659.88 614.89 C 657.93 619.37 660.54 625.14 665.08 626.82 C 669.52 628.72 675.20 626.65 677.26 622.25 C 680.84 614.83 683.93 607.06 685.46 598.93 C 686.09 595.77 685.40 592.19 683.08 589.87 C 680.63 587.42 676.78 586.66 673.53 587.73 M 647.37 640.62 C 644.87 641.43 643.14 643.54 641.55 645.51 C 637.51 650.77 633.05 655.68 628.41 660.39 C 625.96 662.78 624.82 666.50 626.10 669.77 C 627.40 674.21 632.44 677.03 636.91 676.02 C 640.53 675.09 643.18 672.27 645.69 669.68 C 650.06 664.96 654.45 660.19 657.99 654.80 C 659.74 652.26 660.27 648.87 658.99 646.02 C 657.32 641.51 651.88 639.13 647.37 640.62 M 579.46 678.77 C 570.12 680.85 563.37 690.44 564.59 699.95 C 565.33 707.62 571.18 714.47 578.56 716.61 C 585.92 718.88 594.55 716.54 599.50 710.57 C 605.78 703.45 605.59 691.83 599.24 684.81 C 594.53 679.14 586.50 676.99 579.46 678.77 Z" style="fill: rgb(0, 0, 0) !important;"/>
<path fill="#ffffff" opacity="1.00" d=" M 422.52 371.31 C 422.43 365.19 426.86 359.36 433.05 358.55 C 440.56 357.04 448.32 363.51 447.87 371.24 C 454.60 371.39 461.41 370.97 468.07 372.20 C 479.21 374.41 489.78 380.18 497.04 388.99 C 500.00 392.85 500.00 398.36 497.76 402.56 C 495.03 407.63 489.03 409.91 483.50 409.53 C 480.26 418.04 477.31 426.65 474.33 435.26 C 482.89 435.28 491.45 435.17 500.01 435.30 C 507.18 435.70 513.29 442.95 511.82 450.10 C 510.91 456.12 505.18 460.93 499.08 460.68 C 456.40 460.59 413.73 460.67 371.05 460.63 C 363.66 460.76 357.41 453.27 358.72 446.03 C 359.46 440.33 364.49 435.52 370.30 435.35 C 379.01 435.19 387.74 435.28 396.46 435.26 C 393.08 426.81 390.33 418.13 387.32 409.54 C 383.26 409.63 378.88 409.15 375.82 406.18 C 370.54 401.94 369.71 393.32 374.20 388.21 C 381.31 380.06 391.36 374.71 401.86 372.39 C 408.65 370.91 415.63 371.40 422.52 371.31 Z" style="fill: none !important;"/>
<path fill="#ffffff" opacity="1.00" d=" M 678.54 439.78 C 685.35 437.06 693.27 443.99 690.95 451.11 C 690.05 455.86 685.26 457.87 681.14 459.10 C 674.78 461.33 668.86 464.55 663.22 468.20 C 658.30 471.37 651.17 468.41 649.58 462.88 C 648.06 458.71 650.05 454.03 653.74 451.77 C 661.47 446.77 669.81 442.70 678.54 439.78 Z" style="fill: none !important;"/>
<path fill="#ffffff" opacity="1.00" d=" M 632.37 480.56 C 635.90 479.32 640.19 480.43 642.37 483.57 C 644.90 486.76 644.27 491.22 646.47 494.58 C 648.30 498.27 651.14 501.26 653.75 504.38 C 657.42 508.81 655.36 516.25 650.15 518.46 C 646.37 520.41 641.66 519.17 638.85 516.13 C 632.41 509.60 626.71 501.50 626.03 492.06 C 625.25 487.38 627.71 482.12 632.37 480.56 Z" style="fill: none !important;"/>
<path fill="#ffffff" opacity="1.00" d=" M 552.54 486.80 C 556.12 485.30 560.92 486.69 562.57 490.37 C 563.85 492.75 563.31 495.55 562.84 498.09 C 559.06 518.19 550.68 537.69 537.32 553.31 C 526.60 566.43 512.43 575.99 499.02 586.10 C 490.33 592.65 481.90 600.56 478.28 611.12 C 475.50 618.68 475.98 628.14 481.79 634.20 C 488.28 641.44 498.05 643.93 506.91 646.96 C 522.61 651.79 538.18 658.42 550.70 669.29 C 555.43 672.97 553.68 681.50 547.83 682.94 C 542.72 684.78 539.11 680.04 535.41 677.48 C 525.36 670.29 513.82 665.41 502.04 661.86 C 492.02 658.75 481.93 654.99 473.71 648.30 C 464.48 640.96 459.89 628.64 461.05 617.03 C 462.18 604.34 468.79 592.64 477.75 583.79 C 492.11 569.62 510.79 560.46 523.94 544.95 C 535.93 531.54 543.47 514.60 546.92 497.04 C 547.49 493.13 548.24 488.31 552.54 486.80 Z" style="fill: none !important;"/>
<path fill="#ffffff" opacity="1.00" d=" M 664.53 530.67 C 668.26 529.21 673.05 530.24 675.35 533.69 C 679.22 539.25 681.43 545.74 683.54 552.12 C 684.61 555.90 686.27 560.03 684.68 563.91 C 683.05 568.54 677.31 570.93 672.79 569.25 C 669.79 568.25 667.31 565.77 666.64 562.65 C 665.00 556.14 662.52 549.89 659.47 543.93 C 656.84 539.08 659.38 532.56 664.53 530.67 Z" style="fill: none !important;"/>
<path fill="#ffffff" opacity="1.00" d=" M 673.53 587.73 C 676.78 586.66 680.63 587.42 683.08 589.87 C 685.40 592.19 686.09 595.77 685.46 598.93 C 683.93 607.06 680.84 614.83 677.26 622.25 C 675.20 626.65 669.52 628.72 665.08 626.82 C 660.54 625.14 657.93 619.37 659.88 614.89 C 662.52 608.55 665.12 602.18 666.74 595.49 C 667.48 591.95 669.96 588.72 673.53 587.73 Z" style="fill: none !important;"/>
<path fill="#ffffff" opacity="1.00" d=" M 647.37 640.62 C 651.88 639.13 657.32 641.51 658.99 646.02 C 660.27 648.87 659.74 652.26 657.99 654.80 C 654.45 660.19 650.06 664.96 645.69 669.68 C 643.18 672.27 640.53 675.09 636.91 676.02 C 632.44 677.03 627.40 674.21 626.10 669.77 C 624.82 666.50 625.96 662.78 628.41 660.39 C 633.05 655.68 637.51 650.77 641.55 645.51 C 643.14 643.54 644.87 641.43 647.37 640.62 Z" style="fill: none !important;"/>
<path fill="#ffffff" opacity="1.00" d=" M 579.46 678.77 C 586.50 676.99 594.53 679.14 599.24 684.81 C 605.59 691.83 605.78 703.45 599.50 710.57 C 594.55 716.54 585.92 718.88 578.56 716.61 C 571.18 714.47 565.33 707.62 564.59 699.95 C 563.37 690.44 570.12 680.85 579.46 678.77 Z" style="fill: none !important;"/>
</svg>