<svg xmlns="http://www.w3.org/2000/svg" viewBox="76.20890808105469 24.160701751708984 581.3969268798828 679.615421295166" version="1.1">
<path fill="#ffffff" opacity="1.00" d=" M 0.00 0.00 L 714.00 0.00 L 714.00 714.00 L 0.00 714.00 L 0.00 0.00 M 287.41 25.62 C 278.80 27.45 270.81 32.67 266.26 40.28 C 260.58 49.58 259.32 60.96 260.37 71.62 C 260.67 79.49 262.90 87.09 264.53 94.75 C 270.05 116.30 275.33 137.91 280.71 159.50 C 288.60 189.22 295.34 219.21 303.21 248.93 C 308.34 270.68 313.88 292.31 319.26 313.99 C 320.27 318.53 321.22 323.19 320.75 327.86 C 319.96 334.72 309.93 337.73 305.38 332.62 C 301.54 328.19 300.02 322.38 297.80 317.08 C 278.58 265.33 259.22 213.64 239.96 161.91 C 234.75 148.70 230.50 135.00 223.36 122.64 C 218.51 114.50 212.01 106.79 203.13 102.97 C 188.05 95.63 167.58 101.71 159.74 116.74 C 154.77 125.46 154.86 135.86 155.80 145.55 C 157.96 161.08 163.67 175.79 168.61 190.59 C 176.73 212.89 184.16 235.42 192.31 257.71 C 198.88 277.86 206.60 297.61 213.14 317.77 C 218.38 332.34 223.57 346.93 228.53 361.59 C 230.04 366.99 232.34 372.34 232.31 378.03 C 232.36 383.66 225.67 387.85 220.67 385.30 C 216.36 382.59 213.70 378.05 211.28 373.72 C 190.30 334.25 169.76 294.56 149.02 254.97 C 145.53 248.05 141.73 241.24 136.67 235.33 C 131.03 228.60 124.23 222.22 115.61 219.70 C 105.39 216.64 94.05 220.29 86.25 227.24 C 78.44 234.46 75.85 245.74 76.95 256.03 C 78.67 274.85 87.69 291.81 95.21 308.82 C 100.76 321.77 106.43 334.68 112.46 347.42 C 119.27 363.75 127.20 379.57 134.19 395.82 C 145.24 419.82 155.34 444.29 163.53 469.42 C 165.95 477.41 168.56 485.33 170.95 493.33 C 178.65 517.74 184.78 542.61 193.27 566.77 C 198.00 581.38 204.95 595.14 212.42 608.52 C 228.69 636.18 250.57 660.95 277.75 678.28 C 312.03 701.00 355.72 708.70 395.75 699.45 C 407.46 696.65 419.13 693.75 430.81 690.86 C 447.79 686.53 464.90 682.66 481.72 677.72 C 502.85 671.01 522.35 659.59 539.13 645.18 C 546.23 639.65 552.13 632.82 558.44 626.45 C 591.56 589.22 612.57 541.61 618.66 492.20 C 620.02 483.22 620.52 474.15 621.78 465.16 C 623.84 445.61 627.57 426.30 631.15 406.99 C 635.34 384.04 640.45 361.27 644.51 338.30 C 648.22 319.20 651.47 300.02 654.93 280.88 C 655.99 273.68 657.99 266.34 656.67 259.05 C 655.90 253.36 651.21 248.88 646.01 246.95 C 636.43 243.07 625.68 244.25 615.93 246.82 C 599.04 251.17 584.74 262.81 575.12 277.13 C 565.01 291.15 560.41 308.05 555.70 324.43 C 551.86 338.68 547.86 352.88 544.29 367.20 C 541.47 376.38 538.92 385.76 534.32 394.25 C 532.30 398.02 527.93 401.31 523.50 399.65 C 517.28 397.29 515.05 390.27 513.36 384.45 C 507.28 361.03 503.43 337.09 499.86 313.19 C 490.52 247.81 481.64 182.37 472.36 116.98 C 469.91 102.57 468.88 87.79 464.00 73.90 C 460.80 64.54 455.28 55.70 447.22 49.77 C 437.76 42.88 424.63 42.44 414.08 47.01 C 405.99 50.56 400.28 57.99 396.98 65.99 C 392.36 78.00 391.94 91.26 393.67 103.90 C 396.17 125.63 398.90 147.32 401.45 169.04 C 405.74 209.07 411.09 248.99 415.71 288.98 C 416.27 293.92 417.32 299.01 416.18 303.94 C 414.90 309.68 406.80 312.68 402.41 308.53 C 397.52 304.08 396.57 297.16 394.81 291.12 C 380.31 233.68 365.55 176.31 350.95 118.89 C 346.32 101.82 342.21 84.62 337.48 67.58 C 333.59 54.41 327.89 40.92 316.87 32.13 C 308.71 25.61 297.57 23.11 287.41 25.62 Z" style="fill: none !important;"/>
<path fill="#000000" opacity="1.00" d=" M 287.41 25.62 C 297.57 23.11 308.71 25.61 316.87 32.13 C 327.89 40.92 333.59 54.41 337.48 67.58 C 342.21 84.62 346.32 101.82 350.95 118.89 C 365.55 176.31 380.31 233.68 394.81 291.12 C 396.57 297.16 397.52 304.08 402.41 308.53 C 406.80 312.68 414.90 309.68 416.18 303.94 C 417.32 299.01 416.27 293.92 415.71 288.98 C 411.09 248.99 405.74 209.07 401.45 169.04 C 398.90 147.32 396.17 125.63 393.67 103.90 C 391.94 91.26 392.36 78.00 396.98 65.99 C 400.28 57.99 405.99 50.56 414.08 47.01 C 424.63 42.44 437.76 42.88 447.22 49.77 C 455.28 55.70 460.80 64.54 464.00 73.90 C 468.88 87.79 469.91 102.57 472.36 116.98 C 481.64 182.37 490.52 247.81 499.86 313.19 C 503.43 337.09 507.28 361.03 513.36 384.45 C 515.05 390.27 517.28 397.29 523.50 399.65 C 527.93 401.31 532.30 398.02 534.32 394.25 C 538.92 385.76 541.47 376.38 544.29 367.20 C 547.86 352.88 551.86 338.68 555.70 324.43 C 560.41 308.05 565.01 291.15 575.12 277.13 C 584.74 262.81 599.04 251.17 615.93 246.82 C 625.68 244.25 636.43 243.07 646.01 246.95 C 651.21 248.88 655.90 253.36 656.67 259.05 C 657.99 266.34 655.99 273.68 654.93 280.88 C 651.47 300.02 648.22 319.20 644.51 338.30 C 640.45 361.27 635.34 384.04 631.15 406.99 C 627.57 426.30 623.84 445.61 621.78 465.16 C 620.52 474.15 620.02 483.22 618.66 492.20 C 612.57 541.61 591.56 589.22 558.44 626.45 C 552.13 632.82 546.23 639.65 539.13 645.18 C 522.35 659.59 502.85 671.01 481.72 677.72 C 464.90 682.66 447.79 686.53 430.81 690.86 C 419.13 693.75 407.46 696.65 395.75 699.45 C 355.72 708.70 312.03 701.00 277.75 678.28 C 250.57 660.95 228.69 636.18 212.42 608.52 C 204.95 595.14 198.00 581.38 193.27 566.77 C 184.78 542.61 178.65 517.74 170.95 493.33 C 168.56 485.33 165.95 477.41 163.53 469.42 C 155.34 444.29 145.24 419.82 134.19 395.82 C 127.20 379.57 119.27 363.75 112.46 347.42 C 106.43 334.68 100.76 321.77 95.21 308.82 C 87.69 291.81 78.67 274.85 76.95 256.03 C 75.85 245.74 78.44 234.46 86.25 227.24 C 94.05 220.29 105.39 216.64 115.61 219.70 C 124.23 222.22 131.03 228.60 136.67 235.33 C 141.73 241.24 145.53 248.05 149.02 254.97 C 169.76 294.56 190.30 334.25 211.28 373.72 C 213.70 378.05 216.36 382.59 220.67 385.30 C 225.67 387.85 232.36 383.66 232.31 378.03 C 232.34 372.34 230.04 366.99 228.53 361.59 C 223.57 346.93 218.38 332.34 213.14 317.77 C 206.60 297.61 198.88 277.86 192.31 257.71 C 184.16 235.42 176.73 212.89 168.61 190.59 C 163.67 175.79 157.96 161.08 155.80 145.55 C 154.86 135.86 154.77 125.46 159.74 116.74 C 167.58 101.71 188.05 95.63 203.13 102.97 C 212.01 106.79 218.51 114.50 223.36 122.64 C 230.50 135.00 234.75 148.70 239.96 161.91 C 259.22 213.64 278.58 265.33 297.80 317.08 C 300.02 322.38 301.54 328.19 305.38 332.62 C 309.93 337.73 319.96 334.72 320.75 327.86 C 321.22 323.19 320.27 318.53 319.26 313.99 C 313.88 292.31 308.34 270.68 303.21 248.93 C 295.34 219.21 288.60 189.22 280.71 159.50 C 275.33 137.91 270.05 116.30 264.53 94.75 C 262.90 87.09 260.67 79.49 260.37 71.62 C 259.32 60.96 260.58 49.58 266.26 40.28 C 270.81 32.67 278.80 27.45 287.41 25.62 Z" style="fill: rgb(0, 0, 0) !important;"/>
</svg>