<svg xmlns="http://www.w3.org/2000/svg" viewBox="194.08023071289062 169.93589782714844 636.1474914550781 684.0484771728516" version="1.1" width="32" height="38" style="">
<path fill="#ffffff" opacity="1.00" d=" M 0.00 0.00 L 1024.00 0.00 L 1024.00 1024.00 L 0.00 1024.00 L 0.00 0.00 M 673.40 171.53 C 667.62 173.73 664.46 180.03 664.62 185.99 C 664.38 201.39 663.64 216.77 662.37 232.12 C 661.77 237.05 663.79 242.20 667.68 245.30 C 673.35 249.94 682.71 249.12 687.28 243.31 C 691.22 238.85 690.39 232.54 691.01 227.07 C 691.77 212.42 692.75 197.76 692.46 183.09 C 691.97 174.09 681.59 167.80 673.40 171.53 M 769.38 206.51 C 765.38 207.74 762.65 211.06 759.92 214.01 C 750.65 224.35 741.50 234.79 732.08 244.98 C 728.83 248.72 724.90 252.21 723.38 257.07 C 721.51 262.37 723.91 268.45 728.24 271.78 C 733.54 276.04 741.97 275.63 746.53 270.47 C 759.23 257.19 771.44 243.44 783.99 230.01 C 787.60 226.20 789.15 220.41 787.38 215.39 C 785.14 208.18 776.51 203.71 769.38 206.51 M 559.51 270.70 C 554.23 271.60 549.17 273.69 544.79 276.76 C 538.67 280.54 534.48 286.49 529.65 291.66 C 509.41 313.40 489.28 335.24 469.42 357.33 C 423.15 407.77 376.97 458.28 330.68 508.69 C 327.83 511.80 325.19 515.70 320.85 516.77 C 315.54 518.41 310.21 513.94 309.02 508.92 C 307.39 501.99 306.60 494.91 305.64 487.87 C 303.91 473.86 301.50 459.95 299.71 445.94 C 296.62 424.28 289.06 402.33 273.65 386.28 C 261.50 373.35 243.83 365.49 226.00 366.23 C 217.65 366.27 209.00 369.14 203.21 375.35 C 196.89 382.17 194.50 391.92 195.26 401.05 C 196.54 420.99 198.41 440.92 198.33 460.93 C 198.08 511.65 194.93 562.31 194.64 613.03 C 194.04 644.54 197.87 676.64 210.08 705.91 C 224.40 742.63 252.21 771.94 281.51 797.40 C 296.35 809.82 311.66 821.79 328.37 831.64 C 364.05 852.36 407.78 858.68 447.91 849.14 C 464.26 844.90 480.30 838.82 494.57 829.68 C 506.48 822.54 517.19 813.64 527.47 804.36 C 553.37 780.32 577.83 754.82 602.47 729.53 C 654.55 676.27 706.57 622.96 758.72 569.76 C 764.90 563.59 770.28 556.03 771.58 547.20 C 773.44 536.61 769.93 525.10 762.06 517.68 C 755.73 511.61 746.76 508.54 738.03 509.41 C 728.81 509.73 720.43 514.64 713.92 520.90 C 681.27 551.91 648.98 583.30 616.48 614.47 C 613.48 617.35 610.61 621.38 606.01 621.37 C 599.95 621.98 594.65 615.98 595.62 610.05 C 596.82 604.29 602.15 601.00 605.81 596.85 C 651.57 549.96 697.78 503.51 743.86 456.92 C 750.24 450.72 755.37 442.93 757.00 434.07 C 759.11 423.70 757.22 412.07 750.32 403.80 C 743.40 395.05 732.26 389.77 721.07 390.36 C 710.71 390.39 700.91 395.46 693.88 402.88 C 648.60 448.27 603.70 494.04 558.69 539.70 C 555.86 542.23 553.18 545.93 549.02 545.94 C 543.46 546.50 537.87 541.65 538.08 535.99 C 537.74 531.45 541.36 528.15 544.26 525.21 C 567.25 500.87 589.89 476.22 612.68 451.69 C 639.09 423.39 665.61 395.19 692.12 366.99 C 701.12 357.58 705.38 343.88 702.93 331.05 C 699.70 314.25 682.98 301.60 665.97 302.61 C 655.17 302.83 645.30 308.41 638.00 316.09 C 587.05 371.12 535.62 425.73 484.60 480.68 C 481.70 482.96 477.52 484.02 474.16 482.12 C 467.84 479.70 466.02 470.56 470.72 465.77 C 510.23 421.22 550.19 377.06 589.82 332.62 C 599.07 323.10 602.80 308.82 600.02 295.91 C 598.01 288.10 593.38 280.84 586.62 276.32 C 578.85 270.78 568.82 269.10 559.51 270.70 M 807.93 300.97 C 796.26 301.95 784.61 303.10 772.97 304.39 C 767.44 304.89 761.30 304.98 756.93 308.92 C 751.39 313.36 750.82 322.22 755.12 327.70 C 758.11 331.55 763.22 333.39 768.02 332.82 C 784.36 331.03 800.72 329.43 817.12 328.27 C 822.45 327.74 827.34 324.01 828.89 318.82 C 831.37 312.39 828.12 304.81 822.09 301.72 C 817.71 299.27 812.62 300.75 807.93 300.97 Z" style="fill: none !important;"/>
<path fill="#0d0f0e" opacity="1.00" d=" M 673.40 171.53 C 681.59 167.80 691.97 174.09 692.46 183.09 C 692.75 197.76 691.77 212.42 691.01 227.07 C 690.39 232.54 691.22 238.85 687.28 243.31 C 682.71 249.12 673.35 249.94 667.68 245.30 C 663.79 242.20 661.77 237.05 662.37 232.12 C 663.64 216.77 664.38 201.39 664.62 185.99 C 664.46 180.03 667.62 173.73 673.40 171.53 Z" style="fill: rgb(0, 0, 0) !important;"/>
<path fill="#0d0f0e" opacity="1.00" d=" M 769.38 206.51 C 776.51 203.71 785.14 208.18 787.38 215.39 C 789.15 220.41 787.60 226.20 783.99 230.01 C 771.44 243.44 759.23 257.19 746.53 270.47 C 741.97 275.63 733.54 276.04 728.24 271.78 C 723.91 268.45 721.51 262.37 723.38 257.07 C 724.90 252.21 728.83 248.72 732.08 244.98 C 741.50 234.79 750.65 224.35 759.92 214.01 C 762.65 211.06 765.38 207.74 769.38 206.51 Z" style="fill: rgb(0, 0, 0) !important;"/>
<path fill="#0d0f0e" opacity="1.00" d=" M 559.51 270.70 C 568.82 269.10 578.85 270.78 586.62 276.32 C 593.38 280.84 598.01 288.10 600.02 295.91 C 602.80 308.82 599.07 323.10 589.82 332.62 C 550.19 377.06 510.23 421.22 470.72 465.77 C 466.02 470.56 467.84 479.70 474.16 482.12 C 477.52 484.02 481.70 482.96 484.60 480.68 C 535.62 425.73 587.05 371.12 638.00 316.09 C 645.30 308.41 655.17 302.83 665.97 302.61 C 682.98 301.60 699.70 314.25 702.93 331.05 C 705.38 343.88 701.12 357.58 692.12 366.99 C 665.61 395.19 639.09 423.39 612.68 451.69 C 589.89 476.22 567.25 500.87 544.26 525.21 C 541.36 528.15 537.74 531.45 538.08 535.99 C 537.87 541.65 543.46 546.50 549.02 545.94 C 553.18 545.93 555.86 542.23 558.69 539.70 C 603.70 494.04 648.60 448.27 693.88 402.88 C 700.91 395.46 710.71 390.39 721.07 390.36 C 732.26 389.77 743.40 395.05 750.32 403.80 C 757.22 412.07 759.11 423.70 757.00 434.07 C 755.37 442.93 750.24 450.72 743.86 456.92 C 697.78 503.51 651.57 549.96 605.81 596.85 C 602.15 601.00 596.82 604.29 595.62 610.05 C 594.65 615.98 599.95 621.98 606.01 621.37 C 610.61 621.38 613.48 617.35 616.48 614.47 C 648.98 583.30 681.27 551.91 713.92 520.90 C 720.43 514.64 728.81 509.73 738.03 509.41 C 746.76 508.54 755.73 511.61 762.06 517.68 C 769.93 525.10 773.44 536.61 771.58 547.20 C 770.28 556.03 764.90 563.59 758.72 569.76 C 706.57 622.96 654.55 676.27 602.47 729.53 C 577.83 754.82 553.37 780.32 527.47 804.36 C 517.19 813.64 506.48 822.54 494.57 829.68 C 480.30 838.82 464.26 844.90 447.91 849.14 C 407.78 858.68 364.05 852.36 328.37 831.64 C 311.66 821.79 296.35 809.82 281.51 797.40 C 252.21 771.94 224.40 742.63 210.08 705.91 C 197.87 676.64 194.04 644.54 194.64 613.03 C 194.93 562.31 198.08 511.65 198.33 460.93 C 198.41 440.92 196.54 420.99 195.26 401.05 C 194.50 391.92 196.89 382.17 203.21 375.35 C 209.00 369.14 217.65 366.27 226.00 366.23 C 243.83 365.49 261.50 373.35 273.65 386.28 C 289.06 402.33 296.62 424.28 299.71 445.94 C 301.50 459.95 303.91 473.86 305.64 487.87 C 306.60 494.91 307.39 501.99 309.02 508.92 C 310.21 513.94 315.54 518.41 320.85 516.77 C 325.19 515.70 327.83 511.80 330.68 508.69 C 376.97 458.28 423.15 407.77 469.42 357.33 C 489.28 335.24 509.41 313.40 529.65 291.66 C 534.48 286.49 538.67 280.54 544.79 276.76 C 549.17 273.69 554.23 271.60 559.51 270.70 Z" style="fill: rgb(0, 0, 0) !important;"/>
<path fill="#0d0f0e" opacity="1.00" d=" M 807.93 300.97 C 812.62 300.75 817.71 299.27 822.09 301.72 C 828.12 304.81 831.37 312.39 828.89 318.82 C 827.34 324.01 822.45 327.74 817.12 328.27 C 800.72 329.43 784.36 331.03 768.02 332.82 C 763.22 333.39 758.11 331.55 755.12 327.70 C 750.82 322.22 751.39 313.36 756.93 308.92 C 761.30 304.98 767.44 304.89 772.97 304.39 C 784.61 303.10 796.26 301.95 807.93 300.97 Z" style="fill: rgb(0, 0, 0) !important;"/>
</svg>